<?xml version="1.0" standalone="no"?>
<!DOCTYPE svg PUBLIC "-//W3C//DTD SVG 1.1//EN" "http://www.w3.org/Graphics/SVG/1.1/DTD/svg11.dtd" >
<svg xmlns="http://www.w3.org/2000/svg" xmlns:xlink="http://www.w3.org/1999/xlink" version="1.1">
<metadata>
Created by FontForge 20161116 at Fri Nov 18 12:55:04 2016
 By Jimmy Warting
Copyright 2016 Adobe Systems Incorporated. All rights reserved.
</metadata>
<defs>
<font id="RQN-Bold" horiz-adv-x="500" >
  <font-face 
    font-family="RQN"
    font-weight="700"
    font-stretch="normal"
    units-per-em="1000"
    panose-1="0 0 0 0 0 0 0 0 0 0"
    ascent="800"
    descent="-200"
    x-height="411"
    cap-height="648"
    bbox="-93.0143 -327.263 1371.91 919.787"
    underline-thickness="17"
    underline-position="-133"
    stemh="30"
    stemv="87"
    unicode-range="U+0020-FB02"
  />
<missing-glyph 
 />
    <glyph glyph-name=".notdef" 
 />
    <glyph glyph-name="space" unicode=" " horiz-adv-x="226" 
 />
    <glyph glyph-name="exclam" unicode="!" horiz-adv-x="251" 
d="M126 -15c-33 0 -57 26 -57 53c0 29 24 56 59 56c31 0 57 -26 57 -54s-25 -55 -59 -55zM150 155c-3 -19 -49 -23 -49 2c-1 129 -13 298 -27 412c-2 15 25 33 56 37c33 4 62 -10 62 -21c-4 -145 -21 -296 -42 -430z" />
    <glyph glyph-name="quotedbl" unicode="&#x22;" horiz-adv-x="320" 
d="M202 635l-152 -164c-9 -9 -23 -8 -31 -4c-7 3 -18 14 -9 27l130 178c6 7 27 9 45 0c18 -10 25 -28 17 -37zM316 629l-161 -158c-9 -9 -23 -7 -30 -3c-8 4 -17 15 -7 27l140 173c6 8 28 9 44 -2c17 -11 22 -29 14 -37z" />
    <glyph glyph-name="numbersign" unicode="#" horiz-adv-x="716" 
d="M442 183l8 94l7 85l-90 1l-94 -1l-7 -88l-6 -86l90 -1s28 -1 55 -3c14 0 27 -1 37 -1zM659 360l-154 2c-1 -32 -4 -88 -4 -88l-6 -86l148 3c6 0 19 -12 19 -27c0 -16 -13 -27 -19 -27c0 0 -150 18 -150 17l-15 -206c-1 -7 -13 -18 -29 -16c-15 1 -26 13 -25 20l15 187
l-89 1l-93 -1l-15 -191c0 -5 -12 -16 -27 -16c-16 1 -27 12 -26 20l15 187l-148 -2c-5 0 -18 11 -18 27s13 27 18 27l151 -3c3 29 8 89 8 89l6 85l-148 -2c-6 0 -19 12 -18 27c0 16 13 27 18 27l151 -3c4 49 14 191 14 191c0 5 12 16 28 16c16 -1 27 -13 26 -20l-16 -187
l91 -1l93 1l13 191c0 5 13 16 29 15s26 -13 26 -19l-16 -187l147 3c6 0 19 -11 19 -27c0 -15 -13 -27 -19 -27z" />
    <glyph glyph-name="dollar" unicode="$" horiz-adv-x="458" 
d="M255 207l-13 -169c45 6 78 33 78 77c0 40 -26 67 -65 92zM161 447c0 -34 21 -58 54 -80l10 145c-39 -7 -64 -31 -64 -65zM272 510v-10c-1 -17 -2 -40 -4 -63c-2 -40 -4 -81 -5 -100c16 -9 31 -17 46 -27c18 -11 35 -23 50 -37c31 -28 53 -64 53 -113
c0 -92 -70 -171 -174 -180l-2 -32c-1 -7 -13 -18 -29 -16c-15 1 -26 13 -25 20l3 29c-52 6 -95 27 -134 58c-3 2 -8 21 -6 49c1 22 3 50 4 78c1 27 47 18 48 2c5 -73 43 -121 108 -130c0 3 -10 44 -7 88s6 90 7 110c-15 9 -30 17 -44 26c-17 11 -33 22 -48 36
c-29 26 -49 60 -49 105c0 79 67 156 165 166l2 33c0 5 13 16 28 15c16 -1 27 -13 27 -19l-3 -29c37 -4 65 -13 90 -28c8 -4 21 -46 21 -110c0 -7 -10 -18 -25 -17c-15 0 -24 13 -25 16v-2c-8 44 -32 73 -72 82z" />
    <glyph glyph-name="percent" unicode="%" horiz-adv-x="555" 
d="M393 253c-14 0 -44 -27 -44 -110c0 -68 19 -84 32 -84c14 0 45 28 45 110c0 67 -20 84 -33 84zM172 503c-13 0 -44 -28 -44 -111c0 -67 20 -83 33 -83c12 0 44 27 44 110c0 67 -20 84 -33 84zM427 20c-27 -20 -58 -35 -80 -35c-48 0 -93 52 -93 135c0 67 36 132 94 172
c26 19 57 35 79 35c47 0 94 -53 94 -135c0 -67 -38 -133 -94 -172zM490 557l-191 -288l-187 -291c-3 -4 -18 -8 -32 -3c-15 6 -19 23 -16 28l190 288l188 292c3 4 19 8 32 2c15 -7 19 -23 16 -28zM206 269c-28 -19 -58 -33 -80 -33c-47 0 -93 51 -93 133c0 67 36 133 94 173
c27 18 56 34 80 34c47 0 93 -52 93 -134c0 -67 -38 -133 -94 -173z" />
    <glyph glyph-name="ampersand" unicode="&#x26;" horiz-adv-x="719" 
d="M308 207c-26 31 -57 60 -95 83c-50 -20 -79 -59 -79 -103c0 -64 52 -115 130 -115c51 0 81 13 113 45c-22 29 -43 60 -69 90zM256 517c-35 0 -50 -18 -50 -54c0 -22 15 -48 68 -91c33 21 40 45 40 78c0 40 -24 67 -58 67zM570 -13c-72 0 -118 38 -159 86
c-50 -48 -108 -88 -191 -88c-66 0 -191 49 -191 166c0 74 50 135 137 173c-39 37 -55 75 -55 108c0 76 55 136 154 136c72 0 145 -47 145 -116c0 -45 -32 -84 -90 -114c54 -37 96 -88 130 -134c32 42 52 82 52 107c0 12 -18 11 -57 14c-4 0 -16 9 -17 22c-2 16 10 24 20 23
c37 -5 75 -6 125 -6c35 0 85 2 110 6c13 2 23 -8 22 -23c0 -13 -13 -22 -17 -22c-64 -3 -93 -13 -164 -109l-42 -56c46 -62 80 -101 123 -101c29 0 49 5 75 20c5 3 20 2 28 -8c3 -4 13 -19 -1 -30c-33 -26 -88 -54 -137 -54z" />
    <glyph glyph-name="quoteright" unicode="&#x2019;" horiz-adv-x="212" 
d="M36 467c-9 0 -20 8 -20 21c1 13 13 21 17 22c60 2 75 27 75 37c0 9 -5 17 -31 28c-20 9 -40 20 -40 45c0 27 28 44 56 44c45 0 88 -32 88 -86c0 -65 -63 -107 -145 -111z" />
    <glyph glyph-name="parenleft" unicode="(" horiz-adv-x="401" 
d="M432 -294c-182 82 -337 273 -337 525s155 443 337 525c36 16 29 -38 23 -42c-134 -90 -240 -237 -240 -483s106 -393 240 -483c6 -4 13 -58 -23 -42z" />
    <glyph glyph-name="parenright" unicode=")" horiz-adv-x="401" 
d="M-30 -294c-36 -16 -29 38 -23 42c134 90 241 237 241 483s-107 393 -241 483c-6 4 -13 58 23 42c182 -82 337 -273 337 -525s-155 -443 -337 -525z" />
    <glyph glyph-name="asterisk" unicode="*" horiz-adv-x="303" 
d="M294 520l-87 -25l28 -76c9 -23 -31 -33 -42 -20l-54 64l-75 -47c-16 -10 -50 11 -34 31l53 63l-75 47c-21 13 2 44 22 39l88 -24l29 76c9 24 47 8 47 -7v-78h92c24 0 28 -37 8 -43z" />
    <glyph glyph-name="plus" unicode="+" horiz-adv-x="602" 
d="M546 207l-220 2l3 -200c0 -5 -12 -17 -28 -17s-28 12 -28 17l3 200l-220 -2c-6 0 -19 11 -19 26s13 26 19 26l220 -3l-3 201c0 5 12 17 28 17s28 -12 28 -17l-3 -201l220 3c5 0 18 -11 18 -26s-13 -26 -18 -26z" />
    <glyph glyph-name="comma" unicode="," horiz-adv-x="212" 
d="M46 -114c-9 0 -19 9 -18 22c0 12 14 20 17 20c58 0 65 20 65 32c0 7 -3 12 -27 22c-20 9 -36 19 -36 41c0 25 24 41 52 41c41 0 81 -29 81 -78c0 -58 -59 -100 -134 -100z" />
    <glyph glyph-name="hyphen" unicode="-" horiz-adv-x="401" 
d="M340 251l-132 -21l-128 -23c-18 0 -53 45 -12 52l128 20l125 24c12 2 27 -7 30 -22c4 -12 -2 -26 -11 -30z" />
    <glyph glyph-name="period" unicode="." horiz-adv-x="212" 
d="M105 -15c-33 0 -56 20 -56 41c0 22 23 43 58 43c33 0 57 -20 57 -41c0 -22 -25 -43 -59 -43z" />
    <glyph glyph-name="slash" unicode="/" horiz-adv-x="346" 
d="M366 695l-331 -1010c-3 -9 -16 -15 -29 -11s-20 17 -17 26l330 1010c2 8 16 15 29 11c14 -4 21 -17 18 -26z" />
    <glyph glyph-name="zero" unicode="0" 
d="M250 583c-103 0 -103 -186 -103 -270s0 -270 103 -270s103 186 103 270s0 270 -103 270zM250 -14c-161 0 -222 178 -222 327c0 143 61 327 222 327s222 -184 222 -327c0 -149 -61 -327 -222 -327z" />
    <glyph glyph-name="one" unicode="1" 
d="M380 -3c-43 2 -87 3 -122 3c-36 0 -80 -1 -123 -3c-23 10 -20 38 -6 52l47 3c34 3 29 18 29 79v325c0 67 -4 73 -34 75l-51 4c-20 9 -25 38 -2 49c85 14 138 39 166 56c12 0 21 -4 30 -15c-3 -23 -5 -70 -5 -124v-370c0 -61 -5 -76 29 -79l48 -3c14 -14 17 -42 -6 -52z
" />
    <glyph glyph-name="two" unicode="2" 
d="M425 -3c-48 2 -90 3 -136 3h-145c-55 0 -88 -1 -114 -3c-9 4 -19 12 -19 27c0 5 6 15 18 22c44 28 76 59 150 136c66 68 139 157 139 253c0 81 -40 125 -110 125c-52 0 -91 -34 -118 -92c-20 -10 -51 -4 -51 25c35 93 120 147 216 147c108 0 180 -70 180 -170
c0 -64 -31 -133 -111 -220l-61 -67c-76 -83 -87 -96 -87 -101c0 -4 2 6 16 6h124c46 0 71 6 84 17c9 8 15 14 19 20c4 5 7 11 12 20c18 7 37 3 49 -14c-14 -54 -33 -107 -55 -134z" />
    <glyph glyph-name="three" unicode="3" 
d="M317 391c77 -12 144 -67 144 -160c0 -74 -37 -147 -102 -201c-77 -65 -167 -86 -219 -86c-43 0 -114 14 -114 74c0 26 21 52 54 52c17 0 29 -7 39 -16c5 -4 9 -8 12 -13l9 -12c12 -16 20 -23 41 -23c57 0 164 76 164 174c0 81 -39 142 -114 142c-44 0 -76 -21 -102 -48
c-32 4 -51 25 -40 59c45 19 124 54 162 84c22 17 48 42 48 81c0 43 -30 68 -67 68c-52 0 -93 -31 -126 -83c-21 -4 -45 4 -45 30c35 74 113 127 196 127c87 0 154 -46 154 -125c0 -44 -19 -84 -94 -124z" />
    <glyph glyph-name="four" unicode="4" 
d="M421 665l-312 -415h10h155c11 0 13 1 13 11v176c0 8 1 23 16 32c14 8 39 17 58 18c14 1 24 -5 28 -17c1 -4 2 -9 2 -13v-14v-185c0 -6 0 -8 5 -8h69c22 -16 20 -51 1 -69h-60c-11 0 -15 2 -15 -7v-43c0 -62 -4 -75 30 -78l31 -4c14 -13 17 -42 -6 -52c-40 2 -76 3 -107 3
c-36 0 -81 -1 -128 -3c-23 10 -20 39 -6 52l51 4c34 2 31 18 31 78v41c0 10 -2 9 -14 9h-239c-20 0 -29 17 -29 31c0 17 7 26 21 45l321 430c8 10 18 19 35 19h17c22 0 30 -11 30 -22c0 -8 -5 -15 -8 -19z" />
    <glyph glyph-name="five" unicode="5" 
d="M70 -68c-28 10 -26 44 -7 58c156 9 278 97 278 218s-134 156 -254 158c-26 0 -35 10 -23 48l53 171c5 18 13 33 38 36l241 33c20 3 26 -16 26 -25c-8 -26 -25 -51 -44 -71l-194 -27c-14 -2 -18 -4 -22 -16l-18 -57l22 -1c126 -4 279 -66 279 -224
c0 -178 -210 -296 -375 -301z" />
    <glyph glyph-name="six" unicode="6" 
d="M255 -14c-158 0 -230 119 -230 254c0 85 29 208 138 311c108 100 233 132 300 140c21 -8 25 -33 10 -47c-35 -11 -71 -24 -109 -42c-37 -18 -75 -43 -110 -78c-82 -83 -110 -185 -110 -281c0 -112 40 -199 124 -199c62 0 98 53 98 132c0 80 -37 146 -108 146
c-9 0 -17 -1 -24 -3c-7 -1 -13 -3 -23 -6c-22 10 -22 28 -13 41c34 20 66 33 109 33c106 0 174 -82 174 -186c0 -120 -93 -215 -226 -215z" />
    <glyph glyph-name="seven" unicode="7" 
d="M398 436l-258 -499c-29 -3 -53 6 -60 33l286 553c6 12 4 15 -9 15h-200c-54 0 -69 -2 -97 -46c-17 -7 -37 -4 -47 19c12 31 27 71 39 119c29 -3 63 -4 117 -4h169c57 0 121 0 134 3c14 -3 22 -13 22 -27c-30 -45 -59 -95 -96 -166z" />
    <glyph glyph-name="eight" unicode="8" 
d="M222 288c-57 -31 -77 -84 -77 -129c0 -65 44 -116 108 -116c62 0 101 39 101 102c0 64 -62 112 -132 143zM256 583c-59 0 -90 -43 -90 -92c0 -54 53 -90 115 -119c39 25 66 63 66 112c0 53 -38 99 -91 99zM247 -14c-97 0 -204 46 -204 169c0 80 59 133 119 166
c-51 32 -97 79 -98 150c-1 108 92 169 199 169c94 0 181 -52 181 -154c0 -75 -57 -118 -104 -145c62 -37 118 -90 118 -180c0 -110 -92 -175 -211 -175z" />
    <glyph glyph-name="nine" unicode="9" 
d="M314 54c-76 -65 -176 -102 -249 -114c-22 7 -29 34 -13 49c62 18 111 40 147 66c88 62 148 156 148 334c0 91 -28 193 -108 193c-54 0 -97 -38 -97 -117c0 -75 38 -147 100 -147c24 0 30 1 46 5c19 -10 19 -25 13 -36c-25 -21 -60 -33 -102 -33c-90 0 -167 69 -167 176
c0 123 98 210 220 210c137 0 214 -114 214 -259c0 -108 -46 -237 -152 -327z" />
    <glyph glyph-name="colon" unicode=":" horiz-adv-x="212" 
d="M105 -17c-33 0 -56 25 -56 52s23 54 58 54c33 0 57 -25 57 -52c0 -28 -25 -54 -59 -54zM105 263c-33 0 -56 24 -56 51s23 54 58 54c33 0 57 -25 57 -52c0 -28 -26 -53 -59 -53z" />
    <glyph glyph-name="semicolon" unicode=";" horiz-adv-x="212" 
d="M46 -114c-9 0 -19 10 -18 24c0 13 14 22 17 22c58 0 65 22 65 36c0 7 -3 13 -27 24c-20 9 -36 20 -36 45c0 27 24 45 52 45c41 0 81 -32 81 -86c0 -64 -59 -110 -134 -110zM105 262c-33 0 -56 24 -56 51c0 28 24 55 58 55c33 0 57 -25 57 -53s-25 -53 -59 -53z" />
    <glyph glyph-name="less" unicode="&#x3c;" horiz-adv-x="834" 
d="M323 357c-4 6 -9 12 -13 17c-21 28 -43 60 -43 104c0 58 36 111 105 111c31 0 73 -16 102 -45c16 -22 -19 -43 -33 -35c-8 4 -10 1 -10 -4s5 -6 11 -10c10 -6 24 -12 38 -20c30 -16 64 -42 64 -94c0 -43 -23 -88 -55 -114c18 -5 35 -11 51 -18c31 75 84 124 148 124
c70 0 121 -57 121 -121c0 -61 -37 -106 -88 -106c-33 0 -61 22 -61 56c0 29 23 52 50 52c7 0 14 -1 20 -3v2c0 18 -17 38 -56 38c-27 0 -59 -19 -86 -68c63 -41 100 -102 100 -187c0 -77 -42 -138 -107 -138c-35 0 -75 22 -89 52c-5 7 -1 20 12 26c12 7 27 0 29 -3l-1 2
c2 -3 9 -8 20 4c12 12 25 38 25 87c0 60 -38 106 -88 136c12 -26 20 -57 20 -90c0 -73 -52 -118 -107 -118c-12 0 -20 2 -27 4c-2 1 -5 1 -7 2c-2 0 -3 1 -4 1s-1 -2 -1 -4c0 -3 2 -9 16 -22c11 -10 -19 -43 -29 -38c-70 31 -102 79 -102 136c0 35 14 71 40 105l-2 -1
c-6 -6 -13 -11 -20 -16c-7 -6 -14 -11 -21 -15c-14 -9 -31 -16 -48 -16c-36 0 -54 23 -66 41c-4 4 -6 8 -9 12s-6 7 -8 9c-5 5 -9 7 -14 7c-8 0 -19 -6 -19 -27c0 -6 0 -11 1 -17c5 -15 -44 -22 -47 -15c-11 23 -16 44 -16 68c0 98 101 183 198 183c34 0 72 -11 106 -34z
" />
    <glyph glyph-name="equal" unicode="=" horiz-adv-x="652" 
d="M595 144l-269 3l-270 -3c-6 0 -19 10 -18 24c0 14 13 24 18 24l270 -3l269 3c5 0 18 -10 18 -24c1 -14 -12 -24 -18 -24zM595 275l-269 3l-270 -3c-5 0 -18 10 -18 24s13 24 18 24l270 -3l269 3c5 0 18 -10 18 -24s-13 -24 -18 -24z" />
    <glyph glyph-name="greater" unicode="&#x3e;" horiz-adv-x="834" 
d="M512 358c33 22 71 33 105 33c97 0 199 -84 199 -183c0 -24 -7 -46 -17 -68c-3 -7 -52 0 -47 15c1 6 2 11 2 17c0 21 -12 27 -20 27c-5 0 -9 -2 -14 -7c-2 -2 -5 -5 -8 -9s-5 -8 -9 -12c-12 -18 -30 -41 -66 -41c-17 0 -34 7 -48 16c-7 4 -14 9 -21 15c-7 5 -14 11 -21 16
c26 -33 40 -69 40 -104c0 -57 -35 -106 -104 -136c-6 -3 -55 13 -28 38c15 13 17 20 17 22s0 4 -2 4c-1 0 -2 -1 -4 -1c-2 -1 -5 -1 -7 -2c-7 -2 -15 -4 -27 -4c-55 0 -106 45 -106 118c0 33 7 64 19 90c-49 -30 -87 -76 -87 -136c0 -49 12 -76 24 -87c11 -12 17 -7 19 -4
l-1 -2c2 3 17 10 29 4c14 -7 18 -20 13 -27c-14 -30 -54 -52 -89 -52c-66 0 -106 61 -106 138c0 85 36 146 99 187c-27 49 -59 68 -87 68c-37 0 -54 -20 -54 -38v-2c6 2 12 3 19 3c27 0 51 -22 51 -52c0 -35 -30 -56 -62 -56c-51 0 -87 46 -87 106c0 64 49 121 120 121
c64 0 117 -49 148 -124c16 7 33 13 51 18c-31 26 -54 71 -54 114c0 52 34 78 64 94c14 8 28 14 38 20c6 4 11 5 11 10c0 4 -2 9 -11 4c-14 -8 -49 13 -33 35c29 29 71 45 102 45c69 0 106 -53 106 -111c0 -44 -22 -76 -44 -104c-4 -5 -8 -11 -12 -16z" />
    <glyph glyph-name="question" unicode="?" horiz-adv-x="361" 
d="M124 -15c-31 0 -57 26 -57 53c0 29 25 56 59 56c31 0 58 -25 58 -54s-27 -55 -60 -55zM67 615v-1c2 5 6 11 17 10c1 0 2 0 4 -1c2 0 4 -1 7 -2c13 -4 20 -16 20 -19c-2 -7 -2 -11 -2 -15c0 -9 4 -24 102 -51c85 -24 128 -62 128 -136c0 -65 -30 -101 -135 -141
c-59 -22 -74 -46 -74 -65c0 -7 1 -15 5 -26c2 -6 -4 -19 -15 -24c-14 -7 -27 0 -30 7v-1c-15 33 -25 60 -25 84c0 49 31 86 96 113l98 41c19 8 20 12 20 18c0 1 -3 11 -29 18l-92 25c-69 18 -111 48 -111 101c0 18 6 41 16 65z" />
    <glyph glyph-name="at" unicode="@" horiz-adv-x="662" 
d="M352 362c-28 0 -76 -66 -76 -131c0 -18 -3 -27 5 -27c11 0 42 24 64 54l20 101c-4 2 -8 3 -13 3zM433 452l-3 -3c5 4 16 7 25 1c4 -2 13 -10 11 -22c-6 -25 -26 -99 -38 -178c-8 -53 5 -69 26 -69c56 0 89 49 89 120c0 112 -77 216 -216 216c-108 0 -202 -99 -202 -241
c0 -129 96 -230 234 -230c53 0 105 20 145 48c9 7 23 4 32 -6c9 -11 7 -26 1 -31c-53 -42 -129 -71 -209 -71c-184 0 -290 129 -290 264c0 158 129 325 313 325c163 0 273 -108 273 -233c0 -126 -98 -218 -183 -218c-55 0 -85 24 -94 65c-29 -32 -66 -61 -89 -61
c-42 0 -72 34 -72 88c0 79 76 150 133 188c26 17 46 25 64 25c7 0 14 -1 21 -2c12 12 25 22 29 25z" />
    <glyph glyph-name="A" unicode="A" horiz-adv-x="718" 
d="M412 294l-73 192l-89 -192h162zM441 41h-2c12 1 22 2 31 3c8 1 14 2 19 3c6 2 7 3 7 9c0 12 -4 28 -11 49c-7 20 -17 43 -26 67l-26 67h-208l-31 -68c-13 -28 -24 -51 -31 -71c-7 -19 -11 -33 -11 -44c0 -16 16 -13 50 -15c7 -1 18 -10 18 -24c1 -15 -10 -25 -23 -23
c-30 4 -52 6 -93 6c-58 0 -59 -1 -100 -6c-13 -2 -23 8 -22 24c1 13 14 23 18 23c58 4 79 35 130 144l217 462c10 21 41 15 47 -1l185 -462c46 -116 62 -139 137 -144c10 -3 18 -49 -8 -46c-30 4 -72 6 -113 6c-58 0 -109 0 -151 -6c-13 -2 -23 8 -22 24c1 13 14 22 19 23z
" />
    <glyph glyph-name="B" unicode="B" horiz-adv-x="639" 
d="M269 465v-100c3 2 6 4 9 4c118 0 156 29 156 107c0 86 -51 116 -132 116c-11 0 -18 -1 -27 -2c-5 -26 -6 -60 -6 -125zM269 365v-192c0 -109 1 -122 68 -122c105 0 154 32 154 135c0 83 -75 150 -211 136c-8 -1 -21 8 -21 23c0 9 5 16 10 20zM71 603h2c-5 1 -17 9 -19 21
c-2 14 5 26 22 24c41 -5 70 -6 128 -6c23 0 89 4 122 4c116 0 223 -51 223 -159c0 -48 -36 -97 -89 -126c88 -21 150 -80 150 -160c0 -117 -105 -205 -263 -205c-34 0 -102 4 -126 4c-57 0 -104 -1 -145 -6c-16 -2 -24 10 -22 25c1 12 14 21 19 22h-2c11 1 21 2 30 3
c8 1 14 2 20 3c11 3 16 7 20 12c9 14 11 44 11 119v286c0 74 -2 105 -11 120c-4 5 -9 9 -20 12c-6 1 -13 3 -21 4s-18 2 -29 3z" />
    <glyph glyph-name="C" unicode="C" horiz-adv-x="736" 
d="M670 35c-39 -29 -106 -55 -231 -55c-238 0 -390 154 -390 329c0 166 164 353 394 353c96 0 199 -37 223 -55c8 -6 23 -80 25 -145c0 -13 -43 -14 -46 -5c-16 69 -84 148 -226 148c-141 0 -248 -95 -248 -261c0 -204 142 -305 277 -305c100 0 193 57 200 144
c0 4 11 16 25 16c14 -1 24 -11 24 -19c-3 -65 -18 -139 -27 -145z" />
    <glyph glyph-name="D" unicode="D" horiz-adv-x="823" 
d="M369 589c-54 0 -78 -2 -94 -4c-4 -25 -6 -57 -6 -120v-322c0 -81 2 -89 145 -89c136 0 241 88 241 246c0 193 -110 289 -286 289zM71 603h2c-5 1 -17 9 -19 21c-2 14 5 26 22 24c41 -5 111 -6 169 -6c25 0 118 4 154 4c246 0 376 -137 376 -315
c0 -183 -158 -335 -389 -335c-35 0 -126 4 -150 4c-58 0 -119 -1 -160 -6c-16 -2 -24 10 -22 25c1 12 14 21 19 22h-2c11 1 21 2 30 3c8 1 14 2 20 3c11 3 16 7 20 12c9 14 11 44 11 119v286c0 74 -2 105 -11 120c-4 5 -9 9 -20 12c-6 1 -13 3 -21 4s-18 2 -29 3z" />
    <glyph glyph-name="E" unicode="E" horiz-adv-x="634" 
d="M531 124v-2c1 3 11 16 26 15c14 -2 23 -13 22 -21c-4 -24 -14 -70 -20 -91c-7 -24 -19 -30 -42 -30c-37 0 -101 5 -175 5c-101 0 -203 -1 -276 -6c-14 -1 -23 10 -21 25c1 12 14 21 19 22h-2c25 2 43 4 57 7c13 3 18 7 22 12c10 14 11 43 11 118v286c0 76 -1 105 -11 119
c-4 5 -9 9 -22 12c-14 4 -32 5 -57 8h2c-5 1 -17 9 -19 21c-2 15 5 26 21 25c73 -5 170 -7 272 -7c74 0 141 2 222 9c-12 -37 -13 -52 -13 -72v-19c0 -6 0 -12 1 -15c1 -9 -8 -20 -24 -19c-12 0 -22 9 -24 13c-5 30 -11 44 -145 44h-83c-2 -25 -3 -64 -3 -114v-108h88
c56 0 78 2 87 6c2 1 3 1 3 2c1 1 1 2 1 5c1 2 2 6 3 9c2 7 39 9 50 -1c-6 -21 -8 -42 -8 -64c0 -10 0 -28 1 -35v0c1 -9 -7 -20 -23 -20c-12 0 -23 9 -25 13c-5 26 -12 31 -89 31h-88v-126c0 -108 7 -121 47 -121h53c139 0 149 7 162 64z" />
    <glyph glyph-name="F" unicode="F" horiz-adv-x="607" 
d="M82 41h-2c71 7 72 10 72 137v286c0 76 -1 105 -11 119c-3 5 -9 9 -21 12c-14 4 -32 5 -57 8c-7 1 -17 10 -18 22c-1 14 8 25 21 24c74 -5 175 -7 277 -7c74 0 138 5 175 5c23 0 36 -10 42 -31c3 -12 5 -30 6 -46c1 -15 2 -31 4 -43c3 -18 -44 -17 -47 -9
c-2 8 -3 15 -5 21s-3 11 -5 16c-4 7 -8 12 -15 16c-17 9 -50 12 -128 12h-97c-3 -24 -4 -62 -4 -114v-112h54c65 0 94 4 108 10c6 3 8 5 10 8c1 2 2 4 3 8c1 3 1 7 2 11v-3c1 4 11 16 25 15c9 -1 18 -5 26 -13c-7 -24 -11 -50 -11 -75v-22c1 -9 1 -15 2 -18
c5 -13 -5 -24 -21 -25c-13 -1 -25 8 -27 16c-6 31 -18 33 -117 33h-54v-124c0 -36 0 -63 1 -83c2 -20 5 -31 9 -37c3 -5 8 -9 20 -11c6 -2 13 -3 22 -4s19 -1 31 -2c7 -1 18 -11 18 -24c1 -15 -10 -25 -22 -23c-32 4 -84 6 -127 6c-57 0 -93 0 -136 -6c-13 -2 -23 8 -22 24
c1 13 14 22 19 23z" />
    <glyph glyph-name="G" unicode="G" horiz-adv-x="777" 
d="M695 237c-4 -8 -7 -18 -9 -37c-1 -18 -1 -42 -1 -72c0 -23 -2 -42 28 -65c-109 -56 -184 -83 -284 -83c-238 0 -380 153 -380 328c0 167 165 354 394 354c99 0 204 -44 227 -60c8 -6 19 -78 13 -143c-3 -38 -46 -8 -47 -1c-5 66 -85 147 -217 147
c-141 0 -248 -96 -248 -262c0 -204 133 -305 268 -305c105 0 122 32 124 38c3 10 5 36 5 57c0 110 -4 118 -98 125c-7 0 -18 10 -19 22c-1 6 1 27 23 24c42 -6 106 -6 163 -6c42 0 90 1 121 6c14 1 24 -8 23 -23c0 -12 -11 -23 -18 -23c-47 -3 -61 -9 -68 -21z" />
    <glyph glyph-name="H" unicode="H" horiz-adv-x="887" 
d="M841 17c1 -15 -10 -25 -22 -23c-32 4 -90 6 -131 6c-58 0 -94 0 -137 -6c-13 -2 -23 8 -22 23c1 12 11 22 18 24c68 6 71 10 71 137v120h-349v-120c0 -122 -2 -133 73 -138c10 -3 18 -49 -8 -46c-30 4 -70 6 -113 6c-56 0 -111 0 -154 -6c-13 -2 -23 8 -22 23
c1 12 11 23 18 24c24 3 43 4 57 7c12 3 18 7 21 12c10 14 11 42 11 118v286c0 76 -1 105 -11 119c-3 5 -9 9 -21 12c-14 3 -32 5 -57 8c-7 1 -17 11 -18 22c-1 15 8 25 22 23c43 -6 98 -6 154 -6c43 0 83 2 113 6c22 2 23 -19 23 -23c-1 -12 -13 -22 -18 -22
c-73 -6 -70 -17 -70 -139v-110h349v110c0 128 -2 131 -71 139c-7 1 -17 11 -18 22c-1 15 8 25 22 23c43 -6 79 -6 137 -6c41 0 99 1 130 6c14 2 24 -7 23 -22c0 -12 -11 -22 -18 -23c-44 -3 -67 -3 -78 -20c-4 -7 -7 -18 -8 -38s-1 -46 -1 -81v-286c0 -35 0 -61 1 -81
c1 -19 4 -30 8 -37c11 -17 33 -16 78 -19c7 -1 18 -11 18 -24z" />
    <glyph glyph-name="I" unicode="I" horiz-adv-x="451" 
d="M86 603h2c-5 1 -17 9 -19 21c-2 14 5 26 22 24c42 -5 88 -6 146 -6c41 0 91 2 121 6c22 2 24 -18 23 -23c-1 -13 -12 -21 -19 -22c-82 -6 -77 -16 -77 -139v-286c0 -34 0 -60 1 -80c2 -20 5 -31 9 -38c9 -17 29 -17 67 -19c7 -1 18 -11 19 -23c1 -15 -7 -26 -23 -24
c-30 4 -80 6 -121 6c-58 0 -104 -1 -146 -6c-16 -2 -24 10 -22 25c1 12 14 21 19 22h-2c11 1 21 2 30 3c8 1 14 2 20 3c11 3 16 7 20 12c9 14 11 44 11 119v286c0 74 -2 105 -11 120c-4 5 -9 9 -20 12c-6 1 -13 3 -21 4s-18 2 -29 3z" />
    <glyph glyph-name="J" unicode="J" horiz-adv-x="415" 
d="M86 603h2c-5 0 -17 9 -19 21c-2 14 5 26 22 24c42 -5 88 -6 146 -6c41 0 90 2 121 6c22 2 24 -18 23 -23c-1 -13 -12 -22 -19 -22c-82 -7 -77 -16 -77 -140v-290c0 -196 -63 -300 -262 -375c-20 -8 -26 40 -18 43c131 54 162 125 162 332v290c0 74 -2 105 -11 120
c-4 6 -9 9 -20 12c-6 2 -13 3 -21 4s-18 2 -29 4z" />
    <glyph glyph-name="K" unicode="K" horiz-adv-x="720" 
d="M62 603h2c-5 1 -17 10 -19 22c-1 15 8 25 23 23c41 -6 96 -6 153 -6c42 0 82 1 112 6c14 2 24 -7 23 -22c0 -13 -12 -23 -17 -23c-73 -6 -70 -17 -70 -139v-286c0 -122 -2 -133 73 -138c6 -2 15 -13 15 -25c-1 -14 -10 -23 -24 -21c-30 5 -70 6 -112 6
c-57 0 -112 0 -154 -6c-13 -2 -23 8 -22 24c1 13 14 22 19 23h-2c25 2 43 4 57 7c13 3 18 7 22 12c10 14 11 42 11 118v286c0 76 -1 105 -11 119c-4 5 -9 9 -22 12c-14 4 -32 5 -57 8zM464 603h1c-4 1 -16 9 -18 21c-2 14 5 26 22 24c31 -4 71 -4 114 -4c31 0 62 1 84 4
c23 3 23 -19 23 -24c-3 -12 -15 -21 -19 -21c-40 -3 -65 -12 -94 -34c-15 -11 -31 -26 -51 -45s-43 -43 -72 -71l-105 -105l171 -157c32 -29 57 -53 79 -72c22 -20 39 -34 56 -46c31 -21 57 -30 98 -33c7 -1 18 -11 18 -24c1 -15 -9 -24 -23 -22c-30 5 -84 6 -126 6
c-57 0 -108 0 -152 -6c-13 -1 -23 8 -22 24c1 12 12 22 18 23c11 1 20 2 28 3c6 0 10 1 12 2c-1 0 -3 1 -4 0c-9 13 -25 31 -46 52c-22 21 -47 44 -72 68l-150 143l162 167c23 24 46 47 66 68c19 21 33 38 41 51c1 2 6 1 4 2c-3 1 -7 2 -15 3s-17 2 -28 3z" />
    <glyph glyph-name="L" unicode="L" horiz-adv-x="586" 
d="M528 114v-3c1 4 11 16 24 16c16 -1 25 -12 23 -20c-3 -28 -8 -61 -15 -82c-7 -24 -20 -30 -42 -30c-37 0 -92 5 -166 5c-102 0 -212 -1 -286 -6c-13 -1 -22 10 -21 24c1 12 11 22 18 23c24 3 43 4 57 7c12 3 18 7 21 12c10 14 11 42 11 118v286c0 75 -2 105 -11 120
c-3 5 -9 9 -19 12c-6 1 -13 3 -21 4s-18 2 -29 3c-7 1 -17 11 -18 22c-1 15 8 25 22 23c43 -6 89 -6 145 -6c43 0 92 2 122 6c22 2 23 -19 23 -23c-1 -12 -13 -22 -18 -22c-39 -3 -59 -3 -69 -20c-4 -7 -7 -19 -9 -39c-1 -20 -1 -46 -1 -80v-286c0 -102 0 -115 44 -115h57
c140 0 146 2 158 51z" />
    <glyph glyph-name="M" unicode="M" horiz-adv-x="967" 
d="M924 18c1 -16 -9 -26 -23 -24c-31 4 -88 6 -130 6c-57 0 -93 0 -136 -6c-14 -2 -24 8 -23 23c1 12 11 22 18 24c69 6 71 10 69 136l-5 274l-205 -447c-7 -15 -36 -19 -46 1l-210 424l-5 -252c-2 -126 -2 -130 77 -136c4 -1 17 -11 17 -24c1 -15 -10 -25 -23 -23
c-30 4 -56 6 -98 6c-57 0 -81 0 -122 -6c-14 -2 -24 8 -23 23c1 13 12 23 18 24c80 9 81 18 83 137l7 335c1 57 -28 83 -98 90c-7 2 -17 12 -18 23c-1 16 9 25 23 23c49 -7 91 -7 186 -7l235 -481l136 299c29 62 57 123 74 185c77 -6 140 -2 188 4c16 2 24 -9 23 -24
c-1 -12 -14 -22 -18 -22c-44 -3 -68 -3 -78 -20c-4 -7 -7 -18 -8 -38c-1 -19 -1 -45 0 -79l6 -288c1 -34 1 -60 3 -80c2 -19 5 -30 9 -37c11 -17 34 -17 79 -20c4 -1 17 -11 18 -23z" />
    <glyph glyph-name="N" unicode="N" horiz-adv-x="858" 
d="M581 603h2c-5 1 -17 10 -19 22c-1 15 8 25 23 23c40 -6 64 -6 121 -6c42 0 70 2 99 6c19 2 25 -14 24 -23c0 -5 -4 -21 -20 -22c-78 -7 -78 -11 -78 -139v-287c0 -47 2 -133 7 -174c0 -29 -38 -17 -44 -12l-468 468v-282c0 -31 0 -56 1 -75c2 -19 5 -31 9 -39
c7 -13 21 -19 69 -23c4 0 17 -10 18 -22c1 -15 -7 -26 -23 -24c-30 3 -57 5 -98 5c-58 0 -82 -1 -123 -5c-16 -2 -24 9 -22 24c1 13 14 22 19 22h-2c80 8 81 18 81 137v336c0 34 -57 85 -99 90h2c-5 1 -17 9 -19 21c-2 14 5 26 22 24c41 -5 80 -7 144 -7l455 -457v280
c0 119 0 131 -81 139z" />
    <glyph glyph-name="O" unicode="O" horiz-adv-x="862" 
d="M417 605c-142 0 -248 -96 -248 -262c0 -203 142 -305 276 -305c142 0 249 95 249 261c0 203 -143 306 -277 306zM421 -20c-220 0 -372 157 -372 331c0 167 162 351 391 351c221 0 374 -157 374 -330c0 -168 -163 -352 -393 -352z" />
    <glyph glyph-name="P" unicode="P" horiz-adv-x="618" 
d="M71 602h2c-5 1 -18 9 -19 22c-2 15 5 26 22 24c41 -5 70 -6 128 -6c25 0 92 4 129 4c137 0 239 -65 239 -172c0 -123 -114 -197 -278 -197h-16c-13 0 -13 47 0 47c4 0 10 -1 15 -1c112 0 160 41 160 136c0 88 -49 133 -147 133c-12 0 -21 -1 -31 -2
c-5 -26 -6 -60 -6 -125v-288c0 -34 0 -60 1 -80c2 -19 5 -31 9 -38c9 -16 30 -16 68 -19c7 -1 18 -11 18 -24c1 -15 -9 -24 -23 -22c-30 5 -79 6 -121 6c-57 0 -104 -1 -145 -6c-17 -2 -24 10 -22 24c1 13 14 21 19 22h-2c11 1 21 2 29 3s15 2 21 4c11 3 16 6 20 12
c9 14 11 44 11 118v287c0 75 -2 105 -11 119c-4 5 -9 9 -20 12c-6 2 -13 3 -21 4s-18 2 -29 3z" />
    <glyph glyph-name="Q" unicode="Q" horiz-adv-x="862" 
d="M416 603c-143 0 -248 -96 -248 -264c0 -206 142 -308 277 -308c141 0 249 95 249 263c0 206 -143 309 -278 309zM1345 -195l-1 -1c7 2 21 -3 26 -16c5 -12 0 -25 -13 -29c-107 -29 -204 -45 -295 -45c-223 0 -408 88 -654 259c-214 5 -359 160 -359 333
c0 169 161 356 391 356c220 0 373 -159 373 -335c0 -134 -103 -280 -260 -333c212 -133 398 -215 596 -215c64 0 127 8 196 26z" />
    <glyph glyph-name="R" unicode="R" horiz-adv-x="701" 
d="M306 595c-12 0 -21 0 -32 -1c-4 -21 -5 -61 -5 -120v-145h23c146 0 188 49 188 117c0 119 -79 149 -174 149zM787 3c1 -14 -6 -25 -20 -25c-237 0 -358 149 -406 300c-24 -3 -50 -4 -68 -4h-24v-97c0 -34 0 -60 1 -80c2 -20 5 -31 9 -38c9 -16 30 -16 69 -19
c4 0 17 -10 18 -23c1 -14 -7 -25 -23 -24c-30 4 -79 6 -122 6c-57 0 -103 0 -145 -6c-13 -1 -23 8 -22 24c1 14 14 23 18 23c11 1 20 2 29 3c8 1 15 2 21 4c10 3 16 6 19 11c9 15 11 45 11 119v288c0 95 6 128 -44 128c-10 0 -23 -2 -36 -4c-7 -1 -20 6 -23 18
c-1 6 -2 22 14 27c44 13 147 17 256 17c144 0 281 -43 281 -164c0 -57 -35 -136 -136 -181c58 -133 205 -281 304 -281c4 0 17 -9 19 -22z" />
    <glyph glyph-name="S" unicode="S" horiz-adv-x="534" 
d="M414 511v-2c-11 64 -53 96 -119 96c-58 0 -105 -35 -105 -84c0 -33 16 -57 41 -80c13 -11 28 -21 45 -32c17 -10 36 -20 54 -30c73 -41 155 -89 155 -190c0 -113 -91 -209 -220 -209c-75 0 -136 23 -192 67c-3 3 -7 22 -5 52c1 23 4 53 6 87c1 25 47 20 48 1
c6 -92 58 -149 152 -149c63 0 118 33 118 98c0 35 -16 61 -42 84c-13 12 -29 23 -46 34c-18 11 -36 21 -55 31c-74 41 -158 89 -158 185s88 192 212 192c61 0 101 -13 138 -32c9 -5 23 -45 23 -117c0 -7 -10 -18 -25 -18c-14 0 -24 11 -25 16z" />
    <glyph glyph-name="T" unicode="T" horiz-adv-x="720" 
d="M714 653v1c-5 -21 -8 -44 -8 -76c0 -16 0 -37 2 -47c1 -6 -2 -15 -14 -18c-3 -1 -6 -1 -9 -1c-14 -1 -24 12 -25 15v-2c-6 31 -11 52 -141 52h-90v-399c0 -34 0 -60 1 -80c2 -20 5 -31 9 -38c9 -17 30 -16 69 -19c7 -1 18 -11 19 -24c0 -14 -9 -25 -24 -23
c-30 4 -80 6 -121 6c-58 0 -103 0 -146 -6c-13 -2 -23 8 -22 23c1 12 11 23 18 24c11 1 21 2 29 3s15 2 21 3c10 3 15 7 18 12c9 14 11 45 11 119v399h-95c-126 0 -136 -20 -148 -62c-13 -3 -19 -4 -23 -3c-16 1 -22 14 -20 20l-1 -1c4 18 5 49 5 77c0 16 -2 32 -4 44
c-5 13 8 20 10 20c4 2 8 2 10 2c5 0 12 0 24 -3c10 -37 17 -31 147 -31h303c132 0 141 -7 148 22v-3c1 4 11 16 25 16c15 -1 24 -13 22 -22z" />
    <glyph glyph-name="U" unicode="U" horiz-adv-x="838" 
d="M713 473v-239c0 -138 -99 -254 -285 -254c-159 0 -292 97 -292 260v224c0 74 -2 105 -11 120c-3 5 -8 9 -19 12c-6 1 -12 3 -20 4s-17 2 -28 3c-16 1 -20 17 -20 22c-1 6 2 25 23 23c42 -5 88 -6 145 -6c42 0 93 2 122 6c22 2 24 -18 23 -24c-1 -12 -13 -21 -18 -21
c-39 -3 -59 -3 -69 -20c-4 -7 -7 -19 -9 -39c-1 -20 -1 -46 -1 -80v-205c0 -143 104 -203 200 -203c127 0 192 63 192 187v230c0 118 -7 121 -85 130c-7 1 -17 10 -18 22c-1 6 2 25 23 23c42 -5 67 -6 125 -6c41 0 70 2 100 6c20 2 24 -17 24 -22c-1 -13 -11 -22 -19 -23
c-80 -6 -83 -16 -83 -130z" />
    <glyph glyph-name="V" unicode="V" horiz-adv-x="740" 
d="M632 457l-218 -462c-8 -17 -37 -18 -46 2l-204 461c-12 28 -22 51 -31 70c-10 19 -18 32 -27 43c-16 19 -35 29 -78 32c-4 0 -16 9 -18 22c-1 15 8 25 23 23c30 -5 71 -6 112 -6c58 0 109 0 152 6c13 2 23 -7 22 -22c0 -12 -10 -22 -17 -23c-11 -1 -21 -2 -30 -4
c-8 -1 -14 -2 -19 -4c-6 -2 -7 -3 -7 -9c0 -15 13 -53 40 -115l136 -316l146 316c34 72 42 97 42 115c0 16 -18 14 -52 17c-4 0 -16 9 -18 21c-2 15 5 26 22 24c30 -4 53 -6 95 -6c29 0 43 1 55 1c12 1 23 3 43 5c28 3 20 -43 6 -45c-62 -7 -72 -23 -129 -146z" />
    <glyph glyph-name="W" unicode="W" horiz-adv-x="1041" 
d="M868 603h2c-5 0 -17 9 -19 21c-2 15 5 26 22 24c28 -4 58 -6 97 -6c27 0 40 0 51 1c12 1 21 2 40 5c15 2 24 -8 23 -23c-2 -13 -14 -22 -18 -22c-53 -5 -69 -35 -117 -145l-202 -462c-6 -14 -36 -22 -45 1l-138 372l-172 -374c-7 -14 -37 -20 -46 2l-193 461
c-48 116 -61 140 -130 145c-7 1 -18 9 -19 22c0 5 1 26 23 23c27 -4 67 -6 105 -6c53 0 120 1 158 6c17 2 24 -9 22 -24c-2 -12 -14 -21 -18 -21c-35 -3 -57 -1 -57 -21c0 -17 22 -80 35 -111l130 -309l131 290l-3 6c-12 28 -22 51 -31 70s-17 33 -25 43
c-15 20 -32 29 -67 32c-4 0 -16 9 -18 22c-1 14 8 25 22 23c28 -4 67 -6 105 -6c53 0 128 0 166 6c14 2 24 -7 23 -22c0 -13 -12 -23 -17 -23c-49 -4 -68 -3 -68 -26c0 -18 9 -50 29 -107l108 -304l128 309c12 28 20 49 27 67c5 17 8 29 8 39s0 17 -52 22z" />
    <glyph glyph-name="X" unicode="X" horiz-adv-x="741" 
d="M484 603h2c-5 1 -17 9 -19 21c-2 14 5 26 22 24c41 -5 62 -6 120 -6c42 0 68 1 98 6c14 2 24 -7 23 -22c0 -12 -11 -22 -18 -23c-49 -3 -74 -10 -98 -29c-13 -10 -26 -23 -42 -43c-16 -19 -35 -44 -59 -76l-78 -104l99 -143c25 -34 44 -62 61 -84c16 -22 30 -38 44 -50
c26 -22 51 -30 99 -33c7 -1 18 -11 18 -24c1 -15 -10 -25 -22 -23c-32 4 -80 6 -121 6c-58 0 -113 -1 -155 -6c-16 -2 -24 9 -22 25c1 12 14 21 19 22h-2c29 3 45 0 41 16c-2 9 -9 23 -23 45s-33 51 -58 87l-47 69l-68 -91c-23 -31 -42 -56 -55 -75c-14 -20 -21 -32 -22 -40
c-4 -14 12 -10 42 -12c8 -1 19 -11 19 -23c1 -5 -2 -25 -23 -23c-29 4 -56 6 -98 6c-58 0 -79 -1 -120 -6c-16 -2 -24 9 -23 24c1 11 11 21 18 23c91 9 98 13 199 147l94 124l-85 122c-103 145 -115 160 -205 169c-7 2 -17 11 -18 22c-1 6 2 25 23 23c41 -5 97 -6 155 -6
c41 0 89 1 120 6c14 2 24 -7 23 -22c0 -13 -11 -23 -18 -23c-30 -3 -44 -2 -40 -19c2 -10 10 -24 24 -47c14 -22 33 -49 57 -84l33 -48l53 71c51 68 73 99 76 115c3 14 -14 9 -43 12z" />
    <glyph glyph-name="Y" unicode="Y" horiz-adv-x="763" 
d="M248 41h-2c11 1 21 2 30 3c8 1 15 2 21 4c10 3 16 6 19 11c9 15 11 44 11 119v127l-88 129c-98 143 -119 161 -196 169c-7 2 -17 11 -18 22c-1 16 8 25 23 23c41 -6 87 -6 144 -6c42 0 91 2 121 6c22 2 23 -19 23 -23c-1 -13 -14 -22 -18 -22c-31 -2 -45 -3 -41 -20
c3 -10 10 -25 24 -47c14 -21 34 -49 57 -83l55 -78l74 101c24 33 43 58 56 77c13 20 19 31 20 38c3 14 -13 9 -42 12c-7 1 -17 11 -18 22c-1 15 8 25 23 23c40 -6 62 -6 120 -6c41 0 58 2 89 6c21 2 24 -18 23 -23c-1 -12 -12 -21 -19 -22c-78 -6 -94 -21 -189 -148
l-106 -141v-136c0 -34 0 -60 1 -80c2 -20 5 -31 9 -38c9 -16 30 -16 69 -19c4 0 17 -10 18 -23c1 -15 -7 -26 -23 -24c-30 4 -79 6 -122 6c-57 0 -103 0 -145 -6c-13 -2 -23 8 -22 24c1 13 14 22 19 23z" />
    <glyph glyph-name="Z" unicode="Z" horiz-adv-x="700" 
d="M607 147v-2c0 4 11 16 25 16c14 -1 24 -13 24 -17c0 -32 -12 -99 -20 -119c-8 -22 -17 -30 -41 -30c-44 0 -121 5 -210 5c-121 0 -225 -2 -313 -6c-24 -1 -29 27 -19 39l435 550h-213c-128 0 -136 -13 -148 -75c-14 -3 -20 -3 -25 -3c-16 1 -22 15 -20 21c2 7 2 33 2 50
c0 21 -2 41 -6 74c75 -6 178 -8 252 -8c121 0 209 1 296 6c31 8 26 -33 22 -38l-431 -545h230c144 0 149 11 160 82z" />
    <glyph glyph-name="bracketleft" unicode="[" horiz-adv-x="360" 
d="M382 -279c-47 17 -101 26 -273 26v968c172 0 226 9 273 26c28 10 36 -28 22 -39c-23 -24 -81 -44 -182 -56v-830c101 -12 158 -32 182 -56c14 -11 6 -49 -22 -39z" />
    <glyph glyph-name="backslash" unicode="\" horiz-adv-x="331" 
d="M348 -326c-13 -4 -26 2 -29 11l-331 1010c-3 9 4 22 18 26c13 4 27 -3 29 -11l330 -1010c3 -9 -4 -22 -17 -26z" />
    <glyph glyph-name="bracketright" unicode="]" horiz-adv-x="360" 
d="M-13 -279c-28 -10 -36 28 -22 39c24 24 81 45 184 56v830c-104 12 -161 34 -184 56c-12 11 -6 49 22 39c47 -17 101 -26 275 -26v-968c-174 0 -228 -9 -275 -26z" />
    <glyph glyph-name="asciicircum" unicode="^" horiz-adv-x="700" 
d="M639 122c-14 2 -24 13 -24 17c-4 52 -29 60 -123 69l-77 8l10 -72c11 -88 17 -110 75 -114c5 -1 25 -47 -1 -47c-51 0 -101 7 -149 22c-49 -15 -98 -22 -150 -22c-10 0 -20 11 -18 25c2 12 14 21 18 22c57 4 64 27 75 114l10 72l-77 -8c-95 -9 -119 -17 -124 -69
c0 -4 -9 -15 -23 -17c-15 -2 -26 8 -26 17c0 49 8 91 23 136c-15 44 -23 88 -23 136c0 9 11 19 27 16c13 -1 22 -13 22 -16c5 -53 29 -59 124 -70l77 -8l-10 73c-11 87 -18 110 -75 114c-4 1 -16 10 -18 22c-2 14 8 25 18 25c52 0 101 -8 150 -22c48 14 98 22 149 22
c15 0 22 -12 19 -26c-3 -12 -15 -20 -19 -21c-57 -4 -64 -27 -75 -114l-10 -73l78 8c94 11 119 18 123 70c0 4 10 15 24 17c15 2 27 -8 27 -17c0 -49 -10 -92 -24 -136c14 -45 24 -87 24 -136c0 -9 -12 -19 -27 -17z" />
    <glyph glyph-name="underscore" unicode="_" horiz-adv-x="659" 
d="M587 -2l-258 1l-257 -1c-6 0 -19 6 -19 15c0 8 13 14 19 14l257 -2l258 2c4 0 18 -6 18 -14c0 -9 -13 -15 -18 -15z" />
    <glyph glyph-name="quoteleft" unicode="&#x2018;" horiz-adv-x="212" 
d="M94 577c0 -9 4 -17 29 -28c21 -10 41 -20 41 -45c0 -27 -29 -43 -56 -43c-45 0 -87 31 -87 85c0 65 61 108 144 112c9 0 20 -8 20 -21c-1 -13 -13 -21 -17 -22c-60 -2 -74 -27 -74 -38z" />
    <glyph glyph-name="a" unicode="a" horiz-adv-x="426" 
d="M135 89c0 -22 15 -33 47 -33c28 0 48 7 75 28c1 16 2 44 3 68c-114 -11 -125 -41 -125 -63zM341 -17c-35 0 -63 17 -75 46c-40 -27 -88 -43 -133 -43c-66 0 -108 40 -108 94c0 64 74 108 237 119c1 34 2 73 2 90c0 25 -8 42 -21 49c-8 4 -25 8 -50 8
c-21 0 -43 -3 -43 -12c0 -4 1 -7 2 -11c2 -5 3 -11 3 -18c0 -32 -48 -53 -82 -53c-19 0 -41 12 -39 36c5 47 128 130 224 130c63 0 109 -44 110 -113c1 -41 -6 -178 -5 -229c0 -19 4 -34 62 -16c6 2 13 1 15 0c3 -1 5 -3 6 -5s3 -4 4 -6c6 -10 3 -21 -3 -26
c-36 -24 -70 -40 -106 -40z" />
    <glyph glyph-name="b" unicode="b" horiz-adv-x="516" 
d="M253 346c-29 0 -62 -9 -85 -21v-238c23 -22 64 -30 107 -30c67 0 108 42 108 140c0 102 -56 149 -130 149zM135 733l-3 -3c4 4 17 9 28 3c10 -5 15 -16 14 -23c-5 -16 -6 -97 -6 -134v-190c44 22 85 36 139 36c102 0 188 -88 188 -199c0 -119 -117 -237 -264 -237
c-17 0 -31 2 -45 4s-26 4 -38 7c-23 4 -43 7 -66 3c-30 -6 -30 28 -27 36s7 39 7 109v428c0 54 -5 53 -43 42c-30 -9 -28 32 -17 40c21 11 47 24 71 37c24 14 47 28 62 41z" />
    <glyph glyph-name="c" unicode="c" horiz-adv-x="414" 
d="M223 -14c-117 0 -202 86 -202 195c0 124 125 237 283 237c47 0 96 -19 96 -47c0 -18 -23 -66 -51 -66c-10 0 -20 3 -29 7c-9 3 -18 8 -28 13c-19 8 -39 16 -63 16c-66 0 -99 -33 -99 -122c0 -113 65 -160 128 -160c48 0 85 17 114 37c5 4 20 3 29 -8c7 -9 6 -21 0 -27
c-37 -35 -101 -75 -178 -75z" />
    <glyph glyph-name="d" unicode="d" horiz-adv-x="530" 
d="M347 94v216c-27 25 -66 45 -114 45c-62 0 -105 -40 -105 -137c0 -106 73 -155 136 -155c24 0 48 8 83 31zM527 31l1 1c-35 -17 -107 -48 -135 -48c-16 0 -32 24 -40 50c-48 -32 -94 -48 -138 -48c-104 0 -194 87 -194 200c0 125 112 236 257 236c25 0 48 -3 69 -7v158
c0 54 -6 53 -42 42h1c-4 -1 -19 1 -25 13c-4 10 -2 20 7 27c21 11 46 24 70 37c24 14 47 28 62 41l-3 -3c4 4 17 9 28 4c11 -6 16 -17 15 -24c-5 -16 -6 -97 -6 -134v-481c0 -33 15 -31 59 -20l-2 -1c4 1 20 -3 25 -16c4 -12 -2 -23 -9 -27z" />
    <glyph glyph-name="e" unicode="e" horiz-adv-x="440" 
d="M227 361c-37 0 -71 -26 -88 -79l175 4c-8 37 -40 75 -87 75zM414 60l1 1c-41 -42 -114 -75 -183 -75c-126 0 -211 85 -211 203c0 121 116 229 233 229c111 0 171 -77 171 -140c0 -6 -1 -12 -3 -16c-1 -4 -2 -8 -6 -22l-285 -7v-16c0 -116 70 -159 135 -159
c43 0 87 14 119 37l-1 -1c5 3 13 6 22 0l6 -6c9 -10 8 -22 2 -28z" />
    <glyph glyph-name="f" unicode="f" horiz-adv-x="323" 
d="M34 350h2c-9 0 -21 8 -22 23c-2 16 11 28 15 28c32 2 54 4 69 8v27c0 169 110 298 246 298c41 0 99 -27 99 -55c0 -22 -28 -71 -57 -71c-10 0 -20 4 -28 8c-9 4 -17 9 -27 14c-18 10 -36 18 -55 18c-53 0 -73 -26 -73 -194v-41h37c44 0 69 0 79 2c8 2 19 0 23 -15
c1 -5 2 -11 2 -17c0 -17 -10 -34 -19 -36c-13 1 -35 2 -72 2h-50v-240c0 -55 3 -63 86 -67c4 0 17 -10 17 -23c1 -16 -10 -25 -22 -23c-21 4 -102 4 -130 4c-38 0 -84 0 -112 -4c-13 -2 -23 8 -22 24c2 12 14 22 19 22h-2c55 6 61 8 61 67v240c-24 0 -55 1 -64 1z" />
    <glyph glyph-name="g" unicode="g" horiz-adv-x="453" 
d="M283 -53l-117 -3c-41 -19 -52 -39 -52 -67c0 -36 33 -78 129 -78c95 0 138 42 138 85c0 34 -31 64 -98 63zM215 364c-50 0 -73 -31 -73 -92c0 -87 57 -126 97 -126c41 0 67 29 67 88c0 90 -46 130 -91 130zM392 334c13 -22 20 -47 20 -74c0 -70 -53 -136 -131 -161
c-98 -33 -116 -35 -116 -42c0 -3 6 -22 55 -20l76 2c128 3 179 -49 179 -115c0 -117 -150 -195 -274 -195c-122 0 -198 61 -198 127c0 48 38 91 100 115c-31 23 -53 56 -53 75c0 15 19 30 47 40c10 4 21 7 31 11c-53 33 -92 83 -92 149c0 89 80 173 197 173
c43 0 72 -12 115 -12c45 0 71 1 79 3c12 3 29 -15 29 -39c0 -23 -17 -41 -29 -39c-5 1 -9 1 -17 2h-18z" />
    <glyph glyph-name="h" unicode="h" horiz-adv-x="526" 
d="M150 733l-2 -3c3 4 16 9 27 3c10 -5 14 -15 13 -23c-2 -7 -4 -30 -4 -59c-1 -27 -1 -57 -1 -75l-1 -203c67 43 114 57 161 57c86 0 117 -55 117 -134v-187c0 -54 2 -62 59 -66c4 0 16 -10 17 -23c1 -15 -12 -25 -20 -24c-21 3 -80 4 -108 4c-39 0 -70 0 -98 -4v0
c-10 -1 -22 8 -20 24c1 13 13 23 17 23c41 4 48 10 48 66v145c0 81 -21 102 -57 102c-27 0 -48 -6 -116 -44v-203c0 -61 4 -62 46 -66c7 0 18 -10 18 -24c1 -14 -10 -25 -22 -23c-19 3 -63 4 -91 4c-38 0 -86 0 -114 -4v0c-10 -1 -21 8 -20 24c0 13 14 23 17 23h-2
c56 6 63 7 63 66v464c0 54 -6 53 -42 42c-31 -10 -28 32 -18 40c21 11 47 24 71 37c24 14 47 28 62 41z" />
    <glyph glyph-name="i" unicode="i" horiz-adv-x="273" 
d="M257 42h-2c5 -1 17 -10 18 -23c1 -15 -12 -24 -20 -23c-29 4 -70 4 -108 4s-82 0 -111 -4c-8 -1 -21 8 -20 23c1 13 13 22 18 23h-2c55 6 61 8 61 67v161c0 54 -5 53 -42 41c-32 -10 -28 33 -18 40c21 12 46 25 71 39c24 14 46 29 62 43l-3 -3c4 3 17 9 28 3
c10 -5 15 -16 14 -23c-5 -17 -6 -100 -6 -136v-165c0 -59 5 -61 60 -67zM156 525c-33 0 -59 27 -59 58s26 60 61 60c34 0 62 -27 62 -58c0 -32 -28 -60 -64 -60z" />
    <glyph glyph-name="j" unicode="j" horiz-adv-x="265" 
d="M164 430l-3 -3c4 4 17 9 28 3c10 -5 15 -16 14 -23c-5 -16 -6 -101 -6 -138v-257c0 -164 -44 -202 -170 -292c-13 -9 -35 34 -33 36c81 80 97 115 97 256v253c0 55 -6 54 -42 43c-7 -2 -20 2 -25 13c-6 12 -2 24 8 27c21 11 46 25 70 39s46 29 62 43zM156 524
c-33 0 -60 27 -60 58s26 62 62 62c35 0 61 -28 61 -59c0 -33 -28 -61 -63 -61z" />
    <glyph glyph-name="k" unicode="k" horiz-adv-x="483" 
d="M150 733l-2 -3c4 4 16 9 27 3c10 -5 14 -15 13 -23c-5 -16 -6 -97 -6 -133v-468c0 -61 4 -62 46 -66c7 0 18 -10 18 -24c1 -14 -10 -25 -22 -23c-19 3 -64 4 -92 4c-39 0 -84 0 -112 -4c-13 -2 -23 8 -22 23c1 13 15 23 18 23h-2c56 6 63 8 63 67v464c0 54 -7 53 -42 42
c-7 -2 -54 23 -18 41c21 10 46 23 70 36c25 14 47 28 63 41zM272 378h2c-3 0 -16 9 -18 22c-1 16 11 25 20 24c29 -3 47 -4 86 -4c28 0 74 0 93 3c12 1 22 -8 22 -22c0 -13 -12 -23 -17 -23c-41 -4 -83 -35 -134 -81l-67 -61l138 -134c37 -36 71 -57 102 -59
c4 0 17 -11 16 -25c0 -15 -12 -23 -22 -22h1c-19 3 -77 4 -105 4c-39 0 -65 0 -93 -4c-8 -1 -21 8 -20 23c0 13 13 23 17 23h-2c25 4 21 6 -14 42l-129 131l123 109c33 29 45 49 1 54z" />
    <glyph glyph-name="l" unicode="l" horiz-adv-x="259" 
d="M243 42h-2c5 0 17 -9 18 -22c1 -16 -12 -25 -20 -24c-29 4 -72 4 -111 4s-80 0 -109 -4c-8 -1 -21 8 -20 24c1 13 13 22 18 22h-2c55 6 62 8 62 67v464c0 54 -6 53 -42 42c-31 -10 -28 32 -18 40c21 11 47 24 71 37c24 14 47 28 62 41l-3 -3c4 4 17 9 28 3
c10 -5 15 -16 14 -23c-5 -16 -6 -97 -6 -133v-468c0 -59 5 -61 60 -67z" />
    <glyph glyph-name="m" unicode="m" horiz-adv-x="801" 
d="M152 424l-2 -3c4 4 16 8 26 2c8 -4 13 -11 14 -16c1 -11 3 -30 4 -48c52 32 111 60 150 60c54 0 91 -22 109 -66c53 34 113 61 162 61c81 0 119 -45 119 -132v-176c0 -59 4 -61 48 -64c4 -1 17 -11 16 -24c0 -15 -12 -23 -21 -22v0c-21 3 -67 4 -95 4c-39 0 -70 0 -98 -4
v0c-10 -1 -22 8 -20 23c1 13 13 23 17 23c41 4 48 9 48 64v135c0 85 -21 100 -53 100c-28 0 -62 -9 -112 -40c1 -4 1 -9 1 -13v-182c0 -59 5 -61 49 -64c4 -1 17 -11 16 -24c0 -15 -12 -23 -21 -22v0c-21 3 -64 4 -92 4c-39 0 -73 0 -102 -4c-8 -1 -21 9 -20 24
c2 13 14 22 17 22c42 4 48 9 48 64v141c0 84 -17 100 -58 100c-20 0 -53 -14 -106 -44v-197c0 -59 4 -60 47 -64c4 0 17 -10 17 -23c0 -15 -11 -24 -21 -23v0c-21 3 -64 4 -92 4c-38 0 -85 0 -113 -4v0c-10 -1 -21 8 -20 23c0 13 14 23 17 23h-2c56 5 62 7 62 64v157
c0 43 -6 53 -42 41c-13 -4 -48 26 -18 41c41 20 88 51 121 79z" />
    <glyph glyph-name="n" unicode="n" horiz-adv-x="540" 
d="M152 424l-2 -3c4 4 16 8 26 2c8 -4 13 -11 14 -16c1 -11 3 -30 4 -48c70 43 117 60 163 60c86 0 117 -55 117 -131v-182c0 -52 2 -61 59 -64c4 -1 16 -10 17 -23c0 -15 -13 -24 -21 -23c-18 3 -77 4 -107 4c-39 0 -70 0 -98 -4v0c-10 -1 -22 8 -20 23c1 13 13 23 17 23
c41 4 48 9 48 64v141c0 80 -14 100 -57 100c-27 0 -48 -6 -116 -44v-197c0 -59 4 -60 47 -64c4 0 17 -10 17 -23c0 -15 -11 -24 -21 -23v0c-21 3 -64 4 -92 4c-38 0 -85 0 -113 -4v0c-10 -1 -21 8 -20 23c0 13 14 23 17 23h-2c56 5 62 7 62 64v157c0 43 -6 53 -42 41
c-13 -4 -48 26 -18 41c41 20 88 51 121 79z" />
    <glyph glyph-name="o" unicode="o" horiz-adv-x="512" 
d="M239 363c-69 0 -107 -57 -107 -130c0 -125 59 -191 141 -191c68 0 106 56 106 129c0 125 -60 192 -140 192zM250 -14c-140 0 -229 100 -229 209c0 115 91 223 240 223c140 0 231 -100 231 -209c0 -115 -93 -223 -242 -223z" />
    <glyph glyph-name="p" unicode="p" horiz-adv-x="524" 
d="M268 329c-27 0 -54 -8 -84 -23v-233c37 -18 78 -25 109 -25c55 0 100 48 100 145c0 92 -63 136 -125 136zM140 425l-2 -2c4 3 15 8 26 3c7 -3 14 -11 15 -16c2 -9 2 -22 2 -34v-10c45 29 91 44 130 44c111 0 194 -91 194 -196c0 -114 -118 -238 -271 -238
c-16 0 -33 1 -50 4v-125c0 -59 10 -62 86 -64c5 0 17 -9 18 -22c2 -15 -9 -25 -19 -24c-29 1 -105 1 -134 1c-39 -1 -74 -3 -101 -8v0c-9 -1 -21 7 -21 22c0 13 11 22 16 23h-1c51 7 50 12 50 70v166c-9 4 -18 9 -43 23l43 60v157c0 54 -7 54 -43 42l1 1c-4 -2 -19 1 -25 13
c-4 9 -2 20 7 26c41 22 90 56 122 84z" />
    <glyph glyph-name="q" unicode="q" horiz-adv-x="516" 
d="M350 71v212c-27 34 -69 57 -118 57c-59 0 -102 -35 -102 -124c0 -118 78 -166 140 -166c26 0 53 4 80 21zM302 -216h-2c47 6 50 12 50 70v153c-34 -21 -75 -31 -126 -31c-85 0 -203 65 -203 199c0 118 110 235 253 235c43 0 77 -11 108 -27c14 13 26 27 35 39
c15 18 47 -1 44 -20c-3 -13 -5 -54 -5 -86v-461c0 -56 4 -63 73 -65c4 0 17 -10 17 -24c0 -15 -11 -24 -21 -22c-18 3 -92 2 -121 2c-40 -1 -72 -3 -98 -8v0c-9 -1 -21 7 -21 22c0 14 12 23 17 24z" />
    <glyph glyph-name="r" unicode="r" horiz-adv-x="363" 
d="M192 407v1c1 -9 3 -27 4 -48c47 47 87 69 114 69c39 0 69 -45 69 -62c0 -20 -28 -65 -52 -65c-8 0 -15 3 -20 6c-15 8 -33 22 -50 22c-14 0 -30 -6 -60 -39v-185c0 -54 1 -62 86 -65c3 0 16 -10 16 -23c1 -15 -10 -24 -22 -22c-21 3 -101 4 -129 4c-39 0 -85 0 -114 -4
c-8 -1 -21 8 -20 23c1 13 13 21 18 22h-2c55 6 61 8 61 65v158c0 53 -6 52 -43 40l1 1c-4 -2 -19 1 -25 13c-4 9 -2 19 7 25c41 22 90 54 122 81l-2 -2c3 3 15 8 27 2c8 -4 13 -13 14 -17z" />
    <glyph glyph-name="s" unicode="s" horiz-adv-x="359" 
d="M171 -14c-48 0 -94 13 -128 30c-4 2 -14 73 -14 119c0 8 28 17 45 13c25 -85 70 -110 114 -110c41 0 55 18 55 51c0 17 -9 31 -26 45c-8 6 -18 13 -30 19c-11 7 -23 14 -35 20c-48 26 -107 58 -107 121c0 66 59 124 158 124c40 0 69 -6 96 -19c6 -3 21 -64 21 -108
c0 -7 -45 -12 -48 -6c-17 52 -57 83 -91 83c-25 0 -40 -15 -40 -45c0 -16 9 -29 25 -41c8 -7 18 -13 29 -19l36 -18c48 -24 106 -56 106 -122c0 -74 -69 -137 -166 -137z" />
    <glyph glyph-name="t" unicode="t" horiz-adv-x="337" 
d="M34 379l-1 -1c49 32 91 70 133 113c5 5 44 9 40 -18c-2 -14 -5 -45 -7 -68h37c21 0 39 0 54 1c16 0 25 1 29 2c8 3 21 -1 24 -18c1 -6 1 -13 0 -20c-2 -21 -18 -38 -29 -36c-9 1 -27 2 -65 2h-51l-4 -221c-1 -46 20 -57 56 -57c20 0 46 3 71 9c12 0 37 -25 16 -41
c-46 -26 -108 -40 -139 -40c-75 0 -109 37 -108 108l4 242h-46c-29 -4 -26 35 -14 43z" />
    <glyph glyph-name="u" unicode="u" horiz-adv-x="513" 
d="M518 30h1c-35 -16 -108 -46 -135 -46c-17 0 -36 23 -43 65c-44 -34 -100 -63 -149 -63c-74 0 -128 44 -127 131l3 178c1 35 -4 40 -48 41c-4 0 -15 6 -18 17c-5 12 3 23 12 25c42 7 88 23 118 39l-3 -3c5 3 16 7 27 0c7 -5 12 -12 13 -17c2 -17 3 -58 3 -92l-2 -147
c-1 -85 16 -98 63 -98c29 0 61 13 105 48l3 192c1 35 -3 40 -48 43c-4 0 -15 7 -18 17c-5 14 4 24 13 25v0c41 7 89 20 122 38c10 0 31 -10 32 -24c2 -17 3 -60 3 -94l-2 -213c0 -27 1 -35 61 -20h-2c4 1 20 -3 25 -16c4 -12 -2 -23 -9 -26z" />
    <glyph glyph-name="v" unicode="v" horiz-adv-x="438" 
d="M301 366h2c-5 1 -17 9 -19 21c-1 15 9 25 21 24c28 -3 41 -4 80 -4c27 0 56 0 75 3c12 2 22 -8 22 -21s-12 -23 -17 -23c-46 -3 -61 -17 -85 -71l-129 -297c-8 -17 -41 -19 -49 -1l-130 298c-25 57 -42 68 -84 71c-8 1 -18 11 -18 23c1 13 10 23 23 21
c19 -3 73 -3 101 -3c38 0 72 1 101 4c9 1 21 -8 20 -23c-1 -12 -13 -21 -18 -22h2c-38 -4 -41 -13 -21 -59l72 -167l72 167c19 44 16 55 -21 59z" />
    <glyph glyph-name="w" unicode="w" horiz-adv-x="683" 
d="M545 366h2c-4 1 -16 9 -18 22c-1 15 11 24 20 23c29 -3 42 -4 80 -4c28 0 57 0 76 3c11 2 21 -7 22 -21c0 -13 -13 -23 -16 -23c-47 -3 -61 -18 -85 -72l-130 -296c-8 -18 -42 -19 -49 0l-93 237l-102 -237c-8 -17 -41 -19 -49 -1l-130 298c-25 57 -42 68 -84 71
c-8 1 -18 11 -18 23c1 13 10 23 23 21c18 -3 72 -3 100 -3c39 0 73 1 102 4c9 1 21 -8 20 -23c-2 -13 -14 -21 -18 -22h2c-38 -4 -41 -13 -21 -59l72 -167l74 171c-20 44 -35 52 -75 55c-5 1 -16 10 -17 22c-1 15 9 24 22 22c21 -3 73 -3 101 -3c38 0 72 1 101 4
c9 1 21 -8 20 -23c-1 -12 -13 -21 -18 -22h2c-38 -4 -43 -13 -25 -60l62 -159l68 160c19 45 17 55 -21 59z" />
    <glyph glyph-name="x" unicode="x" horiz-adv-x="458" 
d="M283 366h2c-5 1 -17 9 -19 21c-1 15 9 25 21 24c26 -3 33 -4 70 -4c27 0 65 1 84 4c8 1 20 -7 21 -22c0 -13 -13 -22 -16 -23c-38 -3 -70 -33 -107 -76l-60 -68l96 -125c27 -35 54 -53 83 -55c3 -1 16 -11 16 -24c-1 -14 -13 -23 -22 -22c-16 3 -73 4 -101 4
c-37 0 -55 0 -80 -4v0c-10 -1 -21 7 -21 21c-1 12 8 23 13 24c25 4 28 9 3 42c0 0 -32 44 -51 67l-47 -55c-42 -47 -31 -50 3 -53h-2c5 -1 17 -10 18 -23c1 -15 -12 -24 -20 -23c-27 4 -28 4 -65 4c-27 0 -71 -1 -90 -4c-8 -1 -21 8 -21 22c1 14 13 23 17 24
c24 1 53 12 107 75l75 85c1 1 -100 107 -100 107c-31 34 -54 55 -83 57c-3 1 -16 10 -16 23c-1 14 12 23 20 22c18 -3 67 -4 95 -4c37 0 64 1 90 4c12 1 22 -9 21 -24c-2 -12 -14 -20 -18 -21h1c-24 -3 -26 -9 -1 -42l46 -59l41 47c27 30 39 50 -3 54z" />
    <glyph glyph-name="y" unicode="y" horiz-adv-x="429" 
d="M292 365h2c-5 1 -17 10 -18 23c-1 15 11 25 20 23c29 -3 42 -4 81 -4c29 0 57 1 76 4c8 1 20 -8 21 -22c0 -14 -13 -24 -16 -24c-46 -3 -62 -18 -86 -73c-13 -30 -55 -117 -97 -220c-42 -102 -83 -220 -96 -325c-33 -1 -68 -1 -85 -1c-28 -1 -37 -1 -61 -6
c-10 -2 -22 7 -23 21s11 24 16 25h-1c21 3 42 14 56 25c21 16 49 54 77 123l25 62l-111 296c-23 61 -41 70 -84 73c-8 1 -18 11 -18 24c1 13 10 23 23 21c19 -3 72 -3 101 -3c39 0 70 1 97 4c12 1 22 -9 21 -24c-2 -13 -14 -21 -19 -22h2c-38 -4 -39 -13 -22 -61l64 -181
l78 181c20 46 16 57 -23 61z" />
    <glyph glyph-name="z" unicode="z" horiz-adv-x="432" 
d="M375 153v-2c0 3 10 15 25 15c14 0 24 -12 24 -16c0 -21 -20 -117 -25 -130c-4 -11 -11 -23 -31 -23c-26 0 -86 3 -138 3c-74 0 -142 0 -194 -3c-21 -1 -27 24 -19 34l247 324h-78c-68 0 -87 -31 -108 -95c-15 0 -21 1 -26 2c-2 1 -5 2 -8 3c-10 6 -11 13 -8 19
c2 9 8 37 10 55c3 23 5 47 5 72c51 -3 112 -4 156 -4c73 0 131 1 183 4c23 1 27 -26 19 -36l-245 -320h104c59 0 99 43 107 98z" />
    <glyph glyph-name="braceleft" unicode="{" horiz-adv-x="329" 
d="M318 -306c-5 -13 -20 -19 -26 -17c-124 40 -187 113 -187 181c0 18 4 36 10 53c6 16 14 33 22 50c15 34 29 65 29 98c0 71 -28 123 -125 131c-34 2 -32 46 0 48c97 9 125 61 125 132c0 33 -14 64 -29 98c-8 17 -16 34 -22 50c-6 17 -10 35 -10 53c0 68 63 141 187 181
c6 2 21 -3 26 -17c5 -12 0 -25 -10 -30c-58 -22 -88 -60 -88 -84c0 -13 2 -26 6 -41s9 -32 14 -49c10 -34 21 -74 21 -119c0 -83 -42 -158 -129 -197c83 -37 129 -117 129 -198c0 -45 -11 -85 -21 -119c-5 -17 -10 -34 -14 -49s-6 -28 -6 -41c0 -24 30 -61 88 -83
c10 -5 15 -18 10 -31z" />
    <glyph glyph-name="bar" unicode="|" horiz-adv-x="794" 
d="M279 41h-2c11 1 21 2 30 3c8 1 14 2 20 3c11 3 16 7 20 12c9 14 11 45 11 119v24c0 231 -140 394 -284 394c-14 0 -24 -1 -36 -2c-4 0 -49 30 -8 44c36 12 72 18 106 18c143 0 250 -107 298 -237c59 131 171 231 298 231c25 0 49 -4 74 -12c18 -6 14 -24 12 -28
c-5 -12 -19 -17 -24 -16h1c-14 3 -27 4 -43 4c-150 0 -277 -183 -277 -396v-24c0 -34 0 -60 1 -80c2 -20 5 -31 9 -38c9 -17 30 -17 68 -19c7 -1 18 -11 18 -24c1 -15 -10 -25 -22 -23c-32 4 -80 6 -122 6c-57 0 -104 -1 -145 -6c-16 -2 -24 10 -22 25c1 12 14 21 19 22z
" />
    <glyph glyph-name="braceright" unicode="}" horiz-adv-x="329" 
d="M164 59c0 -33 14 -64 29 -98c8 -17 16 -34 22 -50c6 -17 10 -35 10 -53c0 -68 -65 -141 -188 -181c-6 -2 -21 3 -27 16c-2 7 -6 24 12 31c57 24 89 60 89 84c0 13 -2 26 -6 41s-9 31 -14 48c-11 35 -22 75 -22 120c0 81 45 161 129 198c-88 39 -129 114 -129 197
c0 45 11 85 22 120c5 17 10 33 14 48s6 28 6 41c0 24 -32 61 -89 84c-17 8 -14 25 -11 31c5 13 20 18 26 16c123 -40 188 -113 188 -181c0 -18 -4 -36 -10 -53c-6 -16 -14 -33 -22 -50c-15 -34 -29 -65 -29 -98c0 -71 27 -123 124 -132c32 -2 34 -46 0 -48
c-97 -8 -124 -60 -124 -131z" />
    <glyph glyph-name="asciitilde" unicode="~" horiz-adv-x="380" 
d="M323 369v-3c1 3 6 13 20 12c2 0 5 -1 8 -1c13 -3 21 -12 21 -17c-5 -50 -42 -89 -107 -89c-15 0 -29 2 -42 5s-26 7 -40 11c-26 8 -51 16 -78 16c-20 0 -39 -9 -50 -52c-18 -3 -47 10 -47 15c7 57 54 94 120 94c13 0 27 -2 39 -5c13 -3 26 -6 39 -10c27 -8 51 -14 72 -14
s36 3 45 38z" />
    <glyph glyph-name="exclamdown" unicode="&#xa1;" horiz-adv-x="251" 
d="M121 -212c-33 -4 -62 10 -62 21c4 145 21 297 42 431c5 30 50 11 50 -3c0 -129 12 -298 26 -412c2 -15 -25 -33 -56 -37zM123 301c-31 0 -56 25 -56 53s24 55 59 55c31 0 57 -25 57 -53c0 -30 -26 -55 -60 -55z" />
    <glyph glyph-name="cent" unicode="&#xa2;" horiz-adv-x="414" 
d="M204 69l20 274c-63 -2 -94 -36 -94 -124c0 -82 33 -128 74 -150zM252 -14l-2 -32c-1 -7 -13 -18 -28 -17c-16 1 -26 12 -26 20l2 29c-104 11 -177 93 -177 195c0 105 89 202 208 230l3 42c1 7 13 18 28 17c16 0 27 -11 26 -21l-3 -29c7 0 14 1 21 1c47 0 96 -19 96 -48
c0 -18 -23 -67 -51 -67c-13 0 -27 6 -44 13c-9 5 -19 9 -28 13l-20 -275c48 0 86 18 115 38c5 3 20 3 29 -8c7 -9 6 -21 0 -27c-33 -32 -84 -66 -149 -74z" />
    <glyph glyph-name="sterling" unicode="&#xa3;" horiz-adv-x="681" 
d="M222 17c68 -4 134 -29 193 -52c32 -13 62 -26 89 -35c28 -10 52 -16 72 -16c31 0 42 17 42 42c0 18 -17 39 -58 51c-5 2 -15 14 -11 27c3 12 13 19 24 18c66 -10 112 -60 112 -107c0 -50 -40 -119 -144 -119c-70 0 -136 37 -193 71c-29 17 -57 34 -83 46
c-27 13 -51 20 -73 20c-1 0 -1 1 -2 1c-34 -89 -85 -138 -143 -138c-48 0 -83 34 -83 68c0 46 52 111 189 123c9 27 16 64 24 106l-125 -2c-10 0 -21 12 -21 27c0 16 12 27 22 27c0 0 80 -10 130 -22c9 58 18 107 29 149c16 61 42 118 87 171c47 53 117 97 186 97
c53 0 91 -37 91 -78c0 -28 -17 -46 -33 -57c-22 -14 -46 -10 -49 -7c-25 28 -60 50 -85 50c-43 0 -62 -20 -97 -238c-4 -24 -9 -46 -14 -68l148 3c10 0 21 -12 21 -27c-1 -16 -13 -27 -21 -27c0 0 -44 2 -87 3c-22 1 -44 1 -60 2h-16c-16 -42 -36 -78 -61 -109z" />
    <glyph glyph-name="fraction" unicode="&#x2044;" horiz-adv-x="553" 
d="M538 642l-482 -669c-4 -6 -19 -9 -31 -2c-13 8 -15 22 -10 29l482 669c4 6 19 9 31 2c13 -8 15 -22 10 -29z" />
    <glyph glyph-name="yen" unicode="&#xa5;" horiz-adv-x="658" 
d="M-6 552h-1c32 10 63 15 92 15c124 0 220 -86 264 -195c53 114 146 190 250 190c23 0 44 -4 65 -10c10 -3 16 -15 12 -27c-4 -13 -19 -18 -24 -17l2 -1c-12 2 -23 4 -37 4c-96 0 -179 -87 -215 -209l163 3c6 0 19 -11 19 -27c0 -15 -13 -27 -19 -26l-175 1
c-2 -14 -4 -29 -6 -44l181 4c6 0 19 -11 19 -27c0 -15 -13 -27 -19 -27l-181 3v-7c0 -108 3 -109 69 -113c4 -1 16 -10 17 -23c2 -15 -10 -25 -20 -24c-26 3 -77 5 -113 5c-50 0 -97 0 -133 -5v0c-10 -1 -22 8 -20 24c1 13 13 22 18 23l-2 -1c67 7 70 14 70 114v18
c-13 -11 -182 -14 -182 -14c-6 0 -19 12 -19 27c0 16 13 27 19 27l181 -4c-1 15 -3 30 -5 44l-176 -1c-6 -1 -19 11 -19 26c0 16 13 27 19 27c0 0 112 -4 166 -5c-38 128 -128 209 -222 209c-11 0 -20 -1 -30 -2h2c-9 0 -21 6 -23 19c-3 13 4 24 13 26z" />
    <glyph glyph-name="florin" unicode="&#x192;" horiz-adv-x="496" 
d="M190 291c16 87 38 142 70 181c44 53 110 98 179 98c53 0 91 -37 95 -77c3 -28 -13 -47 -28 -58c-20 -14 -45 -11 -48 -8c-28 29 -64 54 -88 54c-31 0 -52 -7 -69 -174l115 3c10 0 19 -46 5 -54l-124 1c-18 -214 -43 -280 -102 -347c-55 -63 -103 -83 -157 -83
c-53 0 -114 31 -118 81c-2 30 13 51 31 61c21 13 45 7 51 0c30 -37 68 -58 94 -58c24 0 44 14 57 52c14 44 20 127 25 208c2 30 4 60 7 86l-100 -1c-9 5 -15 16 -14 28c0 16 13 26 20 26c0 0 59 -9 99 -19z" />
    <glyph glyph-name="section" unicode="&#xa7;" horiz-adv-x="525" 
d="M293 262c-31 26 -63 52 -90 78c-22 21 -41 43 -55 66c-10 -14 -16 -31 -16 -50c0 -56 48 -104 110 -156c30 -25 62 -51 89 -77c21 -21 41 -43 54 -67c11 14 18 30 18 49c0 56 -48 105 -110 157zM403 0c1 -4 1 -8 1 -12c0 -36 -19 -73 -44 -103c-47 -54 -105 -86 -168 -86
c-66 0 -143 42 -143 100c0 28 17 46 33 56c21 14 45 9 48 6c33 -39 85 -73 123 -73c47 0 63 23 63 63c0 23 -14 47 -39 73c-12 13 -26 26 -42 39c-16 14 -33 27 -50 41c-67 54 -142 118 -142 202c0 62 37 121 87 159c-1 4 -1 9 -1 13c0 36 19 72 45 101c48 54 113 88 176 88
c52 0 90 -38 90 -78c0 -28 -17 -47 -33 -57c-22 -14 -46 -10 -49 -7c-25 28 -58 49 -82 49c-48 0 -59 -19 -59 -59c0 -23 14 -48 39 -74c13 -13 27 -26 43 -40s33 -27 51 -41c67 -55 143 -120 143 -204c0 -62 -39 -118 -90 -156z" />
    <glyph glyph-name="currency" unicode="&#xa4;" horiz-adv-x="692" 
d="M374 203l-175 2c32 -111 126 -166 221 -166c83 0 154 53 171 127c2 9 48 7 47 -6c-3 -55 -18 -127 -25 -132c-35 -25 -93 -48 -201 -48c-179 0 -304 99 -334 223h-67c-6 0 -19 11 -19 26c0 16 13 27 19 27l59 -2v10c0 11 1 24 3 36c-7 -1 -14 -1 -21 -2
c-20 -1 -40 -3 -40 -3c-6 -1 -20 11 -20 27c0 15 14 27 20 26c0 0 38 -7 69 -16c44 133 170 237 335 237c83 0 173 -32 193 -47c8 -6 23 -77 25 -133c0 -12 -46 -14 -48 -5c-13 56 -83 128 -191 128c-105 0 -184 -59 -204 -167l183 3c5 0 18 -11 18 -26
c0 -16 -13 -27 -18 -27l-182 3h-4v-4c0 -15 1 -28 2 -41h2l182 3c5 0 18 -11 18 -27c0 -15 -13 -26 -18 -26z" />
    <glyph glyph-name="quotesingle" unicode="'" horiz-adv-x="227" 
d="M213 626l-166 -151c-9 -8 -22 -8 -29 -4c-12 5 -16 18 -7 29l145 166c7 8 28 8 44 -3c17 -12 21 -30 13 -37z" />
    <glyph glyph-name="quotedblleft" unicode="&#x201c;" horiz-adv-x="362" 
d="M95 577c0 -9 4 -17 29 -28c21 -10 41 -20 41 -45c0 -27 -29 -43 -56 -43c-45 0 -87 31 -87 85c0 65 62 108 144 112c9 0 20 -8 20 -21c-1 -13 -13 -21 -17 -22c-60 -2 -74 -27 -74 -38zM246 577c0 -31 71 -26 71 -73c0 -28 -30 -43 -57 -43c-45 0 -87 31 -87 85
c0 65 62 108 144 112c9 0 20 -8 20 -21c-1 -13 -13 -21 -17 -22c-60 -2 -74 -27 -74 -38z" />
    <glyph glyph-name="guillemotleft" unicode="&#xab;" horiz-adv-x="475" 
d="M278 97c-4 -6 -16 -15 -30 -8l-208 102c-13 6 -16 30 1 39l207 101c12 7 25 1 31 -8c5 -9 3 -20 -8 -27l-133 -88l133 -82c12 -8 12 -21 7 -29zM432 99c-2 -5 -13 -18 -29 -10l-208 102c-13 6 -16 30 1 39l207 101c13 7 26 0 31 -8c4 -9 3 -20 -8 -27l-134 -88l134 -82
c12 -8 9 -21 6 -27z" />
    <glyph glyph-name="guilsinglleft" unicode="&#x2039;" horiz-adv-x="320" 
d="M278 97c-4 -6 -16 -15 -30 -8l-208 102c-13 6 -16 30 1 39l207 101c12 7 25 1 31 -8c5 -9 3 -20 -8 -27l-133 -88l133 -82c12 -8 12 -21 7 -29z" />
    <glyph glyph-name="guilsinglright" unicode="&#x203a;" horiz-adv-x="320" 
d="M279 191l-207 -102c-14 -7 -26 2 -30 8c-5 8 -5 21 7 29l133 82l-133 88c-11 7 -13 18 -8 27c6 9 19 15 31 8l207 -101c20 -10 10 -34 0 -39z" />
    <glyph glyph-name="fi" unicode="&#xfb01;" horiz-adv-x="562" 
d="M547 42h-2c5 0 18 -10 18 -23c1 -16 -10 -25 -22 -23c-28 4 -70 4 -110 4c-38 0 -68 0 -95 -4c-14 -2 -23 9 -21 24c1 13 14 22 18 22h-2c48 6 50 9 50 67v192c0 31 4 48 -13 48h-165v-240c0 -55 1 -64 75 -67c4 0 16 -9 17 -22c1 -16 -12 -25 -20 -24
c-22 3 -93 4 -121 4c-38 0 -84 0 -112 -4c-13 -2 -23 8 -22 24c2 12 14 22 19 22h-2c55 6 61 8 61 67v240c-24 0 -55 1 -64 1h2c-9 0 -21 8 -22 23c-2 16 11 28 15 28c18 1 35 2 48 3c9 1 16 2 21 4v17c0 171 145 309 280 309c42 0 100 -27 100 -55c0 -29 -28 -75 -59 -75
c-10 0 -20 4 -28 8c-9 4 -17 9 -27 14c-18 10 -36 19 -55 19c-57 0 -106 -41 -106 -201v-31h176c27 0 61 8 74 19l-3 -3c4 4 16 9 28 4c11 -5 16 -17 15 -23c-5 -17 -7 -99 -7 -134v-167c0 -59 6 -61 61 -67z" />
    <glyph glyph-name="fl" unicode="&#xfb02;" horiz-adv-x="562" 
d="M381 413v204c-14 17 -45 33 -81 33c-57 0 -97 -34 -97 -206v-31h178zM547 42h-2c5 0 18 -10 18 -23c1 -16 -10 -25 -22 -23c-28 4 -70 4 -110 4c-38 0 -68 0 -95 -4c-14 -2 -23 9 -21 24c1 13 14 22 18 22h-2c48 6 50 9 50 67v240h-178v-240c0 -55 1 -64 75 -67
c4 0 16 -9 17 -22c1 -16 -12 -25 -20 -24c-22 3 -93 4 -121 4c-38 0 -84 0 -112 -4c-13 -2 -23 8 -22 24c2 12 14 22 19 22h-2c55 6 61 8 61 67v240c-24 0 -55 1 -64 1h2c-9 0 -21 9 -22 23c-2 16 11 28 15 29c18 0 35 1 48 2c9 1 16 2 21 4v17c0 169 121 309 256 309
c28 0 57 -7 77 -19c8 7 17 13 22 18l-2 -4c3 4 15 9 26 5c12 -5 17 -16 16 -24c-5 -16 -7 -97 -7 -134v-467c0 -59 6 -61 61 -67z" />
    <glyph glyph-name="endash" unicode="&#x2013;" horiz-adv-x="659" 
d="M587 256l-258 1l-257 -1c-6 0 -19 6 -19 15c0 8 13 14 19 14l257 -2l258 2c4 0 18 -6 18 -14c0 -9 -13 -15 -18 -15z" />
    <glyph glyph-name="dagger" unicode="&#x2020;" horiz-adv-x="443" 
d="M412 424l-164 2l2 -423c0 -6 -12 -18 -29 -17c-16 0 -28 13 -28 17l3 423l-165 -2c-5 0 -18 12 -18 27c0 16 13 27 18 27l165 -3l-3 164c0 4 12 17 28 17c16 1 28 -11 28 -17l-2 -164l165 3c5 0 18 -11 18 -27c1 -15 -12 -27 -18 -27z" />
    <glyph glyph-name="daggerdbl" unicode="&#x2021;" horiz-adv-x="443" 
d="M411 165l-164 2l2 -164c0 -6 -12 -18 -28 -17c-16 0 -28 13 -28 17l2 164l-164 -2c-5 0 -18 11 -19 26c-1 16 10 28 19 28l164 -3v210l-164 -2c-9 0 -20 12 -19 28c3 55 124 24 183 23l-2 164c0 4 12 17 28 17c16 1 28 -11 28 -17l-2 -164l164 3c6 0 19 -11 19 -27
c0 -15 -13 -27 -19 -27l-163 2v-210l163 3c6 0 19 -12 19 -27c0 -16 -13 -27 -19 -27z" />
    <glyph glyph-name="periodcentered" unicode="&#xb7;" horiz-adv-x="212" 
d="M105 208c-33 0 -56 19 -56 40c0 22 23 43 58 43c33 0 57 -20 57 -41c0 -23 -26 -42 -59 -42z" />
    <glyph glyph-name="paragraph" unicode="&#xb6;" horiz-adv-x="676" 
d="M517 274l-1 246c-12 1 -25 2 -39 2v-495c14 1 27 1 39 2zM439 -20c-252 0 -384 141 -384 288c0 164 122 301 384 301c96 0 145 -10 183 -20c10 -3 17 -15 11 -29c-5 -12 -20 -17 -25 -16c-10 3 -21 6 -36 8l-2 -238l2 -241c15 2 26 4 36 7s38 -37 15 -44
c-39 -12 -89 -16 -184 -16z" />
    <glyph glyph-name="bullet" unicode="&#x2022;" horiz-adv-x="212" 
d="M105 285c-33 0 -56 19 -56 40c0 22 23 43 58 43c33 0 57 -20 57 -41c0 -23 -26 -42 -59 -42z" />
    <glyph glyph-name="quotesinglbase" unicode="&#x201a;" horiz-adv-x="212" 
d="M36 -122c-9 0 -20 8 -20 21c1 13 13 21 17 22c60 2 75 27 75 37c0 9 -5 17 -31 28c-20 9 -40 20 -40 45c0 27 28 44 56 44c45 0 88 -32 88 -86c0 -65 -63 -107 -145 -111z" />
    <glyph glyph-name="quotedblbase" unicode="&#x201e;" horiz-adv-x="383" 
d="M36 -122c-9 0 -20 8 -20 21c1 13 13 21 17 22c60 2 75 27 75 37c0 9 -5 17 -31 28c-20 9 -40 20 -40 45c0 27 28 44 56 44c45 0 88 -32 88 -86c0 -65 -63 -107 -145 -111zM187 -122c-9 0 -20 8 -20 21c1 13 13 21 17 22c60 2 75 27 75 37c0 9 -4 17 -30 28
c-22 10 -40 20 -40 45c0 27 27 44 55 44c45 0 88 -32 88 -86c0 -65 -63 -107 -145 -111z" />
    <glyph glyph-name="quotedblright" unicode="&#x201d;" horiz-adv-x="362" 
d="M36 467c-9 0 -20 8 -20 21c1 13 13 21 17 22c60 2 75 27 75 37c0 9 -5 17 -31 28c-20 9 -40 20 -40 45c0 27 28 44 56 44c45 0 88 -32 88 -86c0 -65 -63 -107 -145 -111zM187 467c-9 0 -20 8 -20 21c1 13 13 21 17 22c60 2 75 27 75 37c0 9 -4 17 -30 28
c-22 10 -40 20 -40 45c0 27 27 44 55 44c45 0 88 -32 88 -86c0 -65 -63 -107 -145 -111z" />
    <glyph glyph-name="guillemotright" unicode="&#xbb;" horiz-adv-x="475" 
d="M279 191l-207 -102c-14 -7 -26 2 -30 8c-5 8 -5 21 7 29l133 82l-133 88c-11 7 -13 18 -8 27c6 9 19 15 31 8l207 -101c20 -10 10 -34 0 -39zM433 191l-207 -102c-16 -9 -27 5 -29 10c-3 6 -6 19 6 27l134 82l-134 88c-11 7 -12 18 -8 27c5 8 18 15 31 8l207 -101
c20 -10 10 -34 0 -39z" />
    <glyph glyph-name="ellipsis" unicode="&#x2026;" horiz-adv-x="574" 
d="M105 -15c-33 0 -56 20 -56 41c0 22 23 43 58 43c33 0 57 -20 57 -41c0 -22 -25 -43 -59 -43zM286 -15c-32 0 -56 20 -56 41c0 22 24 43 58 43c33 0 57 -20 57 -41c0 -22 -25 -43 -59 -43zM467 -15c-32 0 -56 20 -56 41c0 22 24 43 59 43c31 0 57 -20 57 -41
c0 -23 -27 -43 -60 -43z" />
    <glyph glyph-name="perthousand" unicode="&#x2030;" horiz-adv-x="818" 
d="M393 253c-14 0 -44 -27 -44 -110c0 -68 19 -84 32 -84c14 0 45 28 45 110c0 67 -20 84 -33 84zM172 503c-13 0 -44 -28 -44 -111c0 -67 20 -83 33 -83c12 0 44 27 44 110c0 67 -20 84 -33 84zM656 253c-14 0 -44 -27 -44 -110c0 -68 19 -84 32 -84s44 27 44 110
c0 67 -19 84 -32 84zM427 20c-27 -20 -58 -35 -80 -35c-48 0 -93 52 -93 135c0 67 36 132 94 172c26 19 57 35 79 35c47 0 94 -53 94 -135c0 -67 -38 -133 -94 -172zM490 557l-191 -288l-187 -291c-3 -4 -18 -8 -32 -3c-15 6 -19 23 -16 28l190 288l188 292c3 4 19 8 32 2
c15 -7 19 -23 16 -28zM206 269c-28 -19 -58 -33 -80 -33c-47 0 -93 51 -93 133c0 67 36 133 94 173c27 18 56 34 80 34c47 0 93 -52 93 -134c0 -67 -38 -133 -94 -173zM690 20c-27 -20 -58 -35 -80 -35c-47 0 -94 52 -94 135c0 67 37 132 95 173c26 17 54 34 79 34
c47 0 94 -53 94 -135c0 -67 -38 -133 -94 -172z" />
    <glyph glyph-name="questiondown" unicode="&#xbf;" horiz-adv-x="361" 
d="M267 243v1c16 -32 26 -60 26 -84c0 -49 -33 -86 -97 -113l-97 -41c-14 -6 -19 -9 -19 -18c0 -2 2 -11 27 -18l93 -25c66 -17 111 -48 111 -100c0 -20 -7 -43 -20 -71c-9 -3 -18 -3 -26 -1c-14 5 -18 20 -17 24v-2c1 6 2 10 2 12c0 9 -5 24 -104 51
c-85 24 -127 62 -127 136c0 65 30 101 135 141c57 21 74 46 74 65c0 6 -2 15 -6 27c-2 6 4 19 16 24c13 6 25 -1 29 -8zM236 301c-32 0 -57 24 -57 53c0 28 24 55 58 55c31 0 58 -25 58 -53c0 -30 -27 -55 -59 -55z" />
    <glyph glyph-name="grave" unicode="`" horiz-adv-x="227" 
d="M210 468c-8 -4 -21 -6 -31 3l-165 151c-8 7 -4 26 13 37c16 11 37 11 44 3l146 -166c11 -13 0 -25 -7 -28z" />
    <glyph glyph-name="acute" unicode="&#xb4;" horiz-adv-x="227" 
d="M213 626l-166 -151c-9 -8 -22 -8 -29 -4c-12 5 -16 18 -7 29l145 166c7 8 28 8 44 -3c17 -12 21 -30 13 -37z" />
    <glyph glyph-name="circumflex" unicode="&#x2c6;" horiz-adv-x="297" 
d="M278 466c-8 -4 -22 -5 -31 6l-101 115l-96 -115c-8 -10 -22 -9 -29 -6c-8 3 -20 13 -11 26l117 179c10 15 36 10 43 -1l118 -177c8 -13 -3 -24 -10 -27z" />
    <glyph glyph-name="tilde" unicode="&#x2dc;" horiz-adv-x="380" 
d="M323 594v-3c1 3 6 13 20 12c2 0 5 -1 8 -1c13 -3 21 -12 21 -17c-5 -50 -42 -89 -107 -89c-15 0 -29 2 -42 5s-26 7 -40 11c-26 8 -51 16 -78 16c-20 0 -39 -9 -50 -52c-18 -3 -47 10 -47 15c7 57 54 94 120 94c13 0 27 -2 39 -5c13 -3 26 -6 39 -10c27 -8 51 -14 72 -14
s36 3 45 38z" />
    <glyph glyph-name="macron" unicode="&#xaf;" horiz-adv-x="355" 
d="M177 511l-141 -1c-6 0 -19 5 -19 13s13 13 19 13l141 -1l142 1c6 0 19 -5 19 -13c0 -25 -99 -12 -161 -12z" />
    <glyph glyph-name="breve" unicode="&#x2d8;" horiz-adv-x="355" 
d="M178 480c-97 0 -160 62 -160 134c0 22 42 24 46 2c7 -43 58 -71 114 -71c55 0 106 28 113 71c3 21 47 21 47 -2c0 -72 -63 -134 -160 -134z" />
    <glyph glyph-name="dotaccent" unicode="&#x2d9;" horiz-adv-x="254" 
d="M127 503c-35 0 -63 20 -63 45c0 26 28 48 65 48c34 0 62 -22 62 -46c0 -25 -28 -47 -64 -47z" />
    <glyph glyph-name="dieresis" unicode="&#xa8;" horiz-adv-x="442" 
d="M127 503c-35 0 -63 20 -63 45c0 26 28 48 65 48c34 0 62 -22 62 -46c0 -25 -28 -47 -64 -47zM314 503c-35 0 -62 21 -62 45c0 25 26 48 64 48c35 0 62 -22 62 -46c0 -25 -28 -47 -64 -47z" />
    <glyph glyph-name="ring" unicode="&#x2da;" horiz-adv-x="236" 
d="M118 610c-31 0 -55 -21 -55 -45c0 -25 24 -45 55 -45c30 0 55 20 55 45c0 24 -25 45 -55 45zM118 477c-58 0 -105 39 -105 88c0 48 47 88 105 88s106 -40 106 -88c0 -49 -48 -88 -106 -88z" />
    <glyph glyph-name="cedilla" unicode="&#xb8;" horiz-adv-x="304" 
d="M103 -273c-12 -1 -22 7 -24 19s8 22 16 23c71 9 77 46 77 61c0 18 -11 42 -112 67l90 118l55 -18l-38 -48c62 -23 93 -61 93 -100c0 -54 -49 -108 -157 -122z" />
    <glyph glyph-name="hungarumlaut" unicode="&#x2dd;" horiz-adv-x="320" 
d="M202 635l-152 -164c-9 -9 -23 -8 -31 -4c-7 3 -18 14 -9 27l130 178c6 7 27 9 45 0c18 -10 25 -28 17 -37zM316 629l-161 -158c-9 -9 -23 -7 -30 -3c-8 4 -17 15 -7 27l140 173c6 8 28 9 44 -2c17 -11 22 -29 14 -37z" />
    <glyph glyph-name="ogonek" unicode="&#x2db;" horiz-adv-x="239" 
d="M245 -199l1 1c-27 -29 -72 -58 -120 -58c-72 0 -119 43 -119 103c0 56 59 119 176 189c6 4 21 2 29 -7c10 -9 10 -22 0 -29c-98 -69 -115 -105 -115 -141c0 -30 23 -51 55 -51c21 0 40 8 58 24l-1 -1c5 5 20 7 31 -2c11 -8 11 -21 5 -28z" />
    <glyph glyph-name="caron" unicode="&#x2c7;" horiz-adv-x="297" 
d="M288 650l-119 -179c-7 -8 -32 -15 -43 2l-116 177c-9 13 2 23 10 27c8 3 21 4 30 -6l101 -115l96 115c9 11 23 10 32 6c8 -4 17 -15 9 -27z" />
    <glyph glyph-name="emdash" unicode="&#x2014;" horiz-adv-x="916" 
d="M844 256l-386 1l-386 -1c-6 0 -19 6 -19 15c0 8 13 14 19 14l386 -1l386 1c6 0 19 -6 19 -14c0 -9 -13 -15 -19 -15z" />
    <glyph glyph-name="AE" unicode="&#xc6;" horiz-adv-x="894" 
d="M422 293v239l-171 -239h171zM802 125v-3c1 4 11 16 25 15c15 -2 23 -13 22 -21c-2 -12 -5 -29 -9 -46c-3 -17 -7 -34 -12 -46c-8 -21 -16 -29 -40 -29c-37 0 -101 5 -175 5c-102 0 -203 -1 -277 -6c-14 -1 -23 10 -21 25c1 12 14 21 19 22h-2c25 2 43 4 57 7
c13 3 18 7 22 12c10 14 11 43 11 118v61h-211l-51 -71c-20 -29 -37 -52 -50 -72c-13 -19 -21 -33 -23 -44c-4 -14 12 -9 43 -11c4 -1 17 -11 16 -25s-10 -24 -24 -22c-28 4 -51 6 -92 6c-58 0 -59 -1 -101 -6c-17 -2 -25 10 -21 26c3 12 14 20 20 21c61 4 91 36 172 147
l253 346c19 26 30 39 30 51c0 14 -25 11 -89 18h2c-5 1 -18 9 -19 22c-1 5 0 25 22 24c73 -5 208 -7 309 -7c74 0 142 2 219 9c-8 -36 -10 -53 -10 -72c0 -9 0 -26 1 -33v0c1 -9 -7 -20 -22 -20c-12 0 -23 8 -25 13c-5 30 -12 44 -146 44h-82c-3 -24 -4 -62 -4 -114v-108h89
c56 0 78 2 87 6c2 1 3 1 3 2c1 1 1 3 1 5c1 3 2 5 2 9v-3c1 3 11 16 25 15c16 -1 24 -15 23 -21c-4 -13 -5 -34 -5 -56v-20c0 -5 0 -11 1 -15c0 -14 -46 -15 -49 -7c-5 26 -12 31 -88 31h-89v-126c0 -108 8 -121 48 -121h52c140 0 149 7 163 65z" />
    <glyph glyph-name="ordfeminine" unicode="&#xaa;" horiz-adv-x="379" 
d="M134 416c0 -14 4 -19 27 -19c18 0 27 4 45 17c1 12 2 32 2 49c-66 -7 -74 -27 -74 -47zM344 402l-1 -1c4 2 19 -1 24 -13c5 -10 0 -21 -4 -24c-28 -18 -54 -30 -83 -30c-25 0 -50 11 -63 32c-28 -19 -60 -29 -94 -29c-49 0 -90 29 -90 72c0 50 55 89 178 98
c1 22 3 43 2 54c-1 20 -6 29 -12 32c-6 4 -14 6 -32 6c-14 0 -27 1 -27 -5c0 -2 0 -3 2 -5c1 -5 3 -9 3 -16c0 -26 -40 -44 -70 -44c-20 0 -33 12 -33 30c1 37 99 103 174 103c50 0 89 -34 90 -88c1 -30 -5 -129 -4 -166c1 -16 11 -15 40 -6z" />
    <glyph glyph-name="Lslash" unicode="&#x141;" horiz-adv-x="586" 
d="M528 114v-3c1 4 11 16 24 16c16 -1 25 -12 23 -20c-3 -28 -8 -61 -15 -82c-7 -24 -20 -30 -42 -30c-37 0 -92 5 -166 5c-102 0 -212 -1 -286 -6c-13 -1 -22 10 -21 24c1 12 11 22 18 23c24 3 43 4 57 7c12 3 18 7 21 12c10 14 11 42 11 118v106l-53 -12
c-13 0 -26 13 -29 30c-4 18 6 33 17 35c0 0 21 3 42 7c8 1 16 2 23 3v117c0 75 -2 105 -11 120c-3 5 -9 9 -19 12c-6 1 -13 3 -21 4s-18 2 -29 3c-7 1 -17 11 -18 22c-1 15 8 25 22 23c43 -6 89 -6 145 -6c43 0 92 2 122 6c22 2 23 -19 23 -23c-1 -12 -13 -22 -18 -22
c-39 -3 -59 -3 -69 -20c-4 -7 -7 -19 -9 -39c-1 -20 -1 -46 -1 -80v-88l71 16c11 3 26 -9 29 -27c4 -16 -2 -32 -11 -37l-89 -18v-132c0 -102 0 -115 44 -115h57c140 0 146 2 158 51z" />
    <glyph glyph-name="Oslash" unicode="&#xd8;" horiz-adv-x="862" 
d="M633 496l-372 -386c51 -48 118 -72 184 -72c142 0 249 95 249 261c0 82 -24 148 -61 197zM417 605c-142 0 -248 -96 -248 -262c0 -81 23 -147 58 -196l372 386c-51 47 -117 72 -182 72zM421 -21c-87 0 -164 25 -224 66l-71 -73c-5 -6 -19 -7 -30 0c-13 8 -14 23 -8 30
l70 73c-69 62 -109 147 -109 236c0 168 162 352 391 352c86 0 162 -25 223 -65l70 72c5 6 19 7 30 0c37 -24 -26 -65 -61 -102c70 -62 112 -147 112 -236c0 -169 -163 -353 -393 -353z" />
    <glyph glyph-name="OE" unicode="&#x152;" horiz-adv-x="1039" 
d="M567 143v356c0 82 -6 96 -146 96c-136 0 -253 -96 -253 -253c0 -184 113 -294 289 -294c102 0 110 18 110 95zM947 124v-2c1 3 11 16 25 14c15 -1 23 -12 22 -20c-4 -25 -13 -71 -20 -91c-8 -23 -18 -30 -41 -30c-37 0 -101 5 -175 5c-102 0 -248 -10 -322 -10
c-247 0 -387 143 -387 321c0 185 171 341 400 341c73 0 203 -10 304 -10c74 0 142 2 225 9c-14 -37 -15 -52 -15 -72c0 -9 -1 -26 0 -33v0c1 -9 -7 -20 -22 -20c-12 0 -23 9 -25 13c-5 30 -12 44 -146 44h-82c-3 -25 -4 -64 -4 -114v-108h89c56 0 78 2 87 6c2 1 3 1 4 3
c0 0 1 2 1 4c1 3 2 6 3 10c2 4 13 12 25 11c15 -1 23 -15 22 -21c-4 -13 -6 -34 -6 -56c0 -9 0 -26 1 -34c2 -7 0 -15 -13 -19c-3 -1 -7 -1 -10 -2c-15 0 -25 12 -26 16v-1c-4 24 -12 29 -88 29h-89v-126c0 -108 8 -121 48 -121h53c139 0 149 7 162 64z" />
    <glyph glyph-name="ordmasculine" unicode="&#xba;" horiz-adv-x="407" 
d="M190 613c-47 0 -69 -37 -69 -92c0 -91 38 -135 94 -135c49 0 71 37 71 90c0 90 -40 137 -96 137zM199 337c-107 0 -180 74 -180 157c0 87 73 168 188 168c107 0 181 -75 181 -158c0 -87 -74 -167 -189 -167z" />
    <glyph glyph-name="ae" unicode="&#xe6;" horiz-adv-x="672" 
d="M258 181c-126 -22 -132 -60 -132 -79c0 -29 14 -46 37 -46c35 0 76 13 117 47c-14 28 -20 55 -22 78zM466 365c-46 0 -89 -46 -97 -123l174 23c-6 64 -37 100 -77 100zM476 -14c-72 0 -131 31 -169 75c-46 -42 -111 -75 -171 -75c-68 0 -118 40 -118 94
c0 73 69 126 240 149c1 27 2 53 2 66c0 19 -4 28 -12 37c-7 8 -15 14 -45 14c-27 0 -57 -2 -57 -11s2 -17 2 -25c0 -10 -3 -18 -8 -22c-17 -19 -53 -29 -74 -29c-15 0 -37 6 -36 26c2 46 130 134 223 134c36 0 72 -19 93 -52c41 32 90 52 142 52c104 0 165 -76 165 -146
c0 -8 -2 -16 -6 -42l-278 -37c8 -103 79 -137 140 -137c39 0 76 10 113 38c9 4 56 -14 29 -36c-43 -46 -111 -73 -175 -73z" />
    <glyph glyph-name="dotlessi" unicode="&#x131;" horiz-adv-x="273" 
d="M257 41h-2c5 -1 17 -9 18 -22c1 -15 -12 -24 -20 -23c-29 4 -70 4 -108 4s-82 0 -111 -4c-8 -1 -21 8 -20 23c1 13 13 21 18 22h-2c55 6 61 8 61 65v158c0 53 -5 52 -42 40c-32 -9 -28 32 -18 39c21 12 46 25 71 38c24 14 46 29 62 42l-3 -3c4 4 17 9 28 4
c10 -6 15 -16 14 -23c-5 -16 -6 -98 -6 -133v-162c0 -57 5 -59 60 -65z" />
    <glyph glyph-name="lslash" unicode="&#x142;" horiz-adv-x="259" 
d="M150 733l-3 -3c4 4 17 9 28 3c10 -5 15 -16 14 -23c-5 -16 -6 -97 -6 -133v-162l72 18c12 3 27 -9 30 -27c4 -16 -2 -33 -11 -38l-91 -18v-241c0 -59 5 -61 60 -67h-2c5 0 17 -9 18 -22c1 -16 -12 -25 -20 -24c-29 4 -72 4 -111 4s-80 0 -109 -4c-8 -1 -21 8 -20 24
c1 13 13 22 18 22h-2c55 6 62 8 62 67v218l-63 -15c-19 0 -52 57 -12 65l75 16v180c0 54 -6 53 -42 42c-31 -10 -28 32 -18 40c21 11 47 24 71 37c24 14 47 28 62 41z" />
    <glyph glyph-name="oslash" unicode="&#xf8;" horiz-adv-x="512" 
d="M356 287l-175 -208c23 -25 54 -38 92 -38c68 0 106 57 106 130c0 47 -9 86 -23 116zM239 363c-69 0 -107 -57 -107 -130c0 -45 8 -83 21 -113l174 208c-23 23 -53 35 -88 35zM125 19c-3 -4 -6 -9 -9 -14l-18 -26c-5 -6 -20 -9 -32 -2c-12 8 -15 22 -9 29l32 38
c-44 39 -68 94 -68 151c0 115 91 224 240 224c45 0 84 -10 118 -28c12 14 32 55 60 36c13 -8 15 -22 9 -29l-29 -35c46 -39 73 -96 73 -154c0 -115 -93 -224 -242 -224c-44 0 -84 12 -125 34z" />
    <glyph glyph-name="oe" unicode="&#x153;" horiz-adv-x="792" 
d="M239 363c-69 0 -107 -57 -107 -130c0 -125 59 -191 141 -191c68 0 103 56 103 129c0 126 -57 192 -137 192zM586 365c-40 0 -75 -32 -90 -89l166 5c-7 44 -38 84 -76 84zM770 59h1c-42 -46 -112 -73 -177 -73c-72 0 -130 31 -167 76c-41 -45 -101 -76 -177 -76
c-135 0 -229 100 -229 209c0 115 96 223 240 223c76 0 137 -32 175 -79c43 48 106 79 172 79c102 0 165 -75 165 -146c0 -6 -2 -11 -3 -15s-2 -8 -6 -23l-275 -6v-12c0 -121 74 -159 139 -159c39 0 78 10 113 36l-1 -1c4 4 13 7 22 0c2 -1 5 -4 7 -6c7 -9 7 -20 1 -27z" />
    <glyph glyph-name="germandbls" unicode="&#xdf;" horiz-adv-x="551" 
d="M34 349l2 1c-9 0 -21 8 -22 23c-2 16 11 28 15 28c18 1 35 1 48 3c9 1 16 2 21 4v28c0 169 110 298 246 298c88 0 159 -62 159 -149c0 -74 -39 -111 -75 -141c-9 -7 -18 -14 -26 -21c-8 -6 -15 -13 -21 -19c-11 -14 -18 -28 -18 -47c0 -17 9 -31 24 -46
c8 -7 18 -14 28 -22c11 -7 23 -14 34 -22c45 -30 99 -68 99 -135c0 -74 -62 -146 -162 -146c-85 0 -140 36 -140 64c0 25 25 63 54 63c13 0 24 -9 32 -15c4 -4 8 -8 12 -13c4 -4 8 -9 13 -13c17 -20 33 -32 48 -32c36 0 49 23 49 62c0 18 -9 34 -25 49c-8 7 -17 15 -28 22
c-11 8 -22 15 -34 22c-45 30 -100 66 -100 130c0 26 10 47 24 65c6 9 14 18 22 26s17 16 25 23c33 32 62 62 62 108c0 68 -47 114 -108 114c-55 0 -89 -33 -89 -190v-362c0 -59 12 -66 44 -67c3 0 16 -10 16 -24c1 -15 -10 -24 -22 -22c-20 3 -59 3 -87 3
c-38 0 -84 1 -112 -3c-13 -2 -23 7 -22 23c2 13 14 22 19 23h-2c55 6 61 8 61 67v240h-64z" />
    <glyph glyph-name="onesuperior" unicode="&#xb9;" horiz-adv-x="288" 
d="M41 604h2c-4 0 -17 8 -18 20c-1 14 8 24 22 21c24 -3 71 -3 103 -3c24 0 75 2 93 4c9 1 21 -8 20 -21c0 -12 -11 -21 -17 -21c-46 -4 -55 -6 -55 -50v-175c0 -43 9 -45 55 -49c6 0 17 -9 17 -21c1 -13 -11 -22 -20 -21c-18 2 -69 4 -93 4c-32 0 -79 -1 -103 -4
c-13 -2 -23 7 -22 22c1 12 14 20 18 20h-2c12 1 22 2 31 4c7 1 12 3 15 6c6 3 11 12 11 39v175c0 27 -5 36 -11 40c-3 2 -8 4 -16 6c-8 1 -18 2 -30 4z" />
    <glyph glyph-name="mu" unicode="&#xb5;" horiz-adv-x="794" 
d="M279 41h-2c11 1 21 2 30 3c8 1 14 2 20 4c11 3 16 6 20 12c9 14 11 45 11 119v24c0 234 -140 398 -284 398c-14 0 -24 -1 -36 -2c-4 0 -49 31 -8 45c36 12 72 18 106 18c143 0 250 -108 298 -240c59 133 171 234 298 234c25 0 49 -4 74 -12c18 -6 14 -24 12 -29
c-5 -12 -19 -16 -24 -15h1c-14 2 -27 3 -43 3c-150 0 -277 -184 -277 -400v-24c0 -34 0 -60 1 -80c2 -20 5 -32 9 -39c9 -16 30 -16 68 -19c7 0 18 -11 18 -24c1 -15 -10 -25 -22 -23c-32 5 -80 6 -122 6c-57 0 -104 -1 -145 -6c-16 -2 -24 10 -22 25c1 13 14 22 19 22z
M337 709c-35 0 -63 26 -63 58s28 61 65 61c34 0 62 -28 62 -59c0 -32 -28 -60 -64 -60zM524 709c-35 0 -62 27 -62 58c0 32 26 61 64 61c35 0 62 -28 62 -59c0 -32 -28 -60 -64 -60z" />
    <glyph glyph-name="trademark" unicode="&#x2122;" horiz-adv-x="578" 
d="M202 587v-2c-2 10 -6 14 -26 14h-10v-96c0 -20 -1 -26 19 -28c6 -2 26 -39 -6 -39c-9 1 -31 2 -44 2c-17 0 -36 0 -51 -2c-10 0 -15 36 -6 39c19 2 20 6 20 28v96h-13c-23 0 -25 -5 -29 -23c-16 -5 -43 7 -43 13c1 4 2 21 2 29c0 2 0 10 -2 17c0 4 39 23 39 23
c5 -22 12 -15 33 -15h91c20 0 28 -7 33 14c0 0 41 -18 41 -22c-2 -7 -2 -20 -2 -28v-10c0 -3 -1 -5 0 -6l-1 1c2 -6 1 -15 -13 -18c-2 0 -5 -1 -8 -1c-13 -1 -23 10 -24 14zM265 606h2c-6 1 -6 41 1 41c15 -3 38 -3 80 -3l60 -115l26 55c9 18 18 36 26 59c31 0 66 2 82 4
c7 0 7 -40 2 -41c-20 -1 -19 -6 -18 -27l2 -76c1 -20 0 -26 19 -27c6 0 10 -40 -2 -40c-9 1 -33 2 -47 2c-19 0 -36 0 -48 -2c-7 0 -8 40 -2 40c14 1 13 6 13 26l-1 27l-44 -89c-13 -4 -36 2 -39 6l-43 84l-1 -28c0 -17 -1 -25 19 -27c9 -3 4 -39 -6 -39c-9 1 -22 2 -34 2
c-17 0 -30 0 -42 -2h2c-7 -1 -21 6 -21 19c-1 12 12 20 16 20h-2c17 2 19 8 19 28l2 90c0 3 -5 11 -21 13z" />
    <glyph glyph-name="Eth" unicode="&#xd0;" horiz-adv-x="823" 
d="M369 589c-54 0 -78 -2 -94 -4c-4 -25 -6 -57 -6 -120v-108l52 12c12 3 27 -8 30 -27c4 -15 -2 -32 -12 -38c0 0 -70 1 -70 0v-161c0 -81 2 -89 145 -89c136 0 241 88 241 246c0 193 -110 289 -286 289zM71 603h2c-5 1 -17 9 -19 21c-2 14 5 26 22 24c41 -5 111 -6 169 -6
c25 0 118 4 154 4c246 0 376 -137 376 -315c0 -183 -158 -335 -389 -335c-35 0 -126 4 -150 4c-58 0 -119 -1 -160 -6c-16 -2 -24 10 -22 25c1 12 14 21 19 22h-2c11 1 21 2 30 3c8 1 14 2 20 3c11 3 16 7 20 12c9 14 11 44 11 119v88l-72 -17c-19 0 -52 57 -12 65l84 18
v132c0 74 -2 105 -11 120c-4 5 -9 9 -20 12c-6 1 -13 3 -21 4s-18 2 -29 3z" />
    <glyph glyph-name="onehalf" unicode="&#xbd;" horiz-adv-x="829" 
d="M41 603h2c-4 0 -17 9 -18 21c-1 15 8 25 22 22c24 -3 71 -3 103 -3c24 0 75 2 93 4c9 1 21 -8 20 -22c0 -12 -11 -21 -17 -22c-46 -3 -55 -6 -55 -52v-181c0 -45 9 -48 55 -51c6 0 17 -10 17 -22c1 -14 -11 -23 -20 -22c-18 2 -69 4 -93 4c-32 0 -79 -1 -103 -4
c-13 -3 -23 7 -22 23c1 12 14 21 18 21h-2c12 1 22 2 31 4c7 1 12 3 15 6c6 4 11 12 11 41v181c0 29 -5 38 -11 42c-3 2 -8 4 -16 6s-18 3 -30 4zM645 642l-482 -669c-4 -6 -19 -9 -31 -2c-13 8 -15 22 -10 29l482 669c4 6 19 9 31 2c13 -8 15 -22 10 -29zM473 298l-1 -1
c36 42 80 79 138 79c83 0 128 -56 128 -120c0 -65 -58 -130 -122 -176h57c62 0 73 -3 80 61c0 0 41 -30 41 -32v2c2 -20 -5 -79 -7 -92c-5 -15 -13 -23 -31 -23c-25 0 -78 3 -129 3c-68 0 -112 -1 -162 -3c-13 -1 -40 35 -15 47c137 65 196 122 196 190c0 48 -24 70 -60 70
c-35 0 -54 -11 -82 -36l1 1c-4 -4 -12 -7 -21 -2c-2 1 -5 3 -7 5c-10 8 -10 20 -4 27z" />
    <glyph glyph-name="plusminus" unicode="&#xb1;" horiz-adv-x="741" 
d="M721 340l2 -1c-12 1 -34 3 -71 3h-51l-2 -225c0 -35 16 -54 39 -54c20 0 47 1 81 10c6 4 16 1 17 1c2 -2 4 -3 4 -4c2 -1 4 -4 5 -6c7 -10 5 -23 -2 -27c-48 -34 -110 -51 -143 -51c-75 0 -109 37 -108 110l2 246c-21 0 -44 0 -52 -1c-11 -2 -23 27 -19 43
c120 40 130 84 130 114c0 58 -65 111 -152 111c-86 0 -155 -70 -155 -138c0 -18 3 -34 7 -46c16 3 33 4 50 4c48 0 96 -19 96 -48c0 -15 -21 -65 -48 -65c-10 0 -20 3 -29 7s-20 8 -30 13c-21 10 -41 18 -60 18c-66 0 -102 -39 -102 -129c0 -116 64 -164 128 -164
c48 0 85 18 114 38c5 4 20 3 29 -8c7 -10 6 -21 0 -28c-37 -36 -101 -77 -178 -77c-118 0 -202 89 -202 201c0 97 72 188 178 224c-9 23 -13 48 -13 78c0 104 93 214 217 214c125 0 207 -101 207 -220c0 -15 -5 -52 -7 -78h35c22 0 41 0 56 1c15 0 25 1 30 2
c7 2 19 -2 22 -17c1 -6 1 -12 0 -18c-1 -20 -17 -34 -25 -33z" />
    <glyph glyph-name="Thorn" unicode="&#xde;" horiz-adv-x="618" 
d="M269 509c26 7 48 8 64 8c137 0 239 -65 239 -172c0 -123 -114 -197 -278 -197h-16c-13 0 -13 47 0 47c4 0 10 -1 15 -1c112 0 160 41 160 136c0 87 -49 132 -147 132c-12 0 -24 0 -35 -1c-1 -11 -2 -24 -2 -39v-86v-159c0 -122 3 -131 85 -137c7 -1 18 -11 18 -24
c1 -15 -9 -24 -23 -22c-30 5 -86 6 -128 6c-57 0 -104 -1 -145 -6c-17 -2 -24 10 -22 24c1 13 14 21 19 22h-2c11 1 21 2 29 3s15 2 21 4c11 3 16 6 20 12c9 14 11 44 11 118v287c0 120 -1 130 -81 138h2c-5 1 -17 9 -19 21c-2 14 5 26 22 24c41 -5 88 -6 145 -6
c42 0 84 2 114 6c16 2 24 -9 22 -24c-1 -11 -12 -19 -20 -20h2c-62 -6 -69 -15 -70 -94z" />
    <glyph glyph-name="onequarter" unicode="&#xbc;" horiz-adv-x="785" 
d="M585 90v150l-132 -150h132zM41 603h2c-4 0 -16 8 -18 21c-1 15 10 24 20 23c24 -3 73 -4 105 -4c24 0 75 2 93 4c9 1 21 -8 20 -22c0 -13 -11 -22 -17 -22c-46 -3 -55 -6 -55 -52v-182c0 -46 9 -48 55 -52c6 0 17 -9 17 -22c1 -14 -11 -23 -20 -22c-18 3 -69 4 -93 4
c-32 0 -81 -1 -105 -4c-10 -1 -21 9 -20 23c2 13 14 21 18 22l-2 -1c12 2 22 3 31 4c7 2 12 4 15 6c6 4 11 13 11 42v182c0 28 -5 37 -11 41c-3 3 -8 5 -16 7c-8 1 -18 2 -30 4zM530 -77h-2c39 4 57 6 57 52v48h-2c-68 0 -154 -1 -203 -4c-18 -1 -30 31 -20 42l279 317
c3 4 39 18 39 -12v-276h96v-70c-32 0 -62 0 -96 1v-46c0 -45 10 -48 55 -52c7 0 17 -9 17 -21c1 -14 -10 -23 -20 -22c-17 2 -69 3 -92 3c-32 0 -81 0 -105 -3c-10 -1 -21 8 -20 22c0 13 13 21 17 21zM645 642l-482 -672c-4 -6 -19 -10 -31 -2c-13 8 -15 22 -10 29l482 672
c4 6 19 9 31 2c13 -8 15 -22 10 -29z" />
    <glyph glyph-name="degree" unicode="&#xb0;" horiz-adv-x="236" 
d="M118 624c-31 0 -55 -21 -55 -45c0 -25 24 -45 55 -45c30 0 55 20 55 45c0 24 -25 45 -55 45zM118 491c-58 0 -105 39 -105 88c0 48 47 88 105 88s106 -40 106 -88c0 -49 -48 -88 -106 -88z" />
    <glyph glyph-name="thorn" unicode="&#xfe;" horiz-adv-x="509" 
d="M252 337c-27 0 -54 -8 -84 -24v-235c38 -18 79 -26 110 -26c55 0 99 49 99 147c0 93 -63 138 -125 138zM135 733l-3 -3c4 4 17 9 28 3c10 -5 15 -16 14 -23c-5 -16 -6 -98 -6 -135v-199c45 28 89 43 127 43c111 0 195 -92 195 -198c0 -117 -119 -242 -272 -242
c-16 0 -33 1 -50 5v-128c0 -59 10 -62 86 -65c5 0 17 -9 18 -22c2 -15 -9 -25 -19 -24c-29 1 -105 2 -134 1c-39 -1 -74 -3 -101 -8v0c-9 -1 -22 7 -22 22c0 13 12 23 17 24l-1 -1c51 8 50 13 50 71v168c-3 1 -6 3 -9 4c-6 4 -12 8 -33 20l42 61v464c0 55 -5 54 -43 42
c-30 -9 -28 33 -17 41c21 11 47 24 71 38s47 28 62 41z" />
    <glyph glyph-name="threequarters" unicode="&#xbe;" horiz-adv-x="842" 
d="M643 90v150l-132 -150h132zM72 545l3 3c-4 -3 -19 -9 -30 -1c-12 9 -14 22 -5 30c36 42 80 77 137 77c67 0 118 -43 118 -105c0 -45 -25 -75 -75 -101c59 -24 88 -64 88 -115c0 -92 -106 -159 -260 -159c-14 0 -12 43 -1 44c142 9 170 60 170 106c0 39 -30 62 -114 76
c-8 2 -30 38 -7 50c83 23 110 59 110 89c0 24 -20 41 -55 41c-29 0 -54 -12 -79 -35zM588 -77h-2c39 4 57 6 57 52v48h-2c-68 0 -154 -1 -203 -4c-16 -1 -33 29 -21 42l280 317c3 4 39 18 39 -12v-276h96v-70c-32 0 -62 0 -96 1v-46c0 -45 9 -48 55 -52c7 0 17 -9 17 -21
c1 -14 -10 -23 -20 -22c-18 2 -68 3 -92 3c-32 0 -81 0 -105 -3c-10 -1 -21 8 -20 22c0 13 13 21 17 21zM703 642l-482 -672c-4 -6 -19 -10 -31 -2c-13 8 -15 22 -10 29l482 672c4 6 19 9 31 2c13 -8 15 -22 10 -29z" />
    <glyph glyph-name="twosuperior" unicode="&#xb2;" horiz-adv-x="413" 
d="M379 397v2c2 -19 -5 -76 -8 -89c-5 -16 -13 -21 -30 -21c-26 0 -80 3 -129 3c-69 0 -112 -1 -162 -4c-11 -1 -41 32 -15 45c137 63 195 118 195 183c0 47 -23 68 -59 68c-35 0 -54 -11 -83 -35l3 3c-4 -4 -20 -9 -30 -1c-11 8 -13 20 -4 28c36 41 80 74 136 74
c84 0 130 -53 130 -115s-58 -125 -123 -170h58c61 0 73 -4 76 30c0 5 44 5 45 -1z" />
    <glyph glyph-name="registered" unicode="&#xae;" horiz-adv-x="705" 
d="M334 343v-45c48 0 59 14 59 38c0 31 -16 43 -59 43v-36zM230 178h-2c26 3 28 9 28 45v115c0 31 1 40 -12 40c-4 0 -9 -1 -16 -2c-27 0 -19 36 -9 43c22 6 74 8 121 8c79 0 133 -24 133 -81c0 -29 -18 -57 -50 -74c25 -50 69 -100 102 -100c6 0 14 -43 0 -43
c-93 0 -150 59 -174 121c-5 0 -11 -1 -17 -1v-26c0 -34 -1 -43 25 -45c6 0 17 -10 17 -23c-1 -14 -12 -22 -22 -20v0c-9 1 -37 2 -55 2c-23 0 -51 0 -67 -3c-10 -1 -21 9 -20 23c2 13 14 21 18 21zM352 521c-145 0 -263 -109 -263 -244c0 -133 118 -242 263 -242
c147 0 265 109 265 242c0 134 -118 244 -265 244zM352 -14c-173 0 -314 131 -314 291c0 161 141 292 314 292c174 0 316 -131 316 -292c0 -160 -142 -291 -316 -291z" />
    <glyph glyph-name="eth" unicode="&#xf0;" horiz-adv-x="496" 
d="M362 315c-33 22 -81 38 -130 38c-61 0 -104 -40 -104 -137c0 -105 73 -154 136 -154c47 0 101 46 101 203c0 16 -1 33 -3 50zM346 28c-46 -33 -91 -42 -132 -42c-103 0 -193 86 -193 199c0 124 111 234 257 234c19 0 40 -2 60 -4c-11 29 -25 56 -44 79
c-2 -1 -53 -52 -53 -52c-18 -5 -69 35 -35 55l52 31c-27 20 -62 34 -106 34c-15 0 -59 -12 -74 -25c-9 -9 -22 -8 -30 -2c-11 8 -11 21 -4 32c31 43 96 73 148 73c62 0 116 -22 158 -57l46 29c17 11 49 -38 38 -52l-39 -24c50 -64 77 -150 77 -234
c0 -130 -36 -210 -126 -274z" />
    <glyph glyph-name="threesuperior" unicode="&#xb3;" horiz-adv-x="344" 
d="M72 547l3 3c-4 -3 -19 -9 -30 -1c-12 9 -14 21 -5 29c36 41 80 75 137 75c67 0 118 -42 118 -102c0 -44 -25 -73 -75 -99c59 -23 88 -62 88 -112c0 -90 -106 -155 -260 -155c-14 0 -12 42 -1 43c142 9 170 59 170 104c0 37 -30 60 -114 73c-8 3 -30 38 -7 49
c83 22 110 57 110 87c0 23 -20 40 -55 40c-29 0 -54 -11 -79 -34z" />
    <glyph glyph-name="copyright" unicode="&#xa9;" horiz-adv-x="705" 
d="M470 150c-19 -12 -49 -23 -103 -23c-104 0 -176 66 -176 145c0 81 74 157 178 157c43 0 88 -17 99 -24c3 -3 15 -46 16 -76c0 -14 -42 -14 -46 -5c-5 25 -26 56 -79 56s-87 -33 -87 -93c0 -79 49 -112 99 -112c37 0 67 23 69 53c1 8 37 14 45 2c-1 -35 -12 -77 -15 -80z
M352 521c-145 0 -263 -109 -263 -244c0 -133 118 -242 263 -242c147 0 265 109 265 242c0 134 -118 244 -265 244zM352 -14c-173 0 -314 131 -314 291c0 161 141 292 314 292c174 0 316 -131 316 -292c0 -160 -142 -291 -316 -291z" />
    <glyph glyph-name="Aacute" unicode="&#xc1;" horiz-adv-x="718" 
d="M412 297l-73 194l-89 -194h162zM441 41h-2c12 2 22 2 31 3c8 1 14 2 19 4c6 2 7 3 7 9c0 12 -4 28 -11 49s-17 44 -26 68l-26 68h-208l-31 -69c-13 -28 -24 -52 -31 -71c-7 -20 -11 -34 -11 -45c0 -17 16 -13 50 -16c7 0 18 -10 18 -24c1 -15 -10 -25 -23 -23
c-30 4 -52 6 -93 6c-58 0 -59 0 -100 -6c-13 -2 -23 8 -22 24c1 13 14 23 18 23c58 4 79 36 130 146l217 467c10 22 41 15 47 0l185 -468c46 -117 62 -140 137 -146c10 -3 18 -49 -8 -46c-30 4 -72 6 -113 6c-58 0 -109 0 -151 -6c-13 -2 -23 8 -22 24c1 13 14 23 19 23z
M547 852l-166 -167c-9 -9 -22 -8 -29 -4c-12 5 -16 19 -7 31l145 185c7 9 28 9 44 -3c17 -13 21 -34 13 -42z" />
    <glyph glyph-name="Acircumflex" unicode="&#xc2;" horiz-adv-x="718" 
d="M498 698c-8 -4 -22 -5 -31 6l-101 115l-96 -115c-8 -10 -22 -9 -29 -6c-8 3 -20 13 -11 26l117 179c10 15 36 10 43 -1l118 -177c8 -13 -3 -24 -10 -27zM412 294l-73 192l-89 -192h162zM441 41h-2c12 1 22 2 31 3c8 1 14 2 19 3c6 2 7 3 7 9c0 12 -4 28 -11 49
c-7 20 -17 43 -26 67l-26 67h-208l-31 -68c-13 -28 -24 -51 -31 -71c-7 -19 -11 -33 -11 -44c0 -16 16 -13 50 -15c7 -1 18 -10 18 -24c1 -15 -10 -25 -23 -23c-30 4 -52 6 -93 6c-58 0 -59 -1 -100 -6c-13 -2 -23 8 -22 24c1 13 14 23 18 23c58 4 79 35 130 144l217 462
c10 21 41 15 47 -1l185 -462c46 -116 62 -139 137 -144c10 -3 18 -49 -8 -46c-30 4 -72 6 -113 6c-58 0 -109 0 -151 -6c-13 -2 -23 8 -22 24c1 13 14 22 19 23z" />
    <glyph glyph-name="Adieresis" unicode="&#xc4;" horiz-adv-x="718" 
d="M412 296l-73 194l-89 -194h162zM441 41h-2c12 1 22 2 31 3c8 1 14 2 19 4c6 2 7 3 7 9c0 12 -4 28 -11 49c-7 20 -17 43 -26 67l-26 68h-208l-31 -68c-13 -29 -24 -52 -31 -72c-7 -19 -11 -33 -11 -44c0 -17 16 -13 50 -16c7 0 18 -10 18 -24c1 -15 -10 -25 -23 -23
c-30 4 -52 6 -93 6c-58 0 -59 0 -100 -6c-13 -2 -23 8 -22 24c1 13 14 23 18 23c58 4 79 35 130 145l217 466c10 22 41 15 47 0l185 -467c46 -116 62 -140 137 -145c10 -3 18 -49 -8 -46c-30 4 -72 6 -113 6c-58 0 -109 0 -151 -6c-13 -2 -23 8 -22 24c1 13 14 23 19 23z
M272 709c-35 0 -63 26 -63 58s28 61 65 61c34 0 62 -28 62 -59c0 -32 -28 -60 -64 -60zM459 709c-35 0 -62 27 -62 58c0 32 26 61 64 61c35 0 62 -28 62 -59c0 -32 -28 -60 -64 -60z" />
    <glyph glyph-name="Agrave" unicode="&#xc0;" horiz-adv-x="718" 
d="M412 294l-73 192l-89 -192h162zM441 41h-2c12 1 22 2 31 3c8 1 14 2 19 3c6 2 7 3 7 9c0 12 -4 28 -11 49c-7 20 -17 43 -26 67l-26 67h-208l-31 -68c-13 -28 -24 -51 -31 -71c-7 -19 -11 -33 -11 -44c0 -16 16 -13 50 -15c7 -1 18 -10 18 -24c1 -15 -10 -25 -23 -23
c-30 4 -52 6 -93 6c-58 0 -59 -1 -100 -6c-13 -2 -23 8 -22 24c1 13 14 23 18 23c58 4 79 35 130 144l217 462c10 21 41 15 47 -1l185 -462c46 -116 62 -139 137 -144c10 -3 18 -49 -8 -46c-30 4 -72 6 -113 6c-58 0 -109 0 -151 -6c-13 -2 -23 8 -22 24c1 13 14 22 19 23z
M372 700c-8 -4 -21 -6 -31 3l-165 151c-8 7 -4 26 13 37c16 11 37 11 44 3l146 -166c11 -13 0 -25 -7 -28z" />
    <glyph glyph-name="Aring" unicode="&#xc5;" horiz-adv-x="718" 
d="M412 296l-73 194l-89 -194h162zM371 773c-32 0 -56 -24 -56 -51c0 -29 24 -52 56 -52c30 0 55 23 55 52c0 27 -25 51 -55 51zM343 624l2 4c-51 15 -80 50 -80 94c0 54 47 99 106 99c57 0 105 -45 105 -99c0 -48 -36 -86 -95 -98c-7 -2 -13 -3 -20 -3c0 39 24 28 26 25
c2 -1 2 -3 3 -4s1 -2 2 -4c1 -3 3 -8 6 -14c5 -13 13 -30 21 -52c18 -42 42 -99 65 -157c48 -114 95 -229 95 -229c48 -117 62 -141 137 -146c10 -3 18 -49 -8 -46c-30 4 -72 6 -113 6c-58 0 -109 0 -151 -6c-13 -2 -23 8 -22 24c1 13 14 23 19 23h-2c12 1 22 2 31 3
c8 1 14 2 19 4c6 2 7 3 7 9c0 12 -4 28 -11 49c-7 20 -17 43 -26 67l-26 68h-208l-31 -68c-13 -29 -24 -52 -31 -72c-7 -19 -11 -33 -11 -44c0 -17 16 -13 50 -16c7 0 18 -10 18 -24c1 -15 -10 -25 -23 -23c-30 4 -52 6 -93 6c-58 0 -59 0 -100 -6c-13 -2 -23 8 -22 24
c1 13 14 23 18 23c58 4 77 36 130 145c2 3 56 117 111 230c28 57 56 115 77 157c10 22 19 39 25 51z" />
    <glyph glyph-name="Atilde" unicode="&#xc3;" horiz-adv-x="718" 
d="M412 296l-73 194l-89 -194h162zM441 41h-2c12 1 22 2 31 3c8 1 14 2 19 4c6 2 7 3 7 9c0 12 -4 28 -11 49c-7 20 -17 43 -26 67l-26 68h-208l-31 -68c-13 -29 -24 -52 -31 -72c-7 -19 -11 -33 -11 -44c0 -17 16 -13 50 -16c7 0 18 -10 18 -24c1 -15 -10 -25 -23 -23
c-30 4 -52 6 -93 6c-58 0 -59 0 -100 -6c-13 -2 -23 8 -22 24c1 13 14 23 18 23c58 4 79 36 130 145l217 467c10 21 41 15 47 -1l185 -466c46 -117 62 -141 137 -146c10 -3 18 -49 -8 -46c-30 4 -72 6 -113 6c-58 0 -109 0 -151 -6c-13 -2 -23 8 -22 24c1 13 14 23 19 23z
M498 824v-3c1 3 6 15 20 14c2 0 5 -1 8 -1c13 -3 21 -15 21 -20c-5 -60 -42 -106 -107 -106c-15 0 -29 2 -42 6s-26 8 -40 13c-26 10 -51 18 -78 18c-20 0 -39 -10 -50 -61c-18 -4 -47 11 -47 17c7 69 54 113 120 113c13 0 27 -3 39 -6l39 -12c27 -9 51 -17 72 -17
s36 3 45 45z" />
    <glyph glyph-name="Ccedilla" unicode="&#xc7;" horiz-adv-x="736" 
d="M670 27c-39 -28 -106 -55 -231 -55l-6 -7c62 -25 93 -66 93 -107c0 -58 -50 -116 -158 -131c-12 -2 -22 7 -24 20s8 24 16 25c72 10 78 49 78 65c0 19 -11 45 -112 72l48 68c-201 26 -325 168 -325 327c0 169 164 358 394 358c96 0 199 -37 223 -55c8 -6 23 -82 25 -147
c0 -13 -43 -14 -46 -5c-16 69 -84 149 -226 149c-141 0 -248 -96 -248 -264c0 -206 142 -308 277 -308c100 0 193 58 200 146c0 4 11 16 25 15c14 0 24 -10 24 -19c-3 -65 -18 -140 -27 -147z" />
    <glyph glyph-name="Eacute" unicode="&#xc9;" horiz-adv-x="634" 
d="M531 124v-2c1 3 11 16 26 15c14 -2 23 -13 22 -21c-4 -24 -14 -70 -20 -91c-7 -24 -19 -30 -42 -30c-37 0 -101 5 -175 5c-101 0 -203 -1 -276 -6c-14 -1 -23 10 -21 25c1 12 14 21 19 22h-2c25 2 43 4 57 7c13 3 18 7 22 12c10 14 11 43 11 118v286c0 76 -1 105 -11 119
c-4 5 -9 9 -22 12c-14 4 -32 5 -57 8h2c-5 1 -17 9 -19 21c-2 15 5 26 21 25c73 -5 170 -7 272 -7c74 0 141 2 222 9c-12 -37 -13 -52 -13 -72v-19c0 -6 0 -12 1 -15c1 -9 -8 -20 -24 -19c-12 0 -22 9 -24 13c-5 30 -11 44 -145 44h-83c-2 -25 -3 -64 -3 -114v-108h88
c56 0 78 2 87 6c2 1 3 1 3 2c1 1 1 2 1 5c1 2 2 6 3 9c2 7 39 9 50 -1c-6 -21 -8 -42 -8 -64c0 -10 0 -28 1 -35v0c1 -9 -7 -20 -23 -20c-12 0 -23 9 -25 13c-5 26 -12 31 -89 31h-88v-126c0 -108 7 -121 47 -121h53c139 0 149 7 162 64zM490 858l-166 -151
c-9 -8 -22 -8 -29 -4c-12 5 -16 18 -7 29l145 166c7 8 28 8 44 -3c17 -12 21 -30 13 -37z" />
    <glyph glyph-name="Ecircumflex" unicode="&#xca;" horiz-adv-x="634" 
d="M531 126v-3c1 4 11 16 26 15c14 -1 23 -13 22 -21c-4 -24 -14 -70 -20 -91c-7 -25 -19 -31 -42 -31c-37 0 -101 5 -175 5c-101 0 -203 -1 -276 -6c-14 -1 -23 10 -21 25c1 13 14 22 19 22h-2c25 3 43 5 57 8c13 3 18 7 22 12c10 14 11 43 11 119v290c0 77 -1 106 -11 121
c-4 5 -9 9 -22 12c-14 3 -32 5 -57 8h2c-5 0 -17 9 -19 21c-2 15 5 26 21 25c73 -5 170 -6 272 -6c74 0 141 1 222 8c-12 -37 -13 -52 -13 -72v-19s0 -13 1 -16c1 -9 -8 -20 -24 -20c-12 1 -22 9 -24 14c-5 31 -11 45 -145 45h-83c-2 -26 -3 -65 -3 -116v-109h88
c56 0 78 2 87 6c2 0 3 1 3 2c1 1 1 2 1 5c1 2 2 6 3 9c2 7 39 9 50 -1c-6 -21 -8 -43 -8 -65c0 -10 0 -28 1 -36v1c1 -9 -7 -20 -23 -20c-12 0 -23 8 -25 13c-5 26 -12 31 -89 31h-88v-127c0 -110 7 -123 47 -123h53c139 0 149 7 162 65zM468 676c-8 -5 -22 -5 -31 6
l-101 127l-96 -126c-8 -11 -22 -10 -29 -7c-8 3 -20 14 -11 29l117 197c10 17 36 11 43 -1l118 -196c8 -14 -3 -25 -10 -29z" />
    <glyph glyph-name="Edieresis" unicode="&#xcb;" horiz-adv-x="634" 
d="M531 126v-3c1 4 11 16 26 15c14 -1 23 -13 22 -21c-4 -24 -14 -71 -20 -91c-7 -25 -19 -31 -42 -31c-37 0 -101 5 -175 5c-101 0 -203 -1 -276 -6c-14 -1 -23 10 -21 25c1 13 14 22 19 22h-2c25 3 43 4 57 8c13 3 18 6 22 12c10 13 11 43 11 118v290c0 76 -1 106 -11 120
c-4 5 -9 9 -22 12c-14 3 -32 5 -57 8h2c-5 0 -17 9 -19 21c-2 15 5 26 21 25c73 -5 170 -7 272 -7c74 0 141 2 222 9c-12 -37 -13 -52 -13 -72v-19c0 -6 0 -12 1 -16c1 -8 -8 -20 -24 -19c-12 0 -22 9 -24 13c-5 31 -11 45 -145 45h-83c-2 -26 -3 -65 -3 -115v-109h88
c56 0 78 2 87 6c2 0 3 1 3 2c1 1 1 2 1 4c1 3 2 7 3 10c2 7 39 9 50 -2c-6 -20 -8 -42 -8 -64c0 -10 0 -28 1 -36v1c1 -9 -7 -20 -23 -20c-12 0 -23 8 -25 13c-5 26 -12 31 -89 31h-88v-127c0 -109 7 -122 47 -122h53c139 0 149 7 162 65zM237 709c-35 0 -63 26 -63 58
s28 61 65 61c34 0 62 -28 62 -59c0 -32 -28 -60 -64 -60zM424 709c-35 0 -62 27 -62 58c0 32 26 61 64 61c35 0 62 -28 62 -59c0 -32 -28 -60 -64 -60z" />
    <glyph glyph-name="Egrave" unicode="&#xc8;" horiz-adv-x="634" 
d="M531 126v-3c1 4 11 16 26 15c14 -1 23 -13 22 -21c-4 -24 -14 -70 -20 -91c-7 -25 -19 -31 -42 -31c-37 0 -101 5 -175 5c-101 0 -203 -1 -276 -6c-14 -1 -23 10 -21 25c1 13 14 22 19 22h-2c25 3 43 5 57 8c13 3 18 7 22 12c10 14 11 43 11 119v290c0 77 -1 106 -11 120
c-4 6 -9 10 -22 13c-14 3 -32 5 -57 8h2c-5 0 -17 9 -19 21c-2 15 5 26 21 25c73 -5 170 -7 272 -7c74 0 141 2 222 9c-12 -37 -13 -53 -13 -73v-19c0 -6 0 -12 1 -15c1 -9 -8 -21 -24 -20c-12 1 -22 9 -24 14c-5 30 -11 44 -145 44h-83c-2 -25 -3 -64 -3 -115v-109h88
c56 0 78 2 87 6c2 0 3 1 3 2c1 1 1 2 1 4c1 3 2 7 3 10c2 7 39 9 50 -1c-6 -21 -8 -43 -8 -65c0 -10 0 -28 1 -36v1c1 -9 -7 -21 -23 -21c-12 0 -23 9 -25 14c-5 26 -12 31 -89 31h-88v-127c0 -110 7 -123 47 -123h53c139 0 149 7 162 65zM387 677c-8 -4 -21 -6 -31 4
l-165 167c-8 9 -4 29 13 42c16 12 37 12 44 3l146 -185c11 -13 0 -26 -7 -31z" />
    <glyph glyph-name="Iacute" unicode="&#xcd;" horiz-adv-x="451" 
d="M86 611h2c-5 0 -17 9 -19 21c-2 14 5 26 22 24c42 -5 88 -6 146 -6c41 0 91 2 121 6c22 3 24 -18 23 -23c-1 -13 -12 -22 -19 -22c-82 -7 -77 -16 -77 -141v-290c0 -35 0 -61 1 -81c2 -20 5 -31 9 -38c9 -17 29 -17 67 -20c7 0 18 -10 19 -23c1 -14 -7 -26 -23 -24
c-30 4 -80 6 -121 6c-58 0 -104 -1 -146 -6c-16 -2 -24 10 -22 25c1 13 14 22 19 22h-2c11 1 21 2 30 3c8 1 14 3 20 4c11 3 16 7 20 12c9 14 11 45 11 120v290c0 75 -2 106 -11 121c-4 6 -9 9 -20 12c-6 2 -13 3 -21 4c-8 2 -18 3 -29 4zM392 852l-166 -167
c-9 -9 -22 -8 -29 -4c-12 5 -16 19 -7 31l145 185c7 9 28 9 44 -3c17 -13 21 -34 13 -42z" />
    <glyph glyph-name="Icircumflex" unicode="&#xce;" horiz-adv-x="451" 
d="M86 611h2c-5 0 -17 9 -19 21c-2 15 5 26 22 24c42 -4 88 -5 146 -5c41 0 91 2 121 5c22 3 24 -18 23 -23c-1 -13 -12 -22 -19 -22c-82 -6 -77 -16 -77 -141v-290c0 -35 0 -61 1 -81c2 -20 5 -31 9 -38c9 -17 29 -17 67 -20c7 0 18 -10 19 -23c1 -14 -7 -26 -23 -24
c-30 4 -80 6 -121 6c-58 0 -104 -1 -146 -6c-16 -2 -24 10 -22 25c1 13 14 22 19 22h-2c11 1 21 2 30 3c8 1 14 3 20 4c11 3 16 7 20 12c9 14 11 45 11 120v290c0 75 -2 106 -11 121c-4 6 -9 10 -20 13c-6 1 -13 2 -21 4c-8 1 -18 2 -29 3zM356 676c-8 -5 -22 -5 -31 6
l-101 127l-96 -126c-8 -11 -22 -10 -29 -7c-8 3 -20 14 -11 29l117 197c10 17 36 11 43 -1l118 -196c8 -14 -3 -25 -10 -29z" />
    <glyph glyph-name="Idieresis" unicode="&#xcf;" horiz-adv-x="451" 
d="M86 609h2c-5 0 -17 9 -19 21c-2 15 5 26 22 24c42 -4 88 -6 146 -6c41 0 91 3 121 6c22 3 24 -18 23 -23c-1 -13 -12 -22 -19 -22c-82 -6 -77 -16 -77 -140v-290c0 -34 0 -60 1 -80c2 -20 5 -32 9 -39c9 -16 29 -16 67 -19c7 0 18 -10 19 -23c1 -15 -7 -26 -23 -24
c-30 4 -80 6 -121 6c-58 0 -104 -1 -146 -6c-16 -2 -24 10 -22 25c1 13 14 22 19 22h-2c11 1 21 2 30 3c8 1 14 2 20 4c11 3 16 6 20 12c9 14 11 45 11 119v290c0 75 -2 105 -11 120c-4 6 -9 10 -20 13c-6 1 -13 2 -21 4c-8 1 -18 2 -29 3zM133 709c-35 0 -63 26 -63 58
s28 61 65 61c34 0 62 -28 62 -59c0 -32 -28 -60 -64 -60zM320 709c-35 0 -62 27 -62 58c0 32 26 61 64 61c35 0 62 -28 62 -59c0 -32 -28 -60 -64 -60z" />
    <glyph glyph-name="Igrave" unicode="&#xcc;" horiz-adv-x="451" 
d="M86 611h2c-5 0 -17 9 -19 21c-2 14 5 26 22 24c42 -5 88 -6 146 -6c41 0 91 2 121 6c22 3 24 -18 23 -23c-1 -13 -12 -22 -19 -22c-82 -7 -77 -16 -77 -141v-290c0 -35 0 -61 1 -81c2 -20 5 -31 9 -38c9 -17 29 -17 67 -20c7 0 18 -10 19 -23c1 -14 -7 -26 -23 -24
c-30 4 -80 6 -121 6c-58 0 -104 -1 -146 -6c-16 -2 -24 10 -22 25c1 13 14 22 19 22h-2c11 1 21 2 30 3c8 1 14 3 20 4c11 3 16 6 20 12c9 14 11 45 11 120v290c0 75 -2 106 -11 121c-4 6 -9 9 -20 12c-6 2 -13 3 -21 4s-18 3 -29 4zM267 677c-8 -4 -21 -6 -31 4l-165 167
c-8 9 -4 29 13 42c16 12 37 12 44 3l146 -185c11 -13 0 -26 -7 -31z" />
    <glyph glyph-name="Ntilde" unicode="&#xd1;" horiz-adv-x="858" 
d="M581 603h2c-5 1 -17 10 -19 22c-1 15 8 25 23 23c40 -6 64 -6 121 -6c42 0 70 2 99 6c19 2 25 -14 24 -23c0 -5 -4 -21 -20 -22c-78 -7 -78 -11 -78 -139v-287c0 -47 2 -133 7 -174c0 -29 -38 -17 -44 -12l-468 468v-282c0 -31 0 -56 1 -75c2 -19 5 -31 9 -39
c7 -13 21 -19 69 -23c4 0 17 -10 18 -22c1 -15 -7 -26 -23 -24c-30 3 -57 5 -98 5c-58 0 -82 -1 -123 -5c-16 -2 -24 9 -22 24c1 13 14 22 19 22h-2c80 8 81 18 81 137v336c0 34 -57 85 -99 90h2c-5 1 -17 9 -19 21c-2 14 5 26 22 24c41 -5 80 -7 144 -7l455 -457v280
c0 119 0 131 -81 139zM562 826v-3c1 3 6 13 20 12c2 0 5 -1 8 -1c13 -3 21 -12 21 -17c-5 -50 -42 -89 -107 -89c-15 0 -29 2 -42 5s-26 7 -40 11c-26 8 -51 16 -78 16c-20 0 -39 -9 -50 -52c-18 -3 -47 10 -47 15c7 57 54 94 120 94c13 0 27 -2 39 -5c13 -3 26 -6 39 -10
c27 -8 51 -14 72 -14s36 3 45 38z" />
    <glyph glyph-name="Oacute" unicode="&#xd3;" horiz-adv-x="862" 
d="M417 612c-142 0 -248 -97 -248 -265c0 -205 142 -308 276 -308c142 0 249 96 249 264c0 205 -143 309 -277 309zM421 -20c-220 0 -372 159 -372 335c0 169 162 355 391 355c221 0 374 -159 374 -335c0 -169 -163 -355 -393 -355zM593 852l-166 -167c-9 -9 -22 -8 -29 -4
c-12 5 -16 19 -7 31l145 185c7 9 28 9 44 -4c17 -12 21 -33 13 -41z" />
    <glyph glyph-name="Ocircumflex" unicode="&#xd4;" horiz-adv-x="862" 
d="M417 612c-142 0 -248 -97 -248 -265c0 -205 142 -308 276 -308c142 0 249 96 249 264c0 205 -143 309 -277 309zM421 -20c-220 0 -372 159 -372 335c0 169 162 355 391 355c221 0 374 -159 374 -334c0 -170 -163 -356 -393 -356zM560 676c-8 -5 -22 -5 -31 6l-101 127
l-96 -126c-8 -11 -22 -10 -29 -7c-8 3 -20 14 -11 29l117 197c10 17 36 11 43 -1l118 -196c8 -14 -3 -25 -10 -29z" />
    <glyph glyph-name="Odieresis" unicode="&#xd6;" horiz-adv-x="862" 
d="M417 610c-142 0 -248 -96 -248 -264c0 -205 142 -307 276 -307c142 0 249 95 249 263c0 204 -143 308 -277 308zM421 -20c-220 0 -372 159 -372 334c0 168 162 354 391 354c221 0 374 -159 374 -334c0 -169 -163 -354 -393 -354zM337 709c-35 0 -63 26 -63 58
s28 61 65 61c34 0 62 -28 62 -59c0 -32 -28 -60 -64 -60zM524 709c-35 0 -62 27 -62 58c0 32 26 61 64 61c35 0 62 -28 62 -59c0 -32 -28 -60 -64 -60z" />
    <glyph glyph-name="Ograve" unicode="&#xd2;" horiz-adv-x="862" 
d="M417 605c-142 0 -248 -96 -248 -262c0 -203 142 -305 276 -305c142 0 249 95 249 261c0 203 -143 306 -277 306zM421 -20c-220 0 -372 157 -372 331c0 167 162 351 391 351c221 0 374 -157 374 -330c0 -168 -163 -352 -393 -352zM452 700c-8 -4 -21 -6 -31 3l-165 151
c-8 7 -4 26 13 37c16 11 37 11 44 3l146 -166c11 -13 0 -25 -7 -28z" />
    <glyph glyph-name="Otilde" unicode="&#xd5;" horiz-adv-x="862" 
d="M556 826v-3c1 3 6 13 20 12c2 0 5 -1 8 -1c13 -3 21 -12 21 -17c-5 -50 -42 -89 -107 -89c-15 0 -29 2 -42 5s-26 7 -40 11c-26 8 -51 16 -78 16c-20 0 -39 -9 -50 -52c-18 -3 -47 10 -47 15c7 57 54 94 120 94c13 0 27 -2 39 -5c13 -3 26 -6 39 -10c27 -8 51 -14 72 -14
s36 3 45 38zM417 605c-142 0 -248 -96 -248 -262c0 -203 142 -305 276 -305c142 0 249 95 249 261c0 203 -143 306 -277 306zM421 -20c-220 0 -372 157 -372 331c0 167 162 351 391 351c221 0 374 -157 374 -330c0 -168 -163 -352 -393 -352z" />
    <glyph glyph-name="Scaron" unicode="&#x160;" horiz-adv-x="534" 
d="M414 511v-2c-11 64 -53 96 -119 96c-58 0 -105 -35 -105 -84c0 -33 16 -57 41 -80c13 -11 28 -21 45 -32c17 -10 36 -20 54 -30c73 -41 155 -89 155 -190c0 -113 -91 -209 -220 -209c-75 0 -136 23 -192 67c-3 3 -7 22 -5 52c1 23 4 53 6 87c1 25 47 20 48 1
c6 -92 58 -149 152 -149c63 0 118 33 118 98c0 35 -16 61 -42 84c-13 12 -29 23 -46 34c-18 11 -36 21 -55 31c-74 41 -158 89 -158 185s88 192 212 192c61 0 101 -13 138 -32c9 -5 23 -45 23 -117c0 -7 -10 -18 -25 -18c-14 0 -24 11 -25 16zM442 890l-119 -179
c-7 -8 -32 -15 -43 2l-116 177c-9 13 2 23 10 27c8 3 21 4 30 -6l101 -115l96 115c9 11 23 10 32 6c8 -4 17 -15 9 -27z" />
    <glyph glyph-name="Uacute" unicode="&#xda;" horiz-adv-x="838" 
d="M713 479v-242c0 -140 -99 -257 -285 -257c-159 0 -292 98 -292 263v227c0 75 -2 106 -11 121c-3 6 -8 9 -19 12c-6 2 -12 3 -20 4s-17 3 -28 4c-16 1 -20 17 -20 21c-1 7 2 26 23 24c42 -5 88 -6 145 -6c42 0 93 2 122 6c22 3 24 -18 23 -24c-1 -12 -13 -21 -18 -21
c-39 -4 -59 -4 -69 -21c-4 -7 -7 -19 -9 -39c-1 -20 -1 -46 -1 -81v-207c0 -145 104 -206 200 -206c127 0 192 63 192 189v233c0 120 -7 123 -85 132c-7 0 -17 10 -18 22c-1 5 2 25 23 23c42 -5 67 -6 125 -6c41 0 70 2 100 6c20 2 24 -17 24 -23c-1 -12 -11 -22 -19 -22
c-80 -7 -83 -16 -83 -132zM609 852l-166 -167c-9 -9 -22 -8 -29 -4c-12 5 -16 19 -7 31l145 185c7 9 28 9 44 -4c17 -12 21 -33 13 -41z" />
    <glyph glyph-name="Ucircumflex" unicode="&#xdb;" horiz-adv-x="838" 
d="M713 479v-242c0 -140 -99 -257 -285 -257c-159 0 -292 98 -292 264v226c0 75 -2 106 -11 121c-3 6 -8 9 -19 12c-6 2 -12 3 -20 4c-8 2 -17 3 -28 4c-16 1 -20 17 -20 22c-1 6 2 25 23 23c42 -5 88 -6 145 -6c42 0 93 3 122 6c22 3 24 -18 23 -24c-1 -12 -13 -21 -18 -21
c-39 -3 -59 -4 -69 -21c-4 -7 -7 -19 -9 -39c-1 -20 -1 -46 -1 -81v-207c0 -145 104 -206 200 -206c127 0 192 63 192 189v233c0 120 -7 123 -85 132c-7 1 -17 10 -18 22c-1 6 2 25 23 23c42 -5 67 -6 125 -6c41 0 70 3 100 6c20 3 24 -17 24 -22c-1 -13 -11 -23 -19 -23
c-80 -7 -83 -16 -83 -132zM575 676c-8 -5 -22 -5 -31 6l-101 127l-96 -126c-8 -11 -22 -10 -29 -7c-8 3 -20 14 -11 29l117 197c10 17 36 11 43 -1l118 -196c8 -14 -3 -25 -10 -29z" />
    <glyph glyph-name="Udieresis" unicode="&#xdc;" horiz-adv-x="838" 
d="M713 477v-241c0 -139 -99 -256 -285 -256c-159 0 -292 98 -292 263v226c0 75 -2 105 -11 120c-3 6 -8 10 -19 13c-6 1 -12 2 -20 3c-8 2 -17 3 -28 4c-16 1 -20 17 -20 22c-1 6 2 25 23 23c42 -5 88 -6 145 -6c42 0 93 3 122 6c22 3 24 -18 23 -24
c-1 -12 -13 -21 -18 -21c-39 -3 -59 -4 -69 -21c-4 -7 -7 -18 -9 -39c-1 -20 -1 -46 -1 -80v-207c0 -144 104 -206 200 -206c127 0 192 64 192 190v231c0 120 -7 123 -85 132c-7 1 -17 10 -18 22c-1 6 2 25 23 23c42 -5 67 -6 125 -6c41 0 70 2 100 6c20 2 24 -17 24 -22
c-1 -13 -11 -23 -19 -23c-80 -7 -83 -16 -83 -132zM349 709c-35 0 -63 26 -63 58s28 61 65 61c34 0 62 -28 62 -59c0 -32 -28 -60 -64 -60zM536 709c-35 0 -62 27 -62 58c0 32 26 61 64 61c35 0 62 -28 62 -59c0 -32 -28 -60 -64 -60z" />
    <glyph glyph-name="Ugrave" unicode="&#xd9;" horiz-adv-x="838" 
d="M483 700c-8 -4 -21 -6 -31 3l-165 151c-8 7 -4 26 13 37c16 11 37 11 44 3l146 -166c11 -13 0 -25 -7 -28zM713 473v-239c0 -138 -99 -254 -285 -254c-159 0 -292 97 -292 260v224c0 74 -2 105 -11 120c-3 5 -8 9 -19 12c-6 1 -12 3 -20 4s-17 2 -28 3
c-16 1 -20 17 -20 22c-1 6 2 25 23 23c42 -5 88 -6 145 -6c42 0 93 2 122 6c22 2 24 -18 23 -24c-1 -12 -13 -21 -18 -21c-39 -3 -59 -3 -69 -20c-4 -7 -7 -19 -9 -39c-1 -20 -1 -46 -1 -80v-205c0 -143 104 -203 200 -203c127 0 192 63 192 187v230c0 118 -7 121 -85 130
c-7 1 -17 10 -18 22c-1 6 2 25 23 23c42 -5 67 -6 125 -6c41 0 70 2 100 6c20 2 24 -17 24 -22c-1 -13 -11 -22 -19 -23c-80 -6 -83 -16 -83 -130z" />
    <glyph glyph-name="Yacute" unicode="&#xdd;" horiz-adv-x="763" 
d="M248 41h-2c11 1 21 2 30 3c8 1 15 2 21 4c10 3 16 6 19 11c9 15 11 44 11 119v127l-88 129c-98 143 -119 161 -196 169c-7 2 -17 11 -18 22c-1 16 8 25 23 23c41 -6 87 -6 144 -6c42 0 91 2 121 6c22 2 23 -19 23 -23c-1 -13 -14 -22 -18 -22c-31 -2 -45 -3 -41 -20
c3 -10 10 -25 24 -47c14 -21 34 -49 57 -83l55 -78l74 101c24 33 43 58 56 77c13 20 19 31 20 38c3 14 -13 9 -42 12c-7 1 -17 11 -18 22c-1 15 8 25 23 23c40 -6 62 -6 120 -6c41 0 58 2 89 6c21 2 24 -18 23 -23c-1 -12 -12 -21 -19 -22c-78 -6 -94 -21 -189 -148
l-106 -141v-136c0 -34 0 -60 1 -80c2 -20 5 -31 9 -38c9 -16 30 -16 69 -19c4 0 17 -10 18 -23c1 -15 -7 -26 -23 -24c-30 4 -79 6 -122 6c-57 0 -103 0 -145 -6c-13 -2 -23 8 -22 24c1 13 14 22 19 23zM558 858l-166 -151c-9 -8 -22 -8 -29 -4c-12 5 -16 18 -7 29l145 166
c7 8 28 8 44 -3c17 -12 21 -30 13 -37z" />
    <glyph glyph-name="Ydieresis" unicode="&#x178;" horiz-adv-x="763" 
d="M248 41h-2c11 1 21 2 30 3c8 1 15 2 21 4c10 3 16 6 19 11c9 15 11 44 11 119v127l-88 129c-98 143 -119 161 -196 169c-7 2 -17 11 -18 22c-1 16 8 25 23 23c41 -6 87 -6 144 -6c42 0 91 2 121 6c22 2 23 -19 23 -23c-1 -13 -14 -22 -18 -22c-31 -2 -45 -3 -41 -20
c3 -10 10 -25 24 -47c14 -21 34 -49 57 -83l55 -78l74 101c24 33 43 58 56 77c13 20 19 31 20 38c3 14 -13 9 -42 12c-7 1 -17 11 -18 22c-1 15 8 25 23 23c40 -6 62 -6 120 -6c41 0 58 2 89 6c21 2 24 -18 23 -23c-1 -12 -12 -21 -19 -22c-78 -6 -94 -21 -189 -148
l-106 -141v-136c0 -34 0 -60 1 -80c2 -20 5 -31 9 -38c9 -16 30 -16 69 -19c4 0 17 -10 18 -23c1 -15 -7 -26 -23 -24c-30 4 -79 6 -122 6c-57 0 -103 0 -145 -6c-13 -2 -23 8 -22 24c1 13 14 22 19 23zM325 735c-35 0 -63 20 -63 45c0 26 28 48 65 48c34 0 62 -22 62 -46
c0 -25 -28 -47 -64 -47zM512 735c-35 0 -62 21 -62 45c0 25 26 48 64 48c35 0 62 -22 62 -46c0 -25 -28 -47 -64 -47z" />
    <glyph glyph-name="Zcaron" unicode="&#x17d;" horiz-adv-x="700" 
d="M607 147v-2c0 4 11 16 25 16c14 -1 24 -13 24 -17c0 -32 -12 -99 -20 -119c-8 -22 -17 -30 -41 -30c-44 0 -121 5 -210 5c-121 0 -225 -2 -313 -6c-24 -1 -29 27 -19 39l435 550h-213c-128 0 -136 -13 -148 -75c-14 -3 -20 -3 -25 -3c-16 1 -22 15 -20 21c2 7 2 33 2 50
c0 21 -2 41 -6 74c75 -6 178 -8 252 -8c121 0 209 1 296 6c31 8 26 -33 22 -38l-431 -545h230c144 0 149 11 160 82zM495 890l-119 -179c-7 -8 -32 -15 -43 2l-116 177c-9 13 2 23 10 27c8 3 21 4 30 -6l101 -115l96 115c9 11 23 10 32 6c8 -4 17 -15 9 -27z" />
    <glyph glyph-name="aacute" unicode="&#xe1;" horiz-adv-x="426" 
d="M139 91c0 -22 15 -33 47 -33c28 0 48 7 75 28c1 17 2 46 3 70c-114 -11 -125 -41 -125 -65zM345 -17c-35 0 -63 17 -75 47c-40 -27 -88 -44 -133 -44c-66 0 -108 41 -108 97c0 65 74 110 237 121c1 35 2 75 2 92c0 26 -8 44 -21 50c-8 5 -25 9 -50 9
c-21 0 -43 -3 -43 -13c0 -4 1 -6 2 -11c2 -5 3 -10 3 -18c0 -33 -48 -54 -82 -54c-19 0 -41 12 -39 36c5 48 128 134 224 134c63 0 109 -45 110 -116c1 -42 -6 -182 -5 -235c0 -19 4 -34 62 -16c6 2 13 1 15 0c3 -1 5 -3 6 -5s3 -4 4 -6c6 -11 3 -22 -3 -27
c-36 -25 -70 -41 -106 -41zM358 621l-158 -166c-17 -18 -57 -1 -35 27l137 183c7 9 28 9 44 -4c15 -12 19 -32 12 -40z" />
    <glyph glyph-name="acircumflex" unicode="&#xe2;" horiz-adv-x="426" 
d="M139 91c0 -22 15 -33 47 -33c28 0 48 7 75 28c1 17 2 46 3 70c-114 -11 -125 -41 -125 -65zM345 -17c-35 0 -63 17 -75 47c-40 -27 -88 -44 -133 -44c-66 0 -108 41 -108 97c0 65 74 110 237 122c1 34 2 75 2 92c0 25 -8 43 -21 49c-8 5 -25 9 -50 9
c-21 0 -43 -3 -43 -12c0 -5 1 -7 2 -11c2 -6 3 -11 3 -19c0 -33 -48 -54 -82 -54c-19 0 -41 12 -39 36c5 48 128 134 224 134c63 0 109 -45 110 -116c1 -42 -6 -182 -5 -235c0 -19 4 -34 62 -16c6 2 13 1 15 0c3 -1 5 -3 6 -5s3 -4 4 -6c6 -11 3 -22 -3 -27
c-36 -24 -70 -41 -106 -41zM342 447c-9 -6 -23 -5 -31 6l-95 125l-91 -125c-8 -11 -21 -10 -29 -7c-8 4 -18 15 -10 29l111 195c10 17 35 11 42 -1l112 -194c8 -13 -2 -24 -9 -28z" />
    <glyph glyph-name="adieresis" unicode="&#xe4;" horiz-adv-x="426" 
d="M139 91c0 -23 15 -34 47 -34c28 0 48 8 75 28c1 17 2 46 3 70c-114 -11 -125 -41 -125 -64zM345 -17c-35 0 -63 17 -75 47c-40 -28 -88 -44 -133 -44c-66 0 -108 41 -108 96c0 65 74 110 237 121c1 34 2 75 2 92c0 26 -8 43 -21 49c-8 5 -25 9 -50 9
c-21 0 -43 -3 -43 -12c0 -5 1 -7 2 -11c2 -6 3 -11 3 -19c0 -33 -48 -53 -82 -53c-19 0 -41 11 -39 35c5 48 128 133 224 133c63 0 109 -44 110 -115c1 -42 -6 -181 -5 -233c0 -19 4 -35 62 -17c6 3 13 1 15 0c3 -1 5 -3 6 -5c1 -1 3 -3 4 -6c6 -10 3 -22 -3 -26
c-36 -25 -70 -41 -106 -41zM135 479c-34 0 -61 26 -61 57s26 60 62 60c34 0 60 -28 60 -58c0 -31 -26 -59 -61 -59zM312 479c-34 0 -59 27 -59 57s24 60 61 60c35 0 60 -28 60 -58c0 -31 -26 -59 -62 -59z" />
    <glyph glyph-name="agrave" unicode="&#xe0;" horiz-adv-x="426" 
d="M139 91c0 -22 15 -33 47 -33c28 0 48 7 75 28c1 17 2 46 3 70c-114 -11 -125 -41 -125 -65zM345 -17c-35 0 -63 17 -75 47c-40 -27 -88 -44 -133 -44c-66 0 -108 41 -108 97c0 65 74 110 237 121c1 35 2 75 2 92c0 26 -8 43 -21 50c-8 5 -25 9 -50 9
c-21 0 -43 -3 -43 -13c0 -4 1 -7 2 -11c2 -5 3 -11 3 -18c0 -33 -48 -54 -82 -54c-19 0 -41 12 -39 36c5 48 128 134 224 134c63 0 109 -45 110 -116c1 -42 -6 -182 -5 -235c0 -19 4 -34 62 -16c6 2 13 1 15 0c3 -1 5 -3 6 -6c1 -1 3 -3 4 -5c6 -11 3 -22 -3 -27
c-36 -25 -70 -41 -106 -41zM267 448c-7 -4 -20 -7 -31 4l-156 165c-8 9 -4 28 12 41s38 12 43 3l139 -183c11 -14 0 -26 -7 -30z" />
    <glyph glyph-name="aring" unicode="&#xe5;" horiz-adv-x="426" 
d="M135 91c0 -23 15 -33 47 -33c28 0 48 7 75 28c1 17 2 46 3 70c-114 -11 -125 -42 -125 -65zM233 590c-32 0 -56 -23 -56 -50c0 -28 24 -51 56 -51c30 0 55 23 55 51c0 27 -25 50 -55 50zM341 -17c-35 0 -63 17 -75 47c-40 -28 -88 -44 -133 -44c-66 0 -108 41 -108 96
c0 66 74 111 237 122c1 34 2 75 2 92c0 26 -8 43 -21 49c-8 5 -25 9 -50 9c-21 0 -43 -3 -43 -12c0 -5 1 -7 2 -11c2 -6 3 -11 3 -19c0 -33 -48 -54 -82 -54c-19 0 -41 12 -39 36c5 49 128 134 224 134c63 0 109 -45 110 -116c1 -42 -6 -181 -5 -234c0 -19 4 -34 62 -16
c6 2 13 1 15 0c3 -2 5 -3 6 -6c1 -1 3 -3 4 -6c6 -10 3 -21 -3 -26c-36 -25 -70 -41 -106 -41zM233 441c-59 0 -106 43 -106 99c0 54 47 98 106 98c57 0 105 -44 105 -98c0 -56 -48 -99 -105 -99z" />
    <glyph glyph-name="atilde" unicode="&#xe3;" horiz-adv-x="426" 
d="M139 91c0 -23 15 -34 47 -34c28 0 48 8 75 29c1 16 2 45 3 69c-114 -11 -125 -41 -125 -64zM345 -17c-35 0 -63 17 -75 47c-40 -28 -88 -44 -133 -44c-66 0 -108 41 -108 96c0 65 74 110 237 121c1 35 2 75 2 92c0 26 -8 43 -21 50c-8 4 -25 8 -50 8
c-21 0 -43 -3 -43 -12c0 -4 1 -7 2 -11c2 -6 3 -11 3 -19c0 -32 -48 -53 -82 -53c-19 0 -41 12 -39 36c5 48 128 133 224 133c63 0 109 -45 110 -116c1 -42 -6 -181 -5 -233c0 -19 4 -35 62 -17c6 3 13 2 15 1c3 -2 5 -4 6 -6c1 -1 3 -3 4 -6c6 -10 3 -22 -3 -26
c-36 -25 -70 -41 -106 -41zM343 592v-3c1 3 6 15 20 14c2 0 5 -1 8 -1c13 -3 21 -15 21 -20c-5 -59 -41 -105 -103 -105c-14 0 -27 3 -40 7c-13 3 -25 8 -38 13c-25 9 -48 17 -74 17c-17 0 -36 -9 -47 -60c-18 -4 -46 11 -46 17c7 67 51 111 115 111c13 0 26 -3 38 -6
s25 -8 37 -12c25 -9 47 -16 67 -16s34 3 42 44z" />
    <glyph glyph-name="ccedilla" unicode="&#xe7;" horiz-adv-x="414" 
d="M257 -22l-12 -16c61 -24 92 -65 92 -106c0 -57 -49 -114 -157 -129c-12 -2 -22 7 -24 20s8 24 16 25c71 10 78 48 78 64c0 19 -12 44 -112 71l51 72c-99 15 -168 95 -168 197c0 127 125 242 283 242c47 0 96 -19 96 -48c0 -18 -23 -68 -51 -68c-10 0 -20 3 -29 7
s-18 8 -28 13c-19 9 -39 17 -63 17c-66 0 -99 -34 -99 -125c0 -116 65 -164 128 -164c48 0 85 18 114 38c5 4 20 3 29 -8c7 -9 6 -21 0 -28c-32 -31 -82 -64 -144 -74z" />
    <glyph glyph-name="eacute" unicode="&#xe9;" horiz-adv-x="440" 
d="M231 370c-37 0 -71 -27 -88 -81l175 4c-8 39 -40 77 -87 77zM418 62l1 1c-41 -44 -114 -77 -183 -77c-126 0 -211 87 -211 208c0 124 116 235 233 235c111 0 171 -80 171 -144c0 -6 -1 -12 -3 -16c-1 -5 -2 -9 -6 -23l-285 -7v-16c0 -120 70 -163 135 -163
c43 0 87 14 119 37l-1 -1c5 4 13 7 22 0c2 -1 4 -4 6 -6c9 -10 8 -22 2 -28zM392 621l-158 -166c-17 -18 -57 -1 -35 27l137 183c7 9 28 9 44 -4c15 -12 19 -32 12 -40z" />
    <glyph glyph-name="ecircumflex" unicode="&#xea;" horiz-adv-x="440" 
d="M231 370c-37 0 -71 -27 -88 -81l175 4c-8 39 -40 77 -87 77zM418 62l1 1c-41 -44 -114 -77 -183 -77c-126 0 -211 87 -211 208c0 124 116 235 233 235c111 0 171 -80 171 -144c0 -6 -1 -12 -3 -16c-1 -4 -2 -9 -6 -23l-285 -7v-16c0 -120 70 -163 135 -163
c43 0 87 14 119 37l-1 -1c5 4 13 7 22 0c2 -1 4 -4 6 -6c9 -10 8 -22 2 -28zM355 447c-9 -6 -23 -5 -31 6l-95 125l-90 -124c-9 -12 -23 -11 -29 -8c-8 3 -19 15 -11 29l111 195c9 16 34 12 42 -2l112 -193c8 -13 -2 -24 -9 -28z" />
    <glyph glyph-name="edieresis" unicode="&#xeb;" horiz-adv-x="440" 
d="M231 368c-37 0 -71 -27 -88 -80l175 4c-8 38 -40 76 -87 76zM418 62h1c-41 -43 -114 -76 -183 -76c-126 0 -211 87 -211 207c0 124 116 233 233 233c111 0 171 -79 171 -143c0 -5 -1 -11 -3 -16c-1 -4 -2 -8 -6 -22l-285 -7v-17c0 -118 70 -162 135 -162
c43 0 87 15 119 38l-1 -1c5 3 13 6 22 0l6 -6c9 -10 8 -23 2 -28zM148 479c-33 0 -60 26 -60 57s26 60 62 60c34 0 60 -28 60 -58c0 -31 -26 -59 -62 -59zM326 479c-35 0 -60 27 -60 57c0 31 25 60 62 60c34 0 59 -28 59 -58c0 -31 -25 -59 -61 -59z" />
    <glyph glyph-name="egrave" unicode="&#xe8;" horiz-adv-x="440" 
d="M231 370c-37 0 -71 -27 -88 -81l175 4c-8 38 -40 77 -87 77zM418 62l1 1c-41 -44 -114 -77 -183 -77c-126 0 -211 87 -211 208c0 124 116 235 233 235c111 0 171 -80 171 -144c0 -6 -1 -12 -3 -16c-1 -5 -2 -9 -6 -23l-285 -7v-16c0 -120 70 -163 135 -163
c43 0 87 14 119 37l-1 -1c5 4 13 7 22 0l6 -6c9 -10 8 -22 2 -28zM264 448c-7 -4 -21 -7 -30 4l-156 165c-8 9 -4 28 12 41c15 12 36 12 43 3l139 -183c11 -14 0 -26 -8 -30z" />
    <glyph glyph-name="iacute" unicode="&#xed;" horiz-adv-x="273" 
d="M248 42h-2c5 -1 17 -10 18 -23c1 -15 -12 -24 -20 -23c-27 4 -66 4 -102 4s-78 0 -105 -4c-8 -1 -21 8 -20 23c1 13 13 22 18 23h-2c52 6 57 8 57 67v162c0 42 -6 52 -40 41c-26 -7 -31 30 -18 40c21 11 45 24 68 39c23 14 44 29 58 42l-2 -3c4 4 16 10 28 4
c10 -5 15 -16 14 -23c-5 -17 -6 -101 -6 -136v-166c0 -59 4 -61 56 -67zM303 621l-158 -165c-16 -17 -57 -2 -35 26l138 183c6 9 27 9 43 -4c16 -12 20 -32 12 -40z" />
    <glyph glyph-name="icircumflex" unicode="&#xee;" horiz-adv-x="273" 
d="M248 42h-2c5 -1 17 -10 18 -22c1 -16 -12 -25 -20 -24c-27 4 -66 4 -102 4s-78 0 -105 -4c-8 -1 -21 8 -20 24c1 12 13 21 18 22h-2c52 6 57 8 57 67v162c0 42 -6 52 -40 41c-26 -6 -31 30 -18 40c21 11 45 25 68 39s44 29 58 42l-2 -2c4 3 16 9 28 3
c10 -5 15 -16 14 -23c-5 -17 -6 -101 -6 -136v-166c0 -59 4 -61 56 -67zM259 447c-9 -5 -22 -5 -31 6l-96 125l-90 -125c-8 -11 -22 -10 -29 -7c-7 4 -20 15 -11 29l112 194c11 19 36 10 42 0l112 -194c8 -13 -2 -24 -9 -28z" />
    <glyph glyph-name="idieresis" unicode="&#xef;" horiz-adv-x="273" 
d="M248 42h-2c5 -1 17 -10 18 -23c1 -15 -12 -24 -20 -23c-27 4 -66 4 -102 4s-78 0 -105 -4c-8 -1 -21 8 -20 23c1 13 13 22 18 23h-2c52 6 57 8 57 66v161c0 42 -6 52 -40 41c-26 -6 -31 30 -18 40c21 11 45 24 68 38c23 15 44 29 58 43l-2 -3c4 4 16 9 28 4
c10 -6 15 -16 14 -23c-5 -17 -6 -100 -6 -136v-165c0 -58 4 -60 56 -66zM48 479c-33 0 -60 26 -60 57s26 60 62 60c34 0 60 -28 60 -58c0 -31 -26 -59 -62 -59zM226 479c-35 0 -60 27 -60 57c0 31 25 60 62 60c35 0 60 -28 60 -58c0 -31 -26 -59 -62 -59z" />
    <glyph glyph-name="igrave" unicode="&#xec;" horiz-adv-x="273" 
d="M248 42h-2c5 -1 17 -10 18 -23c1 -15 -12 -24 -20 -23c-27 4 -66 4 -102 4s-78 0 -105 -4c-8 -1 -21 8 -20 23c1 13 13 22 18 23h-2c52 6 57 8 57 67v162c0 42 -6 52 -40 41c-26 -7 -31 30 -18 40c21 11 45 24 68 39c23 14 44 28 58 42l-2 -3c4 4 16 10 28 4
c10 -5 15 -16 14 -23c-5 -17 -6 -101 -6 -136v-166c0 -59 4 -61 56 -67zM164 448c-7 -4 -21 -7 -30 4l-156 165c-8 9 -4 28 12 41c15 12 36 12 43 3l139 -183c11 -14 0 -26 -8 -30z" />
    <glyph glyph-name="ntilde" unicode="&#xf1;" horiz-adv-x="540" 
d="M156 432l-2 -3c4 4 16 9 26 2c8 -4 13 -11 14 -17c1 -10 3 -29 4 -48c70 44 117 61 163 61c86 0 117 -55 117 -134v-185c0 -53 2 -62 59 -65c4 -1 16 -11 17 -24c0 -15 -13 -24 -21 -23c-18 3 -77 4 -107 4c-39 0 -70 0 -98 -4v0c-10 -1 -22 8 -20 24c1 13 13 23 17 23
c41 4 48 9 48 65v143c0 82 -14 102 -57 102c-27 0 -48 -6 -116 -44v-201c0 -60 4 -62 47 -65c4 0 17 -10 17 -24c0 -15 -11 -24 -21 -23v0c-21 3 -64 4 -92 4c-38 0 -85 0 -113 -4v0c-10 -1 -21 8 -20 23c0 14 14 23 17 24h-2c56 5 62 7 62 65v161c0 43 -6 53 -42 41
c-13 -4 -48 27 -18 42c41 20 88 52 121 80zM400 592v-3c1 3 6 16 20 14c2 0 5 -1 8 -1c13 -4 20 -15 20 -20c-4 -59 -40 -105 -102 -105c-28 0 -53 10 -78 20c-25 9 -48 17 -74 17c-18 0 -36 -9 -47 -60c-18 -4 -46 11 -46 17c7 67 51 111 115 111c13 0 25 -2 38 -6
c12 -3 24 -8 37 -12c25 -9 47 -16 67 -16s34 3 42 44z" />
    <glyph glyph-name="oacute" unicode="&#xf3;" horiz-adv-x="512" 
d="M243 372c-69 0 -107 -59 -107 -133c0 -128 59 -196 141 -196c68 0 106 58 106 133c0 128 -60 196 -140 196zM254 -14c-140 0 -229 103 -229 215c0 117 91 228 240 228c140 0 231 -103 231 -215c0 -117 -93 -228 -242 -228zM395 621l-158 -166c-17 -18 -57 -1 -35 27
l138 183c6 9 27 9 43 -4c16 -12 19 -32 12 -40z" />
    <glyph glyph-name="ocircumflex" unicode="&#xf4;" horiz-adv-x="512" 
d="M243 372c-69 0 -107 -58 -107 -133c0 -128 59 -195 141 -195c68 0 106 57 106 132c0 128 -60 196 -140 196zM254 -14c-140 0 -229 103 -229 215c0 117 91 228 240 228c140 0 231 -103 231 -215c0 -117 -93 -228 -242 -228zM382 447c-9 -6 -23 -5 -31 6l-95 125l-91 -125
c-8 -11 -21 -10 -29 -7c-8 4 -18 15 -10 29l111 195c10 17 35 11 42 -1l112 -194c8 -13 -2 -24 -9 -28z" />
    <glyph glyph-name="odieresis" unicode="&#xf6;" horiz-adv-x="512" 
d="M243 370c-69 0 -107 -58 -107 -132c0 -128 59 -195 141 -195c68 0 106 58 106 132c0 127 -60 195 -140 195zM254 -14c-140 0 -229 102 -229 214c0 116 91 226 240 226c140 0 231 -102 231 -213c0 -117 -93 -227 -242 -227zM166 479c-34 0 -61 26 -61 57s26 60 63 60
c33 0 59 -28 59 -58c0 -31 -26 -59 -61 -59zM344 479c-35 0 -60 27 -60 57s24 60 61 60c35 0 60 -28 60 -58c0 -31 -26 -59 -61 -59z" />
    <glyph glyph-name="ograve" unicode="&#xf2;" horiz-adv-x="512" 
d="M243 372c-69 0 -107 -59 -107 -133c0 -128 59 -196 141 -196c68 0 106 58 106 133c0 128 -60 196 -140 196zM254 -14c-140 0 -229 103 -229 215c0 117 91 228 240 228c140 0 231 -103 231 -215c0 -117 -93 -228 -242 -228zM268 448c-7 -5 -21 -6 -30 3l-157 166
c-8 8 -4 28 12 41c16 12 37 12 44 3l138 -183c10 -13 1 -25 -7 -30z" />
    <glyph glyph-name="otilde" unicode="&#xf5;" horiz-adv-x="512" 
d="M243 370c-69 0 -107 -58 -107 -132c0 -128 59 -195 141 -195c68 0 106 58 106 132c0 127 -60 195 -140 195zM254 -14c-140 0 -229 102 -229 214c0 116 91 227 240 227c140 0 231 -103 231 -214c0 -117 -93 -227 -242 -227zM373 592v-3c1 4 6 16 20 14c2 0 5 -1 8 -1
c12 -3 20 -14 20 -20c-5 -58 -39 -105 -103 -105c-14 0 -27 3 -40 7c-13 3 -25 8 -38 13c-25 9 -48 17 -74 17c-17 0 -36 -9 -46 -60c-18 -4 -46 11 -46 18c5 67 50 110 114 110c13 0 26 -2 38 -6c12 -3 25 -8 37 -12c25 -9 48 -16 68 -16c19 0 33 2 42 44z" />
    <glyph glyph-name="scaron" unicode="&#x161;" horiz-adv-x="359" 
d="M171 -14c-48 0 -94 13 -128 30c-4 3 -14 75 -14 122c0 9 28 18 45 14c25 -87 70 -112 114 -112c41 0 55 18 55 51c0 18 -9 32 -26 46c-8 7 -18 14 -30 21c-11 7 -23 13 -35 20c-48 26 -107 59 -107 123c0 68 59 128 158 128c40 0 69 -7 96 -19c6 -3 21 -66 21 -112
c0 -7 -45 -12 -48 -6c-17 54 -57 85 -91 85c-25 0 -40 -15 -40 -46c0 -16 9 -29 25 -42c8 -6 18 -12 29 -19l36 -18c48 -25 106 -57 106 -125c0 -76 -69 -141 -166 -141zM325 647l-119 -194c-7 -10 -32 -17 -43 1l-116 193c-9 14 2 26 10 30c8 3 21 4 30 -6l101 -126l96 125
c9 12 23 11 32 7c8 -5 17 -17 9 -30z" />
    <glyph glyph-name="uacute" unicode="&#xfa;" horiz-adv-x="513" 
d="M522 31l1 1c-35 -17 -108 -48 -135 -48c-17 0 -36 24 -43 67c-44 -35 -100 -65 -149 -65c-74 0 -128 45 -127 134l3 182c1 37 -4 41 -48 42c-4 0 -15 7 -18 17c-5 13 3 24 12 26c42 8 88 23 118 41l-3 -4c5 3 16 7 27 0c7 -5 12 -12 13 -17c2 -18 3 -59 3 -94l-2 -151
c-1 -87 16 -100 63 -100c29 0 61 13 105 49l3 196c1 37 -3 41 -48 44c-4 0 -15 7 -18 18c-5 14 4 25 13 26v0c41 6 89 20 122 38c10 0 31 -10 32 -24c2 -18 3 -62 3 -96l-2 -219c0 -27 1 -35 61 -19l-2 -1c4 1 20 -3 25 -16c4 -12 -2 -23 -9 -27zM389 621l-157 -166
c-9 -9 -22 -8 -29 -4c-11 6 -16 19 -7 31l138 183c7 9 28 9 43 -3c16 -13 20 -33 12 -41z" />
    <glyph glyph-name="ucircumflex" unicode="&#xfb;" horiz-adv-x="513" 
d="M522 31l1 1c-35 -17 -108 -48 -135 -48c-17 0 -36 24 -43 67c-44 -35 -100 -65 -149 -65c-74 0 -128 45 -127 134l3 183c1 36 -4 40 -48 41c-4 1 -15 7 -18 17c-5 14 3 25 12 26c42 8 88 24 118 41l-3 -4c5 4 16 8 27 0c7 -4 12 -12 13 -17c2 -18 3 -59 3 -94l-2 -151
c-1 -87 16 -100 63 -100c29 0 61 13 105 49l3 196c1 37 -3 41 -48 44c-4 0 -15 8 -18 18c-5 14 4 25 13 26v0c41 7 89 21 122 39c10 0 31 -11 32 -25c2 -18 3 -61 3 -96l-2 -219c0 -27 1 -35 61 -19l-2 -1c4 1 20 -3 25 -16c4 -12 -2 -23 -9 -27zM379 447
c-9 -5 -22 -5 -31 6l-96 125l-90 -125c-8 -11 -22 -10 -29 -7s-20 14 -11 29l112 194c11 19 36 10 42 0l112 -194c8 -13 -2 -25 -9 -28z" />
    <glyph glyph-name="udieresis" unicode="&#xfc;" horiz-adv-x="513" 
d="M522 31h1c-35 -16 -108 -47 -135 -47c-17 0 -36 24 -43 66c-44 -34 -100 -64 -149 -64c-74 0 -128 45 -127 134l3 181c1 36 -4 40 -48 41c-4 1 -15 7 -18 17c-5 13 3 24 12 26c42 8 88 23 118 40l-3 -3c5 3 16 7 27 0c7 -5 12 -13 13 -18c2 -17 3 -58 3 -93l-2 -150
c-1 -86 16 -100 63 -100c29 0 61 14 105 50l3 194c1 37 -3 41 -48 44c-4 0 -15 7 -18 18c-5 14 4 24 13 26v0c41 6 89 20 122 38c10 0 31 -11 32 -24c2 -18 3 -61 3 -96l-2 -217c0 -28 1 -35 61 -20l-2 -1c4 1 20 -3 25 -16c4 -12 -2 -23 -9 -26zM156 479
c-34 0 -61 26 -61 57s26 60 63 60c34 0 60 -28 60 -58c0 -31 -26 -59 -62 -59zM334 479c-35 0 -60 27 -60 57c0 31 25 60 62 60c34 0 59 -28 59 -58c0 -31 -26 -59 -61 -59z" />
    <glyph glyph-name="ugrave" unicode="&#xf9;" horiz-adv-x="513" 
d="M522 31l1 1c-35 -17 -108 -48 -135 -48c-17 0 -36 24 -43 67c-44 -35 -100 -65 -149 -65c-74 0 -128 45 -127 134l3 182c1 37 -4 41 -48 42c-4 0 -15 7 -18 17c-5 13 3 24 12 26c42 8 88 23 118 40l-3 -3c5 3 16 7 27 0c7 -5 12 -12 13 -18c2 -17 3 -58 3 -94l-2 -150
c-1 -87 16 -100 63 -100c29 0 61 13 105 49l3 196c1 37 -3 41 -48 44c-4 0 -15 7 -18 18c-5 14 4 24 13 26v0c41 6 89 20 122 38c10 0 31 -10 32 -24c2 -18 3 -62 3 -97l-2 -218c0 -27 1 -35 61 -19l-2 -1c4 1 20 -3 25 -16c4 -12 -2 -23 -9 -27zM285 448
c-7 -4 -20 -7 -31 4l-156 165c-8 9 -4 28 11 41c16 12 37 12 44 3l139 -183c11 -14 0 -26 -7 -30z" />
    <glyph glyph-name="yacute" unicode="&#xfd;" horiz-adv-x="429" 
d="M292 373h2c-5 0 -17 9 -18 22c-1 16 11 26 20 24c29 -3 42 -4 81 -4c29 0 57 1 76 4c8 1 20 -8 21 -22c0 -14 -13 -24 -16 -24c-46 -3 -62 -18 -86 -75c-13 -30 -55 -118 -97 -222s-83 -222 -96 -329c-33 -1 -68 0 -85 -1c-28 -1 -37 -1 -61 -6c-10 -2 -22 7 -23 22
c-1 13 11 24 16 24h-1c21 4 42 15 56 26c21 16 49 54 77 124l25 63l-111 300c-23 61 -41 71 -84 74c-8 0 -18 10 -18 23c1 14 10 24 23 22c19 -3 72 -3 101 -3c39 0 70 1 97 4c12 1 22 -9 21 -24c-2 -13 -14 -22 -19 -22h2c-38 -5 -39 -14 -22 -63l64 -182l78 183
c20 46 16 57 -23 62zM385 621l-157 -168c-9 -9 -22 -8 -29 -4c-11 5 -16 19 -7 31l138 185c7 9 28 9 43 -4c16 -12 20 -32 12 -40z" />
    <glyph glyph-name="ydieresis" unicode="&#xff;" horiz-adv-x="429" 
d="M296 371h2c-5 0 -17 10 -18 23c-1 15 11 25 20 23c29 -3 42 -4 81 -4c29 0 57 1 76 4c8 1 20 -7 21 -22c0 -14 -13 -24 -16 -24c-46 -3 -62 -18 -86 -74c-13 -31 -55 -118 -97 -222c-42 -103 -83 -222 -96 -328c-33 -1 -68 0 -85 -1c-28 -1 -37 -1 -61 -6
c-10 -2 -22 7 -23 22c-1 13 11 24 16 24h-1c21 4 42 15 56 25c21 16 49 55 77 125l25 62l-111 299c-23 62 -41 71 -84 74c-8 0 -18 11 -18 24c1 13 10 23 23 21c19 -3 72 -3 101 -3c39 0 70 1 97 4c12 1 22 -9 21 -24c-2 -13 -14 -22 -19 -22h2c-38 -4 -39 -14 -22 -62
l64 -182l78 183c20 45 16 57 -23 61zM148 477c-33 0 -60 27 -60 58s26 61 62 61c34 0 60 -28 60 -59c0 -32 -26 -60 -62 -60zM326 477c-35 0 -60 27 -60 58s25 61 62 61c34 0 59 -29 59 -59c0 -31 -25 -60 -61 -60z" />
    <glyph glyph-name="zcaron" unicode="&#x17e;" horiz-adv-x="432" 
d="M375 157v-2c0 4 10 16 25 16c14 -1 24 -13 24 -17c0 -21 -20 -120 -25 -134c-4 -11 -11 -23 -31 -23c-26 0 -86 3 -138 3c-74 0 -142 0 -194 -3c-21 -1 -27 24 -19 35l247 333h-78c-68 0 -87 -32 -108 -98c-15 0 -21 1 -26 2c-2 1 -5 2 -8 4c-10 5 -11 13 -8 19
c2 9 8 38 10 56c3 24 5 49 5 74c51 -3 112 -4 156 -4c73 0 131 2 183 4c23 1 27 -27 19 -37l-245 -329h104c59 0 99 45 107 101zM365 647l-119 -194c-7 -10 -32 -17 -43 1l-116 193c-9 14 2 26 10 30c8 3 21 4 30 -6l101 -126l96 125c9 12 23 11 32 7c8 -5 17 -17 9 -30z
" />
    <glyph glyph-name="NUL" horiz-adv-x="1000" 
 />
    <glyph glyph-name="NUL" horiz-adv-x="1000" 
 />
    <glyph glyph-name="nbspace" unicode="&#xa0;" horiz-adv-x="113" 
 />
    <glyph glyph-name="lessequal" unicode="&#x2264;" horiz-adv-x="862" 
d="M416 604c-143 0 -248 -96 -248 -264c0 -204 142 -307 277 -307c141 0 249 96 249 263c0 206 -143 308 -278 308zM724 -180c-103 0 -191 49 -317 156c-214 6 -358 161 -358 333c0 168 161 353 391 353c220 0 373 -159 373 -333c0 -135 -105 -282 -265 -334
c77 -64 160 -105 225 -105c41 0 74 6 102 18c6 2 21 -2 27 -15c2 -4 6 -21 -9 -29c-47 -25 -93 -44 -169 -44z" />
    <glyph glyph-name="summation" unicode="&#x2211;" horiz-adv-x="875" 
d="M284 337c-62 -24 -102 -72 -102 -125c0 -78 64 -140 155 -140c66 0 108 23 150 69c-65 71 -135 138 -203 196zM333 606c-45 0 -66 -23 -66 -67c0 -27 16 -57 80 -109c44 27 59 59 59 97c0 48 -31 79 -73 79zM639 251l-47 -64c58 -71 124 -136 171 -136c20 0 38 4 54 13
c8 5 50 -21 27 -39c-44 -33 -86 -47 -130 -47c-64 0 -123 40 -190 121c-59 -62 -132 -119 -234 -119c-76 0 -221 58 -221 193c0 86 64 160 169 203c-48 44 -74 90 -74 130c0 88 64 156 178 156c84 0 164 -53 164 -133c0 -54 -42 -102 -116 -138c46 -41 111 -105 166 -164
c37 48 68 104 68 136c0 15 -21 16 -71 19c-4 1 -17 10 -18 23c-1 16 9 25 23 23c41 -6 87 -6 144 -6c43 0 100 2 130 6c14 2 24 -7 23 -22c0 -13 -11 -23 -18 -24c-75 -3 -112 -15 -198 -131z" />
    <glyph glyph-name="product" unicode="&#x220f;" horiz-adv-x="720" 
d="M234 41h-2c11 1 21 2 29 3s15 2 21 4c10 3 15 6 19 12c9 14 11 44 11 118v400h-97c-144 0 -163 -22 -186 -50c-4 -4 -17 -7 -27 -2c-3 1 -7 3 -10 6c-2 2 -10 14 0 23c28 31 114 96 122 96c24 0 135 -11 199 -11h235c144 0 163 22 186 49c4 4 17 7 28 3
c15 -7 19 -20 8 -30c-28 -31 -113 -95 -121 -95c-24 0 -135 11 -199 11h-20v-400c0 -34 0 -60 1 -79c2 -20 5 -31 9 -38c9 -17 30 -17 68 -20c7 -1 18 -11 18 -24c1 -15 -10 -25 -23 -23c-30 4 -80 6 -121 6c-58 0 -104 -1 -145 -6c-16 -2 -24 9 -22 25c1 12 14 22 19 22z
" />
    <glyph glyph-name="pi" unicode="&#x3c0;" horiz-adv-x="705" 
d="M254 383h2c-4 0 -17 9 -17 21c-1 14 11 23 20 22c17 -2 36 -3 60 -3c10 0 38 2 54 2c58 0 118 -28 118 -83c0 -57 -51 -93 -122 -95h-9c-7 0 -18 8 -18 21c0 14 14 22 17 22h9c26 1 42 14 42 45s-14 43 -43 43h-5c-1 -8 -1 -18 -1 -39v-49v-67c0 -34 -1 -43 26 -45
c3 0 16 -9 16 -22c0 -15 -13 -23 -21 -21c-10 1 -38 2 -56 2c-23 0 -50 0 -67 -3c-9 -1 -21 8 -20 22c0 13 13 22 17 22h-2c27 3 29 9 29 45v114c0 37 -2 43 -29 46zM352 521c-145 0 -263 -109 -263 -244c0 -133 118 -242 263 -242c147 0 265 109 265 242
c0 134 -118 244 -265 244zM352 -14c-173 0 -314 131 -314 291c0 161 141 292 314 292c174 0 316 -131 316 -292c0 -160 -142 -291 -316 -291z" />
    <glyph glyph-name="Omega" unicode="&#x2126;" horiz-adv-x="580" 
d="M304 644c-55 0 -100 -40 -100 -212v-19h152v23c0 65 15 123 41 172c-25 22 -61 36 -93 36zM35 350h2c-9 0 -20 8 -22 23c-2 16 13 28 14 28c19 1 35 2 49 3c9 1 15 2 20 4v6c0 168 122 309 257 309c37 0 73 -13 107 -39c39 32 89 50 139 50c42 0 100 -27 100 -55
c0 -21 -28 -72 -56 -72c-10 0 -20 4 -29 8c-8 4 -17 9 -27 14c-18 10 -36 19 -55 19c-54 0 -73 -26 -73 -194v-41h36h53c14 1 23 1 28 3c8 1 24 -12 24 -33c0 -18 -10 -34 -19 -36c-14 1 -35 2 -72 2h-50v-240c0 -55 2 -63 86 -67c4 0 17 -10 17 -23c1 -16 -10 -25 -22 -23
c-22 4 -105 4 -133 4c-38 0 -64 0 -92 -4c-13 -2 -23 7 -22 23c1 13 15 23 18 23h-2c43 5 45 11 45 67v240h-152v-240c0 -52 1 -64 69 -67c4 0 16 -9 17 -22c1 -16 -12 -25 -20 -24c-22 3 -87 4 -115 4c-39 0 -85 0 -114 -4c-8 -1 -21 8 -20 24c1 13 13 22 18 22h-2
c55 6 61 8 61 67v240c-23 0 -54 1 -63 1z" />
    <glyph glyph-name="radical" unicode="&#x221a;" horiz-adv-x="820" 
d="M304 644c-56 0 -100 -40 -100 -212v-19h152v12c0 64 18 127 48 177c-30 29 -59 42 -100 42zM639 413v204c-15 17 -47 33 -82 33c-56 0 -96 -34 -96 -206v-31h178zM804 42h-2c5 0 18 -10 18 -23c1 -16 -10 -25 -22 -23c-28 4 -70 4 -109 4c-38 0 -67 0 -95 -4
c-13 -2 -23 8 -22 23c1 13 15 23 18 23h-2c49 6 51 9 51 67v240h-178v-240c0 -55 1 -64 74 -67c4 0 17 -10 17 -23c1 -16 -10 -25 -22 -23c-21 4 -102 4 -129 4c-39 0 -56 0 -84 -4c-13 -2 -23 7 -22 23c1 13 15 23 18 23h-2c43 5 45 11 45 67v240h-152v-240
c0 -52 1 -64 69 -67c4 0 16 -9 17 -22c1 -16 -12 -25 -20 -24c-22 3 -87 4 -115 4c-39 0 -85 0 -114 -4c-8 -1 -21 8 -20 24c1 13 13 22 18 22h-2c55 6 61 8 61 67v240c-22 0 -52 1 -62 1c-7 -1 -15 1 -19 13c-1 3 -1 7 -2 10c-1 16 13 28 14 29c19 0 35 1 49 2
c9 1 15 2 20 4v6c0 168 122 310 257 310c47 0 86 -19 116 -45c44 38 90 55 141 55c29 0 57 -7 77 -18c8 6 17 12 22 17l-2 -4c4 4 15 9 26 4c11 -4 16 -15 15 -23c-5 -16 -6 -97 -6 -134v-467c0 -59 5 -61 60 -67z" />
    <glyph glyph-name="approxequal" unicode="&#x2248;" horiz-adv-x="821" 
d="M304 644c-56 0 -100 -40 -100 -212v-19h152v12c0 65 18 123 50 173c-30 31 -61 46 -102 46zM801 42h-2c5 0 18 -10 18 -23c1 -16 -10 -25 -22 -23c-28 4 -67 4 -106 4c-38 0 -68 0 -95 -4c-12 -2 -23 7 -22 23c0 13 13 23 18 23h-2c49 6 50 10 50 67v192
c0 31 4 48 -13 48h-164v-240c0 -55 2 -63 86 -67c4 0 16 -9 17 -22c1 -16 -12 -25 -20 -24c-22 3 -103 4 -132 4c-38 0 -68 0 -97 -4c-8 -1 -21 8 -20 24c1 13 13 22 18 22h-2c43 5 45 11 45 67v240h-152v-240c0 -52 1 -64 69 -67c4 0 16 -9 17 -22c1 -16 -12 -25 -20 -24
c-22 3 -87 4 -115 4c-39 0 -85 0 -114 -4c-8 -1 -21 8 -20 24c1 13 13 22 18 22h-2c55 6 61 8 61 67v240c-22 0 -52 1 -62 1c-7 -1 -15 1 -19 13c-1 3 -1 7 -2 10c-1 16 13 28 14 28c19 1 35 2 49 3c9 1 15 2 20 4v6c0 168 122 309 257 309c49 0 89 -20 120 -50
c47 38 106 61 160 61c43 0 101 -27 101 -55c0 -29 -29 -75 -59 -75c-10 0 -20 4 -28 8c-9 4 -18 9 -27 14c-19 10 -37 19 -56 19c-57 0 -105 -40 -105 -201v-31h175c26 0 61 8 75 19l-2 -3c3 4 16 9 27 4c10 -6 15 -16 14 -23c-5 -17 -6 -99 -6 -134v-167
c0 -59 2 -61 57 -67z" />
    <glyph glyph-name="lozenge" unicode="&#x25ca;" horiz-adv-x="681" 
d="M663 77l-1 -1c4 1 19 -1 25 -13c4 -11 1 -22 -5 -26c-48 -34 -110 -51 -142 -51c-75 0 -110 37 -109 110l3 246c-22 0 -46 0 -54 -1c-9 0 -22 27 -18 43c120 40 131 84 131 114c0 59 -55 111 -141 111s-135 -57 -135 -127c0 -19 8 -39 19 -55c24 -3 43 -8 61 -16
c6 -3 23 -66 21 -113c-1 -31 -45 -9 -47 -5c-17 53 -57 85 -91 85c-25 0 -40 -15 -40 -46c0 -17 9 -30 25 -43c9 -6 19 -12 30 -18c11 -7 23 -13 36 -19c48 -25 106 -57 106 -125c0 -76 -69 -141 -167 -141c-47 0 -94 13 -127 31c-5 2 -14 74 -15 121c0 9 28 19 45 14
c26 -87 70 -112 115 -112c40 0 54 18 54 52c0 17 -9 31 -26 45c-8 8 -18 14 -29 21c-12 7 -24 13 -36 20c-47 26 -106 59 -106 124c0 60 47 114 127 126c-9 21 -15 45 -15 73c0 96 82 202 197 202c125 0 195 -102 195 -220c0 -15 -4 -52 -6 -78h35c44 0 74 0 84 3
c8 2 19 -1 22 -16c1 -5 2 -11 1 -17c-1 -17 -11 -34 -20 -36c-13 1 -37 3 -74 3h-51l-2 -225c0 -35 17 -54 40 -54c20 0 49 2 85 14z" />
    <glyph glyph-name="apple" unicode="&#xf8ff;" horiz-adv-x="967" 
 />
  </font>
</defs>
</svg>
