<?xml version="1.0" standalone="no"?>
<!DOCTYPE svg PUBLIC "-//W3C//DTD SVG 1.1//EN" "http://www.w3.org/Graphics/SVG/1.1/DTD/svg11.dtd" >
<svg xmlns="http://www.w3.org/2000/svg" xmlns:xlink="http://www.w3.org/1999/xlink" version="1.1">
<metadata>
Created by FontForge 20161116 at Fri Nov 18 12:56:18 2016
 By Jimmy Wärting
Copyright 2016 Adobe Systems Incorporated. All rights reserved.
</metadata>
<defs>
<font id="RQN-BoldItalic" horiz-adv-x="374" >
  <font-face 
    font-family="RQN"
    font-weight="700"
    font-style="italic"
    font-stretch="normal"
    units-per-em="1000"
    panose-1="0 0 0 0 0 0 0 0 0 0"
    ascent="800"
    descent="-200"
    x-height="433"
    cap-height="584"
    bbox="-218 -327.408 1151.85 779.595"
    underline-thickness="20"
    underline-position="-133"
    slope="-16"
    stemh="36"
    stemv="74"
    unicode-range="U+0020-FB02"
  />
<missing-glyph horiz-adv-x="500" 
 />
    <glyph glyph-name=".notdef" horiz-adv-x="500" 
 />
    <glyph glyph-name="space" unicode=" " horiz-adv-x="185" 
 />
    <glyph glyph-name="exclam" unicode="!" horiz-adv-x="253" 
d="M107 -8c-15 -10 -23 -10 -38 -10c-25 0 -41 20 -41 44s14 53 38 67c15 10 23 10 38 10c23 0 42 -19 42 -44c0 -24 -16 -53 -39 -67zM135 157c-4 -15 -14 -25 -25 -30c-19 -6 -32 5 -32 17c0 35 42 338 56 381c7 23 39 44 62 54c12 6 26 10 36 11c17 0 30 -13 22 -31
c-23 -54 -108 -365 -119 -402z" />
    <glyph glyph-name="quotedbl" unicode="&#x22;" 
d="M127 437c-12 -13 -30 -19 -44 -22c-7 -1 -14 -1 -21 0c-16 2 -20 12 -16 20c14 35 56 89 81 116c13 13 46 22 69 26c11 2 24 4 33 3c14 -2 28 -15 12 -29c-36 -33 -84 -80 -114 -114zM240 441c-13 -13 -33 -18 -47 -20c-8 0 -16 0 -22 2c-4 1 -21 7 -14 22
c21 32 70 85 97 111c15 14 49 23 73 26c12 2 24 3 33 2c16 -3 27 -17 10 -30c-40 -30 -96 -80 -130 -113z" />
    <glyph glyph-name="numbersign" unicode="#" horiz-adv-x="716" 
d="M442 183l8 94l7 85l-90 1l-94 -1l-7 -88l-6 -86l90 -1s28 -1 55 -3c14 0 27 -1 37 -1zM659 360l-154 2c-1 -32 -4 -88 -4 -88l-6 -86l148 3c6 0 19 -12 19 -27c0 -16 -13 -27 -19 -27c0 0 -150 18 -150 17l-15 -206c-1 -7 -13 -18 -29 -16c-15 1 -26 13 -25 20l15 187
l-89 1l-93 -1l-15 -191c0 -5 -12 -16 -27 -16c-16 1 -27 12 -26 20l15 187l-148 -2c-5 0 -18 11 -18 27s13 27 18 27l151 -3c3 29 8 89 8 89l6 85l-148 -2c-6 0 -19 12 -18 27c0 16 13 27 18 27l151 -3c4 49 14 191 14 191c0 5 12 16 28 16c16 -1 27 -13 26 -20l-16 -187
l91 -1l93 1l13 191c0 5 13 16 29 15s26 -13 26 -19l-16 -187l147 3c6 0 19 -11 19 -27c0 -15 -13 -27 -19 -27z" />
    <glyph glyph-name="dollar" unicode="$" horiz-adv-x="458" 
d="M252 207l-13 -169c45 6 78 33 78 77c0 40 -26 67 -65 92zM158 447c0 -34 20 -58 53 -80l11 145c-39 -7 -64 -31 -64 -65zM269 510v-10c-1 -17 -2 -40 -4 -63c-2 -40 -4 -81 -5 -100c16 -9 31 -17 46 -27c18 -11 35 -23 50 -37c31 -28 53 -64 53 -113
c0 -92 -70 -171 -174 -180l-2 -32c-1 -7 -13 -18 -29 -16c-15 1 -26 13 -25 20l3 29c-52 6 -95 28 -134 59c-4 3 -8 22 -7 49c1 21 4 49 5 77c1 27 47 19 48 2c5 -73 42 -121 108 -130c0 3 -10 44 -7 88s6 90 7 110c-15 9 -30 17 -44 26c-17 11 -33 22 -48 36
c-29 26 -49 60 -49 105c0 79 67 156 165 166l2 33c0 4 13 16 29 16c17 0 27 -12 26 -21v0l-3 -28c37 -4 65 -13 90 -28c8 -4 21 -46 21 -110c0 -7 -10 -18 -25 -17c-15 0 -24 13 -25 16v-2c-8 44 -32 73 -72 82z" />
    <glyph glyph-name="percent" unicode="%" horiz-adv-x="555" 
d="M393 253c-14 0 -44 -27 -44 -110c0 -68 19 -84 32 -84c14 0 45 28 45 110c0 67 -20 84 -33 84zM172 503c-13 0 -44 -28 -44 -111c0 -67 20 -83 33 -83c12 0 44 27 44 110c0 67 -20 84 -33 84zM427 20c-27 -20 -58 -35 -80 -35c-48 0 -93 52 -93 135c0 67 36 132 94 172
c26 19 57 35 79 35c47 0 94 -53 94 -135c0 -67 -38 -133 -94 -172zM490 557l-191 -288l-187 -291c-3 -4 -18 -8 -32 -3c-15 6 -19 23 -16 28l190 288l188 292c3 4 19 8 32 2c15 -7 19 -23 16 -28zM206 269c-28 -19 -58 -33 -80 -33c-47 0 -93 51 -93 133c0 67 36 133 94 173
c27 18 56 34 80 34c47 0 93 -52 93 -134c0 -67 -38 -133 -94 -173z" />
    <glyph glyph-name="ampersand" unicode="&#x26;" horiz-adv-x="666" 
d="M213 369c-24 0 -51 -36 -61 -102c66 23 81 40 81 71c0 24 -12 31 -20 31zM149 210c2 -90 52 -141 140 -141c120 0 203 89 203 180c0 51 -17 77 -50 77c-28 0 -43 -20 -43 -38c0 -6 2 -17 43 -23c14 -2 19 -16 19 -25c0 -17 -16 -63 -60 -63c-36 0 -69 28 -69 81
c0 47 21 80 48 106c32 31 75 43 138 47c46 3 84 4 97 11c6 3 10 5 10 11c0 10 -16 16 -62 23c-19 3 -20 18 -20 25c0 19 19 59 60 59c42 0 79 -36 79 -90c0 -66 -32 -105 -106 -121c22 -158 -133 -343 -327 -343c-116 0 -202 78 -202 201c0 143 123 252 209 252
c50 0 80 -42 80 -80c0 -69 -71 -120 -187 -149z" />
    <glyph glyph-name="quoteright" unicode="&#x2019;" horiz-adv-x="158" 
d="M36 478c-28 -9 -40 28 -20 38c67 32 77 50 77 71c0 13 -8 25 -16 30c-8 4 -14 24 -4 43c8 15 25 30 54 30c40 0 67 -35 67 -68c0 -57 -50 -110 -158 -144z" />
    <glyph glyph-name="parenleft" unicode="(" horiz-adv-x="329" 
d="M177 158c0 -191 93 -327 186 -413c10 -7 -17 -47 -29 -40c-148 92 -259 256 -259 452c0 242 148 460 411 596c9 5 23 0 29 -14c5 -12 -1 -26 -5 -28c-208 -135 -333 -333 -333 -553z" />
    <glyph glyph-name="parenright" unicode=")" horiz-adv-x="329" 
d="M-157 -295c-9 -5 -23 0 -29 15c-5 12 1 26 5 28c208 135 334 332 334 552c0 191 -94 328 -187 414c-10 7 -2 58 29 39c149 -92 261 -256 261 -452c0 -242 -149 -460 -413 -596z" />
    <glyph glyph-name="asterisk" unicode="*" horiz-adv-x="303" 
d="M294 520l-87 -25l28 -76c9 -23 -31 -33 -42 -20l-54 64l-75 -47c-16 -10 -50 11 -34 31l53 63l-75 47c-21 13 2 44 22 39l88 -24l29 76c9 24 47 8 47 -7v-78h92c24 0 28 -37 8 -43z" />
    <glyph glyph-name="plus" unicode="+" horiz-adv-x="602" 
d="M546 207l-220 2l3 -200c0 -5 -12 -17 -28 -17s-28 12 -28 17l3 200l-220 -2c-6 0 -19 11 -19 26s13 26 19 26l220 -3l-3 201c0 5 12 17 28 17s28 -12 28 -17l-3 -201l220 3c5 0 18 -11 18 -26s-13 -26 -18 -26z" />
    <glyph glyph-name="comma" unicode="," horiz-adv-x="212" 
d="M-30 -63h-1c68 32 79 50 79 72c0 12 -8 24 -16 29c-16 9 -12 32 -6 43c7 16 24 31 53 31c42 0 67 -37 67 -72c0 -55 -53 -109 -157 -141c-10 -3 -22 2 -27 13c-6 11 1 22 8 25z" />
    <glyph glyph-name="hyphen" unicode="-" horiz-adv-x="267" 
d="M230 236l-83 -30l-82 -33c-12 -2 -69 36 -27 51l83 29l79 32c9 3 27 -3 35 -17c6 -12 4 -26 -5 -32z" />
    <glyph glyph-name="period" unicode="." horiz-adv-x="212" 
d="M96 -10c-14 -7 -21 -8 -37 -8c-25 0 -41 16 -41 35s13 43 38 54c15 7 22 8 38 8c24 0 41 -16 41 -35s-14 -43 -39 -54z" />
    <glyph glyph-name="slash" unicode="/" horiz-adv-x="346" 
d="M436 693l-487 -1010c-4 -8 -18 -13 -30 -9c-14 5 -20 18 -16 28l486 1011c4 8 18 13 31 8c14 -5 20 -19 16 -28z" />
    <glyph glyph-name="zero" unicode="0" horiz-adv-x="500" 
d="M388 583c-35 0 -78 -35 -115 -96c-59 -98 -107 -254 -107 -357c0 -58 19 -87 61 -87c80 0 128 127 153 192c30 77 62 176 62 255c0 59 -15 93 -54 93zM412 87c-49 -56 -113 -101 -189 -101c-140 0 -164 121 -164 199c0 122 55 261 136 351c50 57 114 104 196 104
c138 0 158 -120 158 -198c0 -114 -57 -262 -137 -355z" />
    <glyph glyph-name="one" unicode="1" horiz-adv-x="500" 
d="M419 501l-118 -375c-18 -60 -16 -69 24 -74l30 -3c16 -13 18 -40 -3 -52c-55 2 -92 3 -133 3c-37 0 -77 -1 -126 -3c-19 11 -25 43 0 52l27 3c54 7 61 15 84 89l100 322c18 58 24 70 -6 73l-50 5c-18 15 -14 39 3 47c90 14 142 33 178 52c14 1 26 -2 34 -18
c-15 -38 -32 -83 -44 -121z" />
    <glyph glyph-name="two" unicode="2" horiz-adv-x="500" 
d="M367 245l-85 -63c-109 -81 -128 -97 -128 -102c0 -3 4 6 19 6h117c78 0 87 0 130 55c18 6 34 2 47 -16c-16 -44 -44 -102 -67 -128c-33 1 -57 1 -81 2c-24 0 -48 1 -73 1h-144c-52 0 -86 -1 -108 -3c-15 7 -18 18 -18 25c0 2 0 6 4 14c64 41 110 72 207 150
c23 17 49 37 75 59c27 22 54 46 78 71c48 50 83 102 83 154c0 65 -40 96 -91 96c-58 0 -103 -36 -140 -84c-23 -11 -48 1 -46 30c49 80 134 128 217 128c111 0 177 -62 177 -157c0 -100 -93 -179 -173 -238z" />
    <glyph glyph-name="three" unicode="3" horiz-adv-x="500" 
d="M356 379c-7 1 -2 5 5 8c64 -12 125 -62 125 -146c0 -97 -81 -186 -154 -230c-92 -54 -178 -67 -237 -67s-115 22 -115 71c0 30 24 54 57 54c17 0 29 -7 39 -16c4 -4 8 -9 11 -13c3 -5 6 -9 9 -13c9 -13 22 -20 45 -20c28 0 78 12 122 39c68 43 105 110 105 185
c0 55 -33 92 -96 92c-41 0 -80 -23 -113 -50c-37 5 -46 40 -28 64c48 18 135 53 181 80c54 30 85 65 85 98c0 43 -29 58 -61 58c-46 0 -94 -31 -142 -84c-24 -2 -42 9 -40 35c42 63 116 116 212 116c90 0 143 -46 143 -116c0 -73 -90 -120 -153 -145z" />
    <glyph glyph-name="four" unicode="4" horiz-adv-x="510" 
d="M583 663l-443 -415h7h157c14 0 18 2 22 15l55 178c2 8 6 21 21 28c14 7 42 18 62 18c22 0 29 -15 18 -48l-57 -184c-1 -5 -5 -7 -1 -7h72c14 -26 4 -54 -17 -65h-57c-15 0 -19 -1 -23 -13l-19 -58c-14 -44 -22 -56 7 -59l29 -4c17 -14 15 -43 -6 -52c-43 2 -80 3 -111 3
c-36 0 -77 -1 -120 -3c-28 10 -19 44 -1 53l43 3c39 2 43 11 61 67l17 56c2 7 1 7 -7 7h-241c-19 0 -25 8 -25 29c0 10 5 17 10 24l10 10l13 13l454 430c9 9 20 17 36 17h19c13 0 28 -5 28 -22c0 -5 -5 -14 -13 -21z" />
    <glyph glyph-name="five" unicode="5" horiz-adv-x="500" 
d="M223 455l26 -4c96 -13 225 -50 225 -203c0 -124 -106 -222 -212 -266c-81 -33 -175 -47 -242 -50c-32 9 -28 45 -9 61c228 2 356 114 356 231s-97 145 -214 146c-27 0 -34 16 -18 50l82 167c11 22 27 30 56 34l253 33c15 -2 22 -11 27 -22c-12 -29 -31 -56 -53 -71
l-210 -28c-30 -4 -31 -6 -36 -16l-28 -61c-1 0 -2 0 -3 -1z" />
    <glyph glyph-name="six" unicode="6" horiz-adv-x="500" 
d="M513 610c-43 -16 -90 -37 -137 -71c-133 -93 -209 -248 -209 -371c0 -80 29 -124 94 -124c80 0 130 100 130 184c0 61 -30 94 -76 94c-15 0 -38 -5 -57 -12c-17 23 -16 38 -8 45c26 21 72 34 97 34c92 0 160 -55 160 -174c0 -112 -110 -229 -254 -229
c-133 0 -200 81 -200 201c0 142 100 293 214 374c143 101 288 125 362 132c29 -7 21 -40 7 -49c-37 -9 -78 -18 -123 -34z" />
    <glyph glyph-name="seven" unicode="7" horiz-adv-x="500" 
d="M484 435l-385 -498c-28 -5 -56 10 -54 39l427 549c9 12 7 15 -3 15h-191c-67 0 -72 -5 -102 -40c-16 -15 -42 -1 -50 18c18 26 41 66 59 112c26 -2 39 -2 53 -3c16 0 35 -1 62 -1h169c57 0 121 0 136 4c18 -6 23 -19 20 -34c-44 -39 -86 -89 -141 -161z" />
    <glyph glyph-name="eight" unicode="8" horiz-adv-x="500" 
d="M270 300c-75 -33 -124 -80 -124 -152c0 -75 49 -105 100 -105c61 0 122 39 122 124c0 62 -45 102 -98 133zM353 583c-53 0 -101 -40 -101 -104c0 -45 33 -74 85 -107c51 23 95 64 95 124c0 52 -30 87 -79 87zM393 333c45 -36 84 -86 84 -148c0 -126 -118 -199 -235 -199
c-109 0 -202 56 -202 159c0 61 30 104 70 136c19 16 41 28 63 40c14 7 28 13 42 19c-37 30 -63 72 -63 115c0 103 95 185 206 185c108 0 175 -68 175 -155c0 -79 -70 -125 -140 -152z" />
    <glyph glyph-name="nine" unicode="9" horiz-adv-x="500" 
d="M466 203c-106 -152 -270 -236 -456 -263c-23 8 -25 35 -11 49c128 32 246 91 326 189c74 90 119 214 119 299c0 61 -24 105 -80 105c-74 0 -136 -80 -136 -168c0 -54 19 -96 72 -96c16 0 27 2 40 4c20 -9 23 -29 13 -43c-25 -17 -65 -27 -91 -27c-88 0 -149 64 -149 152
c0 109 108 236 253 236c136 0 189 -89 189 -196c0 -70 -34 -163 -89 -241z" />
    <glyph glyph-name="colon" unicode=":" horiz-adv-x="212" 
d="M96 -9c-14 -7 -21 -9 -37 -9c-25 0 -41 19 -41 43c0 23 13 51 38 66c15 7 22 9 38 9c24 0 41 -19 41 -43c0 -23 -14 -51 -39 -66zM129 262c-5 -2 -9 -5 -15 -6c-6 -2 -11 -2 -19 -2c-24 0 -41 17 -41 41c0 22 12 54 41 66c6 3 10 5 15 6c6 2 12 3 20 3
c24 0 42 -18 42 -42c0 -23 -15 -54 -43 -66z" />
    <glyph glyph-name="semicolon" unicode=";" horiz-adv-x="212" 
d="M-30 -60h-1c68 34 79 54 79 77c0 13 -9 26 -17 31c-24 17 -6 79 47 79c43 0 68 -39 68 -77c0 -58 -54 -117 -157 -151c-10 -4 -22 3 -27 14c-6 12 1 23 8 27zM129 260c-15 -6 -21 -8 -36 -8c-24 0 -41 18 -41 42c0 23 12 54 39 67c6 3 11 5 17 7c6 1 12 2 20 2
c24 0 41 -19 41 -42s-13 -55 -40 -68z" />
    <glyph glyph-name="less" unicode="&#x3c;" horiz-adv-x="834" 
d="M323 357c-4 6 -9 12 -13 17c-21 28 -43 60 -43 104c0 58 36 111 105 111c31 0 73 -16 102 -45c16 -22 -19 -43 -33 -35c-8 4 -10 1 -10 -4s5 -6 11 -10c10 -6 24 -12 38 -20c30 -16 64 -42 64 -94c0 -43 -23 -88 -55 -114c18 -5 35 -11 51 -18c31 75 84 124 148 124
c70 0 121 -57 121 -121c0 -61 -37 -106 -88 -106c-33 0 -61 22 -61 56c0 29 23 52 50 52c7 0 14 -1 20 -3v2c0 18 -17 38 -56 38c-27 0 -59 -19 -86 -68c63 -41 100 -102 100 -187c0 -77 -42 -138 -107 -138c-35 0 -75 22 -89 52c-5 7 -1 20 12 26c12 7 27 0 29 -3l-1 2
c2 -3 9 -8 20 4c12 12 25 38 25 87c0 60 -38 106 -88 136c12 -26 20 -57 20 -90c0 -73 -52 -118 -107 -118c-12 0 -20 2 -27 4c-2 1 -5 1 -7 2c-2 0 -3 1 -4 1s-1 -2 -1 -4c0 -3 2 -9 16 -22c11 -10 -19 -43 -29 -38c-70 31 -102 79 -102 136c0 35 14 71 40 105l-2 -1
c-6 -6 -13 -11 -20 -16c-7 -6 -14 -11 -21 -15c-14 -9 -31 -16 -48 -16c-36 0 -54 23 -66 41c-4 4 -6 8 -9 12s-6 7 -8 9c-5 5 -9 7 -14 7c-8 0 -19 -6 -19 -27c0 -6 0 -11 1 -17c5 -15 -44 -22 -47 -15c-11 23 -16 44 -16 68c0 98 101 183 198 183c34 0 72 -11 106 -34z
" />
    <glyph glyph-name="equal" unicode="=" horiz-adv-x="652" 
d="M595 144l-269 3l-270 -3c-6 0 -19 10 -18 24c0 14 13 24 18 24l270 -3l269 3c5 0 18 -10 18 -24c1 -14 -12 -24 -18 -24zM595 275l-269 3l-270 -3c-5 0 -18 10 -18 24s13 24 18 24l270 -3l269 3c5 0 18 -10 18 -24s-13 -24 -18 -24z" />
    <glyph glyph-name="greater" unicode="&#x3e;" horiz-adv-x="834" 
d="M512 358c33 22 71 33 105 33c97 0 199 -84 199 -183c0 -24 -7 -46 -17 -68c-3 -7 -52 0 -47 15c1 6 2 11 2 17c0 21 -12 27 -20 27c-5 0 -9 -2 -14 -7c-2 -2 -5 -5 -8 -9s-5 -8 -9 -12c-12 -18 -30 -41 -66 -41c-17 0 -34 7 -48 16c-7 4 -14 9 -21 15c-7 5 -14 11 -21 16
c26 -33 40 -69 40 -104c0 -57 -35 -106 -104 -136c-6 -3 -55 13 -28 38c15 13 17 20 17 22s0 4 -2 4c-1 0 -2 -1 -4 -1c-2 -1 -5 -1 -7 -2c-7 -2 -15 -4 -27 -4c-55 0 -106 45 -106 118c0 33 7 64 19 90c-49 -30 -87 -76 -87 -136c0 -49 12 -76 24 -87c11 -12 17 -7 19 -4
l-1 -2c2 3 17 10 29 4c14 -7 18 -20 13 -27c-14 -30 -54 -52 -89 -52c-66 0 -106 61 -106 138c0 85 36 146 99 187c-27 49 -59 68 -87 68c-37 0 -54 -20 -54 -38v-2c6 2 12 3 19 3c27 0 51 -22 51 -52c0 -35 -30 -56 -62 -56c-51 0 -87 46 -87 106c0 64 49 121 120 121
c64 0 117 -49 148 -124c16 7 33 13 51 18c-31 26 -54 71 -54 114c0 52 34 78 64 94c14 8 28 14 38 20c6 4 11 5 11 10c0 4 -2 9 -11 4c-14 -8 -49 13 -33 35c29 29 71 45 102 45c69 0 106 -53 106 -111c0 -44 -22 -76 -44 -104c-4 -5 -8 -11 -12 -16z" />
    <glyph glyph-name="question" unicode="?" horiz-adv-x="363" 
d="M117 -8c-14 -8 -22 -10 -38 -10c-24 0 -41 20 -41 44s14 53 38 67c15 10 23 10 38 10c25 0 42 -19 42 -44c0 -23 -14 -53 -39 -67zM80 139v-1c-13 29 -16 51 -16 75c0 52 40 90 116 118l107 39c16 6 29 7 29 17c0 8 -8 11 -26 15l-91 23c-69 17 -101 40 -101 88
c0 26 16 56 30 78c3 5 17 9 30 3c2 -2 5 -3 7 -5c1 -1 3 -2 4 -4c6 -8 5 -14 1 -18c-2 -3 -2 -7 -2 -10c0 -17 20 -24 96 -45c81 -23 110 -57 110 -109c0 -79 -36 -123 -159 -164c-69 -22 -89 -46 -89 -68v-11c0 -2 0 -4 1 -7c1 -5 -5 -18 -17 -23c-14 -5 -27 1 -30 9z" />
    <glyph glyph-name="at" unicode="@" horiz-adv-x="662" 
d="M352 362c-28 0 -76 -66 -76 -131c0 -18 -3 -27 5 -27c11 0 42 24 64 54l20 101c-4 2 -8 3 -13 3zM433 452l-3 -3c5 4 16 7 25 1c4 -2 13 -10 11 -22c-6 -25 -26 -99 -38 -178c-8 -53 5 -69 26 -69c56 0 89 49 89 120c0 112 -77 216 -216 216c-108 0 -202 -99 -202 -241
c0 -129 96 -230 234 -230c53 0 105 20 145 48c9 7 23 4 32 -6c9 -11 7 -26 1 -31c-53 -42 -129 -71 -209 -71c-184 0 -290 129 -290 264c0 158 129 325 313 325c163 0 273 -108 273 -233c0 -126 -98 -218 -183 -218c-55 0 -85 24 -94 65c-29 -32 -66 -61 -89 -61
c-42 0 -72 34 -72 88c0 79 76 150 133 188c26 17 46 25 64 25c7 0 14 -1 21 -2c12 12 25 22 29 25z" />
    <glyph glyph-name="A" unicode="A" horiz-adv-x="608" 
d="M304 438c-25 -47 -56 -103 -87 -160h129c-14 53 -30 113 -42 160zM153 41l-2 1c5 -1 18 -11 18 -25c-1 -14 -11 -23 -23 -22c-28 4 -54 5 -92 5c-21 0 -45 1 -82 -5c-14 -2 -24 7 -23 23c1 11 11 21 14 22c44 13 59 25 123 130c33 53 82 142 124 218c22 39 41 74 56 100
c16 29 28 47 31 50c17 15 41 38 49 49c8 9 40 16 45 -9c19 -101 68 -301 99 -413c32 -111 34 -114 84 -125c9 -1 17 -12 16 -25c-1 -6 -7 -22 -25 -20c-26 3 -54 5 -91 5c-52 0 -89 0 -127 -5c-14 -2 -24 8 -23 24c1 13 14 22 19 23h-2c33 4 52 0 52 17c0 20 -5 55 -16 97
c-5 15 -10 39 -17 67h-172c-12 -25 -25 -47 -37 -70c-27 -54 -38 -83 -38 -96c0 -15 13 -11 40 -16z" />
    <glyph glyph-name="B" unicode="B" horiz-adv-x="575" 
d="M261 423l-14 -89c2 0 4 1 5 1c114 0 152 46 152 107c0 52 -33 95 -121 89c-6 -20 -14 -53 -22 -108zM241 291l-21 -137c-14 -90 0 -101 53 -101c87 0 138 48 138 118c0 66 -42 105 -163 116c-1 0 -4 2 -7 4zM13 41h-2c75 7 78 13 95 123l40 258c13 82 19 107 -22 107
c-8 0 -19 -1 -34 -3c-27 0 -22 41 -5 45c46 11 117 16 216 16c122 0 223 -49 223 -136c0 -51 -36 -96 -104 -127c73 -27 115 -74 115 -139c0 -98 -111 -189 -270 -189c-30 0 -84 4 -106 4c-52 0 -105 1 -143 -5c-15 -2 -24 8 -22 24c2 12 14 21 19 22z" />
    <glyph glyph-name="C" unicode="C" horiz-adv-x="656" 
d="M593 159v1c-8 -60 -34 -144 -43 -147c-54 -20 -115 -31 -189 -31c-206 0 -337 127 -336 286c1 170 166 329 382 329c87 0 156 -20 209 -46c8 -4 9 -83 -2 -137c-5 -21 -39 -19 -44 -3c-28 82 -88 129 -189 129c-127 0 -235 -102 -237 -249c-2 -138 104 -250 226 -250
c68 0 135 39 175 130c3 6 15 12 28 10c14 -2 21 -13 20 -22z" />
    <glyph glyph-name="D" unicode="D" horiz-adv-x="723" 
d="M308 532c-10 0 -17 -1 -25 -1c-7 -20 -14 -53 -22 -108l-45 -295c-8 -53 17 -73 90 -73c152 0 260 89 260 246c0 135 -98 231 -258 231zM85 571v0c45 11 139 16 238 16c249 0 366 -118 366 -271c0 -169 -174 -320 -376 -320c-32 0 -126 4 -147 4c-53 0 -113 1 -151 -5
c-15 -2 -25 8 -22 25c2 11 13 21 19 21c73 9 77 13 94 123l40 258c13 82 19 107 -22 107c-9 0 -20 -1 -34 -3c-9 0 -23 41 -5 45z" />
    <glyph glyph-name="E" unicode="E" horiz-adv-x="547" 
d="M84 538h2c-5 1 -18 10 -18 24c-1 14 9 24 21 23c66 -5 159 -6 250 -6c67 0 121 2 200 8c-16 -37 -24 -63 -26 -79c-1 -8 -5 -36 -5 -42c0 -15 -49 -13 -49 0c-1 29 -11 54 -108 54h-72c-6 -22 -12 -55 -19 -101l-15 -90h64c75 0 87 5 96 29v-1c2 6 13 14 26 13
c17 0 26 -13 21 -25c-5 -11 -14 -44 -17 -63c-1 -5 -3 -14 -4 -24c-2 -8 -3 -16 -3 -19v0c0 -9 -9 -19 -23 -19s-25 10 -25 17c-1 26 -10 37 -74 37h-69l-16 -109c-14 -94 -15 -104 20 -104h47c121 0 143 29 161 75v-2c2 7 13 15 26 14c15 -2 23 -15 20 -24
c-7 -22 -28 -84 -36 -102c-9 -19 -21 -26 -42 -26c-33 0 -90 4 -157 4c-91 0 -188 0 -255 -5c-13 -1 -22 10 -19 26c2 12 14 20 19 21h-2c84 8 86 12 103 122l40 258c17 105 15 108 -62 116z" />
    <glyph glyph-name="F" unicode="F" horiz-adv-x="525" 
d="M84 538h2c-5 1 -18 10 -18 24c-1 14 9 24 21 23c66 -5 150 -6 241 -6c66 0 125 4 158 4c20 0 35 -5 38 -32c2 -19 -3 -79 -2 -102c0 -7 -10 -18 -24 -18c-15 0 -25 12 -25 16c-4 41 -25 73 -125 73h-71c-6 -22 -12 -55 -19 -101l-15 -91h58c63 0 71 7 84 35v-1
c3 7 13 14 25 13c16 -1 25 -14 21 -24c-2 -6 -5 -20 -8 -34c-3 -15 -6 -31 -8 -40s-6 -37 -5 -42c1 -10 -9 -21 -25 -20c-13 2 -23 13 -23 17c-1 26 -10 41 -73 41h-54l-17 -114c-16 -106 -18 -113 59 -119c10 -3 8 -47 -8 -45c-27 3 -82 5 -120 5c-51 0 -89 1 -128 -5
c-14 -2 -24 8 -21 25c2 13 14 22 18 22c65 6 69 13 86 122l40 258c17 105 16 108 -62 116z" />
    <glyph glyph-name="G" unicode="G" horiz-adv-x="670" 
d="M404 231h2c-5 0 -18 10 -18 23c-1 15 9 24 23 22c36 -5 97 -5 148 -5c37 0 60 1 88 5c14 1 23 -9 21 -24c-1 -12 -11 -21 -18 -22c-44 -6 -54 -9 -72 -117c-5 -30 -3 -47 8 -70c-87 -41 -146 -61 -231 -61c-198 0 -330 128 -330 286c0 170 161 329 378 329
c86 0 164 -20 200 -40c7 -4 10 -86 -2 -149c-6 -30 -41 -13 -44 -3c-30 87 -87 135 -180 135c-126 0 -232 -102 -232 -249c0 -158 138 -251 247 -251c26 0 47 4 66 11c6 20 12 57 14 73c13 93 13 98 -68 107z" />
    <glyph glyph-name="H" unicode="H" horiz-adv-x="795" 
d="M526 584v0c37 -5 76 -5 128 -5c37 0 95 2 124 5c14 2 23 -8 21 -24c-2 -12 -14 -21 -18 -22c-85 -5 -86 -7 -103 -122l-39 -257c-15 -102 -20 -112 60 -117c4 -1 17 -11 17 -25c-1 -15 -11 -23 -23 -22c-28 4 -84 5 -122 5c-52 0 -90 1 -128 -5c-15 -2 -25 8 -22 25
c2 11 13 20 19 21c62 6 70 14 86 122l16 103h-306l-16 -107c-15 -100 -18 -113 43 -117c7 -1 18 -11 18 -25c0 -4 -3 -24 -24 -22c-26 3 -68 5 -106 5c-51 0 -106 1 -144 -5c-15 -2 -25 8 -22 25c2 11 13 21 19 21c82 9 85 13 102 123l40 257c17 106 16 109 -62 117h2
c-5 1 -18 11 -17 24c0 15 11 23 21 22v0c38 -5 93 -5 145 -5c37 0 78 1 107 5c14 2 23 -8 21 -24c-2 -12 -14 -21 -18 -22c-62 -4 -69 -8 -86 -123l-15 -94h305l16 101c17 102 14 111 -45 116h2c-5 1 -18 11 -17 24c0 15 11 23 21 22z" />
    <glyph glyph-name="I" unicode="I" horiz-adv-x="387" 
d="M99 538h2c-5 1 -18 10 -18 24c-1 15 9 24 23 22c37 -5 82 -5 134 -5c38 0 87 1 115 5c13 2 23 -8 22 -23c-1 -12 -12 -22 -19 -23c-73 -4 -76 -7 -93 -122l-39 -257c-15 -101 -18 -113 55 -119c9 -2 9 -47 -10 -45v0c-26 3 -76 5 -114 5c-51 0 -97 1 -136 -5
c-15 -2 -24 8 -22 24c2 12 14 21 19 22h-2c75 7 79 13 96 123l40 257c16 104 15 111 -53 117z" />
    <glyph glyph-name="J" unicode="J" 
d="M271 414l-22 -154c-35 -245 -70 -318 -134 -385c-60 -63 -109 -84 -164 -84c-54 0 -109 32 -109 82c0 30 16 50 33 60c22 14 46 8 50 1c28 -38 61 -59 88 -59c24 0 45 16 62 55c10 21 17 49 23 84c6 34 12 74 18 118l41 286c15 106 14 113 -53 120c-7 1 -17 12 -17 24
c1 15 11 24 24 22c36 -5 82 -5 134 -5c37 0 88 2 115 5c17 2 24 -10 22 -24c-1 -11 -11 -20 -16 -22c-75 -5 -79 -10 -95 -124z" />
    <glyph glyph-name="K" unicode="K" horiz-adv-x="641" 
d="M259 416l-39 -257c-15 -99 -18 -112 43 -117c18 -2 20 -19 20 -25c0 -7 -6 -24 -25 -22c-26 3 -69 5 -106 5c-52 0 -108 0 -146 -5c-17 -2 -25 10 -22 26c3 11 13 20 20 21c83 8 85 12 102 122l40 257c17 106 16 109 -62 117c-8 1 -18 12 -18 24c0 6 4 24 24 22
c38 -5 93 -5 145 -5c37 0 78 1 107 5c17 2 25 -9 22 -24c-1 -12 -12 -21 -19 -22c-62 -4 -69 -7 -86 -122zM409 46c-2 4 -5 9 -13 19c-13 17 -36 44 -76 92l-113 138l167 144c80 68 107 88 107 98c0 5 -7 -1 -33 2c-7 1 -18 12 -17 24c1 6 6 23 25 21c29 -4 64 -4 102 -4
c28 0 51 2 72 4c20 2 23 -17 22 -23c0 -4 -3 -20 -17 -22c-52 -11 -88 -33 -204 -131l-104 -88l125 -150c90 -108 109 -119 165 -130c16 -3 21 -48 -8 -45c-26 3 -72 5 -110 5c-51 0 -88 -1 -126 -5c-24 -3 -24 20 -23 25c2 11 13 21 20 22c19 2 31 3 39 4z" />
    <glyph glyph-name="L" unicode="L" horiz-adv-x="520" 
d="M93 538h2c-5 1 -18 10 -18 24c-1 15 9 24 23 22c37 -5 82 -5 135 -5c37 0 86 1 115 5c14 2 23 -8 21 -24c-1 -12 -12 -21 -19 -22c-73 -4 -76 -7 -93 -122l-38 -253c-16 -102 7 -102 33 -102h34c102 0 128 33 153 89c7 15 53 5 48 -14c-6 -22 -25 -95 -32 -113
c-8 -20 -18 -27 -40 -27c-33 0 -90 4 -157 4c-91 0 -188 0 -255 -5c-13 -1 -22 10 -19 26c2 12 14 20 19 21h-2c84 8 86 12 103 122l40 257c16 104 15 111 -53 117z" />
    <glyph glyph-name="M" unicode="M" horiz-adv-x="850" 
d="M808 538l1 1c-56 -9 -66 -18 -74 -122l-21 -258c-8 -102 -10 -112 71 -117c4 -1 17 -11 17 -24c1 -15 -10 -24 -22 -23c-28 4 -86 5 -123 5c-52 0 -90 1 -128 -5c-14 -2 -24 8 -22 24c1 11 12 21 18 22c62 6 68 14 76 121l18 231l-231 -374c-9 -15 -38 -13 -44 5
l-128 372l-49 -239c-21 -104 -16 -106 46 -116l-2 1c5 -1 18 -12 17 -25c-1 -15 -11 -23 -23 -22c-27 3 -53 5 -90 5c-51 0 -79 0 -117 -5c-14 -2 -24 8 -21 25c2 12 14 21 19 22l-2 -1c71 11 82 23 107 132l60 264c12 51 5 85 -66 102c-4 1 -14 12 -13 24c1 14 11 23 24 21
c43 -6 75 -5 165 -5l142 -405l149 242c35 57 67 110 89 165c69 -5 109 0 154 3c17 3 25 -9 22 -25c-3 -11 -15 -20 -19 -21z" />
    <glyph glyph-name="N" unicode="N" horiz-adv-x="758" 
d="M539 538h1c-4 1 -17 11 -17 24c1 15 11 24 24 22c36 -5 58 -5 111 -5c37 0 55 0 83 4c14 2 24 -9 21 -25c-2 -11 -12 -20 -20 -21c-49 -3 -67 -37 -80 -122l-40 -258c-7 -42 -15 -118 -16 -153c-1 -27 -37 -20 -45 -11l-344 414l-38 -250c-10 -63 -20 -111 55 -117
c9 -3 9 -47 -10 -45v0c-26 2 -53 4 -90 4c-52 0 -79 1 -116 -4c-14 -2 -24 8 -21 25c2 12 14 21 18 21c69 7 82 43 94 121l45 298c4 29 -42 75 -78 78c-4 0 -17 10 -17 24c1 15 11 24 24 22c37 -5 97 -6 158 -6c52 -85 123 -177 314 -400l37 243c13 81 10 108 -53 117z" />
    <glyph glyph-name="O" unicode="O" horiz-adv-x="728" 
d="M362 535c-119 0 -217 -97 -217 -252c0 -160 103 -238 209 -238c121 0 219 97 219 251c0 160 -104 239 -211 239zM316 -18c-176 0 -292 137 -292 271c0 188 171 344 378 344c174 0 293 -137 293 -271c0 -188 -173 -344 -379 -344z" />
    <glyph glyph-name="P" unicode="P" horiz-adv-x="539" 
d="M14 42h-2c74 7 77 12 94 122l40 258c13 82 19 107 -22 107c-8 0 -19 -1 -34 -3c-8 0 -44 39 -3 46c59 9 96 15 191 15c153 0 255 -69 255 -164c0 -111 -133 -186 -271 -190c-34 -1 -23 42 -3 45c88 10 150 57 150 136c0 62 -49 113 -129 117c-6 -23 -11 -53 -19 -107
l-40 -265c-15 -101 -20 -112 51 -117c7 -1 18 -12 17 -26s-11 -22 -23 -21c-28 3 -77 5 -114 5c-51 0 -98 1 -136 -5c-14 -2 -24 8 -21 25c2 12 14 21 19 22z" />
    <glyph glyph-name="Q" unicode="Q" horiz-adv-x="728" 
d="M362 534c-119 0 -217 -98 -217 -255c0 -163 103 -241 209 -241c121 0 219 98 219 254c0 163 -104 242 -211 242zM863 -257c-198 0 -358 80 -556 232c-171 5 -283 140 -283 273c0 190 171 349 378 349c174 0 293 -138 293 -274c0 -148 -106 -276 -246 -325
c170 -119 322 -190 497 -190c58 0 117 8 181 23c5 2 20 -4 24 -17c3 -12 -2 -24 -14 -27c-101 -26 -192 -44 -274 -44z" />
    <glyph glyph-name="R" unicode="R" horiz-adv-x="617" 
d="M283 530c-7 -17 -14 -51 -22 -107l-19 -123c112 -2 184 39 184 116c0 62 -45 119 -143 114zM14 41h-2c74 8 77 13 94 122l40 258c13 83 19 108 -22 108c-8 0 -19 -1 -34 -3c-7 0 -44 39 -3 46c53 8 111 15 211 15c154 0 252 -64 252 -153c0 -62 -49 -128 -138 -158
c34 -118 136 -248 223 -248c5 0 18 -10 18 -23c0 -14 -8 -24 -20 -24c-208 0 -300 133 -325 266c-27 -3 -49 -4 -74 -2l-13 -87c-15 -100 -20 -112 51 -117c7 -1 18 -12 17 -25c-1 -14 -11 -23 -23 -22c-28 4 -77 5 -114 5c-51 0 -98 1 -136 -4c-14 -2 -24 8 -21 24
c2 13 14 22 19 22z" />
    <glyph glyph-name="S" unicode="S" horiz-adv-x="486" 
d="M431 438c-6 -29 -39 -12 -44 -5c-24 78 -61 108 -110 108c-47 0 -82 -29 -82 -80c0 -27 12 -48 31 -67c10 -9 22 -18 35 -27c13 -10 27 -18 41 -27c56 -36 121 -79 121 -159c0 -99 -94 -199 -221 -199c-70 0 -135 20 -187 50c-7 4 -10 80 2 144c3 15 38 27 44 3
c29 -99 83 -140 150 -140c63 0 109 43 109 100c0 26 -12 46 -32 65c-10 10 -22 19 -35 28l-42 27c-57 36 -123 80 -123 161c0 99 84 177 204 177c59 0 102 -14 134 -32c7 -4 17 -62 5 -127z" />
    <glyph glyph-name="T" unicode="T" horiz-adv-x="620" 
d="M138 41h-2c74 7 78 13 95 123l54 351h-56c-99 0 -131 -21 -149 -54c-3 -7 -15 -13 -27 -11c-16 2 -24 14 -19 26c4 7 7 20 10 34c4 14 7 29 9 41c3 12 6 30 6 44c0 15 46 15 48 2c4 -23 17 -20 118 -20h245c109 0 118 1 134 27c4 6 15 11 26 9c15 -2 23 -14 19 -24
c-8 -21 -11 -39 -16 -66c-3 -14 -7 -43 -7 -54c0 -19 -48 -16 -50 -2c-3 26 -15 48 -117 48h-59l-55 -356c-16 -101 -19 -112 51 -117c7 -1 18 -12 17 -26s-11 -22 -23 -21c-26 3 -76 5 -113 5c-52 0 -98 1 -136 -5c-15 -2 -24 8 -22 24c2 12 14 21 19 22z" />
    <glyph glyph-name="U" unicode="U" horiz-adv-x="734" 
d="M521 538h2c-5 1 -18 11 -18 24c1 15 11 24 24 22c36 -5 60 -5 112 -5c37 0 68 2 95 5c18 2 25 -10 22 -25c-2 -11 -13 -20 -20 -21c-66 -4 -80 -19 -94 -114l-33 -216c-19 -122 -113 -226 -283 -226c-146 0 -247 87 -224 238l31 201c16 106 15 111 -52 117
c-7 2 -17 12 -17 25c1 14 11 23 24 21c36 -5 83 -5 134 -5c37 0 87 2 116 5c13 2 23 -7 22 -23c-1 -11 -10 -21 -16 -23c-76 -5 -79 -7 -96 -122l-28 -185c-19 -126 47 -177 149 -177c94 0 157 51 179 193l28 182c14 91 4 103 -57 109z" />
    <glyph glyph-name="V" unicode="V" horiz-adv-x="618" 
d="M474 538h2c-5 1 -18 11 -18 24c1 15 11 23 23 22c27 -4 52 -5 89 -5c52 0 54 -1 91 5c15 2 24 -8 22 -24c-2 -10 -11 -20 -15 -21c-63 -11 -78 -34 -135 -130l-245 -414c-7 -11 -39 -19 -45 5c-24 103 -84 313 -116 413c-8 24 -14 44 -20 60c-7 16 -12 28 -19 37
c-12 15 -28 24 -64 28h2c-5 1 -18 10 -18 23c-1 15 9 25 22 23c27 -4 69 -5 106 -5c51 0 110 -1 148 5c15 2 24 -8 22 -24c-2 -12 -14 -21 -19 -22h2c-50 -5 -56 -15 -56 -24c0 -26 4 -50 14 -92c8 -39 44 -173 70 -265l154 270c31 54 42 80 42 95c0 13 -12 13 -39 16z" />
    <glyph glyph-name="W" unicode="W" horiz-adv-x="934" 
d="M790 538h2c-5 1 -18 10 -18 23c-1 15 9 25 22 23c28 -4 53 -5 90 -5c51 0 54 0 91 5c17 2 24 -9 22 -24c-1 -11 -11 -20 -15 -21c-63 -11 -76 -32 -130 -129l-227 -415c-7 -13 -41 -18 -46 5c-17 83 -55 234 -83 342l-206 -347c-7 -11 -39 -19 -45 5
c-25 102 -89 313 -120 413c-32 99 -39 117 -105 125c-7 1 -17 12 -17 25c1 14 11 23 23 21c27 -4 69 -5 107 -5c51 0 109 -1 147 5c15 2 24 -8 22 -24c-2 -12 -14 -21 -19 -22h2c-52 -5 -57 -17 -57 -32c0 -9 2 -20 5 -34s7 -31 12 -50c9 -39 46 -173 73 -264l155 263
c-27 92 -35 109 -99 117h2c-5 1 -18 10 -18 23c-1 15 9 25 22 23c28 -4 69 -5 106 -5c53 0 110 -1 149 5c15 2 24 -8 22 -24c-1 -11 -12 -21 -18 -22c-53 -6 -60 -15 -60 -37c0 -17 5 -42 14 -79c8 -37 38 -162 62 -253l135 258c11 22 22 41 29 56c8 16 11 27 11 34
c0 8 -3 17 -42 21z" />
    <glyph glyph-name="X" unicode="X" horiz-adv-x="661" 
d="M459 538h2c-5 1 -18 10 -18 24c-1 15 9 24 23 22c36 -5 60 -5 112 -5c37 0 61 1 88 5c14 2 23 -8 21 -24c-1 -11 -11 -21 -18 -21c-76 -9 -97 -23 -198 -134l-84 -92l68 -125c66 -121 80 -142 160 -147c6 -2 15 -13 14 -25c-1 -14 -11 -22 -23 -21c-28 4 -73 5 -111 5
c-51 0 -101 1 -139 -5c-14 -2 -24 8 -21 25c2 12 14 21 19 22h-2c62 6 46 22 -11 129l-30 56l-72 -78c-52 -57 -76 -85 -81 -100c-4 -11 9 -6 32 -7c4 -1 17 -11 17 -25c-1 -15 -11 -23 -23 -22c-28 4 -55 5 -92 5c-52 0 -71 0 -108 -5c-14 -2 -24 8 -21 25
c2 12 14 21 19 22l-2 -1c81 11 93 16 199 133l101 111l-57 106c-68 125 -82 141 -156 147c-4 0 -17 11 -16 25s11 23 24 21c36 -5 79 -5 131 -5c37 0 86 2 115 5c13 2 23 -7 22 -23c-1 -11 -10 -21 -16 -22c-68 -6 -48 -28 8 -131l21 -38l55 60c54 59 77 87 81 101
c3 11 -11 5 -33 7z" />
    <glyph glyph-name="Y" unicode="Y" horiz-adv-x="663" 
d="M44 513h1c-8 -2 -21 3 -24 15c-3 8 -2 20 10 28c48 28 94 40 135 40c109 0 174 -96 196 -219c62 147 163 220 248 220c61 0 87 -32 87 -61c0 -28 -16 -45 -32 -54c-21 -13 -44 -8 -47 -4c-6 7 -31 22 -52 22c-95 0 -167 -146 -192 -303l-6 -38c-16 -103 -19 -112 51 -117
c7 -1 18 -12 17 -26s-11 -22 -23 -21c-27 3 -76 5 -113 5c-52 0 -99 0 -137 -5c-23 -3 -23 20 -22 24c1 11 11 21 18 22c73 8 78 12 95 123l6 39c22 144 -12 315 -163 315c-17 0 -34 -2 -53 -5z" />
    <glyph glyph-name="Z" unicode="Z" horiz-adv-x="612" 
d="M514 167l-1 -5c2 5 12 16 26 14s23 -13 22 -20c-5 -29 -32 -115 -40 -134c-9 -19 -21 -26 -42 -26c-40 0 -109 4 -189 4c-109 0 -202 -1 -282 -5c-33 -2 -20 34 -16 38l452 487h-171c-98 0 -126 -31 -146 -85c-2 -6 -47 -27 -47 9c4 9 11 51 14 66c3 17 6 46 6 75
c68 -4 156 -6 223 -6c109 0 190 1 269 6c31 2 24 -31 17 -39l-448 -482h189c107 0 133 31 164 103z" />
    <glyph glyph-name="bracketleft" unicode="[" horiz-adv-x="319" 
d="M272 644l-123 -831c103 -11 154 -32 177 -55c9 -7 12 -52 -23 -39c-46 16 -98 26 -263 26l144 968c159 0 216 9 265 26c14 5 26 -3 29 -15c2 -8 -1 -18 -9 -25c-27 -23 -86 -44 -197 -55z" />
    <glyph glyph-name="backslash" unicode="\" horiz-adv-x="994" 
d="M724 282c63 90 144 170 190 170c42 0 58 -65 32 -182c-11 -48 -28 -112 -36 -149c-5 -21 -14 -29 -12 -31c5 -3 35 34 52 57c18 24 50 -6 42 -23c-16 -32 -41 -61 -65 -85c-30 -31 -64 -52 -85 -52c-30 0 -42 21 -42 51c0 22 7 55 16 98c10 42 23 90 32 131
c5 22 8 41 8 54c0 8 7 13 3 13c-21 0 -126 -115 -149 -178c-4 -12 -7 -28 -11 -49c-4 -22 -9 -50 -17 -86c-3 -11 -26 -24 -51 -29c-9 -2 -19 -3 -27 -3c-20 0 -26 13 -25 21l64 354c12 64 22 117 36 162c-49 -29 -99 -34 -186 -30l-58 -337c-17 -100 -20 -112 52 -118
c10 -3 8 -48 -8 -46c-27 3 -77 5 -115 5c-52 0 -98 0 -137 -5c-15 -2 -25 8 -22 25c2 11 13 21 19 22c73 8 79 13 97 123l55 333c-71 2 -149 3 -169 3c-32 0 -68 -36 -68 -62c0 -11 0 -24 27 -35c5 -1 12 -28 -2 -53c-11 -17 -31 -38 -61 -38c-42 0 -70 32 -70 75
c0 55 60 114 126 165c37 28 84 53 133 53c50 0 220 -10 307 -10c52 0 77 4 94 13c9 4 16 9 24 17c9 9 18 19 29 32c46 52 123 97 180 97c39 0 65 -26 65 -59c0 -31 -18 -49 -36 -59c-22 -11 -46 -4 -48 -2l2 -2c-18 16 -40 27 -64 27c-7 0 -17 -4 -24 -8
c-28 -16 -47 -85 -72 -228c-8 -44 -16 -90 -25 -142z" />
    <glyph glyph-name="bracketright" unicode="]" horiz-adv-x="319" 
d="M288 713l-144 -968c-159 0 -216 -9 -266 -26c-14 -5 -26 3 -29 15c-2 8 1 18 9 25c27 23 87 44 197 55l124 831c-104 11 -156 32 -179 55c-15 11 -4 50 24 39c46 -16 98 -26 264 -26z" />
    <glyph glyph-name="asciicircum" unicode="^" horiz-adv-x="700" 
d="M639 122c-14 2 -24 13 -24 17c-4 52 -29 60 -123 69l-77 8l10 -72c11 -88 17 -110 75 -114c5 -1 25 -47 -1 -47c-51 0 -101 7 -149 22c-49 -15 -98 -22 -150 -22c-10 0 -20 11 -18 25c2 12 14 21 18 22c57 4 64 27 75 114l10 72l-77 -8c-95 -9 -119 -17 -124 -69
c0 -4 -9 -15 -23 -17c-15 -2 -26 8 -26 17c0 49 8 91 23 136c-15 44 -23 88 -23 136c0 9 11 19 27 16c13 -1 22 -13 22 -16c5 -53 29 -59 124 -70l77 -8l-10 73c-11 87 -18 110 -75 114c-4 1 -16 10 -18 22c-2 14 8 25 18 25c52 0 101 -8 150 -22c48 14 98 22 149 22
c15 0 22 -12 19 -26c-3 -12 -15 -20 -19 -21c-57 -4 -64 -27 -75 -114l-10 -73l78 8c94 11 119 18 123 70c0 4 10 15 24 17c15 2 27 -8 27 -17c0 -49 -10 -92 -24 -136c14 -45 24 -87 24 -136c0 -9 -12 -19 -27 -17z" />
    <glyph glyph-name="underscore" unicode="_" horiz-adv-x="659" 
d="M587 -2l-258 1l-257 -1c-6 0 -19 6 -19 15c0 8 13 14 19 14l257 -2l258 2c4 0 18 -6 18 -14c0 -9 -13 -15 -18 -15z" />
    <glyph glyph-name="quoteleft" unicode="&#x2018;" horiz-adv-x="158" 
d="M138 578c0 -11 8 -24 16 -29c25 -17 2 -72 -49 -72c-41 0 -67 34 -67 67c0 56 49 110 158 144c16 5 50 -24 20 -38c-68 -32 -78 -50 -78 -72z" />
    <glyph glyph-name="a" unicode="a" horiz-adv-x="380" 
d="M221 340c-53 0 -112 -102 -112 -205c0 -34 1 -50 18 -50s64 47 93 85l33 162c-9 5 -19 8 -32 8zM300 96c12 10 32 31 45 47c19 21 52 -9 41 -26c-42 -67 -102 -130 -140 -130c-23 0 -46 23 -42 87c-47 -50 -94 -87 -111 -87c-58 0 -87 49 -87 126c0 114 81 216 171 275
c40 26 64 36 92 36c11 0 21 -1 29 -4c16 19 32 37 36 39c11 8 44 -1 37 -25c-10 -38 -48 -202 -68 -321c-1 -7 -2 -12 -3 -17z" />
    <glyph glyph-name="b" unicode="b" horiz-adv-x="391" 
d="M238 347c-25 0 -66 -51 -93 -92l-27 -140c-2 -11 37 -49 64 -49c32 0 87 69 87 184c0 64 -8 97 -31 97zM158 357c44 55 90 96 106 96c70 0 109 -95 109 -177c0 -90 -65 -193 -135 -246c-37 -29 -64 -43 -104 -43c-50 0 -128 51 -116 112c44 217 85 466 90 517
c2 22 -2 15 -48 2h1c-7 -2 -21 3 -25 16c-5 12 0 24 7 28c54 29 106 60 149 92v0c6 5 18 5 28 -4c3 -4 10 -13 8 -23c-19 -88 -45 -223 -70 -370z" />
    <glyph glyph-name="c" unicode="c" horiz-adv-x="313" 
d="M251 321l1 -1c-19 17 -40 30 -57 30c-30 0 -78 -62 -78 -177c0 -80 23 -103 50 -103c20 0 59 23 93 57c25 25 42 -19 38 -28c-33 -56 -119 -112 -171 -112c-67 0 -113 55 -113 143c0 104 54 196 119 251c32 27 73 52 122 52c41 0 73 -27 73 -61c0 -24 -16 -40 -31 -48
c-20 -11 -42 -7 -46 -3z" />
    <glyph glyph-name="d" unicode="d" horiz-adv-x="381" 
d="M216 357c-52 0 -102 -105 -102 -216c0 -46 14 -52 23 -52c10 0 59 38 90 81l34 175c-12 7 -28 12 -45 12zM384 754l-1 -1c7 6 19 6 29 -3c3 -3 11 -12 9 -23c-24 -121 -98 -535 -110 -610c-1 -7 -2 -13 -3 -18c13 10 32 31 45 47c22 26 49 -9 40 -25
c-40 -70 -101 -134 -139 -134c-20 0 -41 19 -37 90c-45 -49 -95 -90 -113 -90c-54 0 -98 50 -98 132c0 116 77 225 165 286c40 27 65 38 90 38c5 0 10 0 15 -1c10 62 19 121 25 171c4 27 -2 16 -49 5h1c-7 -1 -21 3 -25 16c-4 11 0 24 8 28c54 28 107 60 148 92z" />
    <glyph glyph-name="e" unicode="e" horiz-adv-x="323" 
d="M208 367c-6 0 -17 -4 -29 -14c-16 -15 -34 -48 -46 -88c68 9 92 35 92 76c0 22 -11 26 -17 26zM281 272c-38 -29 -84 -53 -160 -65c-1 -10 -1 -22 -1 -34c0 -81 21 -103 46 -103c24 0 66 33 98 60c15 12 44 -20 36 -32c-37 -52 -128 -111 -173 -111
c-69 0 -113 64 -113 149c0 90 32 169 84 221c46 46 111 76 154 76c52 0 79 -38 79 -73c0 -34 -22 -66 -50 -88z" />
    <glyph glyph-name="f" unicode="f" horiz-adv-x="258" 
d="M60 70l38 284h-38c-14 0 -25 -1 -29 -1c-16 -3 -25 10 -21 29c3 13 16 24 20 24c29 2 55 4 77 8c20 117 52 192 98 243c48 53 116 98 185 98c54 0 91 -38 91 -78c0 -28 -17 -47 -33 -58c-22 -14 -46 -10 -49 -6c-25 27 -58 49 -83 49c-51 0 -76 -30 -107 -239l-1 -5h40
c17 1 31 2 39 3c13 3 27 -12 24 -33c-2 -17 -14 -32 -25 -33c-9 -1 -50 -1 -87 -1c-6 -49 -13 -101 -19 -155c-27 -225 -57 -321 -122 -389c-60 -63 -109 -84 -163 -84s-111 31 -111 83c0 31 17 50 34 61c23 13 48 6 52 0c24 -38 60 -59 86 -59c25 0 47 16 62 54
c18 45 31 125 42 205z" />
    <glyph glyph-name="g" unicode="g" horiz-adv-x="341" 
d="M189 -128c-16 8 -33 16 -50 25c-15 7 -29 15 -42 23c-84 -30 -105 -54 -105 -73c0 -15 55 -52 148 -52c69 0 97 24 97 37c0 15 -23 26 -48 40zM174 360c-20 0 -50 -23 -50 -115c0 -88 31 -113 46 -113c20 0 50 22 50 114c0 88 -31 114 -46 114zM98 68
c-39 21 -72 76 -72 147c0 72 31 129 97 178c30 22 58 40 86 40c11 0 19 -3 29 -7c51 -8 98 1 113 6c1 1 2 1 2 1c2 1 6 3 11 3c10 0 23 -17 19 -40c-3 -13 -8 -31 -18 -41c-14 -14 -35 -18 -56 -16c6 -19 9 -40 9 -63c0 -73 -31 -127 -97 -178c-60 -46 -74 -61 -74 -86
c0 -5 4 -12 21 -23c16 -10 38 -20 59 -30c50 -24 97 -55 97 -101c0 -51 -104 -139 -251 -139c-113 0 -182 50 -182 100s52 96 164 137c-8 10 -13 21 -13 34c0 29 24 54 56 78z" />
    <glyph glyph-name="h" unicode="h" horiz-adv-x="423" 
d="M154 283c63 89 144 169 190 169c41 0 57 -65 31 -182c-11 -48 -28 -112 -36 -149c-5 -20 -12 -28 -12 -31c7 1 36 35 52 56c10 15 27 7 31 5c12 -7 14 -21 11 -27c-16 -32 -39 -61 -64 -85c-31 -31 -65 -52 -85 -52c-31 0 -43 21 -43 51c0 22 7 55 17 99
c11 41 22 89 31 130c5 24 9 41 9 54c0 8 6 13 2 13c-21 0 -127 -115 -150 -179c-4 -12 -9 -30 -14 -53s-10 -50 -16 -80c-3 -12 -49 -36 -78 -36c-10 0 -28 7 -24 25c22 90 36 158 45 207c34 176 60 327 67 395c3 26 -1 16 -48 5h1c-7 -1 -21 3 -25 16c-5 11 0 24 7 28
c54 29 108 60 149 92h-1c7 5 19 5 29 -4c3 -4 10 -12 8 -23c-21 -103 -53 -272 -84 -444z" />
    <glyph glyph-name="i" unicode="i" horiz-adv-x="238" 
d="M146 96c12 11 32 36 47 51c7 7 57 9 39 -25c-16 -32 -39 -55 -65 -80c-28 -27 -65 -55 -94 -55c-23 0 -43 24 -30 87c14 64 38 165 56 236c-18 -12 -36 -28 -49 -43c-12 -14 -47 16 -39 28c22 35 52 68 78 93c34 31 70 61 100 61c18 0 34 -24 21 -75
c-21 -80 -44 -180 -59 -254c-2 -10 -4 -18 -5 -24zM228 505c-7 -15 -27 -22 -39 -25c-21 -5 -40 4 -43 12c3 36 20 87 34 113c5 11 32 24 56 29c11 2 22 3 30 2s30 -10 17 -30c-20 -30 -41 -71 -55 -101z" />
    <glyph glyph-name="j" unicode="j" horiz-adv-x="226" 
d="M144 -26c-16 -77 -39 -125 -87 -176c-44 -46 -96 -72 -140 -72c-46 0 -78 28 -78 64c0 28 14 46 30 56c20 13 43 7 47 2c14 -17 37 -30 62 -30c4 0 12 2 16 5c25 14 35 34 70 242c11 66 27 170 41 241c-17 -12 -35 -28 -47 -43c-13 -15 -46 18 -41 28c19 35 47 68 71 93
c33 33 67 62 98 62c17 0 33 -23 25 -77c-30 -195 -51 -316 -67 -395zM232 504c-8 -16 -29 -23 -42 -27c-7 -1 -15 -2 -21 -2c-17 0 -22 11 -22 18c2 33 20 85 34 112c5 11 33 24 58 29c11 2 22 3 31 2c6 -1 30 -9 17 -30c-21 -32 -42 -74 -55 -102z" />
    <glyph glyph-name="k" unicode="k" horiz-adv-x="383" 
d="M250 353c-20 0 -72 -36 -90 -66c-4 -5 -7 -25 -11 -51c84 23 116 65 116 92c0 21 -11 25 -15 25zM172 372c57 49 104 79 123 79c33 0 78 -31 78 -89c0 -74 -54 -121 -138 -153c17 -41 54 -121 68 -121s37 18 61 39c15 13 44 -14 36 -27c-45 -74 -89 -124 -117 -124
c-24 0 -96 102 -141 204h-3c-7 -31 -13 -63 -16 -86c-6 -34 0 -40 35 -40c7 0 18 -9 20 -21c3 -15 -7 -26 -16 -26c-21 -1 -61 -4 -93 -7c-29 -3 -51 -6 -81 -11v0c-9 -2 -20 4 -23 17c-1 5 -2 13 2 26c41 11 54 30 64 86c41 221 73 415 83 495c3 27 -2 16 -49 5h1
c-7 -1 -20 3 -26 15c-5 12 0 25 7 29c54 29 107 60 148 91c7 7 20 7 29 -3c4 -4 11 -13 9 -23c-22 -109 -35 -192 -61 -355z" />
    <glyph glyph-name="l" unicode="l" horiz-adv-x="214" 
d="M202 754h-1c7 5 19 5 29 -4c3 -4 10 -12 8 -23c-24 -121 -98 -532 -110 -606c-3 -19 -10 -28 -10 -31c7 1 34 35 49 57c6 6 59 14 43 -22c-15 -33 -36 -61 -60 -86c-30 -31 -64 -52 -84 -52c-31 0 -43 21 -44 50c-1 22 3 55 12 99c25 121 64 335 84 478c4 26 -1 15 -48 4
h1c-7 -1 -21 3 -25 16c-5 12 0 24 7 28c54 29 108 60 149 92z" />
    <glyph glyph-name="m" unicode="m" horiz-adv-x="639" 
d="M551 92c11 10 33 33 46 50c12 17 54 6 42 -21c-15 -32 -39 -59 -65 -84c-32 -30 -65 -50 -85 -50c-30 0 -42 21 -42 50c0 21 7 53 17 96c11 40 22 87 31 127c5 23 9 40 9 52c0 8 6 14 2 14c-21 0 -111 -111 -135 -175c-4 -12 -9 -30 -14 -52s-10 -49 -16 -78
c-3 -12 -49 -35 -79 -35c-8 0 -29 6 -25 24c24 88 37 154 47 202c8 38 13 77 13 100c0 8 7 14 3 14c-21 0 -112 -111 -136 -175c-4 -12 -9 -30 -14 -52s-10 -49 -16 -78c-3 -12 -46 -35 -79 -35c-11 0 -28 8 -24 24c24 88 39 154 47 201c7 40 12 69 14 87c1 4 2 6 3 8
c-13 -10 -38 -31 -48 -44c-12 -16 -49 15 -42 27c22 34 52 65 76 88c29 29 59 52 81 52c13 0 31 -14 30 -60c0 -19 -3 -44 -10 -85c55 79 127 156 173 156c38 0 55 -55 37 -154c56 82 125 154 170 154c40 0 57 -63 31 -177c-11 -47 -28 -109 -36 -146c-3 -11 -5 -19 -6 -25z
" />
    <glyph glyph-name="n" unicode="n" horiz-adv-x="440" 
d="M351 91c11 9 32 34 46 51c12 17 54 6 42 -21c-15 -32 -39 -59 -65 -84c-32 -29 -64 -50 -85 -50c-31 0 -41 22 -41 50c0 21 6 52 16 96c11 40 22 87 32 127c6 22 8 40 8 52c0 8 6 14 2 14c-21 0 -118 -112 -142 -175c-4 -12 -9 -29 -13 -51c-5 -23 -10 -50 -16 -79
c-3 -12 -49 -35 -79 -35c-11 0 -29 7 -25 24c24 88 38 154 47 202c8 39 13 68 15 86c0 4 2 7 4 9c-14 -9 -39 -31 -50 -45c-11 -15 -28 -5 -32 -2c-5 4 -14 15 -8 28c21 35 49 65 75 90c37 34 64 51 80 51c13 0 31 -14 30 -60c0 -19 -2 -44 -9 -86c55 79 132 157 179 157
c40 0 57 -63 31 -177c-11 -47 -28 -109 -36 -146c-3 -11 -5 -20 -6 -26z" />
    <glyph glyph-name="o" unicode="o" 
d="M199 359c-26 0 -82 -64 -82 -176c0 -89 34 -120 58 -120c26 0 84 63 84 174c0 89 -35 122 -60 122zM236 32c-35 -24 -76 -45 -104 -45c-61 0 -118 67 -118 174c0 88 46 175 123 227c37 25 76 45 105 45c61 0 119 -67 119 -173c0 -88 -48 -175 -125 -228z" />
    <glyph glyph-name="p" unicode="p" horiz-adv-x="412" 
d="M264 337c-24 0 -66 -51 -94 -92l-29 -162c21 -16 45 -23 71 -23c35 0 84 78 84 180c0 64 -9 97 -32 97zM180 344c42 51 94 99 110 99c70 0 109 -95 109 -177c0 -90 -63 -194 -133 -247c-38 -29 -68 -42 -108 -42c-10 0 -22 2 -35 5l-1 -7c-26 -158 -32 -170 57 -185
c9 -3 20 -44 -6 -44c-70 0 -177 -2 -237 -12c-39 -6 -22 42 -14 44c61 21 75 34 100 182l12 67l-24 15l38 66c11 74 17 120 20 138c4 20 6 36 8 51c-12 -7 -25 -13 -39 -20c-25 -12 -45 31 -28 43c53 36 83 73 105 128c7 18 28 27 49 32c8 1 17 2 23 0c16 -3 19 -14 18 -22
c-8 -31 -15 -67 -24 -114z" />
    <glyph glyph-name="q" unicode="q" horiz-adv-x="379" 
d="M225 344c-52 0 -108 -103 -108 -208c0 -50 19 -61 28 -61c21 0 62 47 89 85l30 173c-13 7 -26 11 -39 11zM199 -41l17 95c-40 -43 -82 -77 -102 -77c-53 0 -105 52 -105 135c0 120 87 224 177 285c40 27 60 37 87 37c12 0 24 -1 34 -5c24 25 40 38 44 40
c19 8 36 -13 34 -27l-88 -469c-29 -154 -35 -172 46 -186l-1 1c5 -1 17 -10 17 -23c1 -12 -7 -23 -20 -23c-72 0 -178 -2 -238 -12c-22 -3 -21 42 -13 44c69 23 85 31 111 185z" />
    <glyph glyph-name="r" unicode="r" horiz-adv-x="340" 
d="M188 325c45 73 88 113 123 113c39 0 58 -31 58 -59c0 -26 -13 -45 -26 -56c-18 -16 -41 -13 -45 -10l1 -1c-6 5 -15 9 -22 9c-48 0 -84 -83 -104 -140c-12 -38 -25 -90 -39 -160c-3 -12 -49 -35 -79 -35c-8 0 -29 6 -25 24c24 88 38 154 47 202c8 39 13 68 15 86
c1 4 2 7 4 8c-14 -9 -39 -31 -50 -44c-6 -7 -20 -9 -32 -1c-10 8 -13 21 -9 28c22 34 52 65 76 88c29 29 59 52 81 52c13 0 30 -13 30 -55c0 -12 -1 -27 -4 -49z" />
    <glyph glyph-name="s" unicode="s" horiz-adv-x="259" 
d="M49 99l-2 2c20 -17 47 -31 71 -31c23 0 37 12 37 32s-7 34 -49 66c-43 34 -69 71 -69 115c0 34 14 67 45 98s68 56 117 56c51 0 72 -35 72 -62c0 -23 -12 -39 -25 -48c-18 -11 -37 -7 -42 -3l2 -2c-22 18 -41 29 -64 29c-17 0 -25 -11 -25 -26c0 -21 12 -40 49 -68
c53 -41 70 -74 70 -115c0 -36 -23 -76 -57 -106c-29 -26 -69 -49 -115 -49c-48 0 -86 29 -86 64c0 24 14 39 28 46c19 10 39 5 43 2z" />
    <glyph glyph-name="t" unicode="t" horiz-adv-x="269" 
d="M149 90c11 9 37 36 52 55c16 18 49 -8 39 -26c-17 -31 -43 -57 -69 -81c-33 -31 -67 -51 -91 -51c-31 0 -50 35 -23 171c13 63 26 136 38 190h-26c-11 0 -19 0 -21 -1c-16 -2 -26 10 -24 27c2 13 14 24 18 25c22 3 45 8 65 13c7 26 15 47 22 56c13 17 56 46 70 54
c15 9 40 -2 33 -23c-7 -23 -15 -58 -24 -88c33 1 61 0 75 3c15 3 28 -12 25 -33c-3 -17 -15 -31 -26 -32c-8 -1 -50 -1 -87 -1c-22 -101 -36 -190 -42 -230c-2 -12 -3 -21 -4 -28z" />
    <glyph glyph-name="u" unicode="u" horiz-adv-x="436" 
d="M255 127c-14 -20 -27 -38 -40 -54c-39 -48 -85 -86 -120 -86c-37 0 -69 45 -43 165c9 41 25 98 39 147c-18 -11 -35 -26 -45 -38c-10 -11 -48 16 -41 27c22 35 48 60 75 86c35 32 69 60 100 60c18 0 34 -22 22 -73c-15 -59 -32 -125 -46 -185c-15 -61 -29 -87 -14 -87
c13 0 33 25 65 67c33 44 63 93 72 118c8 26 19 67 30 124c3 13 46 36 78 36c9 0 29 -6 24 -24c-13 -53 -34 -146 -44 -195c-16 -75 -28 -116 -27 -126c10 5 37 32 54 53c13 17 55 4 41 -23c-16 -30 -37 -57 -64 -82c-32 -29 -64 -50 -85 -50c-30 0 -43 20 -43 50
c0 21 5 53 12 90z" />
    <glyph glyph-name="v" unicode="v" horiz-adv-x="377" 
d="M200 131c67 81 91 136 91 173c0 28 -13 47 -27 58c-20 16 12 78 57 78c48 0 65 -43 65 -75c0 -93 -90 -213 -240 -375c-19 -22 -47 3 -47 20c4 248 8 324 -3 324c-12 0 -33 -32 -48 -57c-5 -9 -19 -12 -31 -4c-9 6 -14 17 -11 24c10 36 33 70 56 94c27 30 52 44 74 44
c36 0 61 -109 64 -304z" />
    <glyph glyph-name="w" unicode="w" horiz-adv-x="578" 
d="M406 119c55 87 85 145 85 185c0 28 -13 47 -27 58c-21 16 14 78 58 78c50 0 64 -44 64 -75c0 -68 -71 -176 -175 -329c-16 -23 -32 -38 -57 -50c-20 -11 -36 5 -38 23c-7 82 -11 169 -18 246c-9 -21 -18 -43 -28 -66c-38 -88 -69 -144 -123 -200c-20 -26 -47 10 -47 21
c4 248 8 324 -3 324c-12 0 -33 -32 -48 -57c-4 -8 -19 -12 -32 -3c-10 7 -13 19 -11 25l-1 -2c10 36 35 70 58 94c27 30 52 44 74 44c35 0 57 -94 61 -274c36 77 64 144 89 203c14 31 58 74 80 74c15 0 22 -13 22 -21c2 -103 7 -186 17 -298z" />
    <glyph glyph-name="x" unicode="x" horiz-adv-x="393" 
d="M397 330c-17 -15 -38 -14 -41 -12c-6 4 -13 7 -22 7c-19 0 -55 -26 -86 -88c0 -1 0 -4 1 -5c15 -96 34 -149 55 -149c6 0 28 23 43 41c14 16 55 1 41 -24c-20 -38 -92 -113 -118 -113c-31 0 -67 27 -93 124c-5 -8 -10 -15 -14 -22c-47 -68 -93 -102 -129 -102
c-33 0 -52 24 -52 53c0 36 41 79 65 63c8 -5 17 -7 25 -7c18 0 55 28 89 87c0 4 -1 7 -2 11c-16 95 -29 145 -49 145c-6 0 -30 -22 -46 -40s-46 15 -40 24c23 43 93 113 113 113c29 0 67 -24 94 -123c48 82 95 125 134 125c38 0 56 -29 56 -55c0 -25 -12 -43 -24 -53z" />
    <glyph glyph-name="y" unicode="y" horiz-adv-x="381" 
d="M249 35l-19 -63c-48 -168 -44 -169 33 -182c9 -3 16 -44 -6 -44c-71 0 -178 -3 -239 -12c-24 -4 -24 36 -14 43c68 21 85 37 124 184c11 41 17 62 17 90c0 29 -7 66 -24 142c-20 90 -31 135 -48 135c-6 0 -11 -20 -27 -51c-4 -9 -18 -13 -31 -5c-10 6 -14 18 -12 24
c20 71 56 139 102 139c55 0 107 -144 127 -320c49 86 63 147 63 186c0 29 -13 48 -27 59c-3 2 -8 25 4 46c8 15 25 34 52 34c49 0 66 -44 66 -78c0 -65 -57 -197 -141 -327z" />
    <glyph glyph-name="z" unicode="z" horiz-adv-x="359" 
d="M240 315c-27 1 -52 10 -73 18c-12 4 -23 8 -33 11s-17 5 -23 5c-15 0 -16 -5 -16 -10c0 -8 4 -22 28 -31c7 -3 16 -25 5 -46c-7 -14 -23 -32 -49 -32c-37 0 -56 31 -56 65c0 25 9 55 34 86c30 38 64 52 101 52c28 0 51 -8 71 -15c10 -3 19 -7 29 -10c9 -2 18 -4 27 -4
c27 0 51 13 63 29c7 9 23 10 35 -1c11 -10 11 -26 7 -30c-63 -70 -190 -214 -260 -294c22 -6 44 -14 63 -22c13 -5 25 -10 37 -14c11 -4 20 -5 27 -5c8 0 13 5 13 14c0 6 -11 21 -34 31c-6 3 -15 24 -6 44c7 16 24 32 51 32c38 0 59 -35 59 -71c0 -27 -12 -58 -38 -86
c-25 -27 -51 -44 -87 -44c-28 0 -55 10 -82 21c-25 10 -48 18 -70 18c-19 0 -31 -8 -53 -35c-14 -16 -52 2 -43 23c14 30 30 49 47 62c7 6 15 11 21 16c7 5 12 9 16 13c68 72 127 139 189 210z" />
    <glyph glyph-name="braceleft" unicode="{" horiz-adv-x="329" 
d="M318 -306c-5 -13 -20 -19 -26 -17c-124 40 -187 113 -187 181c0 18 4 36 10 53c6 16 14 33 22 50c15 34 29 65 29 98c0 71 -28 123 -125 131c-34 2 -32 46 0 48c97 9 125 61 125 132c0 33 -14 64 -29 98c-8 17 -16 34 -22 50c-6 17 -10 35 -10 53c0 68 63 141 187 181
c6 2 21 -3 26 -17c5 -12 0 -25 -10 -30c-58 -22 -88 -60 -88 -84c0 -13 2 -26 6 -41s9 -32 14 -49c10 -34 21 -74 21 -119c0 -83 -42 -158 -129 -197c83 -37 129 -117 129 -198c0 -45 -11 -85 -21 -119c-5 -17 -10 -34 -14 -49s-6 -28 -6 -41c0 -24 30 -61 88 -83
c10 -5 15 -18 10 -31z" />
    <glyph glyph-name="bar" unicode="|" horiz-adv-x="662" 
d="M487 538h2c-5 1 -18 10 -18 24c-1 15 9 24 23 22c36 -5 61 -5 113 -5c37 0 56 1 84 5c14 2 23 -8 21 -24c-1 -12 -12 -21 -19 -22c-71 -5 -90 -17 -193 -131l-113 -125l-19 -124c-17 -105 -19 -111 51 -116c7 -1 18 -12 17 -26s-11 -22 -23 -21c-27 3 -76 5 -113 5
c-52 0 -99 0 -137 -5c-17 -2 -25 10 -22 25c2 11 13 21 19 21c19 3 35 4 47 7c10 2 16 5 21 10c10 13 16 39 26 105l17 116l-58 114c-68 130 -84 139 -150 145c-7 0 -18 11 -18 24c1 15 12 23 22 22v0c37 -5 79 -5 131 -5c38 0 86 1 115 5c14 2 23 -8 21 -24
c-1 -12 -13 -21 -19 -22c-69 -5 -45 -25 13 -130l37 -66l77 86c55 61 78 89 82 103c3 11 -13 5 -37 7z" />
    <glyph glyph-name="braceright" unicode="}" horiz-adv-x="329" 
d="M164 59c0 -33 14 -64 29 -98c8 -17 16 -34 22 -50c6 -17 10 -35 10 -53c0 -68 -65 -141 -188 -181c-6 -2 -21 3 -27 16c-2 7 -6 24 12 31c57 24 89 60 89 84c0 13 -2 26 -6 41s-9 31 -14 48c-11 35 -22 75 -22 120c0 81 45 161 129 198c-88 39 -129 114 -129 197
c0 45 11 85 22 120c5 17 10 33 14 48s6 28 6 41c0 24 -32 61 -89 84c-17 8 -14 25 -11 31c5 13 20 18 26 16c123 -40 188 -113 188 -181c0 -18 -4 -36 -10 -53c-6 -16 -14 -33 -22 -50c-15 -34 -29 -65 -29 -98c0 -71 27 -123 124 -132c32 -2 34 -46 0 -48
c-97 -8 -124 -60 -124 -131z" />
    <glyph glyph-name="asciitilde" unicode="~" horiz-adv-x="333" 
d="M202 244c-24 0 -43 8 -59 14l-21 9c-7 2 -13 3 -19 3c-22 0 -33 -10 -43 -24c-13 -17 -51 -1 -44 17c8 22 38 71 106 71c25 0 43 -7 58 -14c7 -3 14 -5 21 -8c6 -1 12 -3 19 -3c16 0 25 6 41 26c13 14 46 0 46 -14c-22 -54 -59 -77 -105 -77z" />
    <glyph glyph-name="exclamdown" unicode="&#xa1;" horiz-adv-x="232" 
d="M84 -173c-6 -22 -39 -43 -62 -53c-12 -6 -25 -11 -36 -11c-17 -1 -30 11 -22 30c23 54 108 365 119 402c4 15 15 26 26 30c19 6 32 -6 32 -17c0 -35 -43 -338 -57 -381zM152 259c-7 -4 -13 -7 -19 -8s-13 -1 -19 -1c-24 0 -40 19 -40 43c0 23 13 52 37 67
c15 10 23 10 38 10c25 0 42 -19 42 -44c0 -24 -14 -53 -39 -67z" />
    <glyph glyph-name="cent" unicode="&#xa2;" horiz-adv-x="308" 
d="M117 173c0 -28 3 -49 8 -65l22 101l29 135c-28 -20 -59 -78 -59 -171zM92 -43v-1l6 32c-51 13 -84 66 -84 141c0 105 55 198 119 254c17 15 37 28 59 37c4 17 10 51 10 51c1 6 15 15 31 13c15 -2 25 -14 23 -25c-1 -2 -3 -12 -6 -23h5c41 0 73 -28 73 -62
c0 -25 -16 -41 -31 -49c-20 -11 -42 -7 -46 -3l1 -1c-8 6 -16 13 -23 18l-31 -141l-27 -129c21 3 57 25 89 57c22 22 46 -15 38 -29c-28 -49 -94 -95 -143 -108l-9 -43c-2 -6 -15 -15 -31 -12c-16 2 -24 15 -23 23z" />
    <glyph glyph-name="sterling" unicode="&#xa3;" horiz-adv-x="681" 
d="M222 17c68 -4 134 -29 193 -52c32 -13 62 -26 89 -35c28 -10 52 -16 72 -16c31 0 42 17 42 42c0 18 -17 39 -58 51c-5 2 -15 14 -11 27c3 12 13 19 24 18c66 -10 112 -60 112 -107c0 -50 -40 -119 -144 -119c-70 0 -136 37 -193 71c-29 17 -57 34 -83 46
c-27 13 -51 20 -73 20c-1 0 -1 1 -2 1c-34 -89 -85 -138 -143 -138c-48 0 -83 34 -83 68c0 46 52 111 189 123c9 27 16 64 24 106l-125 -2c-10 0 -21 12 -21 27c0 16 12 27 22 27c0 0 80 -10 130 -22c9 58 18 107 29 149c16 61 42 118 87 171c47 53 117 97 186 97
c53 0 91 -37 91 -78c0 -28 -17 -46 -33 -57c-22 -14 -46 -10 -49 -7c-25 28 -60 50 -85 50c-43 0 -62 -20 -97 -238c-4 -24 -9 -46 -14 -68l148 3c10 0 21 -12 21 -27c-1 -16 -13 -27 -21 -27c0 0 -44 2 -87 3c-22 1 -44 1 -60 2h-16c-16 -42 -36 -78 -61 -109z" />
    <glyph glyph-name="fraction" unicode="&#x2044;" horiz-adv-x="553" 
d="M538 642l-482 -669c-4 -6 -19 -9 -31 -2c-13 8 -15 22 -10 29l482 669c4 6 19 9 31 2c13 -8 15 -22 10 -29z" />
    <glyph glyph-name="yen" unicode="&#xa5;" horiz-adv-x="402" 
d="M263 33l2 -16c-11 -10 -43 -38 -43 -43c-23 -31 -50 -66 -81 -99c-73 -80 -166 -149 -242 -149c-32 0 -46 16 -46 43c0 30 37 80 72 72c55 -13 146 28 244 158c-27 248 -69 331 -80 331c-6 0 -23 -26 -40 -53c-8 -13 -47 8 -42 21c23 65 79 138 114 138
c55 0 106 -143 127 -321c49 86 63 148 63 187c0 29 -13 48 -26 59c-4 2 -8 25 4 46c9 16 26 34 53 34c49 0 64 -45 64 -77c0 -67 -57 -201 -143 -331z" />
    <glyph glyph-name="florin" unicode="&#x192;" horiz-adv-x="496" 
d="M190 291c16 87 38 142 70 181c44 53 110 98 179 98c53 0 91 -37 95 -77c3 -28 -13 -47 -28 -58c-20 -14 -45 -11 -48 -8c-28 29 -64 54 -88 54c-31 0 -52 -7 -69 -174l115 3c10 0 19 -46 5 -54l-124 1c-18 -214 -43 -280 -102 -347c-55 -63 -103 -83 -157 -83
c-53 0 -114 31 -118 81c-2 30 13 51 31 61c21 13 45 7 51 0c30 -37 68 -58 94 -58c24 0 44 14 57 52c14 44 20 127 25 208c2 30 4 60 7 86l-100 -1c-9 5 -15 16 -14 28c0 16 13 26 20 26c0 0 59 -9 99 -19z" />
    <glyph glyph-name="section" unicode="&#xa7;" horiz-adv-x="525" 
d="M293 262c-31 26 -63 52 -90 78c-22 21 -41 43 -55 66c-10 -14 -16 -31 -16 -50c0 -56 48 -104 110 -156c30 -25 62 -51 89 -77c21 -21 41 -43 54 -67c11 14 18 30 18 49c0 56 -48 105 -110 157zM403 0c1 -4 1 -8 1 -12c0 -36 -19 -73 -44 -103c-47 -54 -105 -86 -168 -86
c-66 0 -143 42 -143 100c0 28 17 46 33 56c21 14 45 9 48 6c33 -39 85 -73 123 -73c47 0 63 23 63 63c0 23 -14 47 -39 73c-12 13 -26 26 -42 39c-16 14 -33 27 -50 41c-67 54 -142 118 -142 202c0 62 37 121 87 159c-1 4 -1 9 -1 13c0 36 19 72 45 101c48 54 113 88 176 88
c52 0 90 -38 90 -78c0 -28 -17 -47 -33 -57c-22 -14 -46 -10 -49 -7c-25 28 -58 49 -82 49c-48 0 -59 -19 -59 -59c0 -23 14 -48 39 -74c13 -13 27 -26 43 -40s33 -27 51 -41c67 -55 143 -120 143 -204c0 -62 -39 -118 -90 -156z" />
    <glyph glyph-name="currency" unicode="&#xa4;" horiz-adv-x="692" 
d="M374 203l-175 2c32 -111 126 -166 221 -166c83 0 154 53 171 127c2 9 48 7 47 -6c-3 -55 -18 -127 -25 -132c-35 -25 -93 -48 -201 -48c-179 0 -304 99 -334 223h-67c-6 0 -19 11 -19 26c0 16 13 27 19 27l59 -2v10c0 11 1 24 3 36c-7 -1 -14 -1 -21 -2
c-20 -1 -40 -3 -40 -3c-6 -1 -20 11 -20 27c0 15 14 27 20 26c0 0 38 -7 69 -16c44 133 170 237 335 237c83 0 173 -32 193 -47c8 -6 23 -77 25 -133c0 -12 -46 -14 -48 -5c-13 56 -83 128 -191 128c-105 0 -184 -59 -204 -167l183 3c5 0 18 -11 18 -26
c0 -16 -13 -27 -18 -27l-182 3h-4v-4c0 -15 1 -28 2 -41h2l182 3c5 0 18 -11 18 -27c0 -15 -13 -26 -18 -26z" />
    <glyph glyph-name="quotesingle" unicode="'" horiz-adv-x="243" 
d="M127 437c-12 -13 -30 -19 -44 -22c-7 -1 -14 -1 -21 0c-16 2 -20 12 -16 20c14 35 56 89 81 115c13 13 46 22 69 26c11 2 24 4 33 3c14 -2 28 -15 12 -29c-36 -32 -84 -80 -114 -113z" />
    <glyph glyph-name="quotedblleft" unicode="&#x201c;" horiz-adv-x="292" 
d="M138 578c0 -11 8 -24 16 -29c25 -17 2 -72 -49 -72c-41 0 -67 34 -67 67c0 56 49 110 158 144c16 5 50 -24 20 -38c-68 -32 -78 -50 -78 -72zM272 578c0 -11 8 -24 16 -29c25 -17 2 -72 -49 -72c-41 0 -67 34 -67 67c0 56 49 110 158 144c16 5 50 -24 20 -38
c-68 -32 -78 -50 -78 -72z" />
    <glyph glyph-name="guillemotleft" unicode="&#xab;" horiz-adv-x="384" 
d="M141 177c17 -21 44 -54 57 -69c4 -5 2 -22 -9 -34c-13 -14 -33 -16 -39 -12c-28 21 -77 61 -102 81c-6 4 -11 10 -11 19c0 15 14 28 26 37c30 22 95 61 136 84c18 10 31 -3 33 -13c2 -8 0 -20 -10 -27c-21 -15 -57 -47 -81 -66zM265 177c17 -21 44 -54 58 -69
c7 -8 -38 -54 -49 -46c-28 21 -77 61 -103 81c-6 6 -10 11 -10 19c0 11 9 24 28 37c29 21 92 61 134 84c15 8 30 1 34 -11c3 -9 -1 -21 -11 -29c-20 -15 -58 -47 -81 -66z" />
    <glyph glyph-name="guilsinglleft" unicode="&#x2039;" horiz-adv-x="260" 
d="M141 177c17 -21 44 -54 57 -69c4 -5 2 -22 -9 -34c-13 -14 -33 -16 -39 -12c-28 21 -77 61 -102 81c-6 4 -11 10 -11 19c0 15 14 28 26 37c30 22 95 61 136 84c18 10 31 -3 33 -13c2 -8 0 -20 -10 -27c-21 -15 -57 -47 -81 -66z" />
    <glyph glyph-name="guilsinglright" unicode="&#x203a;" horiz-adv-x="260" 
d="M202 145c-29 -22 -92 -61 -134 -84c-15 -8 -30 -2 -34 10c-4 10 0 22 10 30c20 15 58 47 81 66c-17 21 -44 54 -58 69c-7 8 38 54 49 46c28 -21 77 -60 103 -81c5 -4 11 -11 11 -19c0 -11 -10 -23 -28 -37z" />
    <glyph glyph-name="fi" unicode="&#xfb01;" horiz-adv-x="458" 
d="M60 70l38 284h-38c-14 0 -25 -1 -29 -1c-16 -3 -25 10 -21 29c3 13 16 24 20 24c29 2 55 4 77 8c21 117 52 192 98 243c49 54 123 98 192 98c56 0 108 -36 108 -87c0 -33 -18 -54 -36 -66c-24 -17 -51 -12 -53 -9c-24 38 -58 71 -95 71c-45 0 -80 -31 -112 -242
c0 -1 -1 -3 -1 -4c34 0 83 -1 123 1c28 16 58 30 78 30c18 0 35 -24 22 -76c-21 -82 -45 -183 -60 -258c-2 -10 -4 -19 -5 -25c12 12 32 37 46 52c10 12 51 -8 41 -25c-17 -32 -39 -57 -66 -82c-28 -26 -66 -55 -94 -55c-22 0 -43 24 -30 88c14 68 43 206 63 286h-127
c-6 -49 -14 -101 -20 -154c-27 -226 -57 -321 -122 -389c-60 -63 -109 -84 -163 -84s-111 31 -111 83c0 31 16 50 34 61c22 12 47 6 51 -1c26 -37 61 -58 87 -58c25 0 47 16 62 53c18 45 32 126 43 205z" />
    <glyph glyph-name="fl" unicode="&#xfb02;" horiz-adv-x="457" 
d="M316 621c-47 0 -76 -30 -106 -202c33 0 79 -1 117 0c15 74 29 129 50 174c-21 17 -43 28 -61 28zM200 354c-8 -52 -12 -82 -20 -153c-27 -225 -57 -321 -122 -389c-60 -63 -109 -84 -163 -84s-111 33 -111 83c0 31 17 50 34 61c23 13 48 6 52 0c24 -38 60 -59 87 -59
c24 0 44 16 61 55c19 44 31 123 42 204l33 241c2 14 4 28 6 41h-39h-29c-16 -3 -25 10 -21 29c3 13 16 24 20 24c32 2 58 4 81 8c21 91 50 152 89 197c47 54 115 98 185 98c26 0 48 -8 64 -22c42 38 91 67 130 67c38 0 75 -24 75 -62c0 -30 -19 -48 -36 -58
c-23 -14 -48 -10 -50 -8c-14 14 -32 23 -52 23c-7 0 -17 -3 -23 -6c-31 -20 -42 -61 -70 -226c-21 -120 -40 -225 -52 -303c-4 -21 -12 -30 -10 -31c5 -3 34 33 50 56c4 7 17 10 29 5c13 -6 17 -20 14 -27c-16 -31 -36 -61 -61 -86c-30 -31 -63 -52 -84 -52
c-31 0 -44 20 -44 52c0 31 22 174 50 322h-115z" />
    <glyph glyph-name="endash" unicode="&#x2013;" horiz-adv-x="659" 
d="M587 256l-258 1l-257 -1c-6 0 -19 6 -19 15c0 8 13 14 19 14l257 -2l258 2c4 0 18 -6 18 -14c0 -9 -13 -15 -18 -15z" />
    <glyph glyph-name="dagger" unicode="&#x2020;" horiz-adv-x="443" 
d="M412 424l-164 2l2 -423c0 -6 -12 -18 -29 -17c-16 0 -28 13 -28 17l3 423l-165 -2c-5 0 -18 12 -18 27c0 16 13 27 18 27l165 -3l-3 164c0 4 12 17 28 17c16 1 28 -11 28 -17l-2 -164l165 3c5 0 18 -11 18 -27c1 -15 -12 -27 -18 -27z" />
    <glyph glyph-name="daggerdbl" unicode="&#x2021;" horiz-adv-x="443" 
d="M411 165l-164 2l2 -164c0 -6 -12 -18 -28 -17c-16 0 -28 13 -28 17l2 164l-164 -2c-5 0 -18 11 -19 26c-1 16 10 28 19 28l164 -3v210l-164 -2c-9 0 -20 12 -19 28c3 55 124 24 183 23l-2 164c0 4 12 17 28 17c16 1 28 -11 28 -17l-2 -164l164 3c6 0 19 -11 19 -27
c0 -15 -13 -27 -19 -27l-163 2v-210l163 3c6 0 19 -12 19 -27c0 -16 -13 -27 -19 -27z" />
    <glyph glyph-name="periodcentered" unicode="&#xb7;" horiz-adv-x="212" 
d="M114 225c-5 -1 -10 -3 -15 -4c-6 -2 -12 -2 -20 -2c-23 0 -41 14 -41 33s13 45 40 55c4 1 7 2 9 3c3 1 6 2 8 2c6 2 12 2 19 2c25 0 43 -15 43 -34s-15 -45 -43 -55z" />
    <glyph glyph-name="paragraph" unicode="&#xb6;" horiz-adv-x="676" 
d="M517 274l-1 246c-12 1 -25 2 -39 2v-495c14 1 27 1 39 2zM439 -20c-252 0 -384 141 -384 288c0 164 122 301 384 301c96 0 145 -10 183 -20c10 -3 17 -15 11 -29c-5 -12 -20 -17 -25 -16c-10 3 -21 6 -36 8l-2 -238l2 -241c15 2 26 4 36 7s38 -37 15 -44
c-39 -12 -89 -16 -184 -16z" />
    <glyph glyph-name="bullet" unicode="&#x2022;" horiz-adv-x="274" 
d="M152 207c-18 -7 -27 -10 -50 -10c-31 0 -52 20 -52 47c0 28 17 67 56 82c17 7 26 10 48 10c31 0 54 -20 54 -48s-19 -66 -56 -81z" />
    <glyph glyph-name="quotesinglbase" unicode="&#x201a;" horiz-adv-x="158" 
d="M36 -100c-28 -9 -40 28 -20 38c67 32 77 50 77 71c0 13 -8 25 -16 30c-8 4 -14 24 -4 43c8 15 25 30 54 30c40 0 67 -35 67 -68c0 -57 -50 -110 -158 -144z" />
    <glyph glyph-name="quotedblbase" unicode="&#x201e;" horiz-adv-x="292" 
d="M36 -100c-28 -9 -40 28 -20 38c67 32 77 50 77 71c0 13 -8 25 -16 30c-8 4 -14 24 -4 43c8 15 25 30 54 30c40 0 67 -35 67 -68c0 -57 -50 -110 -158 -144zM170 -100c-16 -5 -25 7 -28 11c-6 11 -2 23 7 27c68 32 78 50 78 71c0 13 -8 25 -16 30c-8 4 -14 24 -5 43
c8 15 25 30 54 30c41 0 68 -35 68 -68c0 -57 -50 -110 -158 -144z" />
    <glyph glyph-name="quotedblright" unicode="&#x201d;" horiz-adv-x="292" 
d="M36 478c-28 -9 -40 28 -20 38c67 32 77 50 77 71c0 13 -8 25 -16 30c-8 4 -14 24 -4 43c8 15 25 30 54 30c40 0 67 -35 67 -68c0 -57 -50 -110 -158 -144zM170 478c-16 -5 -25 7 -28 11c-6 11 -2 23 7 27c68 32 78 50 78 71c0 13 -8 25 -16 30c-8 4 -14 24 -5 43
c8 15 25 30 54 30c41 0 68 -35 68 -68c0 -57 -50 -110 -158 -144z" />
    <glyph glyph-name="guillemotright" unicode="&#xbb;" horiz-adv-x="384" 
d="M202 145c-29 -22 -92 -61 -134 -84c-15 -8 -30 -2 -34 10c-4 10 0 22 10 30c20 15 58 47 81 66c-17 21 -44 54 -58 69c-7 8 38 54 49 46c28 -21 77 -60 103 -81c5 -4 11 -11 11 -19c0 -11 -10 -23 -28 -37zM327 145c-30 -22 -95 -61 -136 -84c-18 -10 -31 3 -33 13
c-2 8 0 20 10 27c21 15 57 47 81 66c-17 21 -44 54 -57 69c-4 5 -2 22 10 35c13 13 33 15 39 11c27 -21 76 -60 101 -81c5 -3 12 -10 12 -19c0 -11 -10 -24 -27 -37z" />
    <glyph glyph-name="ellipsis" unicode="&#x2026;" horiz-adv-x="616" 
d="M96 -10c-14 -7 -21 -8 -37 -8c-25 0 -41 16 -41 35s13 43 38 54c15 7 22 8 38 8c24 0 41 -16 41 -35s-14 -43 -39 -54zM298 -10c-14 -7 -22 -8 -38 -8c-25 0 -40 16 -40 35s13 43 38 54c15 7 21 8 37 8c25 0 42 -15 42 -35c0 -19 -14 -43 -39 -54zM500 -10
c-14 -7 -22 -8 -38 -8c-25 0 -40 16 -40 35s13 43 38 54c15 7 21 8 37 8c25 0 42 -15 42 -35c0 -19 -14 -43 -39 -54z" />
    <glyph glyph-name="perthousand" unicode="&#x2030;" horiz-adv-x="818" 
d="M393 253c-14 0 -44 -27 -44 -110c0 -68 19 -84 32 -84c14 0 45 28 45 110c0 67 -20 84 -33 84zM172 503c-13 0 -44 -28 -44 -111c0 -67 20 -83 33 -83c12 0 44 27 44 110c0 67 -20 84 -33 84zM656 253c-14 0 -44 -27 -44 -110c0 -68 19 -84 32 -84s44 27 44 110
c0 67 -19 84 -32 84zM427 20c-27 -20 -58 -35 -80 -35c-48 0 -93 52 -93 135c0 67 36 132 94 172c26 19 57 35 79 35c47 0 94 -53 94 -135c0 -67 -38 -133 -94 -172zM490 557l-191 -288l-187 -291c-3 -4 -18 -8 -32 -3c-15 6 -19 23 -16 28l190 288l188 292c3 4 19 8 32 2
c15 -7 19 -23 16 -28zM206 269c-28 -19 -58 -33 -80 -33c-47 0 -93 51 -93 133c0 67 36 133 94 173c27 18 56 34 80 34c47 0 93 -52 93 -134c0 -67 -38 -133 -94 -173zM690 20c-27 -20 -58 -35 -80 -35c-47 0 -94 52 -94 135c0 67 37 132 95 173c26 17 54 34 79 34
c47 0 94 -53 94 -135c0 -67 -38 -133 -94 -172z" />
    <glyph glyph-name="questiondown" unicode="&#xbf;" horiz-adv-x="332" 
d="M256 213v1c12 -29 16 -51 16 -75c0 -52 -41 -90 -117 -118l-107 -39c-16 -6 -27 -7 -27 -17c0 -7 7 -11 24 -15l92 -23c69 -17 101 -41 101 -88c0 -26 -16 -56 -31 -78c-3 -5 -18 -9 -31 -2c-2 1 -5 3 -7 5c-1 0 -3 2 -4 4c-6 8 -4 14 0 18c1 2 3 7 3 9
c0 17 -20 24 -97 45c-81 23 -110 57 -110 109c0 79 36 124 160 164c69 22 90 46 90 68c0 9 0 12 -2 18s5 19 18 24c14 4 27 -3 29 -10zM259 259c-7 -4 -13 -7 -19 -8s-13 -1 -19 -1c-24 0 -40 19 -40 43c0 23 13 53 38 67c14 8 21 10 37 10c25 0 42 -19 42 -44
c0 -24 -14 -53 -39 -67z" />
    <glyph glyph-name="grave" unicode="`" horiz-adv-x="202" 
d="M208 478c-5 -2 -12 -4 -18 -4c-13 -1 -31 2 -43 13c-25 24 -79 70 -108 92c-20 14 2 26 9 27c9 2 20 3 31 2c25 -1 55 -7 64 -15c21 -19 61 -69 76 -95c3 -7 2 -15 -11 -20z" />
    <glyph glyph-name="acute" unicode="&#xb4;" horiz-adv-x="202" 
d="M126 501c-12 -11 -34 -16 -49 -18c-8 -1 -16 -1 -22 0c-20 1 -21 14 -17 20c17 26 59 67 84 88c13 10 44 16 65 19c11 1 22 2 31 1c8 -1 32 -11 11 -27c-33 -25 -74 -58 -103 -83z" />
    <glyph glyph-name="circumflex" unicode="&#x2c6;" horiz-adv-x="225" 
d="M187 471c-12 13 -37 39 -54 56c-25 -16 -63 -40 -81 -54c-10 -7 -23 -9 -33 -5c-16 5 -19 19 -9 30c30 31 81 76 108 97c11 9 34 22 48 22c11 0 20 -3 26 -12c14 -25 46 -79 60 -106c15 -30 -62 -32 -65 -28z" />
    <glyph glyph-name="tilde" unicode="&#x2dc;" horiz-adv-x="282" 
d="M205 482c-24 0 -43 8 -59 14l-21 9c-7 2 -13 3 -19 3c-22 0 -33 -10 -43 -24c-13 -17 -51 -1 -44 17c8 22 38 71 107 71c24 0 42 -8 57 -14c7 -3 14 -5 21 -8c6 -1 12 -3 19 -3c16 0 25 6 41 26c13 14 46 0 46 -14c-22 -54 -59 -77 -105 -77z" />
    <glyph glyph-name="macron" unicode="&#xaf;" horiz-adv-x="235" 
d="M256 515c0 -3 -1 -6 -3 -9c-5 -7 -16 -15 -37 -15c-46 0 -87 1 -166 0c-5 0 -22 9 -16 20c3 6 14 15 37 14c52 -1 116 0 167 1c6 0 18 -3 18 -11z" />
    <glyph glyph-name="breve" unicode="&#x2d8;" horiz-adv-x="254" 
d="M155 474c-50 0 -89 29 -105 75c-3 9 14 25 38 32c24 8 51 2 52 -2c10 -28 27 -39 45 -39c22 0 42 19 66 43c7 7 22 7 32 -2c8 -7 10 -18 6 -23c-32 -43 -80 -84 -134 -84z" />
    <glyph glyph-name="dotaccent" unicode="&#x2d9;" horiz-adv-x="122" 
d="M113 488c-13 -6 -22 -6 -35 -6c-23 0 -38 14 -38 31c0 16 11 40 36 49c7 2 11 4 15 5c6 1 12 2 19 2c22 0 40 -14 40 -32s-15 -38 -37 -49z" />
    <glyph glyph-name="dieresis" unicode="&#xa8;" horiz-adv-x="236" 
d="M113 488c-13 -6 -22 -6 -35 -6c-23 0 -38 14 -38 31c0 16 11 40 36 49c7 2 11 4 15 5c6 1 12 2 19 2c22 0 40 -14 40 -32s-15 -38 -37 -49zM226 488c-14 -6 -21 -6 -35 -6c-23 0 -38 14 -38 31c0 16 12 40 37 49c6 2 10 4 14 5c5 1 11 2 19 2c23 0 40 -14 40 -32
s-13 -39 -37 -49z" />
    <glyph glyph-name="ring" unicode="&#x2da;" horiz-adv-x="177" 
d="M124 591c-2 0 -23 -14 -23 -46c0 -27 11 -29 14 -29c2 0 24 14 24 46c0 27 -11 29 -15 29zM148 482c-20 -10 -46 -20 -60 -20c-34 0 -67 28 -67 70c0 36 30 73 70 93c17 8 43 20 60 20c33 0 69 -27 69 -71c0 -36 -31 -73 -72 -92z" />
    <glyph glyph-name="cedilla" unicode="&#xb8;" horiz-adv-x="174" 
d="M-11 -248c-5 -1 -20 5 -24 18c-4 12 1 23 12 27c47 16 58 41 58 58c0 9 -3 16 -12 24c-15 14 -23 29 -23 46c0 19 10 37 22 52l25 32c2 3 18 8 31 3c15 -6 21 -20 15 -29l-13 -17c-3 -5 -6 -8 -7 -10c-1 -1 -1 -1 -1 -2c0 -3 5 -5 11 -9c25 -17 41 -36 41 -64
c0 -48 -67 -113 -135 -129z" />
    <glyph glyph-name="hungarumlaut" unicode="&#x2dd;" horiz-adv-x="260" 
d="M102 490c-10 -11 -27 -16 -39 -17c-6 -1 -12 -1 -18 0c-15 3 -18 12 -14 20c12 26 46 69 65 89c8 8 35 17 58 21c9 2 20 3 28 2c14 -1 27 -13 12 -27c-29 -25 -68 -62 -92 -88zM193 494c-11 -11 -28 -15 -41 -16c-6 0 -13 0 -18 1c-16 4 -18 13 -13 21c16 25 55 67 77 87
c11 10 40 17 59 20c10 1 21 2 29 1c12 -2 28 -14 10 -27c-33 -24 -76 -61 -103 -87z" />
    <glyph glyph-name="ogonek" unicode="&#x2db;" horiz-adv-x="215" 
d="M125 -79l-1 -1c4 3 12 7 22 1c3 -1 5 -3 7 -5c9 -9 10 -20 5 -27c-27 -29 -62 -60 -103 -60c-51 0 -76 33 -76 67c0 53 58 113 155 152c3 1 19 -2 24 -13s-2 -22 -5 -24l1 1c-64 -39 -90 -64 -90 -92c0 -14 6 -20 20 -20c11 0 23 6 41 21z" />
    <glyph glyph-name="caron" unicode="&#x2c7;" horiz-adv-x="225" 
d="M170 497c-10 -8 -31 -20 -48 -20c-7 0 -20 1 -26 10c-14 25 -46 81 -60 107c-16 31 63 31 65 28c12 -13 37 -40 55 -57c24 16 61 41 80 55c10 7 24 8 33 5c11 -4 23 -17 10 -30c-31 -30 -82 -78 -109 -98z" />
    <glyph glyph-name="emdash" unicode="&#x2014;" horiz-adv-x="916" 
d="M844 256l-386 1l-386 -1c-6 0 -19 6 -19 15c0 8 13 14 19 14l386 -1l386 1c6 0 19 -6 19 -14c0 -9 -13 -15 -19 -15z" />
    <glyph glyph-name="AE" unicode="&#xc6;" horiz-adv-x="807" 
d="M418 457l-150 -191h122zM-52 44l-2 -1c59 7 90 31 168 128l252 314c17 21 24 29 24 38c0 12 -20 11 -70 15c-7 0 -18 10 -18 24c-1 14 9 24 21 23c66 -5 192 -6 282 -6c67 0 122 2 200 8c-16 -37 -23 -63 -25 -79c-1 -8 -5 -36 -5 -42c0 -15 -48 -13 -49 -1
c-1 30 -11 55 -108 55h-72c-6 -22 -12 -55 -19 -101l-15 -90h64c76 0 87 5 96 29v-1c2 6 13 14 25 13c16 -1 25 -14 21 -24c-5 -13 -13 -45 -16 -64c-1 -4 -3 -14 -4 -23c-1 -8 -3 -16 -2 -19c1 -10 -9 -21 -24 -21c-14 1 -25 11 -25 18c-1 26 -10 37 -74 37h-69l-16 -109
c-14 -94 -15 -104 20 -104h47c121 0 143 29 161 75v-2c2 7 13 15 26 14c15 -2 24 -15 20 -24c-8 -23 -28 -84 -37 -103c-10 -19 -20 -25 -41 -25c-33 0 -90 4 -157 4c-91 0 -188 0 -255 -5c-13 -1 -22 10 -19 26c2 12 14 20 19 21h-2c84 8 86 13 103 122l8 47h-156l-48 -61
c-65 -83 -71 -87 -71 -101c0 -7 7 -4 33 -5c7 -1 18 -12 17 -25c-1 -14 -13 -23 -22 -22c-26 3 -48 3 -86 3c-31 0 -60 2 -98 -3c-13 -2 -23 8 -21 24c2 13 14 22 19 23z" />
    <glyph glyph-name="ordfeminine" unicode="&#xaa;" horiz-adv-x="317" 
d="M220 645c-36 0 -83 -75 -83 -154c0 -23 -2 -33 9 -33c7 0 45 28 70 61l24 121c-6 4 -12 5 -20 5zM295 473v-2c7 8 17 19 24 28c9 10 58 5 40 -24c-33 -52 -90 -100 -119 -100c-17 0 -36 13 -36 62c-36 -34 -77 -62 -91 -62c-46 0 -71 39 -71 99c0 89 64 168 134 214
c32 20 61 29 81 29c8 0 17 -1 24 -3c6 5 11 10 16 14c3 4 6 7 9 9l4 4c17 19 41 -6 38 -21c-9 -30 -38 -156 -53 -247z" />
    <glyph glyph-name="Lslash" unicode="&#x141;" horiz-adv-x="520" 
d="M93 538h2c-5 1 -18 10 -18 24c-1 15 9 24 23 22c37 -5 82 -5 135 -5c37 0 86 1 115 5c14 2 23 -8 21 -24c-1 -12 -12 -21 -19 -22c-72 -4 -75 -8 -93 -123l-11 -67l46 21c9 4 27 -3 34 -20c7 -15 5 -31 -4 -39l-87 -37l-16 -110c-15 -101 7 -102 33 -102h34
c102 0 128 33 153 89c7 15 53 5 48 -14c-6 -22 -25 -95 -32 -113c-8 -20 -18 -27 -40 -27c-33 0 -90 4 -157 4c-91 0 -188 0 -255 -5c-13 -1 -22 10 -19 26c2 12 14 20 19 21h-2c84 8 85 11 103 122l9 54l-20 -9c-26 -6 -51 48 -26 61l57 23l20 128c16 102 15 111 -53 117z
" />
    <glyph glyph-name="Oslash" unicode="&#xd8;" horiz-adv-x="728" 
d="M529 451l12 8c8 -12 10 -11 10 -11c-1 -1 -2 -2 -4 -3c-2 -3 -6 -6 -11 -11c-10 -9 -24 -23 -41 -39c-33 -32 -78 -75 -123 -118c-73 -70 -146 -140 -171 -164c40 -46 95 -68 153 -68c121 0 219 97 219 251c0 65 -17 117 -44 155zM362 535c-119 0 -217 -97 -217 -252
c0 -53 11 -96 29 -131c29 28 97 94 165 159c45 43 90 87 123 119c17 16 31 29 41 39c5 4 9 8 11 11l4 2c0 1 1 2 1 2c-41 27 -98 51 -157 51zM632 594v-1c5 5 20 7 31 -2c12 -10 12 -24 4 -30c0 0 -25 -24 -52 -51c51 -50 80 -118 80 -184c0 -188 -173 -344 -379 -344
c-74 0 -138 24 -186 62l-62 -59c-6 -8 -21 -8 -31 1c-11 10 -11 24 -3 30l61 60c-45 50 -71 113 -71 177c0 188 171 344 378 344c68 0 129 -22 176 -55z" />
    <glyph glyph-name="OE" unicode="&#x152;" horiz-adv-x="893" 
d="M412 528c-153 0 -259 -88 -259 -246c0 -134 97 -231 257 -231h25c7 19 14 52 22 107l45 296c9 55 0 74 -90 74zM801 136v-1c2 7 13 14 26 13c15 -2 23 -15 20 -24c-7 -22 -28 -84 -36 -102c-9 -18 -19 -26 -42 -26c-33 0 -89 4 -156 4c-68 0 -186 -7 -241 -7
c-180 0 -342 97 -342 275c0 169 173 317 375 317c32 0 237 -6 286 -6c67 0 122 2 200 8c-16 -37 -23 -63 -25 -79c-1 -4 -3 -14 -5 -23c-1 -7 -3 -14 -2 -17c1 -9 -9 -21 -24 -20c-14 0 -24 10 -24 17c-1 30 -11 55 -108 55h-72c-6 -22 -12 -55 -19 -101l-14 -90h63
c76 0 87 5 96 29v-1c2 6 13 14 26 13c17 0 26 -13 21 -25c-6 -12 -15 -45 -17 -61c-1 -10 -6 -39 -6 -46c0 -15 -49 -13 -49 -1c-1 26 -11 37 -74 37h-68l-17 -110c-15 -93 -15 -103 20 -103h48c120 0 142 29 160 75z" />
    <glyph glyph-name="ordmasculine" unicode="&#xba;" horiz-adv-x="317" 
d="M199 658c-25 0 -61 -44 -61 -130c0 -68 26 -88 43 -88c24 0 60 43 60 129c0 68 -26 89 -42 89zM234 409c-28 -19 -64 -34 -88 -34c-49 0 -102 51 -102 136c0 69 41 136 101 177c29 20 64 36 88 36c50 0 103 -53 103 -138c0 -69 -41 -136 -102 -177z" />
    <glyph glyph-name="ae" unicode="&#xe6;" horiz-adv-x="520" 
d="M235 350c-53 0 -126 -114 -126 -216c0 -33 1 -50 18 -50c8 0 51 24 84 58c1 74 23 140 62 190c-18 14 -29 18 -38 18zM406 367c-7 0 -19 -3 -30 -14c-23 -22 -45 -71 -55 -126c79 40 101 68 101 114c0 22 -11 26 -16 26zM219 75c-46 -48 -108 -88 -126 -88
c-58 0 -87 49 -87 126c0 114 92 225 185 284c41 26 66 36 92 36c27 0 51 -14 70 -31c33 19 68 31 96 31c52 0 79 -38 79 -73c0 -40 -22 -74 -53 -99c-37 -30 -76 -56 -158 -98c1 -74 22 -93 45 -93c21 0 63 29 99 60c15 12 44 -20 36 -32c-37 -52 -129 -111 -174 -111
c-50 0 -88 34 -104 88z" />
    <glyph glyph-name="dotlessi" unicode="&#x131;" horiz-adv-x="238" 
d="M146 94c12 11 32 36 47 50c7 6 57 9 39 -24c-16 -32 -39 -55 -65 -79c-28 -27 -65 -54 -94 -54c-23 0 -43 24 -30 85c14 63 38 162 56 232c-18 -12 -36 -28 -49 -42c-12 -14 -47 16 -39 28c22 34 52 66 78 91c34 30 70 59 100 59c18 0 34 -23 21 -74
c-21 -78 -44 -175 -59 -248c-2 -10 -4 -18 -5 -24z" />
    <glyph glyph-name="lslash" unicode="&#x142;" horiz-adv-x="214" 
d="M202 754l-1 -1c7 6 19 6 29 -3c3 -3 10 -12 8 -23c-12 -54 -31 -161 -51 -272l11 5c10 5 27 -3 35 -21c6 -14 4 -31 -5 -39l-56 -24c-20 -116 -39 -219 -44 -253c-2 -13 -3 -23 -4 -31c10 10 31 37 43 55c6 6 59 14 43 -22c-15 -33 -36 -61 -60 -86
c-30 -31 -64 -52 -84 -52c-31 0 -43 21 -44 50c-1 22 2 54 12 99c12 51 24 120 38 192l-10 -4c-23 -5 -55 47 -27 62l51 21c12 74 23 147 32 208c4 23 -1 14 -48 3h1c-7 -1 -21 3 -25 16c-5 12 0 24 7 28c54 29 108 60 149 92z" />
    <glyph glyph-name="oslash" unicode="&#xf8;" 
d="M258 265l-126 -167c12 -26 28 -35 43 -35c26 0 84 63 84 174c0 10 0 20 -1 28zM199 359c-26 0 -82 -63 -82 -176c0 -8 0 -15 1 -22l123 164c-13 25 -28 34 -42 34zM366 410l-30 -41c14 -28 25 -64 25 -109c0 -88 -48 -175 -125 -228c-35 -25 -76 -45 -104 -45
c-24 0 -46 10 -64 27l-22 -28c-5 -7 -20 -9 -32 -1c-11 8 -14 22 -8 29l31 40c-14 28 -23 64 -23 107c0 88 46 175 123 228c37 25 76 45 105 45c23 0 44 -10 62 -26l23 30c4 6 20 9 31 0s13 -22 8 -28z" />
    <glyph glyph-name="oe" unicode="&#x153;" horiz-adv-x="559" 
d="M199 359c-26 0 -82 -64 -82 -176c0 -89 34 -120 58 -120c26 0 84 63 84 174c0 89 -35 122 -60 122zM445 367c-6 0 -17 -4 -30 -15c-16 -15 -34 -47 -46 -87c68 9 92 35 92 76c0 22 -11 26 -16 26zM338 361c46 43 107 72 150 72c52 0 79 -38 79 -73c0 -34 -21 -65 -51 -88
c-38 -29 -83 -53 -159 -65c-1 -10 -1 -22 -1 -34c0 -81 21 -103 46 -103s67 32 99 59c7 7 21 7 30 -4c8 -8 9 -21 5 -27c-37 -52 -129 -111 -174 -111c-43 0 -78 27 -96 68c-10 -8 -20 -16 -30 -23c-36 -25 -76 -45 -104 -45c-61 0 -118 67 -118 174c0 88 46 175 123 227
c37 25 76 45 105 45c38 0 75 -27 96 -72z" />
    <glyph glyph-name="germandbls" unicode="&#xdf;" horiz-adv-x="458" 
d="M255 95l-2 1c21 -18 40 -27 65 -27c22 0 36 17 36 43c0 20 -11 35 -47 70c-43 40 -74 77 -74 127c0 52 26 86 76 136c69 67 88 101 88 150c0 48 -31 77 -68 77c-46 0 -86 -39 -119 -248c-11 -67 -18 -142 -28 -223c-27 -225 -57 -321 -123 -389
c-60 -62 -107 -84 -163 -84c-55 0 -110 33 -110 83c0 31 17 50 34 61c23 13 48 6 52 0c24 -38 60 -59 86 -59c24 0 47 16 62 54c18 45 32 125 42 205l38 288c20 152 54 241 106 300c48 55 116 98 185 98c67 0 115 -51 115 -116c0 -76 -32 -120 -119 -202
c-52 -49 -65 -65 -65 -98c0 -11 3 -19 10 -29c4 -5 9 -10 15 -17c7 -7 15 -14 24 -23c43 -43 64 -78 64 -120s-22 -88 -56 -120c-28 -26 -71 -50 -113 -50s-80 22 -80 61c0 24 13 40 27 48c18 12 38 6 42 3z" />
    <glyph glyph-name="logicalnot" unicode="&#xac;" horiz-adv-x="214" 
d="M125 94c10 10 32 34 43 52c8 12 57 8 44 -21c-15 -33 -36 -61 -61 -86c-30 -31 -63 -52 -83 -52c-32 0 -44 21 -44 51c0 32 22 176 50 325c28 147 48 233 101 294c48 55 113 98 162 98c39 0 72 -25 72 -62c0 -50 -65 -72 -81 -56c-14 15 -29 23 -49 23
c-7 0 -17 -3 -23 -7c-31 -19 -47 -69 -75 -231c-21 -121 -39 -223 -51 -300c-2 -12 -4 -21 -5 -28z" />
    <glyph glyph-name="mu" unicode="&#xb5;" horiz-adv-x="627" 
d="M244 314c-27 1 -52 10 -73 18c-12 4 -23 8 -33 11c-10 4 -17 5 -23 5c-14 0 -16 -5 -16 -11c0 -7 3 -21 28 -30c7 -3 16 -25 5 -46c-7 -15 -23 -33 -49 -33c-36 0 -56 31 -56 65c0 26 9 56 34 87c30 39 64 53 102 53c27 0 50 -8 70 -15c10 -4 19 -7 29 -10
c9 -2 18 -4 27 -4c27 0 51 12 64 29c4 5 21 8 33 -2c12 -9 14 -25 8 -30c-62 -70 -196 -223 -268 -305c58 -10 128 -34 193 -57c38 -13 74 -26 106 -36s58 -15 76 -15c55 0 80 27 80 53c0 19 -14 36 -41 41c-7 1 -21 24 -11 48c7 18 24 38 55 38c39 0 72 -35 72 -78
c0 -34 -18 -87 -52 -119c-35 -33 -79 -58 -137 -58c-70 0 -146 27 -215 53c-35 13 -69 26 -101 35c-32 10 -62 16 -88 16c-22 0 -43 -9 -65 -31c-18 -14 -48 9 -38 26c23 41 55 72 89 83c68 73 133 146 195 219z" />
    <glyph glyph-name="trademark" unicode="&#x2122;" horiz-adv-x="578" 
d="M202 587v-2c-2 10 -6 14 -26 14h-10v-96c0 -20 -1 -26 19 -28c6 -2 26 -39 -6 -39c-9 1 -31 2 -44 2c-17 0 -36 0 -51 -2c-10 0 -15 36 -6 39c19 2 20 6 20 28v96h-13c-23 0 -25 -5 -29 -23c-16 -5 -43 7 -43 13c1 4 2 21 2 29c0 2 0 10 -2 17c0 4 39 23 39 23
c5 -22 12 -15 33 -15h91c20 0 28 -7 33 14c0 0 41 -18 41 -22c-2 -7 -2 -20 -2 -28v-10c0 -3 -1 -5 0 -6l-1 1c2 -6 1 -15 -13 -18c-2 0 -5 -1 -8 -1c-13 -1 -23 10 -24 14zM265 606h2c-6 1 -6 41 1 41c15 -3 38 -3 80 -3l60 -115l26 55c9 18 18 36 26 59c31 0 66 2 82 4
c7 0 7 -40 2 -41c-20 -1 -19 -6 -18 -27l2 -76c1 -20 0 -26 19 -27c6 0 10 -40 -2 -40c-9 1 -33 2 -47 2c-19 0 -36 0 -48 -2c-7 0 -8 40 -2 40c14 1 13 6 13 26l-1 27l-44 -89c-13 -4 -36 2 -39 6l-43 84l-1 -28c0 -17 -1 -25 19 -27c9 -3 4 -39 -6 -39c-9 1 -22 2 -34 2
c-17 0 -30 0 -42 -2h2c-7 -1 -21 6 -21 19c-1 12 12 20 16 20h-2c17 2 19 8 19 28l2 90c0 3 -5 11 -21 13z" />
    <glyph glyph-name="Eth" unicode="&#xd0;" horiz-adv-x="723" 
d="M220 278l-15 14v21l15 -21c14 -4 15 -3 15 -3c0 -1 -1 -3 -1 -5c0 -4 -1 -10 -2 -17c-2 -15 -4 -36 -7 -56c-4 -41 -9 -82 -9 -82c-6 -55 17 -74 90 -74c152 0 260 89 260 246c0 135 -98 231 -258 231c-10 0 -17 -1 -25 -1c-7 -20 -14 -53 -22 -108l-15 -93l93 2
c4 0 18 -12 18 -28s-14 -28 -18 -28zM85 571v0c45 11 139 16 238 16c249 0 366 -118 366 -271c0 -169 -174 -320 -376 -320c-32 0 -126 4 -147 4c-53 0 -113 1 -151 -5c-15 -2 -25 8 -22 25c2 11 13 21 19 21c73 9 78 14 94 123l18 113l-66 -1c-8 0 -20 12 -20 28
s12 28 20 28l89 -2c1 0 -1 91 -1 91c11 83 19 108 -22 108c-9 0 -20 -1 -34 -3c-9 0 -23 41 -5 45z" />
    <glyph glyph-name="plusminus" unicode="&#xb1;" horiz-adv-x="564" 
d="M250 328l2 -2c-19 17 -40 31 -57 31c-30 0 -78 -63 -78 -180c0 -82 23 -105 49 -105c21 0 59 23 94 58c28 27 42 -24 38 -30c-35 -57 -119 -113 -171 -113c-68 0 -113 56 -113 146c0 107 54 200 118 255c6 6 13 11 19 16c-23 22 -33 50 -33 77c0 65 80 148 164 148
c34 0 75 -13 110 -27c18 -6 34 -13 49 -19c9 -4 18 -7 25 -10c20 27 50 43 76 43c23 0 41 -16 41 -38c0 -30 -21 -57 -56 -72c-4 -14 -8 -27 -10 -37c-4 -17 -8 -36 -12 -55c32 0 60 1 75 4c12 2 26 -13 24 -34c-3 -17 -15 -31 -25 -32s-51 -1 -87 -1
c-21 -99 -38 -198 -44 -234c-4 -18 -12 -26 -10 -27c5 -3 40 33 59 56c13 15 46 -15 40 -25c-17 -31 -44 -60 -71 -84c-32 -30 -68 -50 -89 -50c-31 0 -51 35 -23 173c14 64 26 137 37 191h-25c-11 0 -18 0 -21 -1c-14 -3 -26 9 -23 27c2 13 13 24 17 25c22 4 45 8 64 14
c6 24 15 57 23 82c-11 3 -22 6 -33 10c-18 7 -37 14 -56 21c-38 15 -73 26 -98 26c-27 0 -42 -16 -42 -44c0 -22 15 -47 62 -69c40 -2 69 -29 69 -61c0 -26 -17 -42 -32 -50c-20 -11 -42 -6 -46 -3z" />
    <glyph glyph-name="Thorn" unicode="&#xde;" horiz-adv-x="560" 
d="M268 468c148 -3 246 -70 246 -164c0 -111 -132 -186 -270 -190c-34 -1 -23 42 -3 45c88 10 150 57 150 136c0 62 -49 113 -130 117c-5 -23 -11 -53 -19 -107l-22 -146c-17 -113 -15 -113 55 -119c9 -2 9 -47 -10 -45v0c-26 3 -77 5 -114 5c-51 0 -98 1 -136 -5
c-15 -2 -24 8 -22 24c2 12 14 21 19 22h-2c75 7 78 12 95 123l41 258c17 103 15 110 -53 116h2c-5 1 -18 10 -18 24c-1 15 9 24 23 22c37 -5 82 -5 134 -5c38 0 87 1 115 5c13 2 23 -8 22 -23c-1 -12 -12 -22 -19 -23c-63 -4 -74 -9 -84 -70z" />
    <glyph glyph-name="divide" unicode="&#xf7;" 
d="M103 539h2c-5 0 -18 10 -18 23c-1 15 9 25 23 23c37 -6 83 -6 135 -6c37 0 87 2 115 6c17 2 25 -10 22 -25c-3 -12 -15 -21 -19 -21c-74 -6 -76 -8 -93 -124l-32 -220c-37 -249 -69 -318 -132 -386c-58 -63 -109 -84 -164 -84c-54 0 -110 33 -110 83c0 30 16 50 34 60
c22 13 46 7 50 0c27 -36 61 -58 87 -58c25 0 45 16 62 54c10 22 17 50 23 84c6 35 12 75 18 120l51 351c16 106 14 112 -54 120z" />
    <glyph glyph-name="degree" unicode="&#xb0;" horiz-adv-x="177" 
d="M162 591c-3 0 -24 -14 -24 -46c0 -27 11 -29 14 -29s25 15 25 46c0 27 -12 29 -15 29zM185 482c-20 -10 -47 -20 -59 -20c-35 0 -68 28 -68 70c0 36 30 73 70 93c17 8 43 20 60 20c33 0 69 -27 69 -71c0 -36 -31 -73 -72 -92z" />
    <glyph glyph-name="thorn" unicode="&#xfe;" horiz-adv-x="391" 
d="M238 343c-25 0 -66 -51 -93 -93l-27 -141c-2 -11 37 -50 64 -50c32 0 87 70 87 186c0 65 -8 98 -31 98zM158 353c44 55 90 97 106 97c70 0 109 -95 109 -179c0 -91 -65 -195 -135 -248c-37 -29 -64 -43 -104 -43c-13 0 -25 3 -36 7l-2 -10c-28 -156 -32 -171 57 -186
c9 -3 20 -44 -6 -44c-70 0 -177 -3 -237 -13c-39 -6 -22 42 -14 45c61 21 75 34 100 184c1 2 19 114 22 130c43 219 85 470 90 522c2 22 -2 14 -48 2h1c-7 -2 -21 3 -25 16c-5 12 0 24 7 28c54 29 106 61 149 93v0c6 5 18 5 28 -4c3 -4 10 -13 8 -23
c-19 -89 -45 -226 -70 -374z" />
    <glyph glyph-name="registered" unicode="&#xae;" horiz-adv-x="705" 
d="M334 343v-45c48 0 59 14 59 38c0 31 -16 43 -59 43v-36zM230 178h-2c26 3 28 9 28 45v115c0 31 1 40 -12 40c-4 0 -9 -1 -16 -2c-27 0 -19 36 -9 43c22 6 74 8 121 8c79 0 133 -24 133 -81c0 -29 -18 -57 -50 -74c25 -50 69 -100 102 -100c6 0 14 -43 0 -43
c-93 0 -150 59 -174 121c-5 0 -11 -1 -17 -1v-26c0 -34 -1 -43 25 -45c6 0 17 -10 17 -23c-1 -14 -12 -22 -22 -20v0c-9 1 -37 2 -55 2c-23 0 -51 0 -67 -3c-10 -1 -21 9 -20 23c2 13 14 21 18 21zM352 521c-145 0 -263 -109 -263 -244c0 -133 118 -242 263 -242
c147 0 265 109 265 242c0 134 -118 244 -265 244zM352 -14c-173 0 -314 131 -314 291c0 161 141 292 314 292c174 0 316 -131 316 -292c0 -160 -142 -291 -316 -291z" />
    <glyph glyph-name="eth" unicode="&#xf0;" horiz-adv-x="364" 
d="M199 369c-26 0 -82 -65 -82 -180c0 -90 34 -123 58 -123c26 0 84 65 84 179c0 89 -35 124 -60 124zM236 35c-36 -25 -76 -46 -104 -46c-61 0 -118 68 -118 178c0 89 46 178 123 232c29 20 66 38 94 45c-6 17 -13 32 -21 46l-57 -37c-16 -4 -70 37 -34 59l50 29
c-16 12 -33 18 -51 18c-13 0 -35 -11 -56 -29c-11 -11 -26 -3 -30 0c-8 7 -13 19 -4 31c32 45 75 80 135 80c37 0 69 -17 96 -44l45 28c18 11 52 -41 40 -54l-44 -26c38 -63 61 -149 61 -235c0 -113 -49 -222 -125 -275z" />
    <glyph glyph-name="copyright" unicode="&#xa9;" horiz-adv-x="705" 
d="M470 150c-19 -12 -49 -23 -103 -23c-104 0 -176 66 -176 145c0 81 74 157 178 157c43 0 88 -17 99 -24c3 -3 15 -46 16 -76c0 -14 -42 -14 -46 -5c-5 25 -26 56 -79 56s-87 -33 -87 -93c0 -79 49 -112 99 -112c37 0 67 23 69 53c1 8 37 14 45 2c-1 -35 -12 -77 -15 -80z
M352 521c-145 0 -263 -109 -263 -244c0 -133 118 -242 263 -242c147 0 265 109 265 242c0 134 -118 244 -265 244zM352 -14c-173 0 -314 131 -314 291c0 161 141 292 314 292c174 0 316 -131 316 -292c0 -160 -142 -291 -316 -291z" />
    <glyph glyph-name="Aacute" unicode="&#xc1;" horiz-adv-x="608" 
d="M381 648c-12 -11 -34 -16 -49 -18c-8 -1 -16 -1 -22 0c-20 1 -21 14 -17 20c17 26 59 67 84 88c13 10 44 16 65 19c11 1 22 2 31 1c8 -1 32 -11 11 -27c-33 -25 -74 -58 -103 -83zM304 438c-25 -47 -56 -103 -87 -160h129c-14 53 -30 113 -42 160zM153 41l-2 1
c5 -1 18 -11 18 -25c-1 -14 -11 -23 -23 -22c-28 4 -54 5 -92 5c-21 0 -45 1 -82 -5c-14 -2 -24 7 -23 23c1 11 11 21 14 22c44 13 59 25 123 130c33 53 82 142 124 218c22 39 41 74 56 100c16 29 28 47 31 50c17 15 41 38 49 49c8 9 40 16 45 -9c19 -101 68 -301 99 -413
c32 -111 34 -114 84 -125c9 -1 17 -12 16 -25c-1 -6 -7 -22 -25 -20c-26 3 -54 5 -91 5c-52 0 -89 0 -127 -5c-14 -2 -24 8 -23 24c1 13 14 22 19 23h-2c33 4 52 0 52 17c0 20 -5 55 -16 97c-5 15 -10 39 -17 67h-172c-12 -25 -25 -47 -37 -70c-27 -54 -38 -83 -38 -96
c0 -15 13 -11 40 -16z" />
    <glyph glyph-name="Acircumflex" unicode="&#xc2;" horiz-adv-x="608" 
d="M304 438c-25 -47 -56 -103 -87 -160h129c-14 53 -30 113 -42 160zM153 41l-2 1c5 -1 18 -11 18 -25c-1 -14 -11 -23 -23 -22c-28 4 -54 5 -92 5c-21 0 -45 1 -82 -5c-14 -2 -24 7 -23 23c1 11 11 21 14 22c44 13 59 25 123 130c33 53 82 142 124 218c22 39 41 74 56 100
c16 29 28 47 31 50c17 15 41 38 49 49c8 9 40 16 45 -9c19 -101 68 -301 99 -413c32 -111 34 -114 84 -125c9 -1 17 -12 16 -25c-1 -6 -7 -22 -25 -20c-26 3 -54 5 -91 5c-52 0 -89 0 -127 -5c-14 -2 -24 8 -23 24c1 13 14 22 19 23h-2c33 4 52 0 52 17c0 20 -5 55 -16 97
c-5 15 -10 39 -17 67h-172c-12 -25 -25 -47 -37 -70c-27 -54 -38 -83 -38 -96c0 -15 13 -11 40 -16zM422 618c-12 13 -37 39 -54 56c-25 -16 -63 -40 -81 -54c-10 -7 -23 -9 -33 -5c-16 5 -19 19 -9 30c30 31 81 76 108 97c11 9 34 22 48 22c11 0 20 -3 26 -12
c14 -25 46 -79 60 -106c15 -30 -62 -32 -65 -28z" />
    <glyph glyph-name="Adieresis" unicode="&#xc4;" horiz-adv-x="608" 
d="M327 635c-13 -6 -22 -6 -35 -6c-23 0 -38 14 -38 31c0 16 11 40 36 49c7 2 11 4 15 5c6 1 12 2 19 2c22 0 40 -14 40 -32s-15 -38 -37 -49zM440 635c-14 -6 -21 -6 -35 -6c-23 0 -38 14 -38 31c0 16 12 40 37 49c6 2 10 4 14 5c5 1 11 2 19 2c23 0 40 -14 40 -32
s-13 -39 -37 -49zM304 438c-25 -47 -56 -103 -87 -160h129c-14 53 -30 113 -42 160zM153 41l-2 1c5 -1 18 -11 18 -25c-1 -14 -11 -23 -23 -22c-28 4 -54 5 -92 5c-21 0 -45 1 -82 -5c-14 -2 -24 7 -23 23c1 11 11 21 14 22c44 13 59 25 123 130c33 53 82 142 124 218
c22 39 41 74 56 100c16 29 28 47 31 50c17 15 41 38 49 49c8 9 40 16 45 -9c19 -101 68 -301 99 -413c32 -111 34 -114 84 -125c9 -1 17 -12 16 -25c-1 -6 -7 -22 -25 -20c-26 3 -54 5 -91 5c-52 0 -89 0 -127 -5c-14 -2 -24 8 -23 24c1 13 14 22 19 23h-2c33 4 52 0 52 17
c0 20 -5 55 -16 97c-5 15 -10 39 -17 67h-172c-12 -25 -25 -47 -37 -70c-27 -54 -38 -83 -38 -96c0 -15 13 -11 40 -16z" />
    <glyph glyph-name="Agrave" unicode="&#xc0;" horiz-adv-x="608" 
d="M304 438c-25 -47 -56 -103 -87 -160h129c-14 53 -30 113 -42 160zM153 41l-2 1c5 -1 18 -11 18 -25c-1 -14 -11 -23 -23 -22c-28 4 -54 5 -92 5c-21 0 -45 1 -82 -5c-14 -2 -24 7 -23 23c1 11 11 21 14 22c44 13 59 25 123 130c33 53 82 142 124 218c22 39 41 74 56 100
c16 29 28 47 31 50c17 15 41 38 49 49c8 9 40 16 45 -9c19 -101 68 -301 99 -413c32 -111 34 -114 84 -125c9 -1 17 -12 16 -25c-1 -6 -7 -22 -25 -20c-26 3 -54 5 -91 5c-52 0 -89 0 -127 -5c-14 -2 -24 8 -23 24c1 13 14 22 19 23h-2c33 4 52 0 52 17c0 20 -5 55 -16 97
c-5 15 -10 39 -17 67h-172c-12 -25 -25 -47 -37 -70c-27 -54 -38 -83 -38 -96c0 -15 13 -11 40 -16zM389 625c-5 -2 -12 -4 -18 -4c-13 -1 -31 2 -43 13c-25 24 -79 70 -108 92c-20 14 2 26 9 27c9 2 20 3 31 2c25 -1 55 -7 64 -15c21 -19 61 -69 76 -95c3 -7 2 -15 -11 -20
z" />
    <glyph glyph-name="Aring" unicode="&#xc5;" horiz-adv-x="608" 
d="M304 442c-25 -48 -56 -104 -87 -162h129c-14 54 -30 114 -42 162zM365 670c-2 0 -23 -15 -23 -50c0 -31 11 -33 14 -33c2 0 24 16 24 51c0 30 -11 32 -15 32zM396 554c22 -106 65 -284 94 -387c8 -28 14 -49 20 -66s11 -28 16 -36c8 -13 19 -18 48 -24
c9 -2 17 -13 16 -25c-1 -7 -7 -23 -25 -21c-26 3 -54 5 -91 5c-52 0 -89 0 -127 -5c-14 -2 -24 8 -23 24c1 13 14 22 19 23h-2c33 4 52 0 52 17c0 21 -5 56 -16 98c-5 16 -10 40 -17 68h-172c-12 -25 -25 -48 -37 -71c-27 -54 -38 -83 -38 -97c0 -15 13 -11 40 -15h-2
c5 -1 18 -11 18 -25c-1 -14 -11 -23 -23 -22c-28 4 -54 5 -92 5c-21 0 -45 1 -82 -5c-14 -2 -24 7 -23 23c1 11 11 21 14 22c45 14 61 26 123 131c54 92 166 301 206 368c-18 13 -30 36 -30 66c0 40 30 81 70 104c17 9 43 22 60 22c33 0 69 -30 69 -80
c0 -35 -24 -70 -65 -97z" />
    <glyph glyph-name="Atilde" unicode="&#xc3;" horiz-adv-x="608" 
d="M304 442c-25 -48 -56 -104 -87 -162h129c-14 54 -30 114 -42 162zM153 42h-2c5 -1 18 -11 18 -25c-1 -14 -11 -23 -23 -22c-28 4 -54 5 -92 5c-21 0 -45 1 -82 -5c-14 -2 -24 7 -23 23c1 11 11 21 14 22c44 14 59 26 123 131c33 54 82 144 124 221c22 39 41 74 56 101
c16 28 28 47 31 49c17 16 41 39 49 50c8 9 40 16 45 -9c19 -102 68 -303 99 -416c32 -113 34 -116 84 -126c9 -2 17 -13 16 -25c-1 -7 -7 -23 -25 -21c-26 3 -54 5 -91 5c-52 0 -89 0 -127 -5c-14 -2 -24 8 -23 24c1 13 14 22 19 23h-2c33 4 52 0 52 17c0 21 -5 56 -16 98
c-5 16 -10 40 -17 68h-172c-12 -25 -25 -48 -37 -71c-27 -54 -38 -83 -38 -97c0 -15 13 -11 40 -15zM403 605c-24 0 -43 10 -59 18c-7 4 -14 8 -21 11c-7 2 -13 4 -19 4c-22 0 -33 -13 -43 -30c-13 -21 -51 -2 -44 20c8 28 38 89 107 89c24 0 42 -9 57 -17
c7 -3 14 -7 21 -10c6 -2 12 -3 19 -3c16 0 25 6 41 32c13 17 46 0 46 -18c-22 -66 -59 -96 -105 -96z" />
    <glyph glyph-name="Ccedilla" unicode="&#xc7;" horiz-adv-x="656" 
d="M301 -21c-173 23 -277 141 -276 285c1 172 166 333 382 333c87 0 156 -21 209 -47c8 -4 9 -84 -2 -138c-5 -22 -39 -19 -44 -3c-28 83 -88 130 -189 130c-127 0 -235 -104 -237 -252c-2 -140 104 -253 226 -253c68 0 135 39 175 131c3 6 15 13 28 11c14 -3 21 -13 20 -22
v0c-8 -60 -34 -146 -43 -149c-53 -20 -113 -30 -185 -31c-1 -2 -2 -3 -2 -5c0 -3 4 -5 10 -9c25 -19 41 -39 41 -69c0 -52 -66 -122 -134 -139c-5 -1 -20 6 -24 19s1 25 12 29c46 18 58 44 58 63c0 9 -3 15 -13 26c-15 16 -22 32 -22 49c0 14 3 27 10 41z" />
    <glyph glyph-name="Eacute" unicode="&#xc9;" horiz-adv-x="547" 
d="M84 538h2c-5 1 -18 10 -18 24c-1 14 9 24 21 23c66 -5 159 -6 250 -6c67 0 121 2 200 8c-16 -37 -24 -63 -26 -79c-1 -8 -5 -36 -5 -42c0 -15 -49 -13 -49 0c-1 29 -11 54 -108 54h-72c-6 -22 -12 -55 -19 -101l-15 -90h64c75 0 87 5 96 29v-1c2 6 13 14 26 13
c17 0 26 -13 21 -25c-5 -11 -14 -44 -17 -63c-1 -5 -3 -14 -4 -24c-2 -8 -3 -16 -3 -19v0c0 -9 -9 -19 -23 -19s-25 10 -25 17c-1 26 -10 37 -74 37h-69l-16 -109c-14 -94 -15 -104 20 -104h47c121 0 143 29 161 75v-2c2 7 13 15 26 14c15 -2 23 -15 20 -24
c-7 -22 -28 -84 -36 -102c-9 -19 -21 -26 -42 -26c-33 0 -90 4 -157 4c-91 0 -188 0 -255 -5c-13 -1 -22 10 -19 26c2 12 14 20 19 21h-2c84 8 86 12 103 122l40 258c17 105 15 108 -62 116zM355 648c-12 -11 -34 -16 -49 -18c-8 -1 -16 -1 -22 0c-20 1 -21 14 -17 20
c17 26 59 67 84 88c13 10 44 16 65 19c11 1 22 2 31 1c8 -1 32 -11 11 -27c-33 -25 -74 -58 -103 -83z" />
    <glyph glyph-name="Ecircumflex" unicode="&#xca;" horiz-adv-x="547" 
d="M84 545h2c-5 0 -18 10 -18 23c-1 14 9 25 21 24c66 -5 159 -6 250 -6c67 0 121 2 200 7c-16 -37 -24 -63 -26 -79c-1 -8 -5 -36 -5 -43c0 -14 -49 -12 -49 0c-1 30 -11 55 -108 55h-72c-6 -22 -12 -56 -19 -102l-15 -91h64c75 0 87 5 96 29v-1c2 6 13 14 26 14
c17 -1 26 -14 21 -26s-14 -45 -17 -64c-1 -5 -3 -14 -4 -24c-2 -8 -3 -16 -3 -20v0c0 -9 -9 -18 -23 -18c-14 -1 -25 10 -25 17c-1 26 -10 37 -74 37h-69l-16 -110c-14 -95 -15 -106 20 -106h47c121 0 143 30 161 77v-2c2 7 13 15 26 13c15 -1 23 -14 20 -24
c-7 -22 -28 -85 -36 -102c-9 -20 -21 -27 -42 -27c-33 0 -90 4 -157 4c-91 0 -188 0 -255 -5c-13 -1 -22 10 -19 26c2 12 14 21 19 21h-2c84 9 86 13 103 124l40 260c17 107 15 110 -62 119zM390 596c-12 15 -37 45 -54 64c-25 -18 -63 -46 -81 -62c-10 -8 -23 -10 -33 -6
c-16 5 -19 22 -9 35c30 35 81 87 108 112c11 10 34 25 48 25c11 0 20 -4 26 -14c14 -29 46 -91 60 -122c15 -34 -62 -37 -65 -32z" />
    <glyph glyph-name="Edieresis" unicode="&#xcb;" horiz-adv-x="547" 
d="M296 635c-13 -6 -22 -6 -35 -6c-23 0 -38 14 -38 31c0 16 11 40 36 49c7 2 11 4 15 5c6 1 12 2 19 2c22 0 40 -14 40 -32s-15 -38 -37 -49zM409 635c-14 -6 -21 -6 -35 -6c-23 0 -38 14 -38 31c0 16 12 40 37 49c6 2 10 4 14 5c5 1 11 2 19 2c23 0 40 -14 40 -32
s-13 -39 -37 -49zM84 538h2c-5 1 -18 10 -18 24c-1 14 9 24 21 23c66 -5 159 -6 250 -6c67 0 121 2 200 8c-16 -37 -24 -63 -26 -79c-1 -8 -5 -36 -5 -42c0 -15 -49 -13 -49 0c-1 29 -11 54 -108 54h-72c-6 -22 -12 -55 -19 -101l-15 -90h64c75 0 87 5 96 29v-1
c2 6 13 14 26 13c17 0 26 -13 21 -25c-5 -11 -14 -44 -17 -63c-1 -5 -3 -14 -4 -24c-2 -8 -3 -16 -3 -19v0c0 -9 -9 -19 -23 -19s-25 10 -25 17c-1 26 -10 37 -74 37h-69l-16 -109c-14 -94 -15 -104 20 -104h47c121 0 143 29 161 75v-2c2 7 13 15 26 14c15 -2 23 -15 20 -24
c-7 -22 -28 -84 -36 -102c-9 -19 -21 -26 -42 -26c-33 0 -90 4 -157 4c-91 0 -188 0 -255 -5c-13 -1 -22 10 -19 26c2 12 14 20 19 21h-2c84 8 86 12 103 122l40 258c17 105 15 108 -62 116z" />
    <glyph glyph-name="Egrave" unicode="&#xc8;" horiz-adv-x="547" 
d="M84 544h2c-5 1 -18 10 -18 24c-1 14 9 24 21 23c66 -5 159 -5 250 -5c67 0 121 2 200 7c-16 -37 -24 -64 -26 -79c-1 -8 -5 -36 -5 -43c0 -15 -49 -12 -49 0c-1 29 -11 55 -108 55h-72c-6 -22 -12 -56 -19 -102l-15 -91h64c75 0 87 5 96 29v-1c2 6 13 14 26 14
c17 -1 26 -14 21 -26s-14 -45 -17 -64c-1 -5 -3 -14 -4 -24c-2 -8 -3 -16 -3 -20v0c0 -9 -9 -18 -23 -19c-14 0 -25 11 -25 18c-1 26 -10 37 -74 37h-69l-16 -110c-14 -95 -15 -106 20 -106h47c121 0 143 30 161 77v-2c2 7 13 15 26 13c15 -2 23 -14 20 -24
c-7 -22 -28 -85 -36 -102c-9 -20 -21 -27 -42 -27c-33 0 -90 4 -157 4c-91 0 -188 0 -255 -5c-13 -1 -22 10 -19 26c2 12 14 21 19 21h-2c84 9 86 13 103 123l40 261c17 107 15 110 -62 118zM375 602c-5 -3 -12 -4 -18 -5c-13 0 -31 2 -43 16c-25 27 -79 82 -108 107
c-20 18 2 31 9 33c9 2 20 3 31 2c25 -1 55 -8 64 -18c21 -22 61 -81 76 -111c3 -8 2 -18 -11 -24z" />
    <glyph glyph-name="Iacute" unicode="&#xcd;" horiz-adv-x="387" 
d="M274 648c-12 -11 -34 -16 -49 -18c-8 -1 -16 -1 -22 0c-20 1 -21 14 -17 20c17 26 59 67 84 88c13 10 44 16 65 19c11 1 22 2 31 1c8 -1 32 -11 11 -27c-33 -25 -74 -58 -103 -83zM99 538h2c-5 1 -18 10 -18 24c-1 15 9 24 23 22c37 -5 82 -5 134 -5c38 0 87 1 115 5
c13 2 23 -8 22 -23c-1 -12 -12 -22 -19 -23c-73 -4 -76 -7 -93 -122l-39 -257c-15 -101 -18 -113 55 -119c9 -2 9 -47 -10 -45v0c-26 3 -76 5 -114 5c-51 0 -97 1 -136 -5c-15 -2 -24 8 -22 24c2 12 14 21 19 22h-2c75 7 79 13 96 123l40 257c16 104 15 111 -53 117z" />
    <glyph glyph-name="Icircumflex" unicode="&#xce;" horiz-adv-x="387" 
d="M99 545h2c-5 0 -18 10 -18 23c-1 15 9 24 23 23c37 -6 82 -5 134 -5c38 0 87 1 115 5c13 1 23 -8 22 -24c-1 -12 -12 -22 -19 -22c-73 -5 -76 -8 -93 -124l-39 -261c-15 -101 -18 -113 55 -119c9 -3 9 -48 -10 -46v0c-26 3 -76 5 -114 5c-51 0 -97 1 -136 -5
c-15 -2 -24 8 -22 24c2 13 14 22 19 22h-2c75 8 79 14 96 125l40 260c16 105 15 112 -53 119zM300 596c-12 15 -37 45 -54 64c-25 -18 -63 -46 -81 -62c-10 -8 -23 -10 -33 -6c-16 5 -19 22 -9 35c30 35 81 87 108 112c11 10 34 25 48 25c11 0 20 -4 26 -14
c14 -29 46 -91 60 -122c15 -34 -62 -37 -65 -32z" />
    <glyph glyph-name="Idieresis" unicode="&#xcf;" horiz-adv-x="387" 
d="M204 635c-13 -6 -22 -6 -35 -6c-23 0 -38 14 -38 31c0 16 11 40 36 49c7 2 11 4 15 5c6 1 12 2 19 2c22 0 40 -14 40 -32s-15 -38 -37 -49zM317 635c-14 -6 -21 -6 -35 -6c-23 0 -38 14 -38 31c0 16 12 40 37 49c6 2 10 4 14 5c5 1 11 2 19 2c23 0 40 -14 40 -32
s-13 -39 -37 -49zM99 538h2c-5 1 -18 10 -18 24c-1 15 9 24 23 22c37 -5 82 -5 134 -5c38 0 87 1 115 5c13 2 23 -8 22 -23c-1 -12 -12 -22 -19 -23c-73 -4 -76 -7 -93 -122l-39 -257c-15 -101 -18 -113 55 -119c9 -2 9 -47 -10 -45v0c-26 3 -76 5 -114 5
c-51 0 -97 1 -136 -5c-15 -2 -24 8 -22 24c2 12 14 21 19 22h-2c75 7 79 13 96 123l40 257c16 104 15 111 -53 117z" />
    <glyph glyph-name="Igrave" unicode="&#xcc;" horiz-adv-x="387" 
d="M99 544h2c-5 1 -18 11 -18 24c-1 15 9 24 23 22c37 -5 82 -4 134 -4c38 0 87 1 115 4c13 2 23 -7 22 -23c-1 -12 -12 -22 -19 -23c-73 -4 -76 -7 -93 -123l-39 -261c-15 -101 -18 -113 55 -119c9 -3 9 -48 -10 -46v0c-26 3 -76 5 -114 5c-51 0 -97 1 -136 -5
c-15 -2 -24 8 -22 24c2 13 14 22 19 22h-2c75 8 79 14 96 124l40 261c16 105 15 112 -53 118zM274 602c-5 -3 -12 -4 -18 -5c-13 0 -31 2 -43 16c-25 27 -79 82 -108 107c-20 18 2 31 9 33c9 2 20 3 31 2c25 -1 55 -8 64 -18c21 -22 61 -81 76 -111c3 -8 2 -18 -11 -24z" />
    <glyph glyph-name="Ntilde" unicode="&#xd1;" horiz-adv-x="758" 
d="M539 538h1c-4 1 -17 11 -17 24c1 15 11 24 24 22c36 -5 58 -5 111 -5c37 0 55 0 83 4c14 2 24 -9 21 -25c-2 -11 -12 -20 -20 -21c-49 -3 -67 -37 -80 -122l-40 -258c-7 -42 -15 -118 -16 -153c-1 -27 -37 -20 -45 -11l-344 414l-38 -250c-10 -63 -20 -111 55 -117
c9 -3 9 -47 -10 -45v0c-26 2 -53 4 -90 4c-52 0 -79 1 -116 -4c-14 -2 -24 8 -21 25c2 12 14 21 18 21c69 7 82 43 94 121l45 298c4 29 -42 75 -78 78c-4 0 -17 10 -17 24c1 15 11 24 24 22c37 -5 97 -6 158 -6c52 -85 123 -177 314 -400l37 243c13 81 10 108 -53 117z
M458 629c-24 0 -43 8 -59 14l-21 9c-7 2 -13 3 -19 3c-22 0 -33 -10 -43 -24c-13 -17 -51 -1 -44 17c8 22 38 71 107 71c24 0 42 -8 57 -14c7 -3 14 -5 21 -8c6 -1 12 -3 19 -3c16 0 25 6 41 26c13 14 46 0 46 -14c-22 -54 -59 -77 -105 -77z" />
    <glyph glyph-name="Oacute" unicode="&#xd3;" horiz-adv-x="728" 
d="M408 648c-12 -11 -34 -16 -49 -18c-8 -1 -16 -1 -22 0c-20 1 -21 14 -17 20c17 26 59 67 84 88c13 10 44 16 65 19c11 1 22 2 31 1c8 -1 32 -11 11 -27c-33 -25 -74 -58 -103 -83zM362 535c-119 0 -217 -97 -217 -252c0 -160 103 -238 209 -238c121 0 219 97 219 251
c0 160 -104 239 -211 239zM316 -18c-176 0 -292 137 -292 271c0 188 171 344 378 344c174 0 293 -137 293 -271c0 -188 -173 -344 -379 -344z" />
    <glyph glyph-name="Ocircumflex" unicode="&#xd4;" horiz-adv-x="728" 
d="M362 541c-119 0 -217 -99 -217 -255c0 -162 103 -240 209 -240c121 0 219 98 219 253c0 162 -104 242 -211 242zM316 -18c-176 0 -292 138 -292 274c0 189 171 347 378 347c174 0 293 -138 293 -273c0 -190 -173 -348 -379 -348zM463 596c-12 15 -37 44 -54 64
c-25 -18 -63 -46 -81 -62c-10 -8 -23 -10 -33 -6c-16 5 -19 22 -9 35c30 35 81 87 108 112c11 10 34 25 48 25c11 0 20 -4 26 -14c14 -29 46 -91 60 -122c15 -34 -62 -37 -65 -32z" />
    <glyph glyph-name="Odieresis" unicode="&#xd6;" horiz-adv-x="728" 
d="M364 635c-13 -6 -22 -6 -35 -6c-23 0 -38 14 -38 31c0 16 11 40 36 49c7 2 11 4 15 5c6 1 12 2 19 2c22 0 40 -14 40 -32s-15 -38 -37 -49zM477 635c-14 -6 -21 -6 -35 -6c-23 0 -38 14 -38 31c0 16 12 40 37 49c6 2 10 4 14 5c5 1 11 2 19 2c23 0 40 -14 40 -32
s-13 -39 -37 -49zM362 535c-119 0 -217 -97 -217 -252c0 -160 103 -238 209 -238c121 0 219 97 219 251c0 160 -104 239 -211 239zM316 -18c-176 0 -292 137 -292 271c0 188 171 344 378 344c174 0 293 -137 293 -271c0 -188 -173 -344 -379 -344z" />
    <glyph glyph-name="Ograve" unicode="&#xd2;" horiz-adv-x="728" 
d="M362 535c-119 0 -217 -97 -217 -252c0 -160 103 -238 209 -238c121 0 219 97 219 251c0 160 -104 239 -211 239zM316 -18c-176 0 -292 137 -292 271c0 188 171 344 378 344c174 0 293 -137 293 -271c0 -188 -173 -344 -379 -344zM445 625c-5 -2 -12 -4 -18 -4
c-13 -1 -31 2 -43 13c-25 24 -79 70 -108 92c-20 14 2 26 9 27c9 2 20 3 31 2c25 -1 55 -7 64 -15c21 -19 61 -69 76 -95c3 -7 2 -15 -11 -20z" />
    <glyph glyph-name="Otilde" unicode="&#xd5;" horiz-adv-x="728" 
d="M362 535c-119 0 -217 -97 -217 -252c0 -160 103 -238 209 -238c121 0 219 97 219 251c0 160 -104 239 -211 239zM316 -18c-176 0 -292 137 -292 271c0 188 171 344 378 344c174 0 293 -137 293 -271c0 -188 -173 -344 -379 -344zM430 629c-24 0 -43 8 -59 14l-21 9
c-7 2 -13 3 -19 3c-22 0 -33 -10 -43 -24c-13 -17 -51 -1 -44 17c8 22 38 71 107 71c24 0 42 -8 57 -14c7 -3 14 -5 21 -8c6 -1 12 -3 19 -3c16 0 25 6 41 26c13 14 46 0 46 -14c-22 -54 -59 -77 -105 -77z" />
    <glyph glyph-name="Scaron" unicode="&#x160;" horiz-adv-x="486" 
d="M431 438c-6 -29 -39 -12 -44 -5c-24 78 -61 108 -110 108c-47 0 -82 -29 -82 -80c0 -27 12 -48 31 -67c10 -9 22 -18 35 -27c13 -10 27 -18 41 -27c56 -36 121 -79 121 -159c0 -99 -94 -199 -221 -199c-70 0 -135 20 -187 50c-7 4 -10 80 2 144c3 15 38 27 44 3
c29 -99 83 -140 150 -140c63 0 109 43 109 100c0 26 -12 46 -32 65c-10 10 -22 19 -35 28l-42 27c-57 36 -123 80 -123 161c0 99 84 177 204 177c59 0 102 -14 134 -32c7 -4 17 -62 5 -127zM355 650c-10 -8 -31 -20 -48 -20c-7 0 -20 1 -26 10c-14 25 -46 81 -60 107
c-16 31 63 31 65 28c12 -13 37 -40 55 -57c24 16 61 41 80 55c10 7 24 8 33 5c11 -4 23 -17 10 -30c-31 -30 -82 -78 -109 -98z" />
    <glyph glyph-name="Uacute" unicode="&#xda;" horiz-adv-x="734" 
d="M443 648c-12 -11 -34 -16 -49 -18c-8 -1 -16 -1 -22 0c-20 1 -21 14 -17 20c17 26 59 67 84 88c13 10 44 16 65 19c11 1 22 2 31 1c8 -1 32 -11 11 -27c-33 -25 -74 -58 -103 -83zM521 538h2c-5 1 -18 11 -18 24c1 15 11 24 24 22c36 -5 60 -5 112 -5c37 0 68 2 95 5
c18 2 25 -10 22 -25c-2 -11 -13 -20 -20 -21c-66 -4 -80 -19 -94 -114l-33 -216c-19 -122 -113 -226 -283 -226c-146 0 -247 87 -224 238l31 201c16 106 15 111 -52 117c-7 2 -17 12 -17 25c1 14 11 23 24 21c36 -5 83 -5 134 -5c37 0 87 2 116 5c13 2 23 -7 22 -23
c-1 -11 -10 -21 -16 -23c-76 -5 -79 -7 -96 -122l-28 -185c-19 -126 47 -177 149 -177c94 0 157 51 179 193l28 182c14 91 4 103 -57 109z" />
    <glyph glyph-name="Ucircumflex" unicode="&#xdb;" horiz-adv-x="734" 
d="M521 545l2 -1c-5 1 -18 11 -18 25c1 14 11 23 24 21c36 -5 60 -4 112 -4c37 0 68 2 95 5c18 1 25 -11 22 -26c-2 -11 -13 -20 -20 -21c-66 -4 -80 -19 -94 -115l-33 -219c-19 -123 -113 -228 -283 -228c-146 0 -247 88 -224 241l31 203c16 107 15 112 -52 119
c-7 1 -17 12 -17 24c1 15 11 23 24 21c36 -5 83 -4 134 -4c37 0 87 2 116 4c13 3 23 -7 22 -23c-1 -11 -10 -21 -16 -22c-76 -6 -79 -8 -96 -124l-28 -187c-19 -127 47 -179 149 -179c94 0 157 51 179 195l28 184c14 92 4 104 -57 111zM484 596c-12 15 -37 44 -54 64
c-25 -18 -63 -46 -81 -62c-10 -8 -23 -10 -33 -6c-16 5 -19 22 -9 35c30 35 81 87 108 112c11 10 34 25 48 25c11 0 20 -4 26 -14c14 -29 46 -91 60 -122c15 -34 -62 -37 -65 -32z" />
    <glyph glyph-name="Udieresis" unicode="&#xdc;" horiz-adv-x="734" 
d="M521 543h2c-5 1 -18 11 -18 24c1 15 11 24 24 22c36 -5 60 -5 112 -5c37 0 68 2 95 5c18 2 25 -10 22 -25c-2 -11 -13 -20 -20 -21c-66 -5 -80 -19 -94 -115l-33 -218c-19 -123 -113 -228 -283 -228c-146 0 -247 88 -224 240l31 203c16 106 15 112 -52 118
c-7 2 -17 12 -17 25c1 14 11 23 24 21c36 -5 83 -5 134 -5c37 0 87 2 116 5c13 3 23 -7 22 -23c-1 -11 -10 -21 -16 -23c-76 -5 -79 -7 -96 -123l-28 -186c-19 -128 47 -179 149 -179c94 0 157 51 179 194l28 184c14 91 4 104 -57 110zM397 612c-13 -8 -22 -8 -35 -8
c-23 0 -38 17 -38 40c0 20 11 51 36 63c7 3 11 5 15 6c6 2 12 3 19 3c22 0 40 -18 40 -41c0 -24 -15 -50 -37 -63zM510 611c-14 -7 -21 -7 -35 -7c-23 0 -38 17 -38 40c0 21 12 51 37 63c6 2 10 4 14 6c5 2 11 3 19 3c23 0 40 -18 40 -41s-13 -50 -37 -64z" />
    <glyph glyph-name="Ugrave" unicode="&#xd9;" horiz-adv-x="734" 
d="M521 538h2c-5 1 -18 11 -18 24c1 15 11 24 24 22c36 -5 60 -5 112 -5c37 0 68 2 95 5c18 2 25 -10 22 -25c-2 -11 -13 -20 -20 -21c-66 -4 -80 -19 -94 -114l-33 -216c-19 -122 -113 -226 -283 -226c-146 0 -247 87 -224 238l31 201c16 106 15 111 -52 117
c-7 2 -17 12 -17 25c1 14 11 23 24 21c36 -5 83 -5 134 -5c37 0 87 2 116 5c13 2 23 -7 22 -23c-1 -11 -10 -21 -16 -23c-76 -5 -79 -7 -96 -122l-28 -185c-19 -126 47 -177 149 -177c94 0 157 51 179 193l28 182c14 91 4 103 -57 109zM463 625c-5 -2 -12 -4 -18 -4
c-13 -1 -31 2 -43 13c-25 24 -79 70 -108 92c-20 14 2 26 9 27c9 2 20 3 31 2c25 -1 55 -7 64 -15c21 -19 61 -69 76 -95c3 -7 2 -15 -11 -20z" />
    <glyph glyph-name="Yacute" unicode="&#xdd;" horiz-adv-x="663" 
d="M44 513h1c-8 -2 -21 3 -24 15c-3 8 -2 20 10 28c48 28 94 40 135 40c109 0 174 -96 196 -219c62 147 163 220 248 220c61 0 87 -32 87 -61c0 -28 -16 -45 -32 -54c-21 -13 -44 -8 -47 -4c-6 7 -31 22 -52 22c-95 0 -167 -146 -192 -303l-6 -38c-16 -103 -19 -112 51 -117
c7 -1 18 -12 17 -26s-11 -22 -23 -21c-27 3 -76 5 -113 5c-52 0 -99 0 -137 -5c-23 -3 -23 20 -22 24c1 11 11 21 18 22c73 8 78 12 95 123l6 39c22 144 -12 315 -163 315c-17 0 -34 -2 -53 -5zM420 648c-12 -11 -34 -16 -49 -18c-8 -1 -16 -1 -22 0c-20 1 -21 14 -17 20
c17 26 59 67 84 88c13 10 44 16 65 19c11 1 22 2 31 1c8 -1 32 -11 11 -27c-33 -25 -74 -58 -103 -83z" />
    <glyph glyph-name="Ydieresis" unicode="&#x178;" horiz-adv-x="663" 
d="M44 517h1c-8 -2 -21 3 -24 16c-3 7 -2 20 10 27c48 29 94 41 135 41c109 0 174 -97 196 -221c62 149 163 222 248 222c61 0 87 -33 87 -62c0 -27 -16 -45 -32 -54c-21 -13 -44 -8 -47 -5c-6 8 -31 23 -52 23c-95 0 -167 -147 -192 -306l-6 -38c-16 -104 -19 -113 51 -118
c7 -1 18 -12 17 -25c-1 -15 -11 -23 -23 -22c-27 3 -76 5 -113 5c-52 0 -99 0 -137 -5c-23 -3 -23 20 -22 24c1 11 11 21 18 22c73 8 78 12 95 124l6 39c22 145 -12 318 -163 318c-17 0 -34 -2 -53 -5zM358 612c-13 -8 -22 -8 -35 -8c-23 0 -38 17 -38 40c0 20 11 51 36 63
c7 3 11 5 15 6c6 2 12 3 19 3c22 0 40 -18 40 -41c0 -24 -15 -50 -37 -63zM471 611c-14 -7 -21 -7 -35 -7c-23 0 -38 17 -38 40c0 21 12 51 37 63c6 2 10 4 14 6c5 2 11 3 19 3c23 0 40 -18 40 -41s-13 -50 -37 -64z" />
    <glyph glyph-name="Zcaron" unicode="&#x17d;" horiz-adv-x="612" 
d="M514 167l-1 -5c2 5 12 16 26 14s23 -13 22 -20c-5 -29 -32 -115 -40 -134c-9 -19 -21 -26 -42 -26c-40 0 -109 4 -189 4c-109 0 -202 -1 -282 -5c-33 -2 -20 34 -16 38l452 487h-171c-98 0 -126 -31 -146 -85c-2 -6 -47 -27 -47 9c4 9 11 51 14 66c3 17 6 46 6 75
c68 -4 156 -6 223 -6c109 0 190 1 269 6c31 2 24 -31 17 -39l-448 -482h189c107 0 133 31 164 103zM388 650c-10 -8 -31 -20 -48 -20c-7 0 -20 1 -26 10c-14 25 -46 81 -60 107c-16 31 63 31 65 28c12 -13 37 -40 55 -57c24 16 61 41 80 55c10 7 24 8 33 5
c11 -4 23 -17 10 -30c-31 -30 -82 -78 -109 -98z" />
    <glyph glyph-name="aacute" unicode="&#xe1;" horiz-adv-x="380" 
d="M302 501c-12 -11 -34 -16 -49 -18c-8 -1 -16 -1 -22 0c-20 1 -21 14 -17 20c17 26 59 67 84 88c13 10 44 16 65 19c11 1 22 2 31 1c8 -1 32 -11 11 -27c-33 -25 -74 -58 -103 -83zM221 340c-53 0 -112 -102 -112 -205c0 -34 1 -50 18 -50s64 47 93 85l33 162
c-9 5 -19 8 -32 8zM300 96c12 10 32 31 45 47c19 21 52 -9 41 -26c-42 -67 -102 -130 -140 -130c-23 0 -46 23 -42 87c-47 -50 -94 -87 -111 -87c-58 0 -87 49 -87 126c0 114 81 216 171 275c40 26 64 36 92 36c11 0 21 -1 29 -4c16 19 32 37 36 39c11 8 44 -1 37 -25
c-10 -38 -48 -202 -68 -321c-1 -7 -2 -12 -3 -17z" />
    <glyph glyph-name="acircumflex" unicode="&#xe2;" horiz-adv-x="380" 
d="M352 479c-12 13 -37 39 -54 56c-25 -16 -63 -40 -81 -54c-10 -7 -23 -9 -33 -5c-16 5 -19 19 -9 30c30 31 81 76 108 97c11 9 34 22 48 22c11 0 20 -3 26 -12c14 -25 46 -79 60 -106c15 -30 -62 -32 -65 -28zM221 340c-53 0 -112 -102 -112 -205c0 -34 1 -50 18 -50
s64 47 93 85l33 162c-9 5 -19 8 -32 8zM300 96c12 10 32 31 45 47c19 21 52 -9 41 -26c-42 -67 -102 -130 -140 -130c-23 0 -46 23 -42 87c-47 -50 -94 -87 -111 -87c-58 0 -87 49 -87 126c0 114 81 216 171 275c40 26 64 36 92 36c11 0 21 -1 29 -4c16 19 32 37 36 39
c11 8 44 -1 37 -25c-10 -38 -48 -202 -68 -321c-1 -7 -2 -12 -3 -17z" />
    <glyph glyph-name="adieresis" unicode="&#xe4;" horiz-adv-x="380" 
d="M221 344c-53 0 -112 -104 -112 -208c0 -34 1 -50 18 -50s64 48 93 86l33 163c-9 6 -19 9 -32 9zM300 97c12 10 32 31 45 47c19 22 52 -8 41 -25c-42 -69 -102 -132 -140 -132c-23 0 -46 23 -42 88c-47 -50 -94 -88 -111 -88c-58 0 -87 50 -87 127c0 116 81 219 171 278
c40 26 64 37 92 37c11 0 21 -1 29 -4c16 19 32 37 36 40c11 7 44 -2 37 -26c-10 -39 -48 -205 -68 -325c-1 -7 -2 -12 -3 -17zM239 466c-13 -8 -22 -8 -35 -8c-23 0 -38 17 -38 40c0 20 11 50 36 62c7 3 11 5 15 6c6 2 12 3 19 3c22 0 40 -18 40 -41s-15 -49 -37 -62z
M352 465c-14 -7 -21 -7 -35 -7c-23 0 -38 17 -38 40c0 20 12 50 37 62c6 2 10 5 14 6c5 2 11 3 19 3c23 0 40 -18 40 -41c0 -22 -13 -49 -37 -63z" />
    <glyph glyph-name="agrave" unicode="&#xe0;" horiz-adv-x="380" 
d="M221 345c-53 0 -112 -104 -112 -208c0 -34 1 -51 18 -51s64 48 93 86l33 165c-9 5 -19 8 -32 8zM300 97c12 11 32 32 45 48c19 22 52 -9 41 -26c-42 -68 -102 -132 -140 -132c-23 0 -46 23 -42 88c-47 -50 -94 -88 -111 -88c-58 0 -87 50 -87 128c0 116 81 219 171 279
c40 26 64 37 92 37c11 0 21 -2 29 -5c16 20 32 37 36 40c11 8 44 -1 37 -26c-10 -39 -48 -205 -68 -325c-1 -7 -2 -13 -3 -18zM321 456c-5 -3 -12 -4 -18 -4c-13 -1 -31 2 -43 15c-25 27 -79 81 -108 107c-20 17 2 30 9 32c9 2 20 3 31 2c25 -1 55 -8 64 -18
c21 -22 61 -80 76 -110c3 -8 2 -18 -11 -24z" />
    <glyph glyph-name="aring" unicode="&#xe5;" horiz-adv-x="380" 
d="M221 346c-53 0 -112 -104 -112 -209c0 -34 1 -51 18 -51s64 49 93 87l33 164c-9 6 -19 9 -32 9zM278 585c-2 0 -23 -15 -23 -51c0 -31 11 -32 14 -32c2 0 24 15 24 50c0 31 -11 33 -15 33zM300 98c12 10 32 31 45 47c19 22 52 -8 41 -26c-42 -68 -102 -132 -140 -132
c-23 0 -46 23 -42 88c-47 -50 -94 -88 -111 -88c-58 0 -87 50 -87 128c0 116 81 220 171 280c40 26 64 37 92 37c11 0 21 -2 29 -5c16 20 32 38 36 40c11 8 44 -1 37 -26c-10 -39 -48 -205 -68 -326c-1 -7 -2 -13 -3 -17zM302 463c-20 -11 -46 -22 -60 -22
c-34 0 -67 31 -67 79c0 40 30 80 70 103c17 9 43 22 60 22c33 0 69 -30 69 -79c0 -41 -31 -81 -72 -103z" />
    <glyph glyph-name="atilde" unicode="&#xe3;" horiz-adv-x="380" 
d="M221 340c-53 0 -112 -102 -112 -205c0 -34 1 -50 18 -50s64 47 93 85l33 162c-9 5 -19 8 -32 8zM300 96c12 10 32 31 45 47c19 21 52 -9 41 -26c-42 -67 -102 -130 -140 -130c-23 0 -46 23 -42 87c-47 -50 -94 -87 -111 -87c-58 0 -87 49 -87 126c0 114 81 216 171 275
c40 26 64 36 92 36c11 0 21 -1 29 -4c16 19 32 37 36 39c11 8 44 -1 37 -25c-10 -38 -48 -202 -68 -321c-1 -7 -2 -12 -3 -17zM310 482c-24 0 -43 8 -59 14l-21 9c-7 2 -13 3 -19 3c-22 0 -33 -10 -43 -24c-13 -17 -51 -1 -44 17c8 22 38 71 107 71c24 0 42 -8 57 -14
c7 -3 14 -5 21 -8c6 -1 12 -3 19 -3c16 0 25 6 41 26c13 14 46 0 46 -14c-22 -54 -59 -77 -105 -77z" />
    <glyph glyph-name="ccedilla" unicode="&#xe7;" horiz-adv-x="313" 
d="M95 -18c-50 15 -81 67 -81 142c0 106 54 199 119 255c32 28 73 54 122 54c41 0 73 -28 73 -62c0 -25 -16 -41 -31 -50c-20 -11 -42 -7 -46 -3l1 -1c-19 17 -40 31 -57 31c-30 0 -78 -63 -78 -180c0 -83 23 -106 50 -106c20 0 59 24 93 58c10 10 45 -17 38 -29
c-25 -43 -78 -84 -136 -106c-1 -2 -1 -3 -1 -3c-8 -11 -8 -14 -8 -14c0 -4 4 -6 10 -10c25 -19 41 -39 41 -68c0 -52 -66 -121 -134 -138c-5 -1 -20 5 -24 19c-4 13 1 25 12 29c46 17 58 43 58 62c0 9 -3 15 -13 26c-15 15 -22 31 -22 49c0 15 4 30 14 45z" />
    <glyph glyph-name="eacute" unicode="&#xe9;" horiz-adv-x="323" 
d="M208 367c-6 0 -17 -4 -29 -14c-16 -15 -34 -48 -46 -88c68 9 92 35 92 76c0 22 -11 26 -17 26zM281 272c-38 -29 -84 -53 -160 -65c-1 -10 -1 -22 -1 -34c0 -81 21 -103 46 -103c24 0 66 33 98 60c15 12 44 -20 36 -32c-37 -52 -128 -111 -173 -111
c-69 0 -113 64 -113 149c0 90 32 169 84 221c46 46 111 76 154 76c52 0 79 -38 79 -73c0 -34 -22 -66 -50 -88zM284 501c-12 -11 -34 -16 -49 -18c-8 -1 -16 -1 -22 0c-20 1 -21 14 -17 20c17 26 59 67 84 88c13 10 44 16 65 19c11 1 22 2 31 1c8 -1 32 -11 11 -27
c-33 -25 -74 -58 -103 -83z" />
    <glyph glyph-name="ecircumflex" unicode="&#xea;" horiz-adv-x="323" 
d="M298 471c-12 13 -37 39 -54 56c-25 -16 -63 -40 -81 -54c-10 -7 -23 -9 -33 -5c-16 5 -19 19 -9 30c30 31 81 76 108 97c11 9 34 22 48 22c11 0 20 -3 26 -12c14 -25 46 -79 60 -106c15 -30 -62 -32 -65 -28zM208 367c-6 0 -17 -4 -29 -14c-16 -15 -34 -48 -46 -88
c68 9 92 35 92 76c0 22 -11 26 -17 26zM281 272c-38 -29 -84 -53 -160 -65c-1 -10 -1 -22 -1 -34c0 -81 21 -103 46 -103c24 0 66 33 98 60c15 12 44 -20 36 -32c-37 -52 -128 -111 -173 -111c-69 0 -113 64 -113 149c0 90 32 169 84 221c46 46 111 76 154 76
c52 0 79 -38 79 -73c0 -34 -22 -66 -50 -88z" />
    <glyph glyph-name="edieresis" unicode="&#xeb;" horiz-adv-x="323" 
d="M208 373c-6 0 -17 -4 -29 -15c-16 -15 -34 -48 -46 -89c68 9 92 36 92 77c0 22 -11 27 -17 27zM281 277c-38 -30 -84 -54 -160 -67c-1 -10 -1 -22 -1 -34c0 -83 21 -104 46 -104c24 0 66 33 98 60c15 12 44 -20 36 -32c-37 -53 -128 -113 -173 -113
c-69 0 -113 65 -113 151c0 92 32 172 84 225c46 47 111 77 154 77c52 0 79 -39 79 -75c0 -34 -22 -66 -50 -88zM220 466c-13 -8 -22 -8 -35 -8c-23 0 -38 17 -38 40c0 20 11 50 36 62c7 3 11 5 15 6c6 2 12 3 19 3c22 0 40 -18 40 -41s-15 -49 -37 -62zM333 465
c-14 -7 -21 -7 -35 -7c-23 0 -38 17 -38 40c0 20 12 50 37 62c6 2 10 5 14 6c5 2 11 3 19 3c23 0 40 -18 40 -41c0 -22 -13 -49 -37 -63z" />
    <glyph glyph-name="egrave" unicode="&#xe8;" horiz-adv-x="323" 
d="M208 374c-6 0 -17 -4 -29 -15c-16 -15 -34 -48 -46 -89c68 9 92 36 92 78c0 21 -11 26 -17 26zM281 277c-38 -30 -84 -53 -160 -66c-1 -10 -1 -22 -1 -34c0 -84 21 -105 46 -105c24 0 66 33 98 60c15 13 44 -20 36 -32c-37 -53 -128 -113 -173 -113
c-69 0 -113 65 -113 152c0 91 32 172 84 225c46 47 111 77 154 77c52 0 79 -38 79 -74c0 -35 -22 -67 -50 -90zM303 456c-5 -3 -12 -4 -18 -4c-13 -1 -31 2 -43 15c-25 27 -79 81 -108 107c-20 17 2 30 9 32c9 2 20 3 31 2c25 -1 55 -8 64 -18c21 -22 61 -80 76 -110
c3 -8 2 -18 -11 -24z" />
    <glyph glyph-name="iacute" unicode="&#xed;" horiz-adv-x="238" 
d="M231 501c-12 -11 -34 -16 -49 -18c-8 -1 -16 -1 -22 0c-20 1 -21 14 -17 20c17 26 59 67 84 88c13 10 44 16 65 19c11 1 22 2 31 1c8 -1 32 -11 11 -27c-33 -25 -74 -58 -103 -83zM146 94c12 11 32 36 47 50c7 6 57 9 39 -24c-16 -32 -39 -55 -65 -79
c-28 -27 -65 -54 -94 -54c-23 0 -43 24 -30 85c14 63 38 162 56 232c-18 -12 -36 -28 -49 -42c-12 -14 -47 16 -39 28c22 34 52 66 78 91c34 30 70 59 100 59c18 0 34 -23 21 -74c-21 -78 -44 -175 -59 -248c-2 -10 -4 -18 -5 -24z" />
    <glyph glyph-name="icircumflex" unicode="&#xee;" horiz-adv-x="238" 
d="M241 471c-12 13 -37 39 -54 56c-25 -16 -63 -40 -81 -54c-10 -7 -23 -9 -33 -5c-16 5 -19 19 -9 30c30 31 81 76 108 97c11 9 34 22 48 22c11 0 20 -3 26 -12c14 -25 46 -79 60 -106c15 -30 -62 -32 -65 -28zM146 94c12 11 32 36 47 50c7 6 57 9 39 -24
c-16 -32 -39 -55 -65 -79c-28 -27 -65 -54 -94 -54c-23 0 -43 24 -30 85c14 63 38 162 56 232c-18 -12 -36 -28 -49 -42c-12 -14 -47 16 -39 28c22 34 52 66 78 91c34 30 70 59 100 59c18 0 34 -23 21 -74c-21 -78 -44 -175 -59 -248c-2 -10 -4 -18 -5 -24z" />
    <glyph glyph-name="idieresis" unicode="&#xef;" horiz-adv-x="238" 
d="M146 95c12 12 32 37 47 51c7 7 57 9 39 -25c-16 -31 -39 -55 -65 -79c-28 -27 -65 -55 -94 -55c-23 0 -43 24 -30 87c14 63 38 163 56 234c-18 -12 -36 -28 -49 -42c-12 -15 -47 16 -39 28c22 35 52 67 78 92c34 31 70 60 100 60c18 0 34 -23 21 -74
c-21 -80 -44 -179 -59 -253c-2 -10 -4 -18 -5 -24zM150 466c-13 -8 -22 -8 -35 -8c-23 0 -38 17 -38 40c0 20 11 50 36 62c7 3 11 5 15 6c6 2 12 3 19 3c22 0 40 -18 40 -41s-15 -49 -37 -62zM263 465c-14 -7 -21 -7 -35 -7c-23 0 -38 17 -38 40c0 20 12 50 37 62
c6 2 10 5 14 6c5 2 11 3 19 3c23 0 40 -18 40 -41c0 -22 -13 -49 -37 -63z" />
    <glyph glyph-name="igrave" unicode="&#xec;" horiz-adv-x="238" 
d="M146 96c12 11 32 36 47 51c7 6 57 9 39 -25c-16 -32 -39 -55 -65 -80c-28 -27 -65 -55 -94 -55c-23 0 -43 24 -30 87c14 64 38 164 56 235c-18 -12 -36 -28 -49 -42c-12 -15 -47 16 -39 28c22 35 52 67 78 92c34 32 70 61 100 61c18 0 34 -24 21 -75
c-21 -80 -44 -179 -59 -253c-2 -10 -4 -18 -5 -24zM208 456c-5 -3 -12 -4 -18 -4c-13 -1 -31 2 -43 15c-25 27 -79 81 -108 107c-20 17 2 30 9 32c9 2 20 3 31 2c25 -1 55 -8 64 -18c21 -22 61 -80 76 -110c3 -8 2 -18 -11 -24z" />
    <glyph glyph-name="ntilde" unicode="&#xf1;" horiz-adv-x="440" 
d="M351 91c11 9 32 34 46 51c12 17 54 6 42 -21c-15 -32 -39 -59 -65 -84c-32 -29 -64 -50 -85 -50c-31 0 -41 22 -41 50c0 21 6 52 16 96c11 40 22 87 32 127c6 22 8 40 8 52c0 8 6 14 2 14c-21 0 -118 -112 -142 -175c-4 -12 -9 -29 -13 -51c-5 -23 -10 -50 -16 -79
c-3 -12 -49 -35 -79 -35c-11 0 -29 7 -25 24c24 88 38 154 47 202c8 39 13 68 15 86c0 4 2 7 4 9c-14 -9 -39 -31 -50 -45c-11 -15 -28 -5 -32 -2c-5 4 -14 15 -8 28c21 35 49 65 75 90c37 34 64 51 80 51c13 0 31 -14 30 -60c0 -19 -2 -44 -9 -86c55 79 132 157 179 157
c40 0 57 -63 31 -177c-11 -47 -28 -109 -36 -146c-3 -11 -5 -20 -6 -26zM300 482c-24 0 -43 8 -59 14l-21 9c-7 2 -13 3 -19 3c-22 0 -33 -10 -43 -24c-13 -17 -51 -1 -44 17c8 22 38 71 107 71c24 0 42 -8 57 -14c7 -3 14 -5 21 -8c6 -1 12 -3 19 -3c16 0 25 6 41 26
c13 14 46 0 46 -14c-22 -54 -59 -77 -105 -77z" />
    <glyph glyph-name="oacute" unicode="&#xf3;" 
d="M199 359c-26 0 -82 -64 -82 -176c0 -89 34 -120 58 -120c26 0 84 63 84 174c0 89 -35 122 -60 122zM236 32c-35 -24 -76 -45 -104 -45c-61 0 -118 67 -118 174c0 88 46 175 123 227c37 25 76 45 105 45c61 0 119 -67 119 -173c0 -88 -48 -175 -125 -228zM275 501
c-12 -11 -34 -16 -49 -18c-8 -1 -16 -1 -22 0c-20 1 -21 14 -17 20c17 26 59 67 84 88c13 10 44 16 65 19c11 1 22 2 31 1c8 -1 32 -11 11 -27c-33 -25 -74 -58 -103 -83z" />
    <glyph glyph-name="ocircumflex" unicode="&#xf4;" 
d="M302 471c-12 13 -37 39 -54 56c-25 -16 -63 -40 -81 -54c-10 -7 -23 -9 -33 -5c-16 5 -19 19 -9 30c30 31 81 76 108 97c11 9 34 22 48 22c11 0 20 -3 26 -12c14 -25 46 -79 60 -106c15 -30 -62 -32 -65 -28zM199 359c-26 0 -82 -64 -82 -176c0 -89 34 -120 58 -120
c26 0 84 63 84 174c0 89 -35 122 -60 122zM236 32c-35 -24 -76 -45 -104 -45c-61 0 -118 67 -118 174c0 88 46 175 123 227c37 25 76 45 105 45c61 0 119 -67 119 -173c0 -88 -48 -175 -125 -228z" />
    <glyph glyph-name="odieresis" unicode="&#xf6;" 
d="M199 365c-26 0 -82 -65 -82 -179c0 -90 34 -122 58 -122c26 0 84 64 84 177c0 90 -35 124 -60 124zM236 33c-35 -25 -76 -46 -104 -46c-61 0 -118 68 -118 177c0 89 46 177 123 230c37 26 76 46 105 46c61 0 119 -68 119 -176c0 -90 -48 -177 -125 -231zM206 466
c-13 -8 -22 -8 -35 -8c-23 0 -38 17 -38 40c0 20 11 50 36 62c7 3 11 5 15 6c6 2 12 3 19 3c22 0 40 -18 40 -41s-15 -49 -37 -62zM319 465c-14 -7 -21 -7 -35 -7c-23 0 -38 17 -38 40c0 20 12 50 37 62c6 2 10 5 14 6c5 2 11 3 19 3c23 0 40 -18 40 -41
c0 -22 -13 -49 -37 -63z" />
    <glyph glyph-name="ograve" unicode="&#xf2;" 
d="M199 366c-26 0 -82 -65 -82 -180c0 -90 34 -122 58 -122c26 0 84 65 84 178c0 90 -35 124 -60 124zM236 33c-35 -25 -76 -46 -104 -46c-61 0 -118 68 -118 177c0 90 46 178 123 231c37 26 76 46 105 46c61 0 119 -68 119 -176c0 -90 -48 -178 -125 -232zM274 456
c-5 -3 -12 -4 -18 -4c-13 -1 -31 2 -43 15c-25 27 -79 81 -108 107c-20 17 2 30 9 32c9 2 20 3 31 2c25 -1 55 -8 64 -18c21 -22 61 -80 76 -110c3 -8 2 -18 -11 -24z" />
    <glyph glyph-name="otilde" unicode="&#xf5;" 
d="M199 359c-26 0 -82 -64 -82 -176c0 -89 34 -120 58 -120c26 0 84 63 84 174c0 89 -35 122 -60 122zM236 32c-35 -24 -76 -45 -104 -45c-61 0 -118 67 -118 174c0 88 46 175 123 227c37 25 76 45 105 45c61 0 119 -67 119 -173c0 -88 -48 -175 -125 -228zM279 482
c-24 0 -43 8 -59 14l-21 9c-7 2 -13 3 -19 3c-22 0 -33 -10 -43 -24c-13 -17 -51 -1 -44 17c8 22 38 71 107 71c24 0 42 -8 57 -14c7 -3 14 -5 21 -8c6 -1 12 -3 19 -3c16 0 25 6 41 26c13 14 46 0 46 -14c-22 -54 -59 -77 -105 -77z" />
    <glyph glyph-name="scaron" unicode="&#x161;" horiz-adv-x="259" 
d="M49 101l-2 2c20 -17 47 -31 71 -31c23 0 37 12 37 32s-7 35 -49 68c-43 35 -69 72 -69 117c0 35 14 68 45 99c31 32 68 58 117 58c51 0 72 -36 72 -64c0 -23 -12 -39 -25 -48c-18 -12 -37 -7 -42 -4l2 -1c-22 18 -41 29 -64 29c-17 0 -25 -11 -25 -26
c0 -22 12 -41 49 -70c53 -42 70 -76 70 -117c0 -37 -23 -78 -57 -108c-29 -26 -69 -50 -115 -50c-48 0 -86 30 -86 65c0 24 14 39 28 47c19 11 39 6 43 2zM241 478c-10 -9 -31 -23 -48 -23c-7 0 -20 2 -26 12c-14 28 -46 92 -60 122c-16 35 63 35 65 32
c12 -15 37 -45 55 -65c24 18 61 46 80 63c10 8 24 9 33 5c11 -4 23 -19 10 -34c-31 -34 -82 -89 -109 -112z" />
    <glyph glyph-name="uacute" unicode="&#xfa;" horiz-adv-x="436" 
d="M255 127c-14 -20 -27 -38 -40 -54c-39 -48 -85 -86 -120 -86c-37 0 -69 45 -43 165c9 41 25 98 39 147c-18 -11 -35 -26 -45 -38c-10 -11 -48 16 -41 27c22 35 48 60 75 86c35 32 69 60 100 60c18 0 34 -22 22 -73c-15 -59 -32 -125 -46 -185c-15 -61 -29 -87 -14 -87
c13 0 33 25 65 67c33 44 63 93 72 118c8 26 19 67 30 124c3 13 46 36 78 36c9 0 29 -6 24 -24c-13 -53 -34 -146 -44 -195c-16 -75 -28 -116 -27 -126c10 5 37 32 54 53c13 17 55 4 41 -23c-16 -30 -37 -57 -64 -82c-32 -29 -64 -50 -85 -50c-30 0 -43 20 -43 50
c0 21 5 53 12 90zM301 501c-12 -11 -34 -16 -49 -18c-8 -1 -16 -1 -22 0c-20 1 -21 14 -17 20c17 26 59 67 84 88c13 10 44 16 65 19c11 1 22 2 31 1c8 -1 32 -11 11 -27c-33 -25 -74 -58 -103 -83z" />
    <glyph glyph-name="ucircumflex" unicode="&#xfb;" horiz-adv-x="436" 
d="M335 471c-12 13 -37 39 -54 56c-25 -16 -63 -40 -81 -54c-10 -7 -23 -9 -33 -5c-16 5 -19 19 -9 30c30 31 81 76 108 97c11 9 34 22 48 22c11 0 20 -3 26 -12c14 -25 46 -79 60 -106c15 -30 -62 -32 -65 -28zM255 127c-14 -20 -27 -38 -40 -54c-39 -48 -85 -86 -120 -86
c-37 0 -69 45 -43 165c9 41 25 98 39 147c-18 -11 -35 -26 -45 -38c-10 -11 -48 16 -41 27c22 35 48 60 75 86c35 32 69 60 100 60c18 0 34 -22 22 -73c-15 -59 -32 -125 -46 -185c-15 -61 -29 -87 -14 -87c13 0 33 25 65 67c33 44 63 93 72 118c8 26 19 67 30 124
c3 13 46 36 78 36c9 0 29 -6 24 -24c-13 -53 -34 -146 -44 -195c-16 -75 -28 -116 -27 -126c10 5 37 32 54 53c13 17 55 4 41 -23c-16 -30 -37 -57 -64 -82c-32 -29 -64 -50 -85 -50c-30 0 -43 20 -43 50c0 21 5 53 12 90z" />
    <glyph glyph-name="udieresis" unicode="&#xfc;" horiz-adv-x="436" 
d="M255 130c-14 -21 -27 -40 -40 -56c-39 -48 -85 -87 -120 -87c-37 0 -69 46 -43 167c9 42 25 100 39 150c-18 -12 -35 -27 -45 -39s-48 16 -41 28c22 35 48 61 75 86c35 33 69 62 100 62c18 0 34 -23 22 -74c-15 -60 -32 -127 -46 -188c-15 -62 -29 -88 -14 -88
c13 0 33 25 65 68c33 44 63 94 72 119c8 27 19 68 30 126c3 14 46 37 78 37c9 0 29 -6 24 -25c-13 -54 -34 -148 -44 -198c-16 -75 -28 -118 -27 -127c10 4 37 32 54 54c13 17 55 3 41 -24c-16 -31 -37 -58 -64 -83c-32 -30 -64 -51 -85 -51c-30 0 -43 20 -43 50
c0 22 5 54 12 93zM230 466c-13 -8 -22 -8 -35 -8c-23 0 -38 17 -38 40c0 20 11 50 36 62c7 3 11 5 15 6c6 2 12 3 19 3c22 0 40 -18 40 -41s-15 -49 -37 -62zM343 465c-14 -7 -21 -7 -35 -7c-23 0 -38 17 -38 40c0 20 12 50 37 62c6 2 10 5 14 6c5 2 11 3 19 3
c23 0 40 -18 40 -41c0 -22 -13 -49 -37 -63z" />
    <glyph glyph-name="ugrave" unicode="&#xf9;" horiz-adv-x="436" 
d="M255 130c-14 -21 -27 -39 -40 -55c-39 -49 -85 -88 -120 -88c-37 0 -69 46 -43 168c9 42 25 100 39 150c-18 -12 -35 -27 -45 -39s-48 16 -41 28c22 35 48 61 75 87c35 32 69 61 100 61c18 0 34 -22 22 -74c-15 -60 -32 -128 -46 -189c-15 -62 -29 -88 -14 -88
c13 0 33 25 65 68c33 45 63 95 72 120c8 27 19 68 30 127c3 13 46 36 78 36c9 0 29 -6 24 -25c-13 -54 -34 -148 -44 -198c-16 -76 -28 -118 -27 -128c10 5 37 33 54 54c13 17 55 4 41 -23c-16 -31 -37 -58 -64 -84c-32 -30 -64 -51 -85 -51c-30 0 -43 20 -43 51
c0 21 5 54 12 92zM305 456c-5 -3 -12 -4 -18 -4c-13 -1 -31 2 -43 15c-25 27 -79 81 -108 107c-20 17 2 30 9 32c9 2 20 3 31 2c25 -1 55 -8 64 -18c21 -22 61 -80 76 -110c3 -8 2 -18 -11 -24z" />
    <glyph glyph-name="yacute" unicode="&#xfd;" horiz-adv-x="381" 
d="M249 38l-19 -64c-48 -169 -44 -171 33 -183c9 -3 16 -45 -6 -45c-71 0 -178 -3 -239 -12c-24 -4 -24 37 -14 43c68 21 85 38 124 186c11 41 17 62 17 90c0 30 -7 67 -24 144c-20 91 -31 136 -48 136c-6 0 -11 -21 -27 -51c-4 -10 -18 -13 -31 -6c-10 6 -14 18 -12 25
c20 71 56 140 102 140c55 0 107 -146 127 -323c49 86 63 148 63 187c0 30 -13 49 -27 60c-3 2 -8 25 4 47c8 15 25 34 52 34c49 0 66 -45 66 -79c0 -66 -57 -199 -141 -329zM257 479c-12 -13 -34 -18 -49 -20c-8 -1 -16 -2 -22 -1c-20 2 -21 17 -17 25c17 30 59 79 84 103
c13 13 44 20 65 24c11 1 22 2 31 1c8 -1 32 -13 11 -32c-33 -30 -74 -69 -103 -100z" />
    <glyph glyph-name="ydieresis" unicode="&#xff;" horiz-adv-x="381" 
d="M249 35l-19 -63c-48 -168 -44 -169 33 -182c9 -3 16 -44 -6 -44c-71 0 -178 -3 -239 -12c-24 -4 -24 36 -14 43c68 21 85 37 124 184c11 41 17 62 17 90c0 29 -7 66 -24 142c-20 90 -31 135 -48 135c-6 0 -11 -20 -27 -51c-4 -9 -18 -13 -31 -5c-10 6 -14 18 -12 24
c20 71 56 139 102 139c55 0 107 -144 127 -320c49 86 63 147 63 186c0 29 -13 48 -27 59c-3 2 -8 25 4 46c8 15 25 34 52 34c49 0 66 -44 66 -78c0 -65 -57 -197 -141 -327zM187 488c-13 -6 -22 -6 -35 -6c-23 0 -38 14 -38 31c0 16 11 40 36 49c7 2 11 4 15 5
c6 1 12 2 19 2c22 0 40 -14 40 -32s-15 -38 -37 -49zM300 488c-14 -6 -21 -6 -35 -6c-23 0 -38 14 -38 31c0 16 12 40 37 49c6 2 10 4 14 5c5 1 11 2 19 2c23 0 40 -14 40 -32s-13 -39 -37 -49z" />
    <glyph glyph-name="zcaron" unicode="&#x17e;" horiz-adv-x="359" 
d="M240 321c-27 1 -52 10 -73 18c-12 4 -23 9 -33 12s-17 5 -23 5c-15 0 -16 -5 -16 -11c0 -8 4 -22 28 -31c7 -3 16 -25 5 -47c-7 -15 -23 -33 -49 -33c-37 0 -56 32 -56 66c0 27 9 56 34 88c30 39 64 54 101 54c28 0 51 -9 71 -16c10 -4 19 -7 29 -10c9 -2 18 -4 27 -4
c27 0 51 13 63 29c7 9 23 10 35 -1c11 -10 11 -27 7 -31c-63 -71 -190 -218 -260 -299c22 -6 44 -14 63 -22c13 -5 25 -11 37 -14c11 -4 20 -6 27 -6c8 0 13 6 13 14c0 7 -11 22 -34 32c-6 4 -15 25 -6 45c7 16 24 32 51 32c38 0 59 -34 59 -71c0 -28 -12 -60 -38 -88
c-25 -27 -51 -45 -87 -45c-28 0 -55 10 -82 21c-25 10 -48 19 -70 19c-19 0 -31 -8 -53 -35c-14 -17 -52 1 -43 22c14 31 30 50 47 64c7 6 15 11 21 16c7 5 12 9 16 13c68 74 127 142 189 214zM276 478c-10 -9 -31 -23 -48 -23c-7 0 -20 2 -26 12c-14 28 -46 92 -60 122
c-16 35 63 35 65 32c12 -15 37 -45 55 -65c24 18 61 46 80 63c10 8 24 9 33 5c11 -4 23 -19 10 -34c-31 -35 -82 -89 -109 -112z" />
    <glyph glyph-name="NUL" horiz-adv-x="1000" 
 />
    <glyph glyph-name="NUL" horiz-adv-x="1000" 
 />
    <glyph glyph-name="nbspace" unicode="&#xa0;" horiz-adv-x="92" 
 />
    <glyph glyph-name="notequal" unicode="&#x2260;" horiz-adv-x="416" 
d="M148 283c63 89 144 169 191 169c40 0 56 -65 30 -182c-11 -48 -28 -112 -36 -149c-5 -20 -12 -28 -12 -31c7 1 36 35 52 56c13 18 54 5 42 -21c-15 -33 -38 -61 -64 -87c-32 -30 -65 -51 -85 -51c-31 0 -43 21 -43 51c0 22 5 54 16 99c11 41 23 89 32 130c3 12 5 22 7 31
s3 17 3 23c0 8 5 13 1 13c-21 0 -125 -115 -148 -178c-4 -12 -7 -28 -12 -49c-4 -22 -9 -50 -16 -85c-3 -11 -26 -25 -51 -30c-10 -2 -20 -3 -28 -3c-20 0 -26 13 -25 21l64 354c27 146 49 232 103 294c46 52 124 97 180 97c39 0 65 -26 65 -59c0 -57 -67 -79 -84 -63
c-16 16 -37 27 -61 27c-7 0 -17 -3 -24 -8c-28 -16 -48 -85 -73 -228c-8 -44 -15 -90 -24 -141z" />
    <glyph glyph-name="infinity" unicode="&#x221e;" horiz-adv-x="1014" 
d="M746 283c62 89 143 169 190 169c40 0 56 -65 30 -182c-11 -48 -27 -112 -36 -150c-5 -20 -14 -28 -12 -30c5 -3 36 34 53 57c11 14 58 5 41 -24c-17 -31 -37 -59 -64 -85c-32 -30 -65 -51 -85 -51c-30 0 -43 21 -43 51c0 22 7 55 17 99c11 41 22 89 32 131
c6 22 9 40 9 53c0 8 5 13 1 13c-21 0 -126 -115 -147 -178c-9 -27 -15 -65 -28 -134c-2 -11 -26 -25 -51 -30c-10 -2 -20 -3 -28 -2c-19 0 -26 13 -25 20l61 354c11 61 21 112 36 160c-8 -4 -15 -8 -22 -10c-17 -7 -44 -16 -114 -16h-99v-336c0 -103 -1 -115 74 -121
c6 -2 15 -13 15 -25c-1 -14 -10 -23 -23 -21c-27 3 -77 5 -114 5c-52 0 -98 0 -135 -5c-14 -2 -24 8 -23 24c1 13 14 22 19 23h-2c70 7 73 13 73 120v336h-173c-32 0 -56 -26 -56 -53c0 -13 5 -29 34 -40c5 -2 14 -28 3 -52c-8 -18 -26 -40 -57 -40c-41 0 -79 34 -79 83
c0 54 43 104 103 156c33 29 78 54 126 54c51 0 247 -3 335 -3c125 0 141 6 185 55c46 51 123 97 179 97c38 0 66 -26 66 -59c0 -31 -18 -50 -36 -59c-23 -11 -47 -6 -49 -3c-15 15 -37 26 -61 26c-7 0 -18 -4 -24 -8c-28 -16 -49 -85 -72 -227c-7 -45 -15 -91 -24 -142z" />
    <glyph glyph-name="lessequal" unicode="&#x2264;" horiz-adv-x="728" 
d="M362 534c-119 0 -217 -98 -217 -254c0 -162 103 -240 209 -240c121 0 219 98 219 253c0 162 -104 241 -211 241zM570 -168c-93 0 -175 46 -276 146c-164 11 -270 143 -270 272c0 189 171 347 378 347c174 0 293 -138 293 -273c0 -152 -113 -284 -263 -330
c62 -57 131 -93 189 -93c37 0 67 6 95 17c7 3 22 -1 26 -14c5 -12 1 -24 -8 -28c-46 -23 -94 -44 -164 -44z" />
    <glyph glyph-name="greaterequal" unicode="&#x2265;" horiz-adv-x="335" 
d="M244 312c-26 1 -51 10 -73 18c-11 4 -22 9 -32 12s-18 5 -23 5c-15 0 -17 -6 -17 -12s4 -21 29 -31c6 -2 15 -25 4 -46c-7 -15 -23 -33 -49 -33c-36 0 -56 31 -56 66c0 26 10 59 34 89c32 38 65 53 102 53c28 0 51 -8 71 -16c9 -3 19 -7 28 -9c9 -3 18 -5 27 -5
c27 0 51 13 65 30c4 6 21 8 33 -2c11 -10 13 -25 8 -31c-63 -72 -197 -228 -270 -311c44 -11 84 -34 121 -63c22 -18 43 -38 65 -59c21 -21 42 -43 64 -66c97 -101 150 -136 200 -136c39 0 63 25 63 48c0 14 -13 30 -39 34c-5 1 -19 24 -10 49c7 18 24 37 56 37
c37 0 71 -33 71 -77c0 -35 -19 -81 -50 -112c-32 -32 -74 -48 -120 -48c-65 0 -138 31 -204 101c-155 163 -208 213 -279 213c-21 0 -35 -6 -53 -29c-20 -28 -49 9 -43 23c19 42 48 74 82 86c68 73 133 148 195 222z" />
    <glyph glyph-name="partialdiff" unicode="&#x2202;" horiz-adv-x="381" 
d="M216 357c-52 0 -102 -105 -102 -216c0 -46 15 -52 22 -52c11 0 60 38 91 81l33 175c-12 7 -28 12 -44 12zM217 77c-45 -49 -95 -90 -114 -90c-53 0 -97 50 -97 132c0 116 77 225 165 286c40 27 65 38 90 38c5 0 10 0 15 -1c19 99 42 172 79 215c47 54 111 98 160 98
c42 0 70 -25 70 -57c0 -27 -16 -44 -31 -54c-21 -13 -45 -8 -47 -5l2 -3c-18 16 -37 24 -56 24c-7 0 -17 -3 -23 -7c-11 -7 -20 -17 -29 -51c-10 -35 -20 -89 -36 -180c-24 -130 -47 -267 -54 -307c-1 -6 -2 -12 -3 -16c12 10 32 31 45 47c22 26 49 -9 40 -25
c-40 -70 -101 -134 -139 -134c-20 0 -41 19 -37 90z" />
    <glyph glyph-name="summation" unicode="&#x2211;" 
d="M199 356c-26 0 -82 -65 -82 -179c0 -91 34 -123 59 -123s83 63 83 178c0 91 -35 124 -60 124zM452 -286c-92 0 -151 27 -199 75c-23 24 -44 52 -66 85c-20 30 -41 65 -66 103c-56 7 -107 74 -107 178c0 90 46 177 123 232c36 26 76 46 105 46c61 0 119 -68 119 -179
c0 -90 -46 -178 -125 -232c-6 -4 -12 -9 -19 -13c20 -29 40 -58 59 -85c22 -31 44 -58 68 -81c47 -46 100 -74 174 -74c8 0 17 0 26 1c22 2 22 -44 7 -46c-35 -6 -68 -10 -99 -10z" />
    <glyph glyph-name="product" unicode="&#x220f;" horiz-adv-x="380" 
d="M253 353c-20 0 -73 -36 -91 -66c-2 -3 -3 -11 -5 -22c-2 -9 -4 -18 -5 -29c84 23 116 65 116 91c0 22 -11 26 -15 26zM-10 -11c-9 -2 -21 5 -24 18s6 26 11 27c33 9 48 28 56 84l38 245c23 148 45 233 97 294c47 55 124 98 180 98c40 0 65 -27 65 -60
c0 -29 -16 -48 -33 -58c-21 -14 -44 -9 -48 -6l2 -1c-20 17 -42 27 -66 27c-8 0 -19 -3 -24 -7c-28 -17 -43 -82 -63 -224c-2 -17 -5 -35 -8 -56c58 50 106 81 126 81c32 0 76 -32 76 -89c0 -74 -54 -121 -138 -153c18 -41 55 -121 68 -121c14 0 37 18 61 39
c15 13 44 -14 36 -27c-45 -74 -89 -124 -117 -124c-24 0 -96 102 -141 204h-2c-6 -31 -12 -64 -16 -86c-8 -39 -7 -40 36 -40c4 0 17 -9 19 -22c2 -14 -8 -25 -17 -25c-20 -1 -61 -4 -93 -7c-28 -3 -50 -6 -81 -11z" />
    <glyph glyph-name="pi" unicode="&#x3c0;" horiz-adv-x="412" 
d="M264 337c-25 0 -66 -51 -94 -93l-29 -162c21 -16 44 -23 71 -23c35 0 83 78 83 179c0 66 -8 99 -31 99zM180 344c42 51 94 98 110 98c70 0 109 -95 109 -177c0 -90 -63 -194 -134 -247c-37 -28 -66 -42 -107 -42c-9 0 -21 2 -33 5c-22 -100 -49 -156 -94 -203
c-59 -62 -114 -86 -168 -86c-40 0 -81 21 -81 64c0 27 15 45 30 54c20 13 43 9 46 6c21 -21 47 -33 76 -33c23 0 42 13 58 49c19 43 31 118 42 193l-23 16l36 66c12 75 18 120 21 138c4 20 6 37 8 52c-12 -7 -25 -14 -39 -21c-25 -11 -45 32 -28 43c53 36 83 74 105 129
c7 18 28 27 49 32c8 1 17 2 24 0c15 -3 19 -14 16 -23c-7 -30 -14 -67 -23 -113z" />
    <glyph glyph-name="integral" unicode="&#x222b;" horiz-adv-x="395" 
d="M242 347c-25 0 -65 -51 -93 -92l-26 -140c-3 -15 35 -49 63 -49c32 0 87 69 87 184c0 64 -8 97 -31 97zM321 634c-17 17 -34 26 -52 26c-8 0 -18 -4 -24 -8c-28 -17 -49 -85 -73 -228c-4 -21 -8 -43 -11 -65c37 48 85 94 108 94c69 0 108 -96 108 -177
c0 -90 -63 -193 -134 -246c-37 -28 -65 -43 -105 -43c-58 0 -126 62 -116 122l44 255c27 155 52 235 103 293c47 55 119 98 172 98c41 0 67 -29 67 -62c0 -53 -68 -79 -87 -59z" />
    <glyph glyph-name="Omega" unicode="&#x2126;" horiz-adv-x="490" 
d="M334 419c14 70 28 120 48 161c-25 21 -51 36 -71 36c-47 0 -72 -27 -101 -197c30 0 76 -1 124 0zM152 -204h-1c90 41 101 59 118 200c17 143 34 257 53 359h-122c-8 -54 -12 -83 -20 -156c-27 -225 -57 -321 -122 -389c-60 -63 -109 -84 -163 -84s-111 33 -111 83
c0 31 17 50 34 61c23 13 47 6 52 0c24 -37 60 -59 86 -59c25 0 45 16 62 55c19 44 31 123 42 205l33 241c2 15 4 29 6 43c-40 0 -65 -1 -67 -1c-16 -3 -26 10 -22 29c3 13 16 24 20 24c31 2 58 4 81 9c21 89 50 150 89 195c47 54 115 98 185 98c29 0 53 -11 69 -28
c45 43 104 75 163 75c52 0 91 -37 91 -78c0 -29 -18 -47 -34 -58c-22 -14 -47 -9 -50 -6c-23 27 -56 49 -81 49c-48 0 -67 -26 -107 -240c0 -1 -1 -3 -1 -4c47 1 79 2 85 3c11 3 26 -12 23 -33c-2 -18 -14 -32 -25 -33c-10 -1 -55 -1 -93 -1c-25 -143 -52 -317 -67 -451
c-6 -55 0 -69 63 -66c14 -7 18 -45 -1 -47c-24 -2 -104 -12 -132 -16c-43 -7 -88 -16 -120 -24c-12 -3 -23 5 -26 18s5 25 10 27z" />
    <glyph glyph-name="radical" unicode="&#x221a;" horiz-adv-x="679" 
d="M311 615c-47 0 -72 -27 -101 -197h123c12 65 29 117 51 159c-24 22 -52 38 -73 38zM529 634c-37 0 -62 -21 -94 -216c43 0 84 -1 115 0c16 77 30 135 55 181c-25 24 -48 35 -76 35zM152 -205h-1c90 41 100 59 118 200c18 143 34 256 52 357c-36 1 -80 1 -121 1
c-8 -53 -12 -82 -20 -154c-27 -226 -57 -320 -122 -390c-58 -62 -109 -83 -163 -83s-111 31 -111 83c0 31 16 50 34 61c22 12 47 6 51 -1c26 -37 61 -58 88 -58c24 0 44 15 61 54c19 44 31 123 42 205l33 241l6 42h-43h-24c-16 -3 -26 10 -22 29c3 13 16 24 20 24
c31 2 58 4 81 8c21 90 50 151 89 196c47 54 115 98 185 98c34 0 61 -15 76 -36c40 34 87 57 130 57c34 0 68 -15 85 -40c41 36 87 63 125 63s76 -24 76 -62c0 -30 -19 -48 -37 -59c-23 -13 -48 -9 -50 -6c-13 13 -32 22 -52 22c-5 0 -17 -4 -23 -7c-31 -19 -40 -60 -70 -225
c-22 -120 -38 -224 -50 -302c-2 -12 -4 -21 -5 -28c11 9 31 35 44 52c11 17 52 2 42 -21c-14 -34 -37 -61 -61 -87c-29 -31 -62 -52 -84 -52c-30 0 -43 21 -43 51c0 33 22 176 50 324h-114c-26 -143 -51 -316 -66 -449c-6 -55 0 -68 60 -65c5 0 18 -8 20 -22s-8 -25 -17 -26
c-26 -1 -103 -12 -133 -16c-43 -7 -88 -15 -120 -24c-11 -4 -23 4 -26 18c-3 13 5 25 10 27z" />
    <glyph glyph-name="approxequal" unicode="&#x2248;" horiz-adv-x="683" 
d="M311 615c-47 0 -72 -27 -101 -197h125c14 72 28 121 47 160c-22 21 -51 37 -71 37zM152 -205h-1c90 41 101 59 118 200c15 129 35 258 53 357c-37 0 -81 1 -122 1c-8 -53 -12 -83 -20 -155c-27 -225 -57 -321 -122 -389c-59 -62 -109 -84 -163 -84s-111 33 -111 84
c0 30 16 50 34 60c22 13 47 7 51 0c26 -37 61 -58 88 -58c24 0 44 15 61 54c19 44 31 123 42 205l33 241l6 42h-43h-24c-16 -3 -26 10 -22 29c3 13 16 24 20 24c31 2 58 4 81 9c21 90 49 149 89 195c46 54 115 98 185 98c30 0 55 -12 71 -30c47 43 108 76 168 76
c54 0 107 -36 107 -87c0 -33 -18 -54 -36 -66c-24 -16 -51 -11 -52 -9c-27 38 -59 71 -95 71c-29 0 -70 -17 -109 -221c-2 -8 -3 -16 -5 -24c46 0 88 -1 122 0c28 16 58 29 77 29s35 -23 22 -75c-21 -82 -45 -184 -60 -258c-2 -11 -4 -19 -5 -26c12 12 32 38 47 53
c8 8 56 4 40 -25c-17 -31 -39 -57 -67 -83s-64 -54 -93 -54c-23 0 -40 24 -29 87c13 68 42 207 60 286h-124c-26 -143 -52 -322 -66 -449c-6 -55 0 -68 60 -65c5 0 18 -8 20 -22s-8 -25 -17 -26c-26 -1 -105 -12 -133 -16c-43 -7 -88 -16 -120 -24c-12 -3 -23 5 -26 18
s5 25 10 27z" />
    <glyph glyph-name="Delta" unicode="&#x2206;" horiz-adv-x="204" 
d="M4 30h-2c20 9 29 14 40 101c12 94 24 170 34 232c25 147 43 233 96 294c47 54 110 98 160 98c38 0 72 -25 72 -62c0 -50 -64 -72 -80 -56c-14 15 -29 23 -49 23c-7 0 -18 -4 -23 -6c-30 -20 -46 -69 -71 -232c-20 -127 -44 -281 -49 -327c-3 -26 6 -29 49 -27
c4 0 17 -8 20 -20c4 -14 -4 -26 -14 -27c-20 -3 -52 -10 -84 -15c-30 -6 -52 -11 -83 -19c-10 -3 -22 4 -26 17c-3 12 5 24 10 26z" />
    <glyph glyph-name="lozenge" unicode="&#x25ca;" horiz-adv-x="516" 
d="M49 101l-2 2c20 -16 47 -31 71 -31c23 0 37 12 37 33c0 19 -9 35 -49 67c-43 35 -69 72 -69 117c0 35 14 68 45 99l18 18c-21 22 -31 48 -31 75c0 65 80 148 165 148c34 0 74 -13 109 -27c18 -6 34 -13 49 -19c9 -4 18 -7 25 -10c21 26 49 43 76 43c25 0 41 -16 41 -38
c0 -30 -21 -57 -56 -72c-4 -14 -7 -27 -9 -37c-4 -17 -8 -36 -12 -55h36c17 1 30 2 38 4c13 2 27 -12 24 -34c-2 -16 -14 -31 -25 -32c-9 -1 -50 -1 -87 -1c-20 -99 -37 -198 -43 -233c-4 -21 -12 -27 -10 -28c5 -3 40 33 58 56c28 34 44 -22 41 -27
c-19 -30 -45 -59 -71 -82c-32 -30 -68 -50 -90 -50c-30 0 -49 35 -24 173c12 63 26 137 38 191h-25c-10 0 -18 0 -22 -1c-13 -3 -25 9 -22 27c2 13 13 24 17 25c22 4 45 8 64 14c6 24 15 57 22 82c-10 3 -21 6 -32 10c-17 7 -36 14 -55 21c-38 15 -74 26 -99 26
c-27 0 -41 -16 -41 -44c0 -21 12 -44 53 -66c48 -1 69 -36 69 -62c0 -24 -12 -40 -25 -49c-18 -12 -37 -7 -42 -4l2 -1c-22 18 -41 29 -64 29c-17 0 -25 -10 -25 -26c0 -22 12 -41 49 -70c53 -42 70 -74 70 -117c0 -37 -23 -78 -57 -108c-28 -25 -69 -50 -115 -50
c-48 0 -86 30 -86 65c0 24 14 40 28 47c19 11 38 6 43 2z" />
    <glyph glyph-name="apple" unicode="&#xf8ff;" horiz-adv-x="967" 
d="M367 58h-18c-10 0 -23 6 -23 22c0 11 9 21 22 21c11 0 19 -8 19 -19v-24zM405 42c-22 0 -27 21 -27 31c0 11 6 30 27 30c23 0 27 -20 27 -30c0 -9 -4 -31 -27 -31zM298 190h-23c-22 0 -30 18 -30 29s6 23 23 23c8 0 20 -3 24 -17zM389 166h-5c-27 0 -41 25 -41 45
c0 16 9 31 29 31h8c3 -1 4 -1 5 -2c2 0 5 -2 8 -4c2 -2 4 -5 6 -12l9 -35c0 -9 -2 -23 -19 -23zM553 102c15 0 25 -8 1 -54c-29 49 -9 54 -1 54zM194 526h-23c-22 0 -30 18 -30 29s6 23 23 23c8 0 20 -3 24 -16zM407 367h-26c-16 0 -28 11 -28 26c0 14 12 25 28 25h26v-51z
M265 527c-4 0 -19 1 -19 16c0 13 11 18 19 18c4 0 10 -1 29 -10c-15 -21 -23 -24 -29 -24zM705 165c-25 0 -40 29 -40 51c0 13 8 28 26 28c25 0 40 -30 40 -52c0 -14 -7 -27 -26 -27zM559 527c-4 0 -19 1 -19 16c0 13 11 18 19 18c4 0 10 -1 29 -10c-15 -21 -23 -24 -29 -24
zM673 501c-25 0 -40 29 -40 51c0 13 8 28 26 28c25 0 40 -30 40 -52c0 -14 -7 -27 -26 -27zM305 56l-5 5l-6 -6v2l13 -14s-19 4 -19 20v19c0 18 21 20 21 20l-14 -14l5 -5l5 5l-14 14s21 -2 21 -20v-23c-22 0 -26 3 -30 6l-8 8c-14 14 -6 25 8 28l-10 -13l7 -7l7 7l-11 13
s9 -2 15 -7l22 -19l-24 -23c-3 -3 -10 -7 -10 -7l6 11l-5 6l-6 -6l14 -13s-36 0 -15 27c1 0 1 1 2 2l8 8c4 4 8 6 30 6v-23c0 -20 -21 -20 -21 -20zM185 206c1 -14 4 -46 9 -116c-39 122 -39 129 -44 129c0 1 1 2 28 3c3 -5 5 -10 7 -16zM361 56l-5 6l-7 -7v2l15 -14
s-20 0 -20 19v19c0 22 20 21 20 21l-14 -14l14 -13h-13l3 -12l-7 -9c-9 -13 -21 -11 -21 -11l15 13l-14 14h2l4 5c5 6 9 10 34 10v-23c0 -19 -20 -19 -20 -19zM405 76c-3 0 -5 -1 -5 -3s1 -4 5 -4s5 2 5 4s-2 3 -5 3zM293 216l5 -25h9l-14 -19l-1 2l16 -9s-22 -4 -27 19
l-6 33h-7c-2 0 -5 2 -5 0s3 0 28 -3l-20 -34c-10 -18 -29 -15 -29 -15l15 17l-12 9h10l8 14c4 7 11 11 30 11zM462 62l-6 -6l14 -13s-20 -1 -20 20v12l11 15c8 13 18 12 18 12l-14 -15v2l8 -7l6 6l-13 14s32 1 13 -27l-19 -27l-18 26c-18 26 15 28 15 28l-14 -14l7 -6l6 6
l-14 14s13 0 20 -12l11 -15v-12c0 -21 -20 -20 -20 -20l14 13zM380 217h-8c-8 0 -10 -4 -10 -7c0 -11 10 -19 20 -19h32l-15 -18l-1 3l19 -10s-21 -8 -29 19l-8 30v2zM231 418v-43v-6v-43h-63v27h-11v-30h111v17l15 -14h-29v92h14v4h-111v-31h11v27h63zM553 102l9 -15v0
c8 17 21 15 21 15l-15 -15v2l8 -7l6 6l-10 13s22 -4 12 -25l-23 -45l-22 43l8 14c4 8 12 12 12 12l-7 -12l14 -13h-26l13 20l-13 7c6 0 15 -3 21 -13l7 -12l-25 -46l-21 45c-10 22 12 25 12 25l-10 -13l8 -7l7 7l-10 13s10 -2 16 -13v-2zM608 54l4 8l-9 8h30l-15 -15v2
l18 -14s-23 -6 -23 19v13h-9l10 7l-5 9l-19 -7s9 17 23 17h4c10 0 19 -2 19 -18v-24h-19c-22 0 -21 20 -21 20l14 -14l8 7l-8 8l-14 -14s0 20 21 20h19v-25c0 -15 -9 -17 -19 -17h-4c-16 0 -24 18 -24 18zM522 192v-1h1c-5 -7 -9 -13 -14 -19l-1 2l14 -9s-18 -2 -24 21
l-7 31c-6 29 24 26 24 26l-14 -18l12 -8h-6l-46 -64l-11 64v0c4 6 9 11 13 17l-12 9s20 1 24 -21l2 -12l32 44zM189 552l5 -25h9l-14 -19l-1 3l16 -10s-22 -4 -27 19l-6 33h-7c-2 0 -5 2 -5 0s3 0 28 -2l-20 -35c-10 -18 -29 -15 -29 -15l15 17l-12 9h10l8 14
c4 7 11 11 30 11zM694 56l-7 7l-8 -8v2l13 -14s-19 6 -19 19v19c0 9 14 19 14 19l-7 -12l14 -13h-3l-46 -48v54c0 16 19 21 19 21l-12 -14l7 -6l6 6l-12 14s14 -3 18 -14l29 31v-57c0 -14 -17 -19 -17 -19zM443 323v17l15 -14h-29v92h14v4h-81c-22 0 -32 -13 -32 -25
s9 -24 32 -24h45v-47h-15v-3h51zM565 230l3 4l-14 9s23 3 28 -20l4 -19c2 -9 7 -14 13 -14c5 0 5 3 4 5l-5 21c-7 34 26 27 26 27l-17 -19l-1 3l14 -10h-2l4 -14c3 -13 6 -37 -26 -37c-23 0 -32 19 -35 32l-4 19h-2l9 12zM287 545c9 -5 10 -11 10 -17c0 -15 -10 -28 -27 -28
c-11 0 -27 7 -27 23c0 10 8 17 18 17c3 0 6 0 9 -2h-4c0 -6 -6 -9 -11 -9c6 0 8 -6 8 -10c0 3 3 5 6 5c-1 0 1 1 1 2c6 0 10 0 10 4c0 1 -2 2 -4 2l-3 26c0 -1 -1 -2 -2 -3c0 1 -3 0 -6 0c0 1 0 4 2 4c-5 0 -10 3 -10 8c0 -3 -1 -11 -11 -11c2 -2 4 -3 4 -8c-1 0 -3 2 -4 4
c-2 3 -3 6 -3 10c0 15 15 19 22 19c19 0 25 -15 25 -26c0 -4 -1 -7 -3 -10zM691 219c-5 0 -8 -3 -8 -7c0 -12 11 -22 22 -22c5 0 8 2 8 6c0 12 -12 23 -22 23zM385 506c-12 9 -16 15 -17 25c-1 4 -1 10 -2 15c-2 9 -4 9 -8 9c0 1 0 5 2 5c-6 0 -10 4 -10 9
c0 -7 -3 -8 -11 -8c0 5 3 20 20 20c12 0 18 -8 20 -14c2 -5 3 -10 4 -15c1 -6 1 -13 37 -44c-41 0 -41 0 -43 -1l-2 -2c-1 -2 -2 -3 -4 -4c-2 -2 -7 -5 -14 -5c-9 0 -20 6 -20 18c0 6 2 10 4 12c0 -2 -1 -5 -2 -7c6 0 10 -4 10 -10c0 5 4 8 10 8c-1 0 0 2 0 3c2 0 3 0 3 1
l2 2l4 4c5 4 10 6 16 6l13 -8c0 -7 -5 -11 -12 -11c3 0 0 -4 0 -8zM511 422v-4h4l45 -54v-38h-14v-3h51v3c-15 14 -15 39 -15 39l45 53h6v4h-51v-4h24l-43 -64l-43 64h23v4h-32zM810 218l5 -27h8l-14 -19l-1 2l16 -9s-22 -4 -27 19l-6 33h-10v-3l-13 13l-13 -13s-3 28 28 28
h4c11 0 19 -7 21 -18l6 -32h-22c-20 0 -26 18 -26 18l12 -8l4 5v0h1h2l-1 -1l-14 -15s-1 27 23 27h17zM485 554l5 -27h8l-14 -19l-1 3l16 -10s-22 -4 -27 19l-6 33h-10v-3l-13 13l-13 -13s-3 28 28 28h4c11 0 19 -6 21 -18l6 -32h-22c-20 0 -26 18 -26 18l12 -8l4 5v0h1h2
l-1 -1l-14 -15s-1 27 23 27h17zM414 650l4 7l-9 8h30l-15 -15v2l18 -14s-23 -6 -23 19v13h-9l10 8l-5 8l-19 -7s9 17 23 17h4c10 0 19 -2 19 -17v-25h-19c-22 0 -21 20 -21 20l14 -14l8 7l-8 8l-14 -14s0 20 21 20h19v-25c0 -15 -9 -17 -19 -17h-4c-16 0 -24 18 -24 18z
M581 545c9 -5 10 -11 10 -17c0 -15 -10 -28 -27 -28c-11 0 -27 7 -27 23c0 10 8 17 18 17c3 0 6 0 9 -2h-4c0 -6 -6 -9 -11 -9c6 0 8 -6 8 -10c0 3 3 5 6 5c-1 0 1 1 1 2c6 0 10 0 10 4c0 1 -2 2 -4 2l-3 26c0 -1 -1 -2 -2 -3c0 1 -3 0 -6 0c0 1 0 4 2 4c-5 0 -10 3 -10 8
c0 -3 -1 -11 -11 -11c2 -2 4 -3 4 -8c-1 0 -3 2 -4 4c-2 3 -3 6 -3 10c0 15 15 19 22 19c19 0 25 -15 25 -26c0 -4 -1 -7 -3 -10zM779 323v3h-14v92h41v-27h6v31h-117v-31h6v27h41v-92h-14v-3h51zM500 652l-5 4l-6 -6v2l17 -14s-23 -4 -23 19v21c0 22 23 19 23 19l-16 -14
l5 -4l5 4l-17 14s23 5 23 -19v-24h-47v24c0 24 23 19 23 19l-17 -14l6 -5l5 5l-17 14s23 5 23 -19v-21c0 -19 -20 -19 -20 -19l14 13l-5 6l-6 -6l14 -13s-20 0 -20 19v24h47v-24c0 -25 -23 -19 -23 -19zM659 555c-5 0 -8 -3 -8 -7c0 -12 11 -22 22 -22c5 0 8 3 8 7
c0 11 -12 22 -22 22zM571 678l-13 9l-14 -13s0 6 -1 8l22 -10c-3 -1 -11 -2 -24 -2s-19 0 -23 2l12 8l-7 7l-13 -7s11 17 24 17c15 0 18 -12 18 -18v-22c0 -25 -23 -19 -23 -19l17 14l-5 5l-6 -5l17 -14s-23 -6 -23 19v22c0 10 8 18 18 18c16 0 24 -19 24 -19zM807 553
l6 -26h8l-14 -19l-1 3l16 -10s-22 -4 -27 19l-6 33h-8l13 17l-14 9s21 4 26 -19l6 -32h-54l-5 25h-9l13 17l-14 9s22 3 27 -19l6 -33h9l-13 -18l14 -8s-22 -4 -27 19l-6 33h54zM142 -42v-1h34l-22 -62h-21l-1 2l-1 -2h-22l-21 59l37 6v-2h17zM198 -42v-1h34l-22 -62h-21
l-1 2l-1 -2h-22l-21 59l37 6v-2h17zM254 -42v-1h34l-22 -62h-21l-1 2l-1 -2h-22l-21 59l37 6v-2h17zM280 -105c-10 0 -19 8 -19 18c0 8 5 19 19 19c10 0 19 -9 19 -19c0 -7 -5 -18 -19 -18zM290 -104v27h-12v34h60v-34h-27l15 15v-42h-36zM344 -41l3 -5l2 3h43l-26 -37v-24
h-36v23l-26 34zM398 -92v-12h-36v59c34 4 53 -3 53 -23c0 -13 -8 -20 -17 -24zM430 -105c-19 0 -32 15 -32 31c0 17 13 32 33 32c18 0 31 -16 31 -31c0 -17 -13 -32 -32 -32zM472 -79l13 -12h-24v33h45v-36c-12 -8 -19 -11 -28 -11c-17 0 -33 12 -33 31c0 18 15 32 34 32
c8 0 16 -4 30 -13l-15 -36l-16 15c0 2 2 2 3 2c-1 0 -2 1 -2 3c-4 -5 -6 -7 -7 -8zM565 -104h-46h-26v59c33 4 53 -2 53 -22c0 -4 -1 -8 -2 -11zM561 -104l-1 1l-1 -1h-39l28 62h22l30 -62h-39zM610 -92v-12h-36v59c34 4 53 -3 53 -23c0 -13 -8 -20 -17 -24zM613 -43h22h14
h22v-61h-36h-22v61zM682 -41l3 -5l2 3h43l-26 -37v-24h-36v23l-26 34zM712 -105c-10 0 -19 8 -19 18c0 8 5 19 19 19c10 0 19 -9 19 -19c0 -7 -5 -18 -19 -18zM778 -51l-7 -44c-10 -9 -19 -10 -24 -10c-19 0 -33 13 -33 31s15 32 33 32c6 0 13 -2 29 -12l-6 -16l-22 -4
l-3 -1c1 0 2 -1 2 -1c0 2 1 3 3 3c-1 0 -2 0 -2 2c1 0 1 1 30 20zM789 -105c-19 0 -32 15 -32 31c0 17 13 32 33 32c18 0 31 -16 31 -31c0 -17 -13 -32 -32 -32zM835 -42l4 -7l4 7h23l11 -62h-37l-5 32l4 -1l25 -3l-15 -29h-20l-1 1h-27l11 62h23zM883 -4h-797v754h797v-754
z" />
  </font>
</defs>
</svg>
